<svg id="Layer_1" data-name="Layer 1" xmlns="http://www.w3.org/2000/svg" viewBox="0 0 634 61"><defs><style>.cls-1{fill:#fff;}</style></defs><title>Footer_Assets_1</title><path class="cls-1" d="M38.77,35.9H26.42l-2.35,5.7H17.76L29.61,15h6.08L47.59,41.6H41.13Zm-1.94-4.68L32.62,21,28.4,31.22Z"/><path class="cls-1" d="M56.44,15H62.6V36.58H75.94v5H56.44Z"/><path class="cls-1" d="M88.52,20H80V15h23.18v5H94.68V41.6H88.52Z"/><path class="cls-1" d="M133.18,36.66V41.6h-20.6V15h20.1v4.94h-14v5.78h12.35V30.5H118.7v6.16Z"/><path class="cls-1" d="M161.11,41.6,156,34.19h-5.67V41.6h-6.15V15h11.51a14.85,14.85,0,0,1,6.14,1.18,8.83,8.83,0,0,1,5.42,8.48,8.68,8.68,0,0,1-5.48,8.4l6,8.55Zm-1.56-20.39a6.45,6.45,0,0,0-4.22-1.2h-5v9.27h5a6.4,6.4,0,0,0,4.22-1.21A4.23,4.23,0,0,0,161,24.65,4.22,4.22,0,0,0,159.55,21.21Z"/><path class="cls-1" d="M190.56,32.17V41.6H184.4V32.1L174.1,15h6.54l7.11,11.82L194.85,15h6.05Z"/><path class="cls-1" d="M225.18,41.6l-6.42-9.24-6.31,9.24h-7.07l9.85-13.53L205.88,15h7L219,23.62,225,15h6.65l-9.27,12.85,9.92,13.76Z"/><path class="cls-1" d="M263.89,40.27a13.23,13.23,0,0,1-5.21-4.93,13.47,13.47,0,0,1-1.88-7.05,13.26,13.26,0,0,1,7.09-12,16.52,16.52,0,0,1,14.92,0,13.48,13.48,0,0,1,5.2,4.93,13.29,13.29,0,0,1,1.9,7,13.35,13.35,0,0,1-7.1,12,16.52,16.52,0,0,1-14.92,0Zm11.72-4.54a7.78,7.78,0,0,0,3-3,8.89,8.89,0,0,0,1.08-4.41,8.88,8.88,0,0,0-1.08-4.4,7.69,7.69,0,0,0-3-3,8.85,8.85,0,0,0-8.51,0,7.66,7.66,0,0,0-3,3,9.45,9.45,0,0,0,0,8.81,7.75,7.75,0,0,0,3,3,8.92,8.92,0,0,0,8.51,0Z"/><path class="cls-1" d="M314.28,16.17a8.83,8.83,0,0,1,5.42,8.48,9.22,9.22,0,0,1-1.41,5.11,8.9,8.9,0,0,1-4,3.34,14.85,14.85,0,0,1-6.14,1.16h-5.35V41.6h-6.16V15h11.51A14.85,14.85,0,0,1,314.28,16.17ZM312,28.05a4.18,4.18,0,0,0,1.45-3.4A4.22,4.22,0,0,0,312,21.21,6.45,6.45,0,0,0,307.8,20h-5v9.24h5A6.45,6.45,0,0,0,312,28.05Z"/><path class="cls-1" d="M350.75,36.66V41.6h-20.6V15h20.1v4.94h-14v5.78h12.35V30.5H336.27v6.16Z"/><path class="cls-1" d="M386.13,15V41.6h-5.06L367.81,25.44V41.6h-6.08V15h5.09l13.23,16.16V15Z"/><path class="cls-1" d="M418,41.2A14.13,14.13,0,0,1,413.26,39l2.09-4.63a14.19,14.19,0,0,0,4.07,2,15.16,15.16,0,0,0,4.71.76,7.54,7.54,0,0,0,3.88-.78,2.34,2.34,0,0,0,1.25-2.07,2,2,0,0,0-.74-1.58,5.58,5.58,0,0,0-1.9-1c-.77-.26-1.82-.53-3.13-.84a43.16,43.16,0,0,1-5-1.44,8.18,8.18,0,0,1-3.33-2.32,6.27,6.27,0,0,1-1.38-4.26,7.4,7.4,0,0,1,1.25-4.2,8.54,8.54,0,0,1,3.78-3,15.53,15.53,0,0,1,6.18-1.1,20.33,20.33,0,0,1,5,.61,14.46,14.46,0,0,1,4.25,1.74l-1.9,4.68A14.86,14.86,0,0,0,425,19.48a7,7,0,0,0-3.82.83,2.58,2.58,0,0,0-1.24,2.21,2.15,2.15,0,0,0,1.43,2,21.88,21.88,0,0,0,4.35,1.31,42.93,42.93,0,0,1,5,1.45A8.28,8.28,0,0,1,434,29.59a6.13,6.13,0,0,1,1.38,4.22A7.26,7.26,0,0,1,434.11,38a8.54,8.54,0,0,1-3.82,3,15.47,15.47,0,0,1-6.19,1.1A21.71,21.71,0,0,1,418,41.2Z"/><path class="cls-1" d="M451.1,40.27a13.17,13.17,0,0,1-5.21-4.93A13.47,13.47,0,0,1,444,28.29a13.46,13.46,0,0,1,1.88-7,13.3,13.3,0,0,1,5.21-4.93,16.5,16.5,0,0,1,14.91,0,13.51,13.51,0,0,1,5.21,4.93,13.29,13.29,0,0,1,1.9,7,13.33,13.33,0,0,1-7.11,12,16.5,16.5,0,0,1-14.91,0Zm11.72-4.54a7.75,7.75,0,0,0,3-3,8.79,8.79,0,0,0,1.09-4.41,8.78,8.78,0,0,0-1.09-4.4,7.66,7.66,0,0,0-3-3,8.85,8.85,0,0,0-8.51,0,7.75,7.75,0,0,0-3,3,8.88,8.88,0,0,0-1.08,4.4,8.89,8.89,0,0,0,1.08,4.41,7.84,7.84,0,0,0,3,3,8.92,8.92,0,0,0,8.51,0Z"/><path class="cls-1" d="M486.78,38.9q-3.16-3.15-3.17-9V15h6.16V29.66q0,7.15,5.92,7.15a5.56,5.56,0,0,0,4.41-1.73c1-1.15,1.52-3,1.52-5.42V15h6.08v14.9q0,5.85-3.17,9t-8.87,3.15Q490,42.05,486.78,38.9Z"/><path class="cls-1" d="M536.81,41.6l-5.13-7.41H526V41.6h-6.16V15h11.52a14.88,14.88,0,0,1,6.14,1.18,8.8,8.8,0,0,1,5.41,8.48,8.66,8.66,0,0,1-5.47,8.4l6,8.55Zm-1.55-20.39A6.47,6.47,0,0,0,531,20h-5v9.27h5a6.42,6.42,0,0,0,4.22-1.21,4.23,4.23,0,0,0,1.44-3.42A4.22,4.22,0,0,0,535.26,21.21Z"/><path class="cls-1" d="M559.26,40.29a13.14,13.14,0,0,1-5.17-4.91,13.45,13.45,0,0,1-1.88-7.09,13.44,13.44,0,0,1,1.88-7.08,13.14,13.14,0,0,1,5.17-4.91,16.55,16.55,0,0,1,13.64-.55,12.48,12.48,0,0,1,4.69,3.5l-4,3.65A8.5,8.5,0,0,0,567,19.78a8.79,8.79,0,0,0-4.41,1.09,7.63,7.63,0,0,0-3,3,8.88,8.88,0,0,0-1.08,4.4,8.89,8.89,0,0,0,1.08,4.41,7.72,7.72,0,0,0,3,3A8.89,8.89,0,0,0,567,36.81a8.45,8.45,0,0,0,6.69-3.16l4,3.65a12.26,12.26,0,0,1-4.71,3.54,15.69,15.69,0,0,1-6.27,1.21A15.35,15.35,0,0,1,559.26,40.29Z"/><path class="cls-1" d="M608.41,36.66V41.6H587.82V15h20.1v4.94h-14v5.78h12.36V30.5H593.93v6.16Z"/></svg>