<?xml version="1.0" standalone="yes"?>

<svg version="1.1" viewBox="0.0 0.0 960.0 540.0" fill="none" stroke="none" stroke-linecap="square" stroke-miterlimit="10" xmlns="http://www.w3.org/2000/svg" xmlns:xlink="http://www.w3.org/1999/xlink"><clipPath id="g11690d04b9_2_1169.0"><path d="m0 0l960.0 0l0 540.0l-960.0 0l0 -540.0z" clip-rule="nonzero"></path></clipPath><g clip-path="url(#g11690d04b9_2_1169.0)"><path fill="#ffffff" d="m0 0l960.0 0l0 540.0l-960.0 0z" fill-rule="nonzero"></path><path fill="#000000" fill-opacity="0.0" d="m47.624672 251.74306l864.5039 0" fill-rule="nonzero"></path><path stroke="#595959" stroke-width="2.0" stroke-linejoin="round" stroke-linecap="butt" d="m47.624672 251.74304l852.5039 0" fill-rule="evenodd"></path><path fill="#595959" stroke="#595959" stroke-width="2.0" stroke-linecap="butt" d="m900.1286 255.04651l9.076233 -3.3034668l-9.076233 -3.3034515z" fill-rule="evenodd"></path><path fill="#efefef" d="m99.61347 251.73491l0 0c0 -11.58493 9.391441 -20.97638 20.976372 -20.97638l0 0c5.563286 0 10.898712 2.2100067 14.832535 6.1438446c3.933838 3.9338226 6.1438446 9.269257 6.1438446 14.832535l0 0c0 11.584946 -9.391449 20.976364 -20.97638 20.976364l0 0c-11.58493 0 -20.976372 -9.391418 -20.976372 -20.976364z" fill-rule="nonzero"></path><path stroke="#595959" stroke-width="1.0" stroke-linejoin="round" stroke-linecap="butt" d="m99.61347 251.73491l0 0c0 -11.58493 9.391441 -20.97638 20.976372 -20.97638l0 0c5.563286 0 10.898712 2.2100067 14.832535 6.1438446c3.933838 3.9338226 6.1438446 9.269257 6.1438446 14.832535l0 0c0 11.584946 -9.391449 20.976364 -20.97638 20.976364l0 0c-11.58493 0 -20.976372 -9.391418 -20.976372 -20.976364z" fill-rule="nonzero"></path><path fill="#000000" d="m122.48011 258.6549l-1.671875 0l0 -10.640625q-0.59375 0.578125 -1.578125 1.15625q-0.984375 0.5625 -1.765625 0.859375l0 -1.625q1.40625 -0.65625 2.453125 -1.59375q1.046875 -0.9375 1.484375 -1.8125l1.078125 0l0 13.65625z" fill-rule="nonzero"></path><path fill="#666666" d="m167.09282 251.73491l0 0c0 -11.58493 9.391449 -20.97638 20.97638 -20.97638l0 0c5.563278 0 10.898712 2.2100067 14.832535 6.1438446c3.933838 3.9338226 6.1438446 9.269257 6.1438446 14.832535l0 0c0 11.584946 -9.391449 20.976364 -20.97638 20.976364l0 0c-11.58493 0 -20.97638 -9.391418 -20.97638 -20.976364z" fill-rule="nonzero"></path><path stroke="#595959" stroke-width="1.0" stroke-linejoin="round" stroke-linecap="butt" d="m167.09282 251.73491l0 0c0 -11.58493 9.391449 -20.97638 20.97638 -20.97638l0 0c5.563278 0 10.898712 2.2100067 14.832535 6.1438446c3.933838 3.9338226 6.1438446 9.269257 6.1438446 14.832535l0 0c0 11.584946 -9.391449 20.976364 -20.97638 20.976364l0 0c-11.58493 0 -20.97638 -9.391418 -20.97638 -20.976364z" fill-rule="nonzero"></path><path fill="#ffffff" d="m192.44385 257.04553l0 1.609375l-8.984375 0q-0.015625 -0.609375 0.1875 -1.15625q0.34375 -0.921875 1.09375 -1.8125q0.765625 -0.890625 2.1875 -2.0625q2.21875 -1.8125 3.0 -2.875q0.78125 -1.0625 0.78125 -2.015625q0 -0.984375 -0.71875 -1.671875q-0.703125 -0.6875 -1.84375 -0.6875q-1.203125 0 -1.9375 0.734375q-0.71875 0.71875 -0.71875 2.0l-1.71875 -0.171875q0.171875 -1.921875 1.328125 -2.921875q1.15625 -1.015625 3.09375 -1.015625q1.953125 0 3.09375 1.09375q1.140625 1.078125 1.140625 2.6875q0 0.8125 -0.34375 1.609375q-0.328125 0.78125 -1.109375 1.65625q-0.765625 0.859375 -2.5625 2.390625q-1.5 1.265625 -1.9375 1.71875q-0.421875 0.4375 -0.703125 0.890625l6.671875 0z" fill-rule="nonzero"></path><path fill="#efefef" d="m279.22797 251.73491l0 0c0 -11.58493 9.391449 -20.97638 20.97638 -20.97638l0 0c5.5632935 0 10.898712 2.2100067 14.83255 6.1438446c3.933838 3.9338226 6.1438293 9.269257 6.1438293 14.832535l0 0c0 11.584946 -9.391449 20.976364 -20.97638 20.976364l0 0c-11.58493 0 -20.97638 -9.391418 -20.97638 -20.976364z" fill-rule="nonzero"></path><path stroke="#595959" stroke-width="1.0" stroke-linejoin="round" stroke-linecap="butt" d="m279.22797 251.73491l0 0c0 -11.58493 9.391449 -20.97638 20.97638 -20.97638l0 0c5.5632935 0 10.898712 2.2100067 14.83255 6.1438446c3.933838 3.9338226 6.1438293 9.269257 6.1438293 14.832535l0 0c0 11.584946 -9.391449 20.976364 -20.97638 20.976364l0 0c-11.58493 0 -20.97638 -9.391418 -20.97638 -20.976364z" fill-rule="nonzero"></path><path fill="#000000" d="m295.81335 255.06116l1.671875 -0.21875q0.28125 1.421875 0.96875 2.046875q0.703125 0.625 1.6875 0.625q1.1875 0 2.0 -0.8125q0.8125 -0.828125 0.8125 -2.03125q0 -1.140625 -0.765625 -1.890625q-0.75 -0.75 -1.90625 -0.75q-0.46875 0 -1.171875 0.1875l0.1875 -1.46875q0.15625 0.015625 0.265625 0.015625q1.0625 0 1.90625 -0.546875q0.859375 -0.5625 0.859375 -1.71875q0 -0.921875 -0.625 -1.515625q-0.609375 -0.609375 -1.59375 -0.609375q-0.96875 0 -1.625 0.609375q-0.640625 0.609375 -0.828125 1.84375l-1.671875 -0.296875q0.296875 -1.6875 1.375 -2.609375q1.09375 -0.921875 2.71875 -0.921875q1.109375 0 2.046875 0.484375q0.9375 0.46875 1.421875 1.296875q0.5 0.828125 0.5 1.75q0 0.890625 -0.46875 1.609375q-0.46875 0.71875 -1.40625 1.15625q1.21875 0.265625 1.875 1.15625q0.671875 0.875 0.671875 2.1875q0 1.78125 -1.296875 3.015625q-1.296875 1.234375 -3.28125 1.234375q-1.796875 0 -2.984375 -1.0625q-1.171875 -1.0625 -1.34375 -2.765625z" fill-rule="nonzero"></path><path fill="#666666" d="m417.30426 251.73491l0 0c0 -11.58493 9.391449 -20.97638 20.97638 -20.97638l0 0c5.563263 0 10.898682 2.2100067 14.83252 6.1438446c3.933838 3.9338226 6.14386 9.269257 6.14386 14.832535l0 0c0 11.584946 -9.391449 20.976364 -20.97638 20.976364l0 0c-11.58493 0 -20.97638 -9.391418 -20.97638 -20.976364z" fill-rule="nonzero"></path><path stroke="#595959" stroke-width="1.0" stroke-linejoin="round" stroke-linecap="butt" d="m417.30426 251.73491l0 0c0 -11.58493 9.391449 -20.97638 20.97638 -20.97638l0 0c5.563263 0 10.898682 2.2100067 14.83252 6.1438446c3.933838 3.9338226 6.14386 9.269257 6.14386 14.832535l0 0c0 11.584946 -9.391449 20.976364 -20.97638 20.976364l0 0c-11.58493 0 -20.97638 -9.391418 -20.97638 -20.976364z" fill-rule="nonzero"></path><path fill="#ffffff" d="m439.2334 258.6549l0 -3.25l-5.90625 0l0 -1.53125l6.21875 -8.8125l1.359375 0l0 8.8125l1.84375 0l0 1.53125l-1.84375 0l0 3.25l-1.671875 0zm0 -4.78125l0 -6.140625l-4.25 6.140625l4.25 0z" fill-rule="nonzero"></path><path fill="#efefef" d="m484.7836 251.73491l0 0c0 -11.58493 9.391449 -20.97638 20.97638 -20.97638l0 0c5.5632935 0 10.898712 2.2100067 14.83255 6.1438446c3.933838 3.9338226 6.14386 9.269257 6.14386 14.832535l0 0c0 11.584946 -9.3914795 20.976364 -20.97641 20.976364l0 0c-11.58493 0 -20.97638 -9.391418 -20.97638 -20.976364z" fill-rule="nonzero"></path><path stroke="#595959" stroke-width="1.0" stroke-linejoin="round" stroke-linecap="butt" d="m484.7836 251.73491l0 0c0 -11.58493 9.391449 -20.97638 20.97638 -20.97638l0 0c5.5632935 0 10.898712 2.2100067 14.83255 6.1438446c3.933838 3.9338226 6.14386 9.269257 6.14386 14.832535l0 0c0 11.584946 -9.3914795 20.976364 -20.97641 20.976364l0 0c-11.58493 0 -20.97638 -9.391418 -20.97638 -20.976364z" fill-rule="nonzero"></path><path fill="#000000" d="m501.35336 255.0924l1.765625 -0.15625q0.1875 1.28125 0.890625 1.9375q0.71875 0.640625 1.71875 0.640625q1.203125 0 2.03125 -0.90625q0.84375 -0.90625 0.84375 -2.421875q0 -1.421875 -0.8125 -2.25q-0.796875 -0.828125 -2.09375 -0.828125q-0.796875 0 -1.453125 0.375q-0.640625 0.359375 -1.015625 0.953125l-1.578125 -0.203125l1.328125 -7.0l6.765625 0l0 1.609375l-5.4375 0l-0.734375 3.640625q1.234375 -0.84375 2.578125 -0.84375q1.78125 0 3.0 1.234375q1.234375 1.234375 1.234375 3.171875q0 1.84375 -1.078125 3.1875q-1.3125 1.65625 -3.578125 1.65625q-1.859375 0 -3.03125 -1.03125q-1.171875 -1.046875 -1.34375 -2.765625z" fill-rule="nonzero"></path><path fill="#efefef" d="m552.26294 251.73491l0 0c0 -11.58493 9.3914795 -20.97638 20.97638 -20.97638l0 0c5.5632935 0 10.898743 2.2100067 14.832581 6.1438446c3.933838 3.9338226 6.143799 9.269257 6.143799 14.832535l0 0c0 11.584946 -9.391418 20.976364 -20.97638 20.976364l0 0c-11.5849 0 -20.97638 -9.391418 -20.97638 -20.976364z" fill-rule="nonzero"></path><path stroke="#595959" stroke-width="1.0" stroke-linejoin="round" stroke-linecap="butt" d="m552.26294 251.73491l0 0c0 -11.58493 9.3914795 -20.97638 20.97638 -20.97638l0 0c5.5632935 0 10.898743 2.2100067 14.832581 6.1438446c3.933838 3.9338226 6.143799 9.269257 6.143799 14.832535l0 0c0 11.584946 -9.391418 20.976364 -20.97638 20.976364l0 0c-11.5849 0 -20.97638 -9.391418 -20.97638 -20.976364z" fill-rule="nonzero"></path><path fill="#000000" d="m577.5046 248.38928l-1.65625 0.125q-0.21875 -0.984375 -0.640625 -1.421875q-0.671875 -0.71875 -1.65625 -0.71875q-0.8125 0 -1.40625 0.4375q-0.796875 0.578125 -1.25 1.6875q-0.453125 1.09375 -0.46875 3.140625q0.609375 -0.921875 1.46875 -1.359375q0.875 -0.453125 1.828125 -0.453125q1.671875 0 2.84375 1.234375q1.171875 1.234375 1.171875 3.171875q0 1.28125 -0.546875 2.390625q-0.546875 1.09375 -1.515625 1.6875q-0.96875 0.578125 -2.1875 0.578125q-2.09375 0 -3.40625 -1.53125q-1.3125 -1.546875 -1.3125 -5.0625q0 -3.953125 1.453125 -5.734375q1.265625 -1.5625 3.421875 -1.5625q1.609375 0 2.625 0.90625q1.03125 0.890625 1.234375 2.484375zm-6.8125 5.859375q0 0.859375 0.359375 1.65625q0.375 0.78125 1.03125 1.203125q0.65625 0.40625 1.375 0.40625q1.0625 0 1.8125 -0.84375q0.765625 -0.859375 0.765625 -2.328125q0 -1.40625 -0.75 -2.21875q-0.75 -0.8125 -1.890625 -0.8125q-1.125 0 -1.921875 0.8125q-0.78125 0.8125 -0.78125 2.125z" fill-rule="nonzero"></path><path fill="#efefef" d="m792.2925 251.73491l0 0c0 -11.58493 9.3914795 -20.97638 20.97638 -20.97638l0 0c5.5632935 0 10.898743 2.2100067 14.832581 6.1438446c3.9337769 3.9338226 6.143799 9.269257 6.143799 14.832535l0 0c0 11.584946 -9.391418 20.976364 -20.97638 20.976364l0 0c-11.5849 0 -20.97638 -9.391418 -20.97638 -20.976364z" fill-rule="nonzero"></path><path stroke="#595959" stroke-width="1.0" stroke-linejoin="round" stroke-linecap="butt" d="m792.2925 251.73491l0 0c0 -11.58493 9.3914795 -20.97638 20.97638 -20.97638l0 0c5.5632935 0 10.898743 2.2100067 14.832581 6.1438446c3.9337769 3.9338226 6.143799 9.269257 6.143799 14.832535l0 0c0 11.584946 -9.391418 20.976364 -20.97638 20.976364l0 0c-11.5849 0 -20.97638 -9.391418 -20.97638 -20.976364z" fill-rule="nonzero"></path><path fill="#000000" d="m811.44037 251.2799q-1.046875 -0.375 -1.546875 -1.078125q-0.5 -0.71875 -0.5 -1.703125q0 -1.484375 1.0625 -2.484375q1.078125 -1.015625 2.84375 -1.015625q1.78125 0 2.859375 1.03125q1.09375 1.03125 1.09375 2.515625q0 0.953125 -0.5 1.65625q-0.484375 0.703125 -1.5 1.078125q1.25 0.40625 1.90625 1.3125q0.65625 0.90625 0.65625 2.171875q0 1.75 -1.234375 2.9375q-1.234375 1.1875 -3.25 1.1875q-2.015625 0 -3.25 -1.1875q-1.234375 -1.203125 -1.234375 -2.984375q0 -1.328125 0.671875 -2.21875q0.671875 -0.890625 1.921875 -1.21875zm-0.328125 -2.828125q0 0.96875 0.609375 1.578125q0.625 0.609375 1.625 0.609375q0.953125 0 1.5625 -0.609375q0.625 -0.609375 0.625 -1.484375q0 -0.921875 -0.640625 -1.546875q-0.625 -0.625 -1.578125 -0.625q-0.953125 0 -1.578125 0.609375q-0.625 0.609375 -0.625 1.46875zm-0.546875 6.28125q0 0.71875 0.328125 1.390625q0.34375 0.65625 1.015625 1.03125q0.671875 0.359375 1.4375 0.359375q1.203125 0 1.984375 -0.765625q0.78125 -0.78125 0.78125 -1.96875q0 -1.203125 -0.8125 -1.984375q-0.796875 -0.796875 -2.0 -0.796875q-1.1875 0 -1.96875 0.78125q-0.765625 0.78125 -0.765625 1.953125z" fill-rule="nonzero"></path><path fill="#666666" d="m679.3374 251.73491l0 0c0 -11.58493 9.3914795 -20.97638 20.97638 -20.97638l0 0c5.5632935 0 10.898743 2.2100067 14.832581 6.1438446c3.933838 3.9338226 6.143799 9.269257 6.143799 14.832535l0 0c0 11.584946 -9.391418 20.976364 -20.97638 20.976364l0 0c-11.5849 0 -20.97638 -9.391418 -20.97638 -20.976364z" fill-rule="nonzero"></path><path stroke="#434343" stroke-width="1.0" stroke-linejoin="round" stroke-linecap="butt" d="m679.3374 251.73491l0 0c0 -11.58493 9.3914795 -20.97638 20.97638 -20.97638l0 0c5.5632935 0 10.898743 2.2100067 14.832581 6.1438446c3.933838 3.9338226 6.143799 9.269257 6.143799 14.832535l0 0c0 11.584946 -9.391418 20.976364 -20.97638 20.976364l0 0c-11.5849 0 -20.97638 -9.391418 -20.97638 -20.976364z" fill-rule="nonzero"></path><path fill="#ffffff" d="m696.03217 246.8424l0 -1.609375l8.796875 0l0 1.296875q-1.296875 1.375 -2.578125 3.671875q-1.265625 2.296875 -1.96875 4.71875q-0.5 1.703125 -0.640625 3.734375l-1.71875 0q0.03125 -1.609375 0.625 -3.875q0.609375 -2.28125 1.734375 -4.390625q1.140625 -2.109375 2.40625 -3.546875l-6.65625 0z" fill-rule="nonzero"></path><path fill="#000000" fill-opacity="0.0" d="m47.624672 267.67978l103.46456 0l0 33.51181l-103.46456 0z" fill-rule="nonzero"></path><path fill="#000000" d="m57.234047 281.94354l10.046875 0l0 3.21875l-0.921875 0q-0.203125 -0.796875 -0.40625 -1.25q-0.1875 -0.46875 -0.421875 -0.703125q-0.21875 -0.25 -0.46875 -0.34375q-0.25 -0.109375 -0.765625 -0.109375l-1.171875 0l0 9.5q0 0.546875 0.046875 0.875q0.0625 0.3125 0.1875 0.515625q0.125 0.1875 0.34375 0.296875q0.21875 0.09375 0.671875 0.203125l0 0.453125l-4.25 0l0 -0.453125q0.28125 -0.0625 0.5 -0.140625q0.21875 -0.078125 0.34375 -0.171875q0.140625 -0.109375 0.21875 -0.28125q0.09375 -0.171875 0.140625 -0.453125q0.0625 -0.296875 0.0625 -0.84375l0 -9.5l-1.171875 0q-0.4375 0 -0.71875 0.078125q-0.28125 0.078125 -0.53125 0.34375q-0.234375 0.265625 -0.4375 0.765625q-0.203125 0.484375 -0.375 1.21875l-0.921875 0l0 -3.21875zm13.996429 0.15625l0 1.796875l-1.703125 0l0 -1.796875l1.703125 0zm-2.640625 12.046875q0.359375 -0.109375 0.5 -0.1875q0.15625 -0.09375 0.265625 -0.234375q0.109375 -0.15625 0.171875 -0.453125q0.0625 -0.3125 0.0625 -0.96875l0 -4.046875q0 -0.59375 -0.03125 -0.953125q-0.015625 -0.359375 -0.125 -0.578125q-0.109375 -0.21875 -0.34375 -0.3125q-0.21875 -0.109375 -0.640625 -0.1875l0 -0.5l2.171875 -0.078125l0.5625 0l0 6.640625q0 0.796875 0.0625 1.109375q0.078125 0.296875 0.28125 0.46875q0.21875 0.15625 0.6875 0.28125l0 0.453125l-3.625 0l0 -0.453125zm7.683304 -6.984375l0.125 0.03125q0.5625 -0.546875 0.921875 -0.828125q0.359375 -0.296875 0.6875 -0.46875q0.328125 -0.171875 0.625 -0.234375q0.296875 -0.078125 0.59375 -0.078125q0.9375 0 1.515625 0.421875q0.59375 0.421875 0.8125 1.3125q0.6875 -0.703125 1.125 -1.03125q0.4375 -0.34375 0.875 -0.515625q0.453125 -0.1875 0.96875 -0.1875q0.625 0 1.078125 0.1875q0.453125 0.171875 0.765625 0.546875q0.3125 0.375 0.453125 0.953125q0.140625 0.5625 0.140625 1.515625l0 3.5q0 0.703125 0.046875 0.96875q0.046875 0.265625 0.125 0.421875q0.09375 0.140625 0.265625 0.25q0.1875 0.109375 0.59375 0.21875l0 0.453125l-3.640625 0l0 -0.453125q0.359375 -0.109375 0.515625 -0.1875q0.15625 -0.09375 0.265625 -0.234375q0.109375 -0.15625 0.171875 -0.46875q0.0625 -0.3125 0.0625 -0.9375l0 -2.4375q0 -0.78125 -0.046875 -1.296875q-0.046875 -0.515625 -0.140625 -0.8125q-0.078125 -0.3125 -0.203125 -0.484375q-0.125 -0.1875 -0.28125 -0.3125q-0.15625 -0.125 -0.375 -0.203125q-0.203125 -0.078125 -0.5625 -0.078125q-0.375 0 -0.703125 0.15625q-0.3125 0.140625 -0.6875 0.5q-0.375 0.34375 -0.546875 0.703125q-0.15625 0.359375 -0.15625 0.84375l0 3.390625q0 0.703125 0.046875 0.96875q0.046875 0.265625 0.125 0.421875q0.09375 0.140625 0.265625 0.25q0.1875 0.109375 0.59375 0.21875l0 0.453125l-3.640625 0l0 -0.453125q0.359375 -0.109375 0.515625 -0.1875q0.15625 -0.09375 0.265625 -0.234375q0.109375 -0.15625 0.171875 -0.46875q0.0625 -0.3125 0.0625 -0.9375l0 -2.4375q0 -0.8125 -0.046875 -1.328125q-0.046875 -0.53125 -0.15625 -0.84375q-0.09375 -0.3125 -0.25 -0.5q-0.140625 -0.203125 -0.296875 -0.296875q-0.15625 -0.109375 -0.375 -0.15625q-0.21875 -0.0625 -0.484375 -0.0625q-0.375 0 -0.71875 0.171875q-0.328125 0.171875 -0.6875 0.5q-0.34375 0.328125 -0.515625 0.6875q-0.171875 0.34375 -0.171875 0.75l0 3.484375q0 0.515625 0.015625 0.796875q0.03125 0.28125 0.09375 0.4375q0.0625 0.15625 0.15625 0.265625q0.09375 0.09375 0.265625 0.1875q0.171875 0.078125 0.515625 0.171875l0 0.453125l-3.640625 0l0 -0.453125q0.359375 -0.109375 0.5 -0.1875q0.15625 -0.09375 0.265625 -0.234375q0.125 -0.15625 0.171875 -0.453125q0.0625 -0.3125 0.0625 -0.96875l0 -4.046875q0 -0.59375 -0.03125 -0.953125q-0.015625 -0.359375 -0.125 -0.578125q-0.109375 -0.21875 -0.34375 -0.3125q-0.21875 -0.109375 -0.640625 -0.1875l0 -0.5l2.171875 -0.078125l0.5625 0l-0.09375 1.515625zm20.428833 5.859375q-0.59375 0.625 -1.09375 0.984375q-0.5 0.34375 -1.09375 0.546875q-0.59375 0.203125 -1.296875 0.203125q-1.921875 0 -2.890625 -1.140625q-0.96875 -1.15625 -0.96875 -3.390625q0 -1.390625 0.484375 -2.4375q0.5 -1.0625 1.421875 -1.640625q0.921875 -0.578125 2.109375 -0.578125q0.9375 0 1.59375 0.296875q0.671875 0.296875 1.0625 0.8125q0.390625 0.515625 0.609375 1.3125q0.21875 0.78125 0.25 2.03125l-5.84375 0l0 0.171875q0 1.09375 0.234375 1.84375q0.25 0.75 0.8125 1.171875q0.5625 0.421875 1.46875 0.421875q0.75 0 1.359375 -0.28125q0.609375 -0.296875 1.21875 -0.9375l0.5625 0.609375zm-1.5625 -3.765625q-0.046875 -1.0 -0.25 -1.625q-0.1875 -0.640625 -0.578125 -0.984375q-0.390625 -0.34375 -1.015625 -0.34375q-0.96875 0 -1.546875 0.765625q-0.5625 0.765625 -0.65625 2.1875l4.046875 0z" fill-rule="nonzero"></path><path fill="#000000" d="m116.020134 286.4748q1.234375 1.34375 2.125 2.046875q0.90625 0.703125 1.71875 1.046875l0 0.40625q-0.921875 0.453125 -1.796875 1.140625q-0.859375 0.6875 -2.046875 2.03125l-0.71875 0q0.875 -1.875 1.828125 -2.875l-14.796875 0l0 -0.9375l14.796875 0q-0.703125 -0.890625 -0.984375 -1.328125q-0.28125 -0.4375 -0.828125 -1.53125l0.703125 0z" fill-rule="nonzero"></path><path fill="#000000" fill-opacity="0.0" d="m540.80316 172.2126l0 121.32283" fill-rule="nonzero"></path><path stroke="#595959" stroke-width="2.0" stroke-linejoin="round" stroke-linecap="butt" stroke-dasharray="8.0,6.0" d="m540.80316 172.2126l0 121.32283" fill-rule="nonzero"></path><path fill="#000000" fill-opacity="0.0" d="m97.54068 227.3622l0 0c0 -8.158157 6.856674 -14.771652 15.314812 -14.771652l398.56723 0l0 0c8.45813 0 15.314819 6.613495 15.314819 14.771652z" fill-rule="nonzero"></path><path fill="#000000" fill-opacity="0.0" d="m97.54068 227.3622l0 0c0 -8.158157 6.856674 -14.771652 15.314812 -14.771652l398.56723 0l0 0c8.45813 0 15.314819 6.613495 15.314819 14.771652" fill-rule="nonzero"></path><path stroke="#595959" stroke-width="3.0" stroke-linejoin="round" stroke-linecap="butt" d="m97.54068 227.3622l0 0c0 -8.158157 6.856674 -14.771652 15.314812 -14.771652l398.56723 0l0 0c8.45813 0 15.314819 6.613495 15.314819 14.771652" fill-rule="nonzero"></path><path fill="#000000" fill-opacity="0.0" d="m213.60367 175.68242l197.07086 0l0 33.51181l-197.07086 0z" fill-rule="nonzero"></path><path fill="#000000" d="m254.16644 199.32367l2.046875 0q0.328125 0 0.546875 -0.03125q0.234375 -0.046875 0.390625 -0.125q0.171875 -0.09375 0.296875 -0.234375q0.125 -0.140625 0.234375 -0.375q0.125 -0.234375 0.234375 -0.59375q0.109375 -0.359375 0.265625 -1.0625l0.78125 0l-0.15625 3.140625l-7.015625 0l0 -0.390625q0.484375 -0.125 0.640625 -0.265625q0.171875 -0.15625 0.21875 -0.4375q0.046875 -0.28125 0.046875 -0.859375l0 -6.765625q0 -0.53125 -0.046875 -0.78125q-0.03125 -0.25 -0.125 -0.375q-0.078125 -0.140625 -0.234375 -0.21875q-0.140625 -0.09375 -0.5 -0.1875l0 -0.390625l3.28125 0l0 0.390625q-0.34375 0.09375 -0.484375 0.171875q-0.140625 0.0625 -0.234375 0.1875q-0.09375 0.125 -0.140625 0.390625q-0.046875 0.25 -0.046875 0.8125l0 8.0zm12.2578125 -0.609375q-0.5 0.515625 -0.921875 0.8125q-0.40625 0.296875 -0.90625 0.46875q-0.5 0.171875 -1.109375 0.171875q-1.609375 0 -2.4375 -0.96875q-0.8125 -0.96875 -0.8125 -2.84375q0 -1.171875 0.421875 -2.0625q0.421875 -0.890625 1.1875 -1.375q0.78125 -0.484375 1.78125 -0.484375q0.796875 0 1.34375 0.25q0.5625 0.25 0.890625 0.6875q0.328125 0.4375 0.515625 1.09375q0.1875 0.65625 0.203125 1.71875l-4.921875 0l0 0.140625q0 0.921875 0.203125 1.5625q0.21875 0.625 0.6875 0.984375q0.46875 0.34375 1.234375 0.34375q0.640625 0 1.140625 -0.234375q0.515625 -0.234375 1.03125 -0.78125l0.46875 0.515625zm-1.3125 -3.171875q-0.046875 -0.84375 -0.21875 -1.375q-0.15625 -0.546875 -0.484375 -0.828125q-0.328125 -0.28125 -0.859375 -0.28125q-0.796875 0 -1.28125 0.640625q-0.484375 0.640625 -0.5625 1.84375l3.40625 0zm7.3984375 3.375l-0.125 -0.03125q-0.671875 0.703125 -1.28125 1.0q-0.59375 0.28125 -1.265625 0.28125q-0.59375 0 -1.046875 -0.234375q-0.453125 -0.234375 -0.703125 -0.640625q-0.234375 -0.421875 -0.234375 -0.96875q0 -1.140625 1.125 -1.765625q1.140625 -0.625 3.390625 -0.71875l0 -0.515625q0 -0.8125 -0.15625 -1.28125q-0.15625 -0.46875 -0.5 -0.6875q-0.328125 -0.21875 -0.890625 -0.21875q-0.609375 0 -0.984375 0.328125q-0.359375 0.3125 -0.546875 0.953125l-1.03125 0l0 -1.015625q0.75 -0.390625 1.25 -0.5625q0.5 -0.1875 1.0 -0.296875q0.5 -0.109375 1.015625 -0.109375q0.78125 0 1.25 0.25q0.46875 0.25 0.703125 0.765625q0.234375 0.5 0.234375 1.515625l0 2.71875q0 0.578125 0 0.828125q0.015625 0.234375 0.046875 0.4375q0.046875 0.203125 0.125 0.328125q0.078125 0.109375 0.21875 0.203125q0.15625 0.078125 0.5 0.171875l0 0.390625l-2.140625 0l0.046875 -1.125zm-0.140625 -2.4375q-1.578125 0.015625 -2.375 0.421875q-0.78125 0.40625 -0.78125 1.21875q0 0.453125 0.171875 0.71875q0.1875 0.25 0.453125 0.34375q0.28125 0.09375 0.65625 0.09375q0.53125 0 0.953125 -0.25q0.4375 -0.265625 0.671875 -0.65625q0.25 -0.40625 0.25 -0.796875l0 -1.09375zm5.546875 -2.609375l0.109375 0.015625q0.421875 -0.515625 0.78125 -0.8125q0.375 -0.3125 0.796875 -0.46875q0.4375 -0.171875 0.96875 -0.171875q0.453125 0 0.828125 0.046875l0 1.796875l-0.890625 0q-0.1875 -0.421875 -0.40625 -0.609375q-0.203125 -0.1875 -0.5625 -0.1875q-0.28125 0 -0.5625 0.171875q-0.28125 0.15625 -0.546875 0.46875q-0.25 0.3125 -0.34375 0.59375q-0.09375 0.265625 -0.09375 0.640625l0 2.734375q0 0.703125 0.078125 0.984375q0.09375 0.265625 0.28125 0.390625q0.203125 0.125 0.609375 0.1875l0 0.390625l-3.15625 0l0 -0.390625q0.296875 -0.09375 0.421875 -0.15625q0.140625 -0.078125 0.234375 -0.203125q0.09375 -0.125 0.140625 -0.375q0.046875 -0.265625 0.046875 -0.8125l0 -3.40625q0 -0.5 -0.015625 -0.796875q-0.015625 -0.3125 -0.109375 -0.484375q-0.09375 -0.1875 -0.296875 -0.28125q-0.1875 -0.09375 -0.53125 -0.15625l0 -0.40625l1.828125 -0.078125l0.46875 0l-0.078125 1.375zm12.1171875 6.171875l-3.078125 0l0 -0.390625q0.296875 -0.09375 0.421875 -0.15625q0.140625 -0.078125 0.234375 -0.203125q0.09375 -0.125 0.140625 -0.375q0.046875 -0.265625 0.046875 -0.796875l0 -2.046875q0 -0.546875 -0.03125 -0.984375q-0.03125 -0.453125 -0.109375 -0.734375q-0.0625 -0.296875 -0.171875 -0.453125q-0.109375 -0.15625 -0.25 -0.265625q-0.140625 -0.125 -0.328125 -0.1875q-0.1875 -0.0625 -0.5 -0.0625q-0.296875 0 -0.578125 0.125q-0.265625 0.109375 -0.59375 0.40625q-0.328125 0.296875 -0.484375 0.59375q-0.140625 0.28125 -0.140625 0.65625l0 2.921875q0 0.671875 0.0625 0.9375q0.0625 0.25 0.234375 0.390625q0.171875 0.140625 0.578125 0.234375l0 0.390625l-3.0625 0l0 -0.390625q0.296875 -0.09375 0.421875 -0.15625q0.140625 -0.078125 0.21875 -0.203125q0.09375 -0.125 0.140625 -0.375q0.0625 -0.265625 0.0625 -0.8125l0 -3.40625q0 -0.5 -0.015625 -0.796875q-0.015625 -0.3125 -0.109375 -0.484375q-0.09375 -0.1875 -0.296875 -0.28125q-0.1875 -0.09375 -0.53125 -0.15625l0 -0.40625l1.828125 -0.078125l0.46875 0l-0.078125 1.28125l0.109375 0.03125q0.578125 -0.59375 0.921875 -0.84375q0.359375 -0.25 0.71875 -0.375q0.375 -0.140625 0.78125 -0.140625q0.421875 0 0.75 0.09375q0.328125 0.09375 0.578125 0.296875q0.265625 0.203125 0.421875 0.515625q0.171875 0.296875 0.25 0.71875q0.078125 0.421875 0.078125 1.0625l0 2.953125q0 0.53125 0.03125 0.78125q0.03125 0.234375 0.109375 0.375q0.078125 0.125 0.21875 0.21875q0.15625 0.09375 0.53125 0.1875l0 0.390625zm3.5546875 -10.53125l0 1.515625l-1.4375 0l0 -1.515625l1.4375 0zm-2.234375 10.140625q0.296875 -0.09375 0.421875 -0.15625q0.140625 -0.078125 0.21875 -0.203125q0.09375 -0.125 0.140625 -0.375q0.0625 -0.265625 0.0625 -0.8125l0 -3.40625q0 -0.5 -0.015625 -0.796875q-0.015625 -0.3125 -0.109375 -0.484375q-0.09375 -0.1875 -0.296875 -0.28125q-0.1875 -0.09375 -0.53125 -0.15625l0 -0.40625l1.8125 -0.078125l0.484375 0l0 5.59375q0 0.671875 0.0625 0.9375q0.0625 0.25 0.234375 0.390625q0.171875 0.140625 0.578125 0.234375l0 0.390625l-3.0625 0l0 -0.390625zm12.0546875 0.390625l-3.078125 0l0 -0.390625q0.296875 -0.09375 0.421875 -0.15625q0.140625 -0.078125 0.234375 -0.203125q0.09375 -0.125 0.140625 -0.375q0.046875 -0.265625 0.046875 -0.796875l0 -2.046875q0 -0.546875 -0.03125 -0.984375q-0.03125 -0.453125 -0.109375 -0.734375q-0.0625 -0.296875 -0.171875 -0.453125q-0.109375 -0.15625 -0.25 -0.265625q-0.140625 -0.125 -0.328125 -0.1875q-0.1875 -0.0625 -0.5 -0.0625q-0.296875 0 -0.578125 0.125q-0.265625 0.109375 -0.59375 0.40625q-0.328125 0.296875 -0.484375 0.59375q-0.140625 0.28125 -0.140625 0.65625l0 2.921875q0 0.671875 0.0625 0.9375q0.0625 0.25 0.234375 0.390625q0.171875 0.140625 0.578125 0.234375l0 0.390625l-3.0625 0l0 -0.390625q0.296875 -0.09375 0.421875 -0.15625q0.140625 -0.078125 0.21875 -0.203125q0.09375 -0.125 0.140625 -0.375q0.0625 -0.265625 0.0625 -0.8125l0 -3.40625q0 -0.5 -0.015625 -0.796875q-0.015625 -0.3125 -0.109375 -0.484375q-0.09375 -0.1875 -0.296875 -0.28125q-0.1875 -0.09375 -0.53125 -0.15625l0 -0.40625l1.828125 -0.078125l0.46875 0l-0.078125 1.28125l0.109375 0.03125q0.578125 -0.59375 0.921875 -0.84375q0.359375 -0.25 0.71875 -0.375q0.375 -0.140625 0.78125 -0.140625q0.421875 0 0.75 0.09375q0.328125 0.09375 0.578125 0.296875q0.265625 0.203125 0.421875 0.515625q0.171875 0.296875 0.25 0.71875q0.078125 0.421875 0.078125 1.0625l0 2.953125q0 0.53125 0.03125 0.78125q0.03125 0.234375 0.109375 0.375q0.078125 0.125 0.21875 0.21875q0.15625 0.09375 0.53125 0.1875l0 0.390625zm8.3203125 -6.6875l-1.4375 -0.046875l-0.078125 0.078125q0.25 0.25 0.390625 0.671875q0.140625 0.40625 0.140625 0.890625q0 1.28125 -0.796875 1.96875q-0.78125 0.6875 -2.21875 0.6875q-0.65625 0 -1.125 -0.15625q-0.59375 0.453125 -0.59375 0.890625q0 0.28125 0.109375 0.4375q0.125 0.140625 0.375 0.203125q0.265625 0.0625 0.796875 0.0625l1.875 0q0.828125 0 1.34375 0.265625q0.53125 0.25 0.75 0.6875q0.234375 0.4375 0.234375 1.015625q0 0.734375 -0.421875 1.3125q-0.421875 0.578125 -1.21875 0.890625q-0.796875 0.328125 -1.859375 0.328125q-0.796875 0 -1.453125 -0.09375q-0.640625 -0.09375 -1.109375 -0.328125q-0.46875 -0.21875 -0.71875 -0.578125q-0.25 -0.359375 -0.25 -0.90625q0 -0.5 0.328125 -0.90625q0.328125 -0.390625 0.921875 -0.703125q-0.359375 -0.15625 -0.578125 -0.4375q-0.203125 -0.296875 -0.203125 -0.6875q0 -0.4375 0.25 -0.8125q0.25 -0.375 0.875 -0.84375q-0.5625 -0.328125 -0.859375 -0.890625q-0.28125 -0.5625 -0.28125 -1.28125q0 -0.671875 0.21875 -1.171875q0.21875 -0.5 0.609375 -0.8125q0.40625 -0.328125 0.9375 -0.484375q0.546875 -0.171875 1.171875 -0.171875q0.5625 0 1.109375 0.140625l2.765625 0l0 0.78125zm-5.421875 1.59375q0 0.96875 0.390625 1.5q0.40625 0.53125 1.15625 0.53125q0.40625 0 0.6875 -0.140625q0.28125 -0.15625 0.453125 -0.421875q0.171875 -0.265625 0.25 -0.609375q0.09375 -0.359375 0.09375 -0.734375q0 -0.6875 -0.203125 -1.140625q-0.1875 -0.46875 -0.53125 -0.6875q-0.328125 -0.21875 -0.765625 -0.21875q-0.75 0 -1.140625 0.5q-0.390625 0.484375 -0.390625 1.421875zm0.203125 5.21875q-0.40625 0.296875 -0.609375 0.625q-0.1875 0.34375 -0.1875 0.765625q0 0.703125 0.546875 1.03125q0.5625 0.328125 1.71875 0.328125q0.703125 0 1.203125 -0.1875q0.5 -0.1875 0.765625 -0.546875q0.265625 -0.34375 0.265625 -0.8125q0 -0.21875 -0.0625 -0.421875q-0.046875 -0.203125 -0.203125 -0.375q-0.140625 -0.15625 -0.421875 -0.265625q-0.28125 -0.09375 -0.734375 -0.09375l-1.171875 0q-0.625 0 -1.109375 -0.046875zm14.8828125 -5.890625l-0.75 0q-0.171875 -0.46875 -0.40625 -0.734375q-0.234375 -0.265625 -0.53125 -0.375q-0.296875 -0.109375 -0.734375 -0.109375q-0.625 0 -1.0 0.296875q-0.359375 0.28125 -0.359375 0.796875q0 0.359375 0.140625 0.59375q0.15625 0.234375 0.46875 0.4375q0.3125 0.203125 1.09375 0.53125q0.796875 0.34375 1.234375 0.640625q0.4375 0.28125 0.671875 0.671875q0.25 0.375 0.25 0.90625q0 0.625 -0.21875 1.046875q-0.203125 0.421875 -0.59375 0.6875q-0.375 0.265625 -0.90625 0.375q-0.515625 0.125 -1.140625 0.125q-0.65625 0 -1.28125 -0.109375q-0.609375 -0.09375 -1.203125 -0.25l0 -1.625l0.765625 0q0.21875 0.71875 0.625 1.046875q0.421875 0.3125 1.140625 0.3125q0.28125 0 0.546875 -0.046875q0.28125 -0.0625 0.484375 -0.203125q0.21875 -0.140625 0.34375 -0.375q0.125 -0.234375 0.125 -0.578125q0 -0.40625 -0.15625 -0.65625q-0.15625 -0.25 -0.484375 -0.453125q-0.328125 -0.203125 -1.15625 -0.5625q-0.71875 -0.296875 -1.15625 -0.578125q-0.421875 -0.28125 -0.671875 -0.65625q-0.234375 -0.390625 -0.234375 -0.90625q0 -0.640625 0.34375 -1.109375q0.34375 -0.484375 1.0 -0.734375q0.65625 -0.25 1.546875 -0.25q0.515625 0 0.984375 0.0625q0.484375 0.046875 1.21875 0.1875l0 1.59375zm7.875 4.4375q-0.5 0.515625 -0.921875 0.8125q-0.40625 0.296875 -0.90625 0.46875q-0.5 0.171875 -1.109375 0.171875q-1.609375 0 -2.4375 -0.96875q-0.8125 -0.96875 -0.8125 -2.84375q0 -1.171875 0.421875 -2.0625q0.421875 -0.890625 1.1875 -1.375q0.78125 -0.484375 1.78125 -0.484375q0.796875 0 1.34375 0.25q0.5625 0.25 0.890625 0.6875q0.328125 0.4375 0.515625 1.09375q0.1875 0.65625 0.203125 1.71875l-4.921875 0l0 0.140625q0 0.921875 0.203125 1.5625q0.21875 0.625 0.6875 0.984375q0.46875 0.34375 1.234375 0.34375q0.640625 0 1.140625 -0.234375q0.515625 -0.234375 1.03125 -0.78125l0.46875 0.515625zm-1.3125 -3.171875q-0.046875 -0.84375 -0.21875 -1.375q-0.15625 -0.546875 -0.484375 -0.828125q-0.328125 -0.28125 -0.859375 -0.28125q-0.796875 0 -1.28125 0.640625q-0.484375 0.640625 -0.5625 1.84375l3.40625 0zm9.8828125 -2.1875l-1.4375 -0.046875l-0.078125 0.078125q0.25 0.25 0.390625 0.671875q0.140625 0.40625 0.140625 0.890625q0 1.28125 -0.796875 1.96875q-0.78125 0.6875 -2.21875 0.6875q-0.65625 0 -1.125 -0.15625q-0.59375 0.453125 -0.59375 0.890625q0 0.28125 0.109375 0.4375q0.125 0.140625 0.375 0.203125q0.265625 0.0625 0.796875 0.0625l1.875 0q0.828125 0 1.34375 0.265625q0.53125 0.25 0.75 0.6875q0.234375 0.4375 0.234375 1.015625q0 0.734375 -0.421875 1.3125q-0.421875 0.578125 -1.21875 0.890625q-0.796875 0.328125 -1.859375 0.328125q-0.796875 0 -1.453125 -0.09375q-0.640625 -0.09375 -1.109375 -0.328125q-0.46875 -0.21875 -0.71875 -0.578125q-0.25 -0.359375 -0.25 -0.90625q0 -0.5 0.328125 -0.90625q0.328125 -0.390625 0.921875 -0.703125q-0.359375 -0.15625 -0.578125 -0.4375q-0.203125 -0.296875 -0.203125 -0.6875q0 -0.4375 0.25 -0.8125q0.25 -0.375 0.875 -0.84375q-0.5625 -0.328125 -0.859375 -0.890625q-0.28125 -0.5625 -0.28125 -1.28125q0 -0.671875 0.21875 -1.171875q0.21875 -0.5 0.609375 -0.8125q0.40625 -0.328125 0.9375 -0.484375q0.546875 -0.171875 1.171875 -0.171875q0.5625 0 1.109375 0.140625l2.765625 0l0 0.78125zm-5.421875 1.59375q0 0.96875 0.390625 1.5q0.40625 0.53125 1.15625 0.53125q0.40625 0 0.6875 -0.140625q0.28125 -0.15625 0.453125 -0.421875q0.171875 -0.265625 0.25 -0.609375q0.09375 -0.359375 0.09375 -0.734375q0 -0.6875 -0.203125 -1.140625q-0.1875 -0.46875 -0.53125 -0.6875q-0.328125 -0.21875 -0.765625 -0.21875q-0.75 0 -1.140625 0.5q-0.390625 0.484375 -0.390625 1.421875zm0.203125 5.21875q-0.40625 0.296875 -0.609375 0.625q-0.1875 0.34375 -0.1875 0.765625q0 0.703125 0.546875 1.03125q0.5625 0.328125 1.71875 0.328125q0.703125 0 1.203125 -0.1875q0.5 -0.1875 0.765625 -0.546875q0.265625 -0.34375 0.265625 -0.8125q0 -0.21875 -0.0625 -0.421875q-0.046875 -0.203125 -0.203125 -0.375q-0.140625 -0.15625 -0.421875 -0.265625q-0.28125 -0.09375 -0.734375 -0.09375l-1.171875 0q-0.625 0 -1.109375 -0.046875zm8.234375 -6.390625l0.109375 0.03125q0.46875 -0.46875 0.765625 -0.703125q0.296875 -0.25 0.578125 -0.390625q0.28125 -0.140625 0.53125 -0.203125q0.25 -0.0625 0.5 -0.0625q0.78125 0 1.265625 0.359375q0.5 0.359375 0.6875 1.09375q0.59375 -0.59375 0.953125 -0.875q0.359375 -0.28125 0.734375 -0.421875q0.390625 -0.15625 0.828125 -0.15625q0.515625 0 0.890625 0.15625q0.390625 0.140625 0.640625 0.46875q0.265625 0.3125 0.390625 0.796875q0.125 0.46875 0.125 1.265625l0 2.953125q0 0.59375 0.03125 0.828125q0.046875 0.21875 0.109375 0.34375q0.078125 0.125 0.21875 0.21875q0.15625 0.078125 0.515625 0.171875l0 0.390625l-3.078125 0l0 -0.390625q0.3125 -0.09375 0.4375 -0.15625q0.140625 -0.078125 0.21875 -0.203125q0.09375 -0.125 0.140625 -0.375q0.0625 -0.265625 0.0625 -0.796875l0 -2.046875q0 -0.671875 -0.046875 -1.09375q-0.03125 -0.4375 -0.109375 -0.6875q-0.0625 -0.265625 -0.171875 -0.40625q-0.109375 -0.15625 -0.25 -0.265625q-0.125 -0.109375 -0.3125 -0.171875q-0.171875 -0.0625 -0.46875 -0.0625q-0.3125 0 -0.578125 0.125q-0.265625 0.125 -0.59375 0.421875q-0.3125 0.296875 -0.453125 0.59375q-0.140625 0.296875 -0.140625 0.703125l0 2.859375q0 0.59375 0.03125 0.828125q0.046875 0.21875 0.125 0.34375q0.078125 0.125 0.21875 0.21875q0.15625 0.078125 0.5 0.171875l0 0.390625l-3.0625 0l0 -0.390625q0.296875 -0.09375 0.421875 -0.15625q0.140625 -0.078125 0.234375 -0.203125q0.09375 -0.125 0.140625 -0.375q0.046875 -0.265625 0.046875 -0.796875l0 -2.046875q0 -0.703125 -0.046875 -1.140625q-0.03125 -0.4375 -0.109375 -0.703125q-0.078125 -0.265625 -0.21875 -0.421875q-0.125 -0.171875 -0.265625 -0.25q-0.125 -0.09375 -0.3125 -0.125q-0.171875 -0.046875 -0.390625 -0.046875q-0.328125 0 -0.609375 0.140625q-0.28125 0.140625 -0.578125 0.421875q-0.28125 0.265625 -0.4375 0.5625q-0.140625 0.296875 -0.140625 0.640625l0 2.9375q0 0.4375 0.015625 0.671875q0.03125 0.234375 0.078125 0.375q0.046875 0.125 0.125 0.21875q0.078125 0.078125 0.21875 0.15625q0.15625 0.0625 0.4375 0.140625l0 0.390625l-3.0625 0l0 -0.390625q0.296875 -0.09375 0.421875 -0.15625q0.140625 -0.078125 0.234375 -0.203125q0.09375 -0.125 0.140625 -0.375q0.046875 -0.265625 0.046875 -0.8125l0 -3.40625q0 -0.5 -0.015625 -0.796875q-0.015625 -0.3125 -0.109375 -0.484375q-0.09375 -0.1875 -0.296875 -0.28125q-0.1875 -0.09375 -0.53125 -0.15625l0 -0.40625l1.828125 -0.078125l0.46875 0l-0.078125 1.28125zm17.4375 4.9375q-0.5 0.515625 -0.921875 0.8125q-0.40625 0.296875 -0.90625 0.46875q-0.5 0.171875 -1.109375 0.171875q-1.609375 0 -2.4375 -0.96875q-0.8125 -0.96875 -0.8125 -2.84375q0 -1.171875 0.421875 -2.0625q0.421875 -0.890625 1.1875 -1.375q0.78125 -0.484375 1.78125 -0.484375q0.796875 0 1.34375 0.25q0.5625 0.25 0.890625 0.6875q0.328125 0.4375 0.515625 1.09375q0.1875 0.65625 0.203125 1.71875l-4.921875 0l0 0.140625q0 0.921875 0.203125 1.5625q0.21875 0.625 0.6875 0.984375q0.46875 0.34375 1.234375 0.34375q0.640625 0 1.140625 -0.234375q0.515625 -0.234375 1.03125 -0.78125l0.46875 0.515625zm-1.3125 -3.171875q-0.046875 -0.84375 -0.21875 -1.375q-0.15625 -0.546875 -0.484375 -0.828125q-0.328125 -0.28125 -0.859375 -0.28125q-0.796875 0 -1.28125 0.640625q-0.484375 0.640625 -0.5625 1.84375l3.40625 0zm10.4921875 4.5l-3.078125 0l0 -0.390625q0.296875 -0.09375 0.421875 -0.15625q0.140625 -0.078125 0.234375 -0.203125q0.09375 -0.125 0.140625 -0.375q0.046875 -0.265625 0.046875 -0.796875l0 -2.046875q0 -0.546875 -0.03125 -0.984375q-0.03125 -0.453125 -0.109375 -0.734375q-0.0625 -0.296875 -0.171875 -0.453125q-0.109375 -0.15625 -0.25 -0.265625q-0.140625 -0.125 -0.328125 -0.1875q-0.1875 -0.0625 -0.5 -0.0625q-0.296875 0 -0.578125 0.125q-0.265625 0.109375 -0.59375 0.40625q-0.328125 0.296875 -0.484375 0.59375q-0.140625 0.28125 -0.140625 0.65625l0 2.921875q0 0.671875 0.0625 0.9375q0.0625 0.25 0.234375 0.390625q0.171875 0.140625 0.578125 0.234375l0 0.390625l-3.0625 0l0 -0.390625q0.296875 -0.09375 0.421875 -0.15625q0.140625 -0.078125 0.21875 -0.203125q0.09375 -0.125 0.140625 -0.375q0.0625 -0.265625 0.0625 -0.8125l0 -3.40625q0 -0.5 -0.015625 -0.796875q-0.015625 -0.3125 -0.109375 -0.484375q-0.09375 -0.1875 -0.296875 -0.28125q-0.1875 -0.09375 -0.53125 -0.15625l0 -0.40625l1.828125 -0.078125l0.46875 0l-0.078125 1.28125l0.109375 0.03125q0.578125 -0.59375 0.921875 -0.84375q0.359375 -0.25 0.71875 -0.375q0.375 -0.140625 0.78125 -0.140625q0.421875 0 0.75 0.09375q0.328125 0.09375 0.578125 0.296875q0.265625 0.203125 0.421875 0.515625q0.171875 0.296875 0.25 0.71875q0.078125 0.421875 0.078125 1.0625l0 2.953125q0 0.53125 0.03125 0.78125q0.03125 0.234375 0.109375 0.375q0.078125 0.125 0.21875 0.21875q0.15625 0.09375 0.53125 0.1875l0 0.390625zm0.8515625 -7.078125q0.390625 -0.0625 0.625 -0.21875q0.25 -0.15625 0.375 -0.40625q0.140625 -0.25 0.21875 -0.609375q0.078125 -0.375 0.171875 -1.09375l1.109375 0l0 1.9375l2.515625 0l0 0.78125l-2.515625 0l0 3.484375q0 0.75 0.0625 1.203125q0.0625 0.453125 0.234375 0.703125q0.171875 0.25 0.390625 0.359375q0.21875 0.109375 0.5625 0.109375q0.3125 0 0.578125 -0.125q0.28125 -0.125 0.546875 -0.375l0.34375 0.421875q-0.546875 0.546875 -1.046875 0.796875q-0.5 0.234375 -1.03125 0.234375q-1.0 0 -1.5 -0.59375q-0.484375 -0.609375 -0.484375 -1.875l0 -4.34375l-1.15625 0l0 -0.390625z" fill-rule="nonzero"></path><path fill="#000000" fill-opacity="0.0" d="m552.2598 226.3307l0 0c0 -8.158157 6.8566895 -14.771652 15.314819 -14.771652l141.55939 0l0 0c8.45813 0 15.314758 6.613495 15.314758 14.771652z" fill-rule="nonzero"></path><path fill="#000000" fill-opacity="0.0" d="m552.2598 226.3307l0 0c0 -8.158157 6.8566895 -14.771652 15.314819 -14.771652l141.55939 0l0 0c8.45813 0 15.314758 6.613495 15.314758 14.771652" fill-rule="nonzero"></path><path stroke="#595959" stroke-width="3.0" stroke-linejoin="round" stroke-linecap="butt" d="m552.2598 226.3307l0 0c0 -8.158157 6.8566895 -14.771652 15.314819 -14.771652l141.55939 0l0 0c8.45813 0 15.314758 6.613495 15.314758 14.771652" fill-rule="nonzero"></path><path fill="#000000" fill-opacity="0.0" d="m547.6137 174.65092l181.48029 0l0 33.51181l-181.48029 0z" fill-rule="nonzero"></path><path fill="#000000" d="m576.5765 197.02655q0 0.46875 0.046875 0.75q0.046875 0.265625 0.15625 0.421875q0.109375 0.15625 0.28125 0.25q0.1875 0.09375 0.5625 0.171875l0 0.390625l-3.421875 0l0 -0.390625q0.484375 -0.125 0.640625 -0.265625q0.171875 -0.15625 0.21875 -0.4375q0.046875 -0.28125 0.046875 -0.859375l0 -6.765625q0 -0.53125 -0.046875 -0.78125q-0.03125 -0.25 -0.125 -0.375q-0.078125 -0.140625 -0.234375 -0.21875q-0.140625 -0.09375 -0.5 -0.1875l0 -0.390625l3.875 0q1.828125 0 2.71875 0.703125q0.890625 0.703125 0.890625 2.125q0 0.8125 -0.28125 1.46875q-0.28125 0.640625 -0.796875 1.0625q-0.515625 0.40625 -1.21875 0.59375q-0.703125 0.171875 -1.46875 0.171875q-0.875 0 -1.34375 -0.03125l0 2.59375zm0 -3.234375l0.90625 0q0.875 0 1.453125 -0.234375q0.578125 -0.234375 0.875 -0.765625q0.3125 -0.53125 0.3125 -1.421875q0 -0.671875 -0.1875 -1.109375q-0.171875 -0.453125 -0.5 -0.71875q-0.3125 -0.28125 -0.75 -0.390625q-0.4375 -0.125 -0.953125 -0.125q-0.765625 0 -1.15625 0.03125l0 4.734375zm8.6328125 -0.953125l0.109375 0.015625q0.421875 -0.515625 0.78125 -0.8125q0.375 -0.3125 0.796875 -0.46875q0.4375 -0.171875 0.96875 -0.171875q0.453125 0 0.828125 0.046875l0 1.796875l-0.890625 0q-0.1875 -0.421875 -0.40625 -0.609375q-0.203125 -0.1875 -0.5625 -0.1875q-0.28125 0 -0.5625 0.171875q-0.28125 0.15625 -0.546875 0.46875q-0.25 0.3125 -0.34375 0.59375q-0.09375 0.265625 -0.09375 0.640625l0 2.734375q0 0.703125 0.078125 0.984375q0.09375 0.265625 0.28125 0.390625q0.203125 0.125 0.609375 0.1875l0 0.390625l-3.15625 0l0 -0.390625q0.296875 -0.09375 0.421875 -0.15625q0.140625 -0.078125 0.234375 -0.203125q0.09375 -0.125 0.140625 -0.375q0.046875 -0.265625 0.046875 -0.8125l0 -3.40625q0 -0.5 -0.015625 -0.796875q-0.015625 -0.3125 -0.109375 -0.484375q-0.09375 -0.1875 -0.296875 -0.28125q-0.1875 -0.09375 -0.53125 -0.15625l0 -0.40625l1.828125 -0.078125l0.46875 0l-0.078125 1.375zm10.7421875 4.84375q-0.5 0.515625 -0.921875 0.8125q-0.40625 0.296875 -0.90625 0.46875q-0.5 0.171875 -1.109375 0.171875q-1.609375 0 -2.4375 -0.96875q-0.8125 -0.96875 -0.8125 -2.84375q0 -1.171875 0.421875 -2.0625q0.421875 -0.890625 1.1875 -1.375q0.78125 -0.484375 1.78125 -0.484375q0.796875 0 1.34375 0.25q0.5625 0.25 0.890625 0.6875q0.328125 0.4375 0.515625 1.09375q0.1875 0.65625 0.203125 1.71875l-4.921875 0l0 0.140625q0 0.921875 0.203125 1.5625q0.21875 0.625 0.6875 0.984375q0.46875 0.34375 1.234375 0.34375q0.640625 0 1.140625 -0.234375q0.515625 -0.234375 1.03125 -0.78125l0.46875 0.515625zm-1.3125 -3.171875q-0.046875 -0.84375 -0.21875 -1.375q-0.15625 -0.546875 -0.484375 -0.828125q-0.328125 -0.28125 -0.859375 -0.28125q-0.796875 0 -1.28125 0.640625q-0.484375 0.640625 -0.5625 1.84375l3.40625 0zm8.1484375 -4.0q0 -0.75 -0.015625 -1.046875q0 -0.296875 -0.0625 -0.5q-0.046875 -0.203125 -0.140625 -0.3125q-0.078125 -0.125 -0.234375 -0.1875q-0.15625 -0.078125 -0.546875 -0.15625l0 -0.40625l1.890625 -0.078125l0.453125 0l0 9.046875q0 0.609375 0.015625 0.875q0.03125 0.265625 0.109375 0.421875q0.078125 0.15625 0.25 0.25q0.171875 0.09375 0.59375 0.1875l0 0.40625l-1.84375 0.078125l-0.46875 0l0.09375 -1.28125l-0.125 -0.03125q-0.484375 0.515625 -0.859375 0.78125q-0.359375 0.265625 -0.765625 0.421875q-0.40625 0.15625 -0.875 0.15625q-1.28125 0 -1.984375 -0.96875q-0.6875 -0.984375 -0.6875 -2.8125q0 -1.28125 0.453125 -2.171875q0.453125 -0.90625 1.21875 -1.34375q0.765625 -0.4375 1.734375 -0.4375q0.515625 0 0.9375 0.09375q0.421875 0.078125 0.859375 0.265625l0 -1.25zm0 3.859375q0 -0.609375 -0.0625 -0.96875q-0.046875 -0.375 -0.171875 -0.625q-0.125 -0.25 -0.34375 -0.421875q-0.21875 -0.171875 -0.484375 -0.25q-0.265625 -0.078125 -0.625 -0.078125q-1.0 0 -1.53125 0.8125q-0.515625 0.796875 -0.515625 2.296875q0 1.5 0.421875 2.28125q0.4375 0.78125 1.3125 0.78125q0.34375 0 0.5625 -0.0625q0.234375 -0.0625 0.453125 -0.1875q0.21875 -0.125 0.4375 -0.34375q0.234375 -0.234375 0.328125 -0.421875q0.109375 -0.1875 0.15625 -0.421875q0.0625 -0.25 0.0625 -0.640625l0 -1.75zm5.84375 -5.890625l0 1.515625l-1.4375 0l0 -1.515625l1.4375 0zm-2.234375 10.140625q0.296875 -0.09375 0.421875 -0.15625q0.140625 -0.078125 0.21875 -0.203125q0.09375 -0.125 0.140625 -0.375q0.0625 -0.265625 0.0625 -0.8125l0 -3.40625q0 -0.5 -0.015625 -0.796875q-0.015625 -0.3125 -0.109375 -0.484375q-0.09375 -0.1875 -0.296875 -0.28125q-0.1875 -0.09375 -0.53125 -0.15625l0 -0.40625l1.8125 -0.078125l0.484375 0l0 5.59375q0 0.671875 0.0625 0.9375q0.0625 0.25 0.234375 0.390625q0.171875 0.140625 0.578125 0.234375l0 0.390625l-3.0625 0l0 -0.390625zm10.2578125 -6.90625l0 1.640625l-0.984375 0q-0.140625 -0.515625 -0.34375 -0.796875q-0.1875 -0.296875 -0.453125 -0.40625q-0.25 -0.125 -0.625 -0.125q-0.546875 0 -0.96875 0.359375q-0.421875 0.34375 -0.671875 1.0625q-0.25 0.71875 -0.25 1.75q0 0.671875 0.09375 1.21875q0.09375 0.546875 0.3125 0.9375q0.234375 0.390625 0.609375 0.609375q0.375 0.21875 0.9375 0.21875q0.53125 0 1.0 -0.203125q0.46875 -0.21875 0.96875 -0.75l0.4375 0.515625q-0.390625 0.4375 -0.703125 0.6875q-0.296875 0.234375 -0.65625 0.390625q-0.34375 0.15625 -0.6875 0.234375q-0.328125 0.078125 -0.734375 0.078125q-1.46875 0 -2.25 -0.984375q-0.78125 -0.984375 -0.78125 -2.828125q0 -1.15625 0.4375 -2.046875q0.4375 -0.90625 1.21875 -1.390625q0.796875 -0.484375 1.828125 -0.484375q0.640625 0 1.171875 0.078125q0.546875 0.078125 1.09375 0.234375zm0.7734375 0.21875q0.390625 -0.0625 0.625 -0.21875q0.25 -0.15625 0.375 -0.40625q0.140625 -0.25 0.21875 -0.609375q0.078125 -0.375 0.171875 -1.09375l1.109375 0l0 1.9375l2.515625 0l0 0.78125l-2.515625 0l0 3.484375q0 0.75 0.0625 1.203125q0.0625 0.453125 0.234375 0.703125q0.171875 0.25 0.390625 0.359375q0.21875 0.109375 0.5625 0.109375q0.3125 0 0.578125 -0.125q0.28125 -0.125 0.546875 -0.375l0.34375 0.421875q-0.546875 0.546875 -1.046875 0.796875q-0.5 0.234375 -1.03125 0.234375q-1.0 0 -1.5 -0.59375q-0.484375 -0.609375 -0.484375 -1.875l0 -4.34375l-1.15625 0l0 -0.390625zm8.1171875 -3.453125l0 1.515625l-1.4375 0l0 -1.515625l1.4375 0zm-2.234375 10.140625q0.296875 -0.09375 0.421875 -0.15625q0.140625 -0.078125 0.21875 -0.203125q0.09375 -0.125 0.140625 -0.375q0.0625 -0.265625 0.0625 -0.8125l0 -3.40625q0 -0.5 -0.015625 -0.796875q-0.015625 -0.3125 -0.109375 -0.484375q-0.09375 -0.1875 -0.296875 -0.28125q-0.1875 -0.09375 -0.53125 -0.15625l0 -0.40625l1.8125 -0.078125l0.484375 0l0 5.59375q0 0.671875 0.0625 0.9375q0.0625 0.25 0.234375 0.390625q0.171875 0.140625 0.578125 0.234375l0 0.390625l-3.0625 0l0 -0.390625zm7.8359375 0.515625q-1.625 0 -2.484375 -0.953125q-0.84375 -0.96875 -0.84375 -2.84375q0 -1.28125 0.4375 -2.171875q0.453125 -0.890625 1.234375 -1.328125q0.78125 -0.4375 1.78125 -0.4375q1.671875 0 2.53125 0.984375q0.859375 0.96875 0.859375 2.78125q0 1.296875 -0.4375 2.1875q-0.421875 0.890625 -1.21875 1.34375q-0.78125 0.4375 -1.859375 0.4375zm-1.859375 -3.953125q0 1.609375 0.515625 2.46875q0.515625 0.859375 1.46875 0.859375q0.515625 0 0.875 -0.25q0.375 -0.25 0.609375 -0.671875q0.234375 -0.4375 0.328125 -1.0q0.109375 -0.578125 0.109375 -1.1875q0 -1.15625 -0.265625 -1.90625q-0.25 -0.765625 -0.6875 -1.109375q-0.4375 -0.359375 -1.0 -0.359375q-0.9375 0 -1.453125 0.828125q-0.5 0.8125 -0.5 2.328125zm14.5703125 3.828125l-3.078125 0l0 -0.390625q0.296875 -0.09375 0.421875 -0.15625q0.140625 -0.078125 0.234375 -0.203125q0.09375 -0.125 0.140625 -0.375q0.046875 -0.265625 0.046875 -0.796875l0 -2.046875q0 -0.546875 -0.03125 -0.984375q-0.03125 -0.453125 -0.109375 -0.734375q-0.0625 -0.296875 -0.171875 -0.453125q-0.109375 -0.15625 -0.25 -0.265625q-0.140625 -0.125 -0.328125 -0.1875q-0.1875 -0.0625 -0.5 -0.0625q-0.296875 0 -0.578125 0.125q-0.265625 0.109375 -0.59375 0.40625q-0.328125 0.296875 -0.484375 0.59375q-0.140625 0.28125 -0.140625 0.65625l0 2.921875q0 0.671875 0.0625 0.9375q0.0625 0.25 0.234375 0.390625q0.171875 0.140625 0.578125 0.234375l0 0.390625l-3.0625 0l0 -0.390625q0.296875 -0.09375 0.421875 -0.15625q0.140625 -0.078125 0.21875 -0.203125q0.09375 -0.125 0.140625 -0.375q0.0625 -0.265625 0.0625 -0.8125l0 -3.40625q0 -0.5 -0.015625 -0.796875q-0.015625 -0.3125 -0.109375 -0.484375q-0.09375 -0.1875 -0.296875 -0.28125q-0.1875 -0.09375 -0.53125 -0.15625l0 -0.40625l1.828125 -0.078125l0.46875 0l-0.078125 1.28125l0.109375 0.03125q0.578125 -0.59375 0.921875 -0.84375q0.359375 -0.25 0.71875 -0.375q0.375 -0.140625 0.78125 -0.140625q0.421875 0 0.75 0.09375q0.328125 0.09375 0.578125 0.296875q0.265625 0.203125 0.421875 0.515625q0.171875 0.296875 0.25 0.71875q0.078125 0.421875 0.078125 1.0625l0 2.953125q0 0.53125 0.03125 0.78125q0.03125 0.234375 0.109375 0.375q0.078125 0.125 0.21875 0.21875q0.15625 0.09375 0.53125 0.1875l0 0.390625zm10.3125 -5.84375l-2.046875 5.890625l-1.078125 0l-1.875 -5.8125q-0.1875 -0.5625 -0.3125 -0.78125q-0.109375 -0.234375 -0.25 -0.34375q-0.140625 -0.125 -0.4375 -0.203125l0 -0.375l3.078125 0l0 0.375q-0.453125 0.09375 -0.609375 0.25q-0.15625 0.15625 -0.15625 0.453125q0 0.21875 0.046875 0.453125q0.046875 0.21875 0.140625 0.53125l1.21875 3.984375l2.015625 -6.046875l1.09375 0l1.703125 6.046875l1.375 -3.828125q0.109375 -0.296875 0.171875 -0.5625q0.078125 -0.265625 0.078125 -0.5q0 -0.328125 -0.171875 -0.5q-0.171875 -0.1875 -0.59375 -0.28125l0 -0.375l2.71875 0l0 0.375q-0.21875 0.0625 -0.328125 0.125q-0.109375 0.046875 -0.21875 0.171875q-0.09375 0.109375 -0.234375 0.34375q-0.125 0.234375 -0.3125 0.734375l-2.265625 5.765625l-1.046875 0l-1.703125 -5.890625zm9.15625 -4.6875l0 1.515625l-1.4375 0l0 -1.515625l1.4375 0zm-2.234375 10.140625q0.296875 -0.09375 0.421875 -0.15625q0.140625 -0.078125 0.21875 -0.203125q0.09375 -0.125 0.140625 -0.375q0.0625 -0.265625 0.0625 -0.8125l0 -3.40625q0 -0.5 -0.015625 -0.796875q-0.015625 -0.3125 -0.109375 -0.484375q-0.09375 -0.1875 -0.296875 -0.28125q-0.1875 -0.09375 -0.53125 -0.15625l0 -0.40625l1.8125 -0.078125l0.484375 0l0 5.59375q0 0.671875 0.0625 0.9375q0.0625 0.25 0.234375 0.390625q0.171875 0.140625 0.578125 0.234375l0 0.390625l-3.0625 0l0 -0.390625zm12.0546875 0.390625l-3.078125 0l0 -0.390625q0.296875 -0.09375 0.421875 -0.15625q0.140625 -0.078125 0.234375 -0.203125q0.09375 -0.125 0.140625 -0.375q0.046875 -0.265625 0.046875 -0.796875l0 -2.046875q0 -0.546875 -0.03125 -0.984375q-0.03125 -0.453125 -0.109375 -0.734375q-0.0625 -0.296875 -0.171875 -0.453125q-0.109375 -0.15625 -0.25 -0.265625q-0.140625 -0.125 -0.328125 -0.1875q-0.1875 -0.0625 -0.5 -0.0625q-0.296875 0 -0.578125 0.125q-0.265625 0.109375 -0.59375 0.40625q-0.328125 0.296875 -0.484375 0.59375q-0.140625 0.28125 -0.140625 0.65625l0 2.921875q0 0.671875 0.0625 0.9375q0.0625 0.25 0.234375 0.390625q0.171875 0.140625 0.578125 0.234375l0 0.390625l-3.0625 0l0 -0.390625q0.296875 -0.09375 0.421875 -0.15625q0.140625 -0.078125 0.21875 -0.203125q0.09375 -0.125 0.140625 -0.375q0.0625 -0.265625 0.0625 -0.8125l0 -3.40625q0 -0.5 -0.015625 -0.796875q-0.015625 -0.3125 -0.109375 -0.484375q-0.09375 -0.1875 -0.296875 -0.28125q-0.1875 -0.09375 -0.53125 -0.15625l0 -0.40625l1.828125 -0.078125l0.46875 0l-0.078125 1.28125l0.109375 0.03125q0.578125 -0.59375 0.921875 -0.84375q0.359375 -0.25 0.71875 -0.375q0.375 -0.140625 0.78125 -0.140625q0.421875 0 0.75 0.09375q0.328125 0.09375 0.578125 0.296875q0.265625 0.203125 0.421875 0.515625q0.171875 0.296875 0.25 0.71875q0.078125 0.421875 0.078125 1.0625l0 2.953125q0 0.53125 0.03125 0.78125q0.03125 0.234375 0.109375 0.375q0.078125 0.125 0.21875 0.21875q0.15625 0.09375 0.53125 0.1875l0 0.390625zm6.5859375 -8.5q0 -0.75 -0.015625 -1.046875q0 -0.296875 -0.0625 -0.5q-0.046875 -0.203125 -0.140625 -0.3125q-0.078125 -0.125 -0.234375 -0.1875q-0.15625 -0.078125 -0.546875 -0.15625l0 -0.40625l1.890625 -0.078125l0.453125 0l0 9.046875q0 0.609375 0.015625 0.875q0.03125 0.265625 0.109375 0.421875q0.078125 0.15625 0.25 0.25q0.171875 0.09375 0.59375 0.1875l0 0.40625l-1.84375 0.078125l-0.46875 0l0.09375 -1.28125l-0.125 -0.03125q-0.484375 0.515625 -0.859375 0.78125q-0.359375 0.265625 -0.765625 0.421875q-0.40625 0.15625 -0.875 0.15625q-1.28125 0 -1.984375 -0.96875q-0.6875 -0.984375 -0.6875 -2.8125q0 -1.28125 0.453125 -2.171875q0.453125 -0.90625 1.21875 -1.34375q0.765625 -0.4375 1.734375 -0.4375q0.515625 0 0.9375 0.09375q0.421875 0.078125 0.859375 0.265625l0 -1.25zm0 3.859375q0 -0.609375 -0.0625 -0.96875q-0.046875 -0.375 -0.171875 -0.625q-0.125 -0.25 -0.34375 -0.421875q-0.21875 -0.171875 -0.484375 -0.25q-0.265625 -0.078125 -0.625 -0.078125q-1.0 0 -1.53125 0.8125q-0.515625 0.796875 -0.515625 2.296875q0 1.5 0.421875 2.28125q0.4375 0.78125 1.3125 0.78125q0.34375 0 0.5625 -0.0625q0.234375 -0.0625 0.453125 -0.1875q0.21875 -0.125 0.4375 -0.34375q0.234375 -0.234375 0.328125 -0.421875q0.109375 -0.1875 0.15625 -0.421875q0.0625 -0.25 0.0625 -0.640625l0 -1.75zm7.0 4.765625q-1.625 0 -2.484375 -0.953125q-0.84375 -0.96875 -0.84375 -2.84375q0 -1.28125 0.4375 -2.171875q0.453125 -0.890625 1.234375 -1.328125q0.78125 -0.4375 1.78125 -0.4375q1.671875 0 2.53125 0.984375q0.859375 0.96875 0.859375 2.78125q0 1.296875 -0.4375 2.1875q-0.421875 0.890625 -1.21875 1.34375q-0.78125 0.4375 -1.859375 0.4375zm-1.859375 -3.953125q0 1.609375 0.515625 2.46875q0.515625 0.859375 1.46875 0.859375q0.515625 0 0.875 -0.25q0.375 -0.25 0.609375 -0.671875q0.234375 -0.4375 0.328125 -1.0q0.109375 -0.578125 0.109375 -1.1875q0 -1.15625 -0.265625 -1.90625q-0.25 -0.765625 -0.6875 -1.109375q-0.4375 -0.359375 -1.0 -0.359375q-0.9375 0 -1.453125 0.828125q-0.5 0.8125 -0.5 2.328125zm12.4296875 -2.015625l-2.046875 5.890625l-1.078125 0l-1.875 -5.8125q-0.1875 -0.5625 -0.3125 -0.78125q-0.109375 -0.234375 -0.25 -0.34375q-0.140625 -0.125 -0.4375 -0.203125l0 -0.375l3.078125 0l0 0.375q-0.453125 0.09375 -0.609375 0.25q-0.15625 0.15625 -0.15625 0.453125q0 0.21875 0.046875 0.453125q0.046875 0.21875 0.140625 0.53125l1.21875 3.984375l2.015625 -6.046875l1.09375 0l1.703125 6.046875l1.375 -3.828125q0.109375 -0.296875 0.171875 -0.5625q0.078125 -0.265625 0.078125 -0.5q0 -0.328125 -0.171875 -0.5q-0.171875 -0.1875 -0.59375 -0.28125l0 -0.375l2.71875 0l0 0.375q-0.21875 0.0625 -0.328125 0.125q-0.109375 0.046875 -0.21875 0.171875q-0.09375 0.109375 -0.234375 0.34375q-0.125 0.234375 -0.3125 0.734375l-2.265625 5.765625l-1.046875 0l-1.703125 -5.890625z" fill-rule="nonzero"></path><path fill="#000000" fill-opacity="0.0" d="m451.8919 137.74278l181.48029 0l0 33.51181l-181.48029 0z" fill-rule="nonzero"></path><path fill="#000000" d="m493.12814 160.11841q0 0.46875 0.046875 0.75q0.046875 0.265625 0.15625 0.421875q0.109375 0.15625 0.28125 0.25q0.1875 0.09375 0.5625 0.171875l0 0.390625l-3.421875 0l0 -0.390625q0.484375 -0.125 0.640625 -0.265625q0.171875 -0.15625 0.21875 -0.4375q0.046875 -0.28125 0.046875 -0.859375l0 -6.765625q0 -0.53125 -0.046875 -0.78125q-0.03125 -0.25 -0.125 -0.375q-0.078125 -0.140625 -0.234375 -0.21875q-0.140625 -0.09375 -0.5 -0.1875l0 -0.390625l3.875 0q1.828125 0 2.71875 0.703125q0.890625 0.703125 0.890625 2.125q0 0.8125 -0.28125 1.46875q-0.28125 0.640625 -0.796875 1.0625q-0.515625 0.40625 -1.21875 0.59375q-0.703125 0.171875 -1.46875 0.171875q-0.875 0 -1.34375 -0.03125l0 2.59375zm0 -3.234375l0.90625 0q0.875 0 1.453125 -0.234375q0.578125 -0.234375 0.875 -0.765625q0.3125 -0.53125 0.3125 -1.421875q0 -0.671875 -0.1875 -1.109375q-0.171875 -0.453125 -0.5 -0.71875q-0.3125 -0.28125 -0.75 -0.390625q-0.4375 -0.125 -0.953125 -0.125q-0.765625 0 -1.15625 0.03125l0 4.734375zm8.6328125 -0.953125l0.109375 0.015625q0.421875 -0.515625 0.78125 -0.8125q0.375 -0.3125 0.796875 -0.46875q0.4375 -0.171875 0.96875 -0.171875q0.453125 0 0.828125 0.046875l0 1.796875l-0.890625 0q-0.1875 -0.421875 -0.40625 -0.609375q-0.203125 -0.1875 -0.5625 -0.1875q-0.28125 0 -0.5625 0.171875q-0.28125 0.15625 -0.546875 0.46875q-0.25 0.3125 -0.34375 0.59375q-0.09375 0.265625 -0.09375 0.640625l0 2.734375q0 0.703125 0.078125 0.984375q0.09375 0.265625 0.28125 0.390625q0.203125 0.125 0.609375 0.1875l0 0.390625l-3.15625 0l0 -0.390625q0.296875 -0.09375 0.421875 -0.15625q0.140625 -0.078125 0.234375 -0.203125q0.09375 -0.125 0.140625 -0.375q0.046875 -0.265625 0.046875 -0.8125l0 -3.40625q0 -0.5 -0.015625 -0.796875q-0.015625 -0.3125 -0.109375 -0.484375q-0.09375 -0.1875 -0.296875 -0.28125q-0.1875 -0.09375 -0.53125 -0.15625l0 -0.40625l1.828125 -0.078125l0.46875 0l-0.078125 1.375zm10.742218 4.84375q-0.5 0.515625 -0.9219055 0.8125q-0.40625 0.296875 -0.90625 0.46875q-0.5 0.171875 -1.109375 0.171875q-1.609375 0 -2.4375 -0.96875q-0.8125 -0.96875 -0.8125 -2.84375q0 -1.171875 0.421875 -2.0625q0.421875 -0.890625 1.1875 -1.375q0.78125 -0.484375 1.78125 -0.484375q0.796875 0 1.34375 0.25q0.5625 0.25 0.890625 0.6875q0.32815552 0.4375 0.5156555 1.09375q0.1875 0.65625 0.203125 1.71875l-4.9219055 0l0 0.140625q0 0.921875 0.203125 1.5625q0.21875 0.625 0.6875 0.984375q0.46875 0.34375 1.234375 0.34375q0.640625 0 1.140625 -0.234375q0.515625 -0.234375 1.0312805 -0.78125l0.46875 0.515625zm-1.3125305 -3.171875q-0.046875 -0.84375 -0.21875 -1.375q-0.15625 -0.546875 -0.484375 -0.828125q-0.328125 -0.28125 -0.859375 -0.28125q-0.796875 0 -1.28125 0.640625q-0.484375 0.640625 -0.5625 1.84375l3.40625 0zm8.148468 -4.0q0 -0.75 -0.015625 -1.046875q0 -0.296875 -0.0625 -0.5q-0.046875 -0.203125 -0.140625 -0.3125q-0.078125 -0.125 -0.234375 -0.1875q-0.15625 -0.078125 -0.546875 -0.15625l0 -0.40625l1.890625 -0.078125l0.453125 0l0 9.046875q0 0.609375 0.015625 0.875q0.03125 0.265625 0.109375 0.421875q0.078125 0.15625 0.25 0.25q0.171875 0.09375 0.59375 0.1875l0 0.40625l-1.84375 0.078125l-0.46875 0l0.09375 -1.28125l-0.125 -0.03125q-0.484375 0.515625 -0.859375 0.78125q-0.359375 0.265625 -0.765625 0.421875q-0.40625 0.15625 -0.875 0.15625q-1.28125 0 -1.984375 -0.96875q-0.6875 -0.984375 -0.6875 -2.8125q0 -1.28125 0.453125 -2.171875q0.453125 -0.90625 1.21875 -1.34375q0.765625 -0.4375 1.734375 -0.4375q0.515625 0 0.9375 0.09375q0.421875 0.078125 0.859375 0.265625l0 -1.25zm0 3.859375q0 -0.609375 -0.0625 -0.96875q-0.046875 -0.375 -0.171875 -0.625q-0.125 -0.25 -0.34375 -0.421875q-0.21875 -0.171875 -0.484375 -0.25q-0.265625 -0.078125 -0.625 -0.078125q-1.0 0 -1.53125 0.8125q-0.515625 0.796875 -0.515625 2.296875q0 1.5 0.421875 2.28125q0.4375 0.78125 1.3125 0.78125q0.34375 0 0.5625 -0.0625q0.234375 -0.0625 0.453125 -0.1875q0.21875 -0.125 0.4375 -0.34375q0.234375 -0.234375 0.328125 -0.421875q0.109375 -0.1875 0.15625 -0.421875q0.0625 -0.25 0.0625 -0.640625l0 -1.75zm5.84375 -5.890625l0 1.515625l-1.4375 0l0 -1.515625l1.4375 0zm-2.234375 10.140625q0.296875 -0.09375 0.421875 -0.15625q0.140625 -0.078125 0.21875 -0.203125q0.09375 -0.125 0.140625 -0.375q0.0625 -0.265625 0.0625 -0.8125l0 -3.40625q0 -0.5 -0.015625 -0.796875q-0.015625 -0.3125 -0.109375 -0.484375q-0.09375 -0.1875 -0.296875 -0.28125q-0.1875 -0.09375 -0.53125 -0.15625l0 -0.40625l1.8125 -0.078125l0.484375 0l0 5.59375q0 0.671875 0.0625 0.9375q0.0625 0.25 0.234375 0.390625q0.171875 0.140625 0.578125 0.234375l0 0.390625l-3.0625 0l0 -0.390625zm10.2578125 -6.90625l0 1.640625l-0.984375 0q-0.140625 -0.515625 -0.34375 -0.796875q-0.1875 -0.296875 -0.453125 -0.40625q-0.25 -0.125 -0.625 -0.125q-0.546875 0 -0.96875 0.359375q-0.421875 0.34375 -0.671875 1.0625q-0.25 0.71875 -0.25 1.75q0 0.671875 0.09375 1.21875q0.09375 0.546875 0.3125 0.9375q0.234375 0.390625 0.609375 0.609375q0.375 0.21875 0.9375 0.21875q0.53125 0 1.0 -0.203125q0.46875 -0.21875 0.96875 -0.75l0.4375 0.515625q-0.390625 0.4375 -0.703125 0.6875q-0.296875 0.234375 -0.65625 0.390625q-0.34375 0.15625 -0.6875 0.234375q-0.328125 0.078125 -0.734375 0.078125q-1.46875 0 -2.25 -0.984375q-0.78125 -0.984375 -0.78125 -2.828125q0 -1.15625 0.4375 -2.046875q0.4375 -0.90625 1.21875 -1.390625q0.796875 -0.484375 1.828125 -0.484375q0.640625 0 1.171875 0.078125q0.546875 0.078125 1.09375 0.234375zm0.7734375 0.21875q0.390625 -0.0625 0.625 -0.21875q0.25 -0.15625 0.375 -0.40625q0.140625 -0.25 0.21875 -0.609375q0.078125 -0.375 0.171875 -1.09375l1.109375 0l0 1.9375l2.515625 0l0 0.78125l-2.515625 0l0 3.484375q0 0.75 0.0625 1.203125q0.0625 0.453125 0.234375 0.703125q0.171875 0.25 0.390625 0.359375q0.21875 0.109375 0.5625 0.109375q0.3125 0 0.578125 -0.125q0.28125 -0.125 0.546875 -0.375l0.34375 0.421875q-0.546875 0.546875 -1.046875 0.796875q-0.5 0.234375 -1.03125 0.234375q-1.0 0 -1.5 -0.59375q-0.484375 -0.609375 -0.484375 -1.875l0 -4.34375l-1.15625 0l0 -0.390625zm8.1171875 -3.453125l0 1.515625l-1.4375 0l0 -1.515625l1.4375 0zm-2.234375 10.140625q0.296875 -0.09375 0.421875 -0.15625q0.140625 -0.078125 0.21875 -0.203125q0.09375 -0.125 0.140625 -0.375q0.0625 -0.265625 0.0625 -0.8125l0 -3.40625q0 -0.5 -0.015625 -0.796875q-0.015625 -0.3125 -0.109375 -0.484375q-0.09375 -0.1875 -0.296875 -0.28125q-0.1875 -0.09375 -0.53125 -0.15625l0 -0.40625l1.8125 -0.078125l0.484375 0l0 5.59375q0 0.671875 0.0625 0.9375q0.0625 0.25 0.234375 0.390625q0.171875 0.140625 0.578125 0.234375l0 0.390625l-3.0625 0l0 -0.390625zm7.8359375 0.515625q-1.625 0 -2.484375 -0.953125q-0.84375 -0.96875 -0.84375 -2.84375q0 -1.28125 0.4375 -2.171875q0.453125 -0.890625 1.234375 -1.328125q0.78125 -0.4375 1.78125 -0.4375q1.671875 0 2.53125 0.984375q0.859375 0.96875 0.859375 2.78125q0 1.296875 -0.4375 2.1875q-0.421875 0.890625 -1.21875 1.34375q-0.78125 0.4375 -1.859375 0.4375zm-1.859375 -3.953125q0 1.609375 0.515625 2.46875q0.515625 0.859375 1.46875 0.859375q0.515625 0 0.875 -0.25q0.375 -0.25 0.609375 -0.671875q0.234375 -0.4375 0.328125 -1.0q0.109375 -0.578125 0.109375 -1.1875q0 -1.15625 -0.265625 -1.90625q-0.25 -0.765625 -0.6875 -1.109375q-0.4375 -0.359375 -1.0 -0.359375q-0.9375 0 -1.453125 0.828125q-0.5 0.8125 -0.5 2.328125zm14.5703125 3.828125l-3.078125 0l0 -0.390625q0.296875 -0.09375 0.421875 -0.15625q0.140625 -0.078125 0.234375 -0.203125q0.09375 -0.125 0.140625 -0.375q0.046875 -0.265625 0.046875 -0.796875l0 -2.046875q0 -0.546875 -0.03125 -0.984375q-0.03125 -0.453125 -0.109375 -0.734375q-0.0625 -0.296875 -0.171875 -0.453125q-0.109375 -0.15625 -0.25 -0.265625q-0.140625 -0.125 -0.328125 -0.1875q-0.1875 -0.0625 -0.5 -0.0625q-0.296875 0 -0.578125 0.125q-0.265625 0.109375 -0.59375 0.40625q-0.328125 0.296875 -0.484375 0.59375q-0.140625 0.28125 -0.140625 0.65625l0 2.921875q0 0.671875 0.0625 0.9375q0.0625 0.25 0.234375 0.390625q0.171875 0.140625 0.578125 0.234375l0 0.390625l-3.0625 0l0 -0.390625q0.296875 -0.09375 0.421875 -0.15625q0.140625 -0.078125 0.21875 -0.203125q0.09375 -0.125 0.140625 -0.375q0.0625 -0.265625 0.0625 -0.8125l0 -3.40625q0 -0.5 -0.015625 -0.796875q-0.015625 -0.3125 -0.109375 -0.484375q-0.09375 -0.1875 -0.296875 -0.28125q-0.1875 -0.09375 -0.53125 -0.15625l0 -0.40625l1.828125 -0.078125l0.46875 0l-0.078125 1.28125l0.109375 0.03125q0.578125 -0.59375 0.921875 -0.84375q0.359375 -0.25 0.71875 -0.375q0.375 -0.140625 0.78125 -0.140625q0.421875 0 0.75 0.09375q0.328125 0.09375 0.578125 0.296875q0.265625 0.203125 0.421875 0.515625q0.171875 0.296875 0.25 0.71875q0.078125 0.421875 0.078125 1.0625l0 2.953125q0 0.53125 0.03125 0.78125q0.03125 0.234375 0.109375 0.375q0.078125 0.125 0.21875 0.21875q0.15625 0.09375 0.53125 0.1875l0 0.390625zm4.375 -7.078125q0.390625 -0.0625 0.625 -0.21875q0.25 -0.15625 0.375 -0.40625q0.140625 -0.25 0.21875 -0.609375q0.078125 -0.375 0.171875 -1.09375l1.109375 0l0 1.9375l2.515625 0l0 0.78125l-2.515625 0l0 3.484375q0 0.75 0.0625 1.203125q0.0625 0.453125 0.234375 0.703125q0.171875 0.25 0.390625 0.359375q0.21875 0.109375 0.5625 0.109375q0.3125 0 0.578125 -0.125q0.28125 -0.125 0.546875 -0.375l0.34375 0.421875q-0.546875 0.546875 -1.046875 0.796875q-0.5 0.234375 -1.03125 0.234375q-1.0 0 -1.5 -0.59375q-0.484375 -0.609375 -0.484375 -1.875l0 -4.34375l-1.15625 0l0 -0.390625zm8.1171875 -3.453125l0 1.515625l-1.4375 0l0 -1.515625l1.4375 0zm-2.234375 10.140625q0.296875 -0.09375 0.421875 -0.15625q0.140625 -0.078125 0.21875 -0.203125q0.09375 -0.125 0.140625 -0.375q0.0625 -0.265625 0.0625 -0.8125l0 -3.40625q0 -0.5 -0.015625 -0.796875q-0.015625 -0.3125 -0.109375 -0.484375q-0.09375 -0.1875 -0.296875 -0.28125q-0.1875 -0.09375 -0.53125 -0.15625l0 -0.40625l1.8125 -0.078125l0.484375 0l0 5.59375q0 0.671875 0.0625 0.9375q0.0625 0.25 0.234375 0.390625q0.171875 0.140625 0.578125 0.234375l0 0.390625l-3.0625 0l0 -0.390625zm6.5546875 -5.875l0.109375 0.03125q0.46875 -0.46875 0.765625 -0.703125q0.296875 -0.25 0.578125 -0.390625q0.28125 -0.140625 0.53125 -0.203125q0.25 -0.0625 0.5 -0.0625q0.78125 0 1.265625 0.359375q0.5 0.359375 0.6875 1.09375q0.59375 -0.59375 0.953125 -0.875q0.359375 -0.28125 0.734375 -0.421875q0.390625 -0.15625 0.828125 -0.15625q0.515625 0 0.890625 0.15625q0.390625 0.140625 0.640625 0.46875q0.265625 0.3125 0.390625 0.796875q0.125 0.46875 0.125 1.265625l0 2.953125q0 0.59375 0.03125 0.828125q0.046875 0.21875 0.109375 0.34375q0.078125 0.125 0.21875 0.21875q0.15625 0.078125 0.515625 0.171875l0 0.390625l-3.078125 0l0 -0.390625q0.3125 -0.09375 0.4375 -0.15625q0.140625 -0.078125 0.21875 -0.203125q0.09375 -0.125 0.140625 -0.375q0.0625 -0.265625 0.0625 -0.796875l0 -2.046875q0 -0.671875 -0.046875 -1.09375q-0.03125 -0.4375 -0.109375 -0.6875q-0.0625 -0.265625 -0.171875 -0.40625q-0.109375 -0.15625 -0.25 -0.265625q-0.125 -0.109375 -0.3125 -0.171875q-0.171875 -0.0625 -0.46875 -0.0625q-0.3125 0 -0.578125 0.125q-0.265625 0.125 -0.59375 0.421875q-0.3125 0.296875 -0.453125 0.59375q-0.140625 0.296875 -0.140625 0.703125l0 2.859375q0 0.59375 0.03125 0.828125q0.046875 0.21875 0.125 0.34375q0.078125 0.125 0.21875 0.21875q0.15625 0.078125 0.5 0.171875l0 0.390625l-3.0625 0l0 -0.390625q0.296875 -0.09375 0.421875 -0.15625q0.140625 -0.078125 0.234375 -0.203125q0.09375 -0.125 0.140625 -0.375q0.046875 -0.265625 0.046875 -0.796875l0 -2.046875q0 -0.703125 -0.046875 -1.140625q-0.03125 -0.4375 -0.109375 -0.703125q-0.078125 -0.265625 -0.21875 -0.421875q-0.125 -0.171875 -0.265625 -0.25q-0.125 -0.09375 -0.3125 -0.125q-0.171875 -0.046875 -0.390625 -0.046875q-0.328125 0 -0.609375 0.140625q-0.28125 0.140625 -0.578125 0.421875q-0.28125 0.265625 -0.4375 0.5625q-0.140625 0.296875 -0.140625 0.640625l0 2.9375q0 0.4375 0.015625 0.671875q0.03125 0.234375 0.078125 0.375q0.046875 0.125 0.125 0.21875q0.078125 0.078125 0.21875 0.15625q0.15625 0.0625 0.4375 0.140625l0 0.390625l-3.0625 0l0 -0.390625q0.296875 -0.09375 0.421875 -0.15625q0.140625 -0.078125 0.234375 -0.203125q0.09375 -0.125 0.140625 -0.375q0.046875 -0.265625 0.046875 -0.8125l0 -3.40625q0 -0.5 -0.015625 -0.796875q-0.015625 -0.3125 -0.109375 -0.484375q-0.09375 -0.1875 -0.296875 -0.28125q-0.1875 -0.09375 -0.53125 -0.15625l0 -0.40625l1.828125 -0.078125l0.46875 0l-0.078125 1.28125zm17.4375 4.9375q-0.5 0.515625 -0.921875 0.8125q-0.40625 0.296875 -0.90625 0.46875q-0.5 0.171875 -1.109375 0.171875q-1.609375 0 -2.4375 -0.96875q-0.8125 -0.96875 -0.8125 -2.84375q0 -1.171875 0.421875 -2.0625q0.421875 -0.890625 1.1875 -1.375q0.78125 -0.484375 1.78125 -0.484375q0.796875 0 1.34375 0.25q0.5625 0.25 0.890625 0.6875q0.328125 0.4375 0.515625 1.09375q0.1875 0.65625 0.203125 1.71875l-4.921875 0l0 0.140625q0 0.921875 0.203125 1.5625q0.21875 0.625 0.6875 0.984375q0.46875 0.34375 1.234375 0.34375q0.640625 0 1.140625 -0.234375q0.515625 -0.234375 1.03125 -0.78125l0.46875 0.515625zm-1.3125 -3.171875q-0.046875 -0.84375 -0.21875 -1.375q-0.15625 -0.546875 -0.484375 -0.828125q-0.328125 -0.28125 -0.859375 -0.28125q-0.796875 0 -1.28125 0.640625q-0.484375 0.640625 -0.5625 1.84375l3.40625 0z" fill-rule="nonzero"></path></g></svg>

