<?xml version="1.0" standalone="yes"?>

<svg version="1.1" viewBox="0.0 0.0 960.0 540.0" fill="none" stroke="none" stroke-linecap="square" stroke-miterlimit="10" xmlns="http://www.w3.org/2000/svg" xmlns:xlink="http://www.w3.org/1999/xlink"><clipPath id="g11690d04b9_2_1347.0"><path d="m0 0l960.0 0l0 540.0l-960.0 0l0 -540.0z" clip-rule="nonzero"></path></clipPath><g clip-path="url(#g11690d04b9_2_1347.0)"><path fill="#ffffff" d="m0 0l960.0 0l0 540.0l-960.0 0z" fill-rule="nonzero"></path><path fill="#000000" fill-opacity="0.0" d="m47.74803 309.98978l864.5039 0" fill-rule="nonzero"></path><path stroke="#595959" stroke-width="2.0" stroke-linejoin="round" stroke-linecap="butt" d="m47.74803 309.98978l852.5039 0" fill-rule="evenodd"></path><path fill="#595959" stroke="#595959" stroke-width="2.0" stroke-linecap="butt" d="m900.25195 313.29324l9.076233 -3.3034668l-9.076233 -3.3034668z" fill-rule="evenodd"></path><path fill="#efefef" d="m99.736824 309.98163l0 0c0 -11.58493 9.391449 -20.97638 20.97638 -20.97638l0 0c5.563286 0 10.898705 2.2099915 14.832542 6.1438293c3.933838 3.933838 6.1438446 9.269257 6.1438446 14.83255l0 0c0 11.58493 -9.391449 20.97638 -20.976387 20.97638l0 0c-11.58493 0 -20.97638 -9.391449 -20.97638 -20.97638z" fill-rule="nonzero"></path><path stroke="#434343" stroke-width="1.0" stroke-linejoin="round" stroke-linecap="butt" d="m99.736824 309.98163l0 0c0 -11.58493 9.391449 -20.97638 20.97638 -20.97638l0 0c5.563286 0 10.898705 2.2099915 14.832542 6.1438293c3.933838 3.933838 6.1438446 9.269257 6.1438446 14.83255l0 0c0 11.58493 -9.391449 20.97638 -20.976387 20.97638l0 0c-11.58493 0 -20.97638 -9.391449 -20.97638 -20.97638z" fill-rule="nonzero"></path><path fill="#666666" d="m167.21619 309.98163l0 0c0 -11.58493 9.391434 -20.97638 20.97638 -20.97638l0 0c5.563278 0 10.898697 2.2099915 14.832535 6.1438293c3.933838 3.933838 6.1438446 9.269257 6.1438446 14.83255l0 0c0 11.58493 -9.391449 20.97638 -20.97638 20.97638l0 0c-11.584946 0 -20.97638 -9.391449 -20.97638 -20.97638z" fill-rule="nonzero"></path><path stroke="#666666" stroke-width="1.0" stroke-linejoin="round" stroke-linecap="butt" d="m167.21619 309.98163l0 0c0 -11.58493 9.391434 -20.97638 20.97638 -20.97638l0 0c5.563278 0 10.898697 2.2099915 14.832535 6.1438293c3.933838 3.933838 6.1438446 9.269257 6.1438446 14.83255l0 0c0 11.58493 -9.391449 20.97638 -20.97638 20.97638l0 0c-11.584946 0 -20.97638 -9.391449 -20.97638 -20.97638z" fill-rule="nonzero"></path><path fill="#efefef" d="m279.35132 309.98163l0 0c0 -11.58493 9.391449 -20.97638 20.97638 -20.97638l0 0c5.5632935 0 10.898712 2.2099915 14.83255 6.1438293c3.933838 3.933838 6.1438293 9.269257 6.1438293 14.83255l0 0c0 11.58493 -9.391418 20.97638 -20.97638 20.97638l0 0c-11.58493 0 -20.97638 -9.391449 -20.97638 -20.97638z" fill-rule="nonzero"></path><path stroke="#434343" stroke-width="1.0" stroke-linejoin="round" stroke-linecap="butt" d="m279.35132 309.98163l0 0c0 -11.58493 9.391449 -20.97638 20.97638 -20.97638l0 0c5.5632935 0 10.898712 2.2099915 14.83255 6.1438293c3.933838 3.933838 6.1438293 9.269257 6.1438293 14.83255l0 0c0 11.58493 -9.391418 20.97638 -20.97638 20.97638l0 0c-11.58493 0 -20.97638 -9.391449 -20.97638 -20.97638z" fill-rule="nonzero"></path><path fill="#666666" d="m417.4276 309.98163l0 0c0 -11.58493 9.391449 -20.97638 20.97638 -20.97638l0 0c5.563263 0 10.898712 2.2099915 14.83255 6.1438293c3.9338074 3.933838 6.1438293 9.269257 6.1438293 14.83255l0 0c0 11.58493 -9.391449 20.97638 -20.97638 20.97638l0 0c-11.58493 0 -20.97638 -9.391449 -20.97638 -20.97638z" fill-rule="nonzero"></path><path stroke="#595959" stroke-width="1.0" stroke-linejoin="round" stroke-linecap="butt" d="m417.4276 309.98163l0 0c0 -11.58493 9.391449 -20.97638 20.97638 -20.97638l0 0c5.563263 0 10.898712 2.2099915 14.83255 6.1438293c3.9338074 3.933838 6.1438293 9.269257 6.1438293 14.83255l0 0c0 11.58493 -9.391449 20.97638 -20.97638 20.97638l0 0c-11.58493 0 -20.97638 -9.391449 -20.97638 -20.97638z" fill-rule="nonzero"></path><path fill="#efefef" d="m484.90695 309.98163l0 0c0 -11.58493 9.391449 -20.97638 20.97638 -20.97638l0 0c5.5632935 0 10.898712 2.2099915 14.83255 6.1438293c3.933838 3.933838 6.14386 9.269257 6.14386 14.83255l0 0c0 11.58493 -9.3914795 20.97638 -20.97641 20.97638l0 0c-11.58493 0 -20.97638 -9.391449 -20.97638 -20.97638z" fill-rule="nonzero"></path><path stroke="#434343" stroke-width="1.0" stroke-linejoin="round" stroke-linecap="butt" d="m484.90695 309.98163l0 0c0 -11.58493 9.391449 -20.97638 20.97638 -20.97638l0 0c5.5632935 0 10.898712 2.2099915 14.83255 6.1438293c3.933838 3.933838 6.14386 9.269257 6.14386 14.83255l0 0c0 11.58493 -9.3914795 20.97638 -20.97641 20.97638l0 0c-11.58493 0 -20.97638 -9.391449 -20.97638 -20.97638z" fill-rule="nonzero"></path><path fill="#efefef" d="m552.3863 309.98163l0 0c0 -11.58493 9.3914795 -20.97638 20.97638 -20.97638l0 0c5.5632935 0 10.898743 2.2099915 14.832581 6.1438293c3.933838 3.933838 6.143799 9.269257 6.143799 14.83255l0 0c0 11.58493 -9.391418 20.97638 -20.97638 20.97638l0 0c-11.5849 0 -20.97638 -9.391449 -20.97638 -20.97638z" fill-rule="nonzero"></path><path stroke="#434343" stroke-width="1.0" stroke-linejoin="round" stroke-linecap="butt" d="m552.3863 309.98163l0 0c0 -11.58493 9.3914795 -20.97638 20.97638 -20.97638l0 0c5.5632935 0 10.898743 2.2099915 14.832581 6.1438293c3.933838 3.933838 6.143799 9.269257 6.143799 14.83255l0 0c0 11.58493 -9.391418 20.97638 -20.97638 20.97638l0 0c-11.5849 0 -20.97638 -9.391449 -20.97638 -20.97638z" fill-rule="nonzero"></path><path fill="#666666" d="m679.46075 309.98163l0 0c0 -11.58493 9.3914795 -20.97638 20.97638 -20.97638l0 0c5.5632935 0 10.898743 2.2099915 14.832581 6.1438293c3.933838 3.933838 6.143799 9.269257 6.143799 14.83255l0 0c0 11.58493 -9.391418 20.97638 -20.97638 20.97638l0 0c-11.5849 0 -20.97638 -9.391449 -20.97638 -20.97638z" fill-rule="nonzero"></path><path stroke="#434343" stroke-width="1.0" stroke-linejoin="round" stroke-linecap="butt" d="m679.46075 309.98163l0 0c0 -11.58493 9.3914795 -20.97638 20.97638 -20.97638l0 0c5.5632935 0 10.898743 2.2099915 14.832581 6.1438293c3.933838 3.933838 6.143799 9.269257 6.143799 14.83255l0 0c0 11.58493 -9.391418 20.97638 -20.97638 20.97638l0 0c-11.5849 0 -20.97638 -9.391449 -20.97638 -20.97638z" fill-rule="nonzero"></path><path fill="#000000" fill-opacity="0.0" d="m410.4672 285.98163l55.77951 0l0 48.0l-55.77951 0z" fill-rule="nonzero"></path><path fill="#ffffff" d="m438.6976 307.78162l0 -1.875l-3.8125 0l0 -1.5625l4.046875 -5.90625l1.5 0l0 5.90625l1.15625 0l0 1.5625l-1.15625 0l0 1.875l-1.734375 0zm0 -3.4375l0 -3.1875l-2.140625 3.1875l2.140625 0z" fill-rule="nonzero"></path><path fill="#ffffff" d="m429.11737 321.22162l-0.96875 0l0 -6.15625q-0.34375 0.328125 -0.90625 0.671875q-0.5625 0.328125 -1.015625 0.484375l0 -0.9375q0.8125 -0.375 1.40625 -0.90625q0.609375 -0.546875 0.859375 -1.0625l0.625 0l0 7.90625zm5.9265137 0l-0.96875 0l0 -6.15625q-0.34375 0.328125 -0.90625 0.671875q-0.5625 0.328125 -1.015625 0.484375l0 -0.9375q0.8125 -0.375 1.40625 -0.90625q0.609375 -0.546875 0.859375 -1.0625l0.625 0l0 7.90625zm2.8327332 -4.609375l0 -1.09375l1.09375 0l0 1.09375l-1.09375 0zm0 4.609375l0 -1.09375l1.09375 0l0 1.09375l-1.09375 0zm5.523163 0l0 -1.890625l-3.421875 0l0 -0.875l3.59375 -5.109375l0.78125 0l0 5.109375l1.078125 0l0 0.875l-1.078125 0l0 1.890625l-0.953125 0zm0 -2.765625l0 -3.5625l-2.46875 3.5625l2.46875 0zm2.8171082 0.703125l1.015625 -0.09375q0.109375 0.75 0.515625 1.125q0.421875 0.375 1.0 0.375q0.703125 0 1.1875 -0.53125q0.484375 -0.53125 0.484375 -1.390625q0 -0.828125 -0.46875 -1.296875q-0.46875 -0.484375 -1.21875 -0.484375q-0.46875 0 -0.84375 0.21875q-0.375 0.203125 -0.59375 0.53125l-0.90625 -0.109375l0.765625 -4.046875l3.921875 0l0 0.921875l-3.140625 0l-0.4375 2.109375q0.71875 -0.484375 1.5 -0.484375q1.03125 0 1.734375 0.71875q0.703125 0.703125 0.703125 1.828125q0 1.078125 -0.625 1.84375q-0.75 0.96875 -2.0625 0.96875q-1.078125 0 -1.765625 -0.59375q-0.671875 -0.609375 -0.765625 -1.609375z" fill-rule="nonzero"></path><path fill="#000000" fill-opacity="0.0" d="m96.71391 285.98032l48.0 0l0 48.0l-48.0 0z" fill-rule="nonzero"></path><path fill="#000000" d="m122.11705 307.7803l-1.78125 0l0 -6.71875q-0.96875 0.90625 -2.296875 1.34375l0 -1.609375q0.703125 -0.234375 1.515625 -0.875q0.8125 -0.640625 1.125 -1.484375l1.4375 0l0 9.34375z" fill-rule="nonzero"></path><path fill="#000000" d="m115.81259 315.26718l-0.953125 0.078125q-0.125 -0.5625 -0.375 -0.828125q-0.390625 -0.40625 -0.953125 -0.40625q-0.46875 0 -0.8125 0.25q-0.46875 0.34375 -0.734375 0.984375q-0.25 0.625 -0.265625 1.8125q0.34375 -0.53125 0.84375 -0.78125q0.515625 -0.265625 1.0625 -0.265625q0.96875 0 1.640625 0.71875q0.6875 0.703125 0.6875 1.828125q0 0.75 -0.328125 1.390625q-0.3125 0.625 -0.875 0.96875q-0.546875 0.34375 -1.265625 0.34375q-1.203125 0 -1.96875 -0.890625q-0.765625 -0.890625 -0.765625 -2.9375q0 -2.28125 0.84375 -3.3125q0.75 -0.90625 1.984375 -0.90625q0.9375 0 1.53125 0.53125q0.59375 0.515625 0.703125 1.421875zm-3.9375 3.40625q0 0.5 0.203125 0.953125q0.21875 0.453125 0.59375 0.703125q0.390625 0.234375 0.796875 0.234375q0.625 0 1.0625 -0.5q0.4375 -0.5 0.4375 -1.34375q0 -0.8125 -0.4375 -1.28125q-0.4375 -0.46875 -1.09375 -0.46875q-0.65625 0 -1.109375 0.46875q-0.453125 0.46875 -0.453125 1.234375zm5.3952484 -2.0625l0 -1.09375l1.09375 0l0 1.09375l-1.09375 0zm0 4.609375l0 -1.09375l1.09375 0l0 1.09375l-1.09375 0zm6.0543976 0l-0.96875 0l0 -6.15625q-0.34375 0.328125 -0.90625 0.671875q-0.5625 0.328125 -1.015625 0.484375l0 -0.9375q0.8125 -0.375 1.40625 -0.90625q0.609375 -0.546875 0.859375 -1.0625l0.625 0l0 7.90625zm2.3483734 -6.84375l0 -0.921875l5.109375 0l0 0.75q-0.765625 0.796875 -1.5 2.125q-0.734375 1.328125 -1.140625 2.71875q-0.28125 1.0 -0.375 2.171875l-0.984375 0q0.015625 -0.921875 0.359375 -2.234375q0.359375 -1.328125 1.0 -2.546875q0.65625 -1.21875 1.390625 -2.0625l-3.859375 0z" fill-rule="nonzero"></path><path fill="#000000" fill-opacity="0.0" d="m276.3281 285.98163l48.0 0l0 48.0l-48.0 0z" fill-rule="nonzero"></path><path fill="#000000" d="m297.10623 305.31287l1.734375 -0.203125q0.078125 0.65625 0.4375 1.0q0.359375 0.34375 0.875 0.34375q0.5625 0 0.9375 -0.40625q0.375 -0.421875 0.375 -1.140625q0 -0.671875 -0.359375 -1.0625q-0.359375 -0.390625 -0.890625 -0.390625q-0.34375 0 -0.8125 0.125l0.203125 -1.453125q0.71875 0.03125 1.09375 -0.296875q0.390625 -0.34375 0.390625 -0.890625q0 -0.46875 -0.28125 -0.75q-0.28125 -0.28125 -0.75 -0.28125q-0.453125 0 -0.78125 0.3125q-0.3125 0.3125 -0.390625 0.921875l-1.640625 -0.265625q0.171875 -0.84375 0.515625 -1.34375q0.34375 -0.515625 0.953125 -0.796875q0.625 -0.296875 1.390625 -0.296875q1.328125 0 2.109375 0.84375q0.65625 0.671875 0.65625 1.546875q0 1.21875 -1.34375 1.953125q0.8125 0.171875 1.28125 0.765625q0.484375 0.59375 0.484375 1.4375q0 1.234375 -0.90625 2.09375q-0.890625 0.859375 -2.21875 0.859375q-1.265625 0 -2.09375 -0.71875q-0.828125 -0.734375 -0.96875 -1.90625z" fill-rule="nonzero"></path><path fill="#000000" d="m290.56738 319.3935l0.921875 -0.078125q0.125 0.65625 0.453125 0.953125q0.328125 0.296875 0.859375 0.296875q0.4375 0 0.765625 -0.203125q0.34375 -0.203125 0.5625 -0.546875q0.21875 -0.34375 0.359375 -0.921875q0.140625 -0.578125 0.140625 -1.1875q0 -0.0625 0 -0.1875q-0.296875 0.453125 -0.796875 0.75q-0.5 0.28125 -1.09375 0.28125q-0.96875 0 -1.65625 -0.703125q-0.671875 -0.71875 -0.671875 -1.875q0 -1.203125 0.703125 -1.921875q0.71875 -0.734375 1.78125 -0.734375q0.765625 0 1.390625 0.421875q0.640625 0.40625 0.96875 1.171875q0.34375 0.765625 0.34375 2.21875q0 1.5 -0.328125 2.40625q-0.328125 0.890625 -0.984375 1.359375q-0.640625 0.46875 -1.515625 0.46875q-0.921875 0 -1.515625 -0.515625q-0.578125 -0.515625 -0.6875 -1.453125zm3.953125 -3.46875q0 -0.828125 -0.453125 -1.3125q-0.4375 -0.5 -1.0625 -0.5q-0.640625 0 -1.125 0.53125q-0.46875 0.53125 -0.46875 1.359375q0 0.75 0.453125 1.21875q0.453125 0.46875 1.125 0.46875q0.671875 0 1.09375 -0.46875q0.4375 -0.46875 0.4375 -1.296875zm2.3640137 0.6875l0 -1.09375l1.09375 0l0 1.09375l-1.09375 0zm0 4.609375l0 -1.09375l1.09375 0l0 1.09375l-1.09375 0zm7.4918823 -0.921875l0 0.921875l-5.203125 0q0 -0.34375 0.125 -0.671875q0.1875 -0.53125 0.625 -1.046875q0.4375 -0.515625 1.265625 -1.1875q1.28125 -1.0625 1.734375 -1.671875q0.453125 -0.609375 0.453125 -1.15625q0 -0.578125 -0.40625 -0.96875q-0.40625 -0.40625 -1.078125 -0.40625q-0.6875 0 -1.109375 0.421875q-0.421875 0.421875 -0.421875 1.15625l-1.0 -0.09375q0.109375 -1.109375 0.765625 -1.6875q0.671875 -0.59375 1.796875 -0.59375q1.125 0 1.78125 0.625q0.671875 0.625 0.671875 1.5625q0 0.46875 -0.203125 0.9375q-0.1875 0.453125 -0.640625 0.953125q-0.4375 0.5 -1.484375 1.390625q-0.875 0.71875 -1.125 0.984375q-0.234375 0.265625 -0.40625 0.53125l3.859375 0zm4.4890137 0.921875l-0.96875 0l0 -6.15625q-0.34375 0.328125 -0.90625 0.671875q-0.5625 0.328125 -1.015625 0.484375l0 -0.9375q0.8125 -0.375 1.40625 -0.90625q0.609375 -0.546875 0.859375 -1.0625l0.625 0l0 7.90625z" fill-rule="nonzero"></path><path fill="#000000" fill-opacity="0.0" d="m164.81627 285.98032l48.0 0l0 48.0l-48.0 0z" fill-rule="nonzero"></path><path fill="#ffffff" d="m191.68816 306.12405l0 1.65625l-6.25 0q0.09375 -0.9375 0.59375 -1.78125q0.515625 -0.84375 2.015625 -2.234375q1.203125 -1.125 1.484375 -1.515625q0.359375 -0.5625 0.359375 -1.09375q0 -0.59375 -0.328125 -0.90625q-0.3125 -0.328125 -0.875 -0.328125q-0.5625 0 -0.890625 0.34375q-0.328125 0.328125 -0.375 1.109375l-1.78125 -0.1875q0.15625 -1.46875 1.0 -2.109375q0.84375 -0.640625 2.09375 -0.640625q1.375 0 2.15625 0.75q0.796875 0.734375 0.796875 1.84375q0 0.625 -0.234375 1.203125q-0.21875 0.5625 -0.703125 1.171875q-0.328125 0.421875 -1.171875 1.203125q-0.84375 0.765625 -1.078125 1.03125q-0.21875 0.25 -0.359375 0.484375l3.546875 0z" fill-rule="nonzero"></path><path fill="#ffffff" d="m178.96182 314.37656l0 -0.921875l5.109375 0l0 0.75q-0.765625 0.796875 -1.5 2.125q-0.734375 1.328125 -1.140625 2.71875q-0.28125 1.0 -0.375 2.171875l-0.984375 0q0.015625 -0.921875 0.359375 -2.234375q0.359375 -1.328125 1.0 -2.546875q0.65625 -1.21875 1.390625 -2.0625l-3.859375 0zm6.4108734 2.234375l0 -1.09375l1.09375 0l0 1.09375l-1.09375 0zm0 4.609375l0 -1.09375l1.09375 0l0 1.09375l-1.09375 0zm2.4137726 -3.890625q0 -1.390625 0.28125 -2.234375q0.296875 -0.859375 0.859375 -1.3125q0.578125 -0.46875 1.4375 -0.46875q0.625 0 1.09375 0.265625q0.484375 0.25 0.796875 0.734375q0.3125 0.46875 0.484375 1.171875q0.1875 0.6875 0.1875 1.84375q0 1.390625 -0.296875 2.25q-0.28125 0.84375 -0.84375 1.3125q-0.5625 0.46875 -1.421875 0.46875q-1.140625 0 -1.796875 -0.828125q-0.78125 -0.984375 -0.78125 -3.203125zm1.0 0q0 1.953125 0.453125 2.59375q0.453125 0.640625 1.125 0.640625q0.65625 0 1.109375 -0.640625q0.453125 -0.65625 0.453125 -2.59375q0 -1.9375 -0.453125 -2.578125q-0.453125 -0.640625 -1.125 -0.640625q-0.671875 0 -1.0625 0.5625q-0.5 0.71875 -0.5 2.65625zm10.004623 2.96875l0 0.921875l-5.203125 0q0 -0.34375 0.125 -0.671875q0.1875 -0.53125 0.625 -1.046875q0.4375 -0.515625 1.265625 -1.1875q1.28125 -1.0625 1.734375 -1.671875q0.453125 -0.609375 0.453125 -1.15625q0 -0.578125 -0.40625 -0.96875q-0.40625 -0.40625 -1.078125 -0.40625q-0.6875 0 -1.109375 0.421875q-0.421875 0.421875 -0.421875 1.15625l-1.0 -0.09375q0.109375 -1.109375 0.765625 -1.6875q0.671875 -0.59375 1.796875 -0.59375q1.125 0 1.78125 0.625q0.671875 0.625 0.671875 1.5625q0 0.46875 -0.203125 0.9375q-0.1875 0.453125 -0.640625 0.953125q-0.4375 0.5 -1.484375 1.390625q-0.875 0.71875 -1.125 0.984375q-0.234375 0.265625 -0.40625 0.53125l3.859375 0z" fill-rule="nonzero"></path><path fill="#000000" fill-opacity="0.0" d="m476.22852 285.98163l55.77954 0l0 48.0l-55.77954 0z" fill-rule="nonzero"></path><path fill="#000000" d="m500.99017 305.391l1.78125 -0.1875q0.078125 0.609375 0.453125 0.96875q0.375 0.34375 0.859375 0.34375q0.5625 0 0.9375 -0.453125q0.390625 -0.453125 0.390625 -1.375q0 -0.859375 -0.390625 -1.28125q-0.375 -0.4375 -0.984375 -0.4375q-0.78125 0 -1.390625 0.6875l-1.4375 -0.203125l0.90625 -4.84375l4.71875 0l0 1.65625l-3.359375 0l-0.28125 1.59375q0.59375 -0.3125 1.21875 -0.3125q1.1875 0 2.015625 0.875q0.828125 0.859375 0.828125 2.234375q0 1.15625 -0.671875 2.046875q-0.90625 1.234375 -2.515625 1.234375q-1.296875 0 -2.109375 -0.6875q-0.8125 -0.6875 -0.96875 -1.859375z" fill-rule="nonzero"></path><path fill="#000000" d="m494.8787 321.22162l-0.96875 0l0 -6.15625q-0.34375 0.328125 -0.90625 0.671875q-0.5625 0.328125 -1.015625 0.484375l0 -0.9375q0.8125 -0.375 1.40625 -0.90625q0.609375 -0.546875 0.859375 -1.0625l0.625 0l0 7.90625zm2.3015137 -2.078125l0.953125 -0.125q0.171875 0.8125 0.5625 1.1875q0.40625 0.359375 0.984375 0.359375q0.6875 0 1.15625 -0.46875q0.46875 -0.484375 0.46875 -1.171875q0 -0.671875 -0.4375 -1.09375q-0.4375 -0.4375 -1.109375 -0.4375q-0.265625 0 -0.671875 0.09375l0.09375 -0.84375q0.109375 0.015625 0.15625 0.015625q0.625 0 1.109375 -0.3125q0.5 -0.328125 0.5 -1.0q0 -0.53125 -0.359375 -0.875q-0.359375 -0.359375 -0.921875 -0.359375q-0.5625 0 -0.9375 0.359375q-0.375 0.34375 -0.484375 1.0625l-0.96875 -0.171875q0.171875 -0.984375 0.796875 -1.515625q0.640625 -0.53125 1.5625 -0.53125q0.65625 0 1.1875 0.28125q0.546875 0.265625 0.828125 0.75q0.296875 0.484375 0.296875 1.015625q0 0.515625 -0.28125 0.9375q-0.265625 0.40625 -0.8125 0.65625q0.703125 0.15625 1.09375 0.671875q0.390625 0.5 0.390625 1.265625q0 1.03125 -0.765625 1.75q-0.75 0.71875 -1.890625 0.71875q-1.046875 0 -1.734375 -0.609375q-0.671875 -0.625 -0.765625 -1.609375zm6.457733 -2.53125l0 -1.09375l1.09375 0l0 1.09375l-1.09375 0zm0 4.609375l0 -1.09375l1.09375 0l0 1.09375l-1.09375 0zm2.4137878 -3.890625q0 -1.390625 0.28125 -2.234375q0.296875 -0.859375 0.859375 -1.3125q0.578125 -0.46875 1.4375 -0.46875q0.625 0 1.09375 0.265625q0.484375 0.25 0.796875 0.734375q0.3125 0.46875 0.484375 1.171875q0.1875 0.6875 0.1875 1.84375q0 1.390625 -0.296875 2.25q-0.28125 0.84375 -0.84375 1.3125q-0.5625 0.46875 -1.421875 0.46875q-1.140625 0 -1.796875 -0.828125q-0.78125 -0.984375 -0.78125 -3.203125zm1.0 0q0 1.953125 0.453125 2.59375q0.453125 0.640625 1.125 0.640625q0.65625 0 1.109375 -0.640625q0.453125 -0.65625 0.453125 -2.59375q0 -1.9375 -0.453125 -2.578125q-0.453125 -0.640625 -1.125 -0.640625q-0.671875 0 -1.0625 0.5625q-0.5 0.71875 -0.5 2.65625zm8.567108 3.890625l-0.96875 0l0 -6.15625q-0.34375 0.328125 -0.90625 0.671875q-0.5625 0.328125 -1.015625 0.484375l0 -0.9375q0.8125 -0.375 1.40625 -0.90625q0.609375 -0.546875 0.859375 -1.0625l0.625 0l0 7.90625z" fill-rule="nonzero"></path><path fill="#000000" fill-opacity="0.0" d="m548.8543 285.9895l48.0 0l0 48.0l-48.0 0z" fill-rule="nonzero"></path><path fill="#000000" d="m575.7418 300.75824l-1.71875 0.1875q-0.0625 -0.53125 -0.34375 -0.78125q-0.265625 -0.25 -0.6875 -0.25q-0.5625 0 -0.953125 0.515625q-0.390625 0.5 -0.484375 2.109375q0.65625 -0.796875 1.65625 -0.796875q1.109375 0 1.90625 0.859375q0.796875 0.84375 0.796875 2.1875q0 1.4375 -0.84375 2.296875q-0.828125 0.859375 -2.140625 0.859375q-1.40625 0 -2.328125 -1.09375q-0.90625 -1.09375 -0.90625 -3.59375q0 -2.546875 0.9375 -3.671875q0.953125 -1.140625 2.46875 -1.140625q1.0625 0 1.75 0.59375q0.703125 0.59375 0.890625 1.71875zm-4.046875 3.890625q0 0.875 0.40625 1.34375q0.40625 0.46875 0.90625 0.46875q0.5 0 0.828125 -0.375q0.328125 -0.390625 0.328125 -1.28125q0 -0.90625 -0.359375 -1.328125q-0.34375 -0.421875 -0.875 -0.421875q-0.515625 0 -0.875 0.40625q-0.359375 0.40625 -0.359375 1.1875z" fill-rule="nonzero"></path><path fill="#000000" d="m563.61475 321.2295l-0.96875 0l0 -6.15625q-0.34375 0.328125 -0.90625 0.671875q-0.5625 0.328125 -1.015625 0.484375l0 -0.9375q0.8125 -0.375 1.40625 -0.90625q0.609375 -0.546875 0.859375 -1.0625l0.625 0l0 7.90625zm2.3015137 -2.078125l0.953125 -0.125q0.171875 0.8125 0.5625 1.1875q0.40625 0.359375 0.984375 0.359375q0.6875 0 1.15625 -0.46875q0.46875 -0.484375 0.46875 -1.171875q0 -0.671875 -0.4375 -1.09375q-0.4375 -0.4375 -1.109375 -0.4375q-0.265625 0 -0.671875 0.09375l0.09375 -0.84375q0.109375 0.015625 0.15625 0.015625q0.625 0 1.109375 -0.3125q0.5 -0.328125 0.5 -1.0q0 -0.53125 -0.359375 -0.875q-0.359375 -0.359375 -0.921875 -0.359375q-0.5625 0 -0.9375 0.359375q-0.375 0.34375 -0.484375 1.0625l-0.96875 -0.171875q0.171875 -0.984375 0.796875 -1.515625q0.640625 -0.53125 1.5625 -0.53125q0.65625 0 1.1875 0.28125q0.546875 0.265625 0.828125 0.75q0.296875 0.484375 0.296875 1.015625q0 0.515625 -0.28125 0.9375q-0.265625 0.40625 -0.8125 0.65625q0.703125 0.15625 1.09375 0.671875q0.390625 0.5 0.390625 1.265625q0 1.03125 -0.765625 1.75q-0.75 0.71875 -1.890625 0.71875q-1.046875 0 -1.734375 -0.609375q-0.671875 -0.625 -0.765625 -1.609375zm6.4577637 -2.53125l0 -1.09375l1.09375 0l0 1.09375l-1.09375 0zm0 4.609375l0 -1.09375l1.09375 0l0 1.09375l-1.09375 0zm5.5231323 0l0 -1.890625l-3.421875 0l0 -0.875l3.59375 -5.109375l0.78125 0l0 5.109375l1.078125 0l0 0.875l-1.078125 0l0 1.890625l-0.953125 0zm0 -2.765625l0 -3.5625l-2.46875 3.5625l2.46875 0zm2.8171387 -1.125q0 -1.390625 0.28125 -2.234375q0.296875 -0.859375 0.859375 -1.3125q0.578125 -0.46875 1.4375 -0.46875q0.625 0 1.09375 0.265625q0.484375 0.25 0.796875 0.734375q0.3125 0.46875 0.484375 1.171875q0.1875 0.6875 0.1875 1.84375q0 1.390625 -0.296875 2.25q-0.28125 0.84375 -0.84375 1.3125q-0.5625 0.46875 -1.421875 0.46875q-1.140625 0 -1.796875 -0.828125q-0.78125 -0.984375 -0.78125 -3.203125zm1.0 0q0 1.953125 0.453125 2.59375q0.453125 0.640625 1.125 0.640625q0.65625 0 1.109375 -0.640625q0.453125 -0.65625 0.453125 -2.59375q0 -1.9375 -0.453125 -2.578125q-0.453125 -0.640625 -1.125 -0.640625q-0.671875 0 -1.0625 0.5625q-0.5 0.71875 -0.5 2.65625z" fill-rule="nonzero"></path><path fill="#000000" fill-opacity="0.0" d="m676.4344 285.98163l48.0 0l0 48.0l-48.0 0z" fill-rule="nonzero"></path><path fill="#ffffff" d="m697.275 300.266l0 -1.65625l6.109375 0l0 1.28125q-0.765625 0.75 -1.546875 2.140625q-0.78125 1.390625 -1.1875 2.953125q-0.40625 1.5625 -0.40625 2.796875l-1.71875 0q0.046875 -1.9375 0.796875 -3.9375q0.765625 -2.0 2.015625 -3.578125l-4.0625 0z" fill-rule="nonzero"></path><path fill="#ffffff" d="m691.1948 321.22162l-0.96875 0l0 -6.15625q-0.34375 0.328125 -0.90625 0.671875q-0.5625 0.328125 -1.015625 0.484375l0 -0.9375q0.8125 -0.375 1.40625 -0.90625q0.609375 -0.546875 0.859375 -1.0625l0.625 0l0 7.90625zm2.2858887 -2.0625l1.015625 -0.09375q0.109375 0.75 0.515625 1.125q0.421875 0.375 1.0 0.375q0.703125 0 1.1875 -0.53125q0.484375 -0.53125 0.484375 -1.390625q0 -0.828125 -0.46875 -1.296875q-0.46875 -0.484375 -1.21875 -0.484375q-0.46875 0 -0.84375 0.21875q-0.375 0.203125 -0.59375 0.53125l-0.90625 -0.109375l0.765625 -4.046875l3.921875 0l0 0.921875l-3.140625 0l-0.4375 2.109375q0.71875 -0.484375 1.5 -0.484375q1.03125 0 1.734375 0.71875q0.703125 0.703125 0.703125 1.828125q0 1.078125 -0.625 1.84375q-0.75 0.96875 -2.0625 0.96875q-1.078125 0 -1.765625 -0.59375q-0.671875 -0.609375 -0.765625 -1.609375zm6.4733276 -2.546875l0 -1.09375l1.09375 0l0 1.09375l-1.09375 0zm0 4.609375l0 -1.09375l1.09375 0l0 1.09375l-1.09375 0zm2.4138184 -2.0625l1.015625 -0.09375q0.109375 0.75 0.515625 1.125q0.421875 0.375 1.0 0.375q0.703125 0 1.1875 -0.53125q0.484375 -0.53125 0.484375 -1.390625q0 -0.828125 -0.46875 -1.296875q-0.46875 -0.484375 -1.21875 -0.484375q-0.46875 0 -0.84375 0.21875q-0.375 0.203125 -0.59375 0.53125l-0.90625 -0.109375l0.765625 -4.046875l3.921875 0l0 0.921875l-3.140625 0l-0.4375 2.109375q0.71875 -0.484375 1.5 -0.484375q1.03125 0 1.734375 0.71875q0.703125 0.703125 0.703125 1.828125q0 1.078125 -0.625 1.84375q-0.75 0.96875 -2.0625 0.96875q-1.078125 0 -1.765625 -0.59375q-0.671875 -0.609375 -0.765625 -1.609375zm5.9264526 -1.828125q0 -1.390625 0.28125 -2.234375q0.296875 -0.859375 0.859375 -1.3125q0.578125 -0.46875 1.4375 -0.46875q0.625 0 1.09375 0.265625q0.484375 0.25 0.796875 0.734375q0.3125 0.46875 0.484375 1.171875q0.1875 0.6875 0.1875 1.84375q0 1.390625 -0.296875 2.25q-0.28125 0.84375 -0.84375 1.3125q-0.5625 0.46875 -1.421875 0.46875q-1.140625 0 -1.796875 -0.828125q-0.78125 -0.984375 -0.78125 -3.203125zm1.0 0q0 1.953125 0.453125 2.59375q0.453125 0.640625 1.125 0.640625q0.65625 0 1.109375 -0.640625q0.453125 -0.65625 0.453125 -2.59375q0 -1.9375 -0.453125 -2.578125q-0.453125 -0.640625 -1.125 -0.640625q-0.671875 0 -1.0625 0.5625q-0.5 0.71875 -0.5 2.65625z" fill-rule="nonzero"></path><path fill="#efefef" d="m792.41583 309.98163l0 0c0 -11.58493 9.3914795 -20.97638 20.97638 -20.97638l0 0c5.5632935 0 10.898743 2.2099915 14.832581 6.1438293c3.933838 3.933838 6.143799 9.269257 6.143799 14.83255l0 0c0 11.58493 -9.391418 20.97638 -20.97638 20.97638l0 0c-11.5849 0 -20.97638 -9.391449 -20.97638 -20.97638z" fill-rule="nonzero"></path><path stroke="#595959" stroke-width="1.0" stroke-linejoin="round" stroke-linecap="butt" d="m792.41583 309.98163l0 0c0 -11.58493 9.3914795 -20.97638 20.97638 -20.97638l0 0c5.5632935 0 10.898743 2.2099915 14.832581 6.1438293c3.933838 3.933838 6.143799 9.269257 6.143799 14.83255l0 0c0 11.58493 -9.391418 20.97638 -20.97638 20.97638l0 0c-11.5849 0 -20.97638 -9.391449 -20.97638 -20.97638z" fill-rule="nonzero"></path><path fill="#000000" fill-opacity="0.0" d="m384.12335 334.35303l48.0 0l0 48.0l-48.0 0z" fill-rule="nonzero"></path><path fill="#ffffff" d="m410.99524 354.49677l0 1.65625l-6.25 0q0.09375 -0.9375 0.59375 -1.78125q0.515625 -0.84375 2.015625 -2.234375q1.203125 -1.125 1.484375 -1.515625q0.359375 -0.5625 0.359375 -1.09375q0 -0.59375 -0.328125 -0.90625q-0.3125 -0.328125 -0.875 -0.328125q-0.5625 0 -0.890625 0.34375q-0.328125 0.328125 -0.375 1.109375l-1.78125 -0.1875q0.15625 -1.46875 1.0 -2.109375q0.84375 -0.640625 2.09375 -0.640625q1.375 0 2.15625 0.75q0.796875 0.734375 0.796875 1.84375q0 0.625 -0.234375 1.203125q-0.21875 0.5625 -0.703125 1.171875q-0.328125 0.421875 -1.171875 1.203125q-0.84375 0.765625 -1.078125 1.03125q-0.21875 0.25 -0.359375 0.484375l3.546875 0z" fill-rule="nonzero"></path><path fill="#ffffff" d="m396.7828 371.90552q-0.8125 -1.0 -1.359375 -2.359375q-0.546875 -1.359375 -0.546875 -2.8125q0 -1.265625 0.40625 -2.4375q0.484375 -1.359375 1.5 -2.71875l0.6875 0q-0.65625 1.125 -0.859375 1.609375q-0.328125 0.734375 -0.515625 1.546875q-0.234375 1.0 -0.234375 2.015625q0 2.578125 1.609375 5.15625l-0.6875 0zm6.4392395 -8.265625l-0.953125 0.078125q-0.125 -0.5625 -0.375 -0.828125q-0.390625 -0.40625 -0.953125 -0.40625q-0.46875 0 -0.8125 0.25q-0.46875 0.34375 -0.734375 0.984375q-0.25 0.625 -0.265625 1.8125q0.34375 -0.53125 0.84375 -0.78125q0.515625 -0.265625 1.0625 -0.265625q0.96875 0 1.640625 0.71875q0.6875 0.703125 0.6875 1.828125q0 0.75 -0.328125 1.390625q-0.3125 0.625 -0.875 0.96875q-0.546875 0.34375 -1.265625 0.34375q-1.203125 0 -1.96875 -0.890625q-0.765625 -0.890625 -0.765625 -2.9375q0 -2.28125 0.84375 -3.3125q0.75 -0.90625 1.984375 -0.90625q0.9375 0 1.53125 0.53125q0.59375 0.515625 0.703125 1.421875zm-3.9375 3.40625q0 0.5 0.203125 0.953125q0.21875 0.453125 0.59375 0.703125q0.390625 0.234375 0.796875 0.234375q0.625 0 1.0625 -0.5q0.4375 -0.5 0.4375 -1.34375q0 -0.8125 -0.4375 -1.28125q-0.4375 -0.46875 -1.09375 -0.46875q-0.65625 0 -1.109375 0.46875q-0.453125 0.46875 -0.453125 1.234375zm5.395233 -2.0625l0 -1.09375l1.09375 0l0 1.09375l-1.09375 0zm0 4.609375l0 -1.09375l1.09375 0l0 1.09375l-1.09375 0zm6.054413 0l-0.96875 0l0 -6.15625q-0.34375 0.328125 -0.90625 0.671875q-0.5625 0.328125 -1.015625 0.484375l0 -0.9375q0.8125 -0.375 1.40625 -0.90625q0.609375 -0.546875 0.859375 -1.0625l0.625 0l0 7.90625zm2.3483582 -6.84375l0 -0.921875l5.109375 0l0 0.75q-0.765625 0.796875 -1.5 2.125q-0.734375 1.328125 -1.140625 2.71875q-0.28125 1.0 -0.375 2.171875l-0.984375 0q0.015625 -0.921875 0.359375 -2.234375q0.359375 -1.328125 1.0 -2.546875q0.65625 -1.21875 1.390625 -2.0625l-3.859375 0zm6.7702637 9.15625l-0.6875 0q1.59375 -2.578125 1.59375 -5.15625q0 -1.015625 -0.21875 -2.0q-0.1875 -0.8125 -0.515625 -1.546875q-0.203125 -0.484375 -0.859375 -1.625l0.6875 0q1.015625 1.359375 1.5 2.71875q0.40625 1.171875 0.40625 2.4375q0 1.453125 -0.5625 2.8125q-0.546875 1.359375 -1.34375 2.359375z" fill-rule="nonzero"></path><path fill="#000000" fill-opacity="0.0" d="m789.3898 285.98163l48.0 0l0 48.0l-48.0 0z" fill-rule="nonzero"></path><path fill="#000000" d="m811.76166 302.766q-0.6875 -0.296875 -1.0 -0.796875q-0.3125 -0.515625 -0.3125 -1.125q0 -1.046875 0.71875 -1.71875q0.734375 -0.6875 2.078125 -0.6875q1.3125 0 2.046875 0.6875q0.734375 0.671875 0.734375 1.71875q0 0.640625 -0.34375 1.15625q-0.328125 0.5 -0.9375 0.765625q0.78125 0.3125 1.171875 0.90625q0.40625 0.59375 0.40625 1.375q0 1.28125 -0.828125 2.09375q-0.8125 0.8125 -2.171875 0.8125q-1.265625 0 -2.109375 -0.671875q-1.0 -0.78125 -1.0 -2.15625q0 -0.765625 0.375 -1.390625q0.375 -0.625 1.171875 -0.96875zm0.375 -1.796875q0 0.53125 0.296875 0.828125q0.296875 0.296875 0.8125 0.296875q0.5 0 0.796875 -0.296875q0.3125 -0.3125 0.3125 -0.84375q0 -0.5 -0.3125 -0.796875q-0.296875 -0.296875 -0.78125 -0.296875q-0.515625 0 -0.828125 0.3125q-0.296875 0.296875 -0.296875 0.796875zm-0.171875 3.984375q0 0.734375 0.375 1.15625q0.390625 0.40625 0.953125 0.40625q0.546875 0 0.90625 -0.390625q0.359375 -0.40625 0.359375 -1.15625q0 -0.65625 -0.375 -1.046875q-0.359375 -0.40625 -0.921875 -0.40625q-0.65625 0 -0.984375 0.453125q-0.3125 0.453125 -0.3125 0.984375z" fill-rule="nonzero"></path><path fill="#000000" d="m804.1502 321.22162l-0.96875 0l0 -6.15625q-0.34375 0.328125 -0.90625 0.671875q-0.5625 0.328125 -1.015625 0.484375l0 -0.9375q0.8125 -0.375 1.40625 -0.90625q0.609375 -0.546875 0.859375 -1.0625l0.625 0l0 7.90625zm3.7702637 -4.265625q-0.59375 -0.21875 -0.890625 -0.625q-0.28125 -0.421875 -0.28125 -0.984375q0 -0.859375 0.609375 -1.4375q0.625 -0.59375 1.65625 -0.59375q1.03125 0 1.65625 0.609375q0.625 0.59375 0.625 1.453125q0 0.546875 -0.296875 0.953125q-0.28125 0.40625 -0.859375 0.625q0.71875 0.234375 1.09375 0.765625q0.390625 0.515625 0.390625 1.25q0 1.015625 -0.71875 1.703125q-0.71875 0.6875 -1.875 0.6875q-1.171875 0 -1.890625 -0.6875q-0.703125 -0.703125 -0.703125 -1.734375q0 -0.765625 0.375 -1.28125q0.390625 -0.515625 1.109375 -0.703125zm-0.1875 -1.640625q0 0.5625 0.359375 0.921875q0.359375 0.34375 0.9375 0.34375q0.5625 0 0.90625 -0.34375q0.359375 -0.359375 0.359375 -0.875q0 -0.53125 -0.375 -0.890625q-0.359375 -0.359375 -0.90625 -0.359375q-0.546875 0 -0.921875 0.359375q-0.359375 0.34375 -0.359375 0.84375zm-0.3125 3.640625q0 0.40625 0.1875 0.796875q0.203125 0.390625 0.59375 0.609375q0.390625 0.203125 0.828125 0.203125q0.703125 0 1.140625 -0.4375q0.453125 -0.453125 0.453125 -1.140625q0 -0.703125 -0.46875 -1.15625q-0.453125 -0.453125 -1.15625 -0.453125q-0.671875 0 -1.125 0.453125q-0.453125 0.4375 -0.453125 1.125zm5.4889526 -2.34375l0 -1.09375l1.09375 0l0 1.09375l-1.09375 0zm0 4.609375l0 -1.09375l1.09375 0l0 1.09375l-1.09375 0zm7.4919434 -0.921875l0 0.921875l-5.203125 0q0 -0.34375 0.125 -0.671875q0.1875 -0.53125 0.625 -1.046875q0.4375 -0.515625 1.265625 -1.1875q1.28125 -1.0625 1.734375 -1.671875q0.453125 -0.609375 0.453125 -1.15625q0 -0.578125 -0.40625 -0.96875q-0.40625 -0.40625 -1.078125 -0.40625q-0.6875 0 -1.109375 0.421875q-0.421875 0.421875 -0.421875 1.15625l-1.0 -0.09375q0.109375 -1.109375 0.765625 -1.6875q0.671875 -0.59375 1.796875 -0.59375q1.125 0 1.78125 0.625q0.671875 0.625 0.671875 1.5625q0 0.46875 -0.203125 0.9375q-0.1875 0.453125 -0.640625 0.953125q-0.4375 0.5 -1.484375 1.390625q-0.875 0.71875 -1.125 0.984375q-0.234375 0.265625 -0.40625 0.53125l3.859375 0zm0.84832764 -2.96875q0 -1.390625 0.28125 -2.234375q0.296875 -0.859375 0.859375 -1.3125q0.578125 -0.46875 1.4375 -0.46875q0.625 0 1.09375 0.265625q0.484375 0.25 0.796875 0.734375q0.3125 0.46875 0.484375 1.171875q0.1875 0.6875 0.1875 1.84375q0 1.390625 -0.296875 2.25q-0.28125 0.84375 -0.84375 1.3125q-0.5625 0.46875 -1.421875 0.46875q-1.140625 0 -1.796875 -0.828125q-0.78125 -0.984375 -0.78125 -3.203125zm1.0 0q0 1.953125 0.453125 2.59375q0.453125 0.640625 1.125 0.640625q0.65625 0 1.109375 -0.640625q0.453125 -0.65625 0.453125 -2.59375q0 -1.9375 -0.453125 -2.578125q-0.453125 -0.640625 -1.125 -0.640625q-0.671875 0 -1.0625 0.5625q-0.5 0.71875 -0.5 2.65625z" fill-rule="nonzero"></path><path fill="#000000" fill-opacity="0.0" d="m474.56824 231.87401l0 121.32283" fill-rule="nonzero"></path><path stroke="#595959" stroke-width="2.0" stroke-linejoin="round" stroke-linecap="butt" stroke-dasharray="8.0,6.0" d="m474.56824 231.87401l0 121.32283" fill-rule="nonzero"></path><path fill="#000000" fill-opacity="0.0" d="m415.14386 228.11154l181.48035 0l0 33.51181l-181.48035 0z" fill-rule="nonzero"></path><path fill="#000000" d="m484.3059 243.79967l-2.5 8.734375l-1.265625 0l-2.28125 -8.5q-0.140625 -0.53125 -0.265625 -0.859375q-0.109375 -0.34375 -0.234375 -0.53125q-0.109375 -0.1875 -0.25 -0.28125q-0.125 -0.109375 -0.390625 -0.171875l0 -0.390625l3.34375 0l0 0.390625q-0.484375 0.09375 -0.671875 0.28125q-0.1875 0.1875 -0.1875 0.515625q0 0.28125 0.0625 0.65625q0.078125 0.375 0.203125 0.84375l1.5625 6.171875l2.515625 -8.859375l1.3125 0l2.046875 8.875l1.84375 -5.96875q0.328125 -1.078125 0.328125 -1.546875q0 -0.46875 -0.203125 -0.671875q-0.1875 -0.21875 -0.65625 -0.296875l0 -0.390625l3.078125 0l0 0.390625q-0.234375 0.078125 -0.375 0.171875q-0.140625 0.09375 -0.265625 0.265625q-0.125 0.171875 -0.28125 0.53125q-0.15625 0.34375 -0.359375 0.9375l-2.84375 8.4375l-1.109375 0l-2.15625 -8.734375zm10.3828125 -1.859375l0 1.515625l-1.4375 0l0 -1.515625l1.4375 0zm-2.234375 10.140625q0.296875 -0.09375 0.421875 -0.15625q0.140625 -0.078125 0.21875 -0.203125q0.09375 -0.125 0.140625 -0.375q0.0625 -0.265625 0.0625 -0.8125l0 -3.40625q0 -0.5 -0.015625 -0.796875q-0.015625 -0.3125 -0.109375 -0.484375q-0.09375 -0.1875 -0.296875 -0.28125q-0.1875 -0.09375 -0.53125 -0.15625l0 -0.40625l1.8125 -0.078125l0.484375 0l0 5.59375q0 0.671875 0.0625 0.9375q0.0625 0.25 0.234375 0.390625q0.171875 0.140625 0.578125 0.234375l0 0.390625l-3.0625 0l0 -0.390625zm12.0546875 0.390625l-3.078125 0l0 -0.390625q0.296875 -0.09375 0.421875 -0.15625q0.140625 -0.078125 0.234375 -0.203125q0.09375 -0.125 0.140625 -0.375q0.046875 -0.265625 0.046875 -0.796875l0 -2.046875q0 -0.546875 -0.03125 -0.984375q-0.03125 -0.453125 -0.109375 -0.734375q-0.0625 -0.296875 -0.171875 -0.453125q-0.109375 -0.15625 -0.25 -0.265625q-0.140625 -0.125 -0.328125 -0.1875q-0.1875 -0.0625 -0.5 -0.0625q-0.296875 0 -0.578125 0.125q-0.265625 0.109375 -0.59375 0.40625q-0.328125 0.296875 -0.484375 0.59375q-0.140625 0.28125 -0.140625 0.65625l0 2.921875q0 0.671875 0.0625 0.9375q0.0625 0.25 0.234375 0.390625q0.171875 0.140625 0.578125 0.234375l0 0.390625l-3.0625 0l0 -0.390625q0.296875 -0.09375 0.421875 -0.15625q0.140625 -0.078125 0.21875 -0.203125q0.09375 -0.125 0.140625 -0.375q0.0625 -0.265625 0.0625 -0.8125l0 -3.40625q0 -0.5 -0.015625 -0.796875q-0.015625 -0.3125 -0.109375 -0.484375q-0.09375 -0.1875 -0.296875 -0.28125q-0.1875 -0.09375 -0.53125 -0.15625l0 -0.40625l1.828125 -0.078125l0.46875 0l-0.078125 1.28125l0.109375 0.03125q0.578125 -0.59375 0.921875 -0.84375q0.359375 -0.25 0.71875 -0.375q0.375 -0.140625 0.78125 -0.140625q0.421875 0 0.75 0.09375q0.328125 0.09375 0.578125 0.296875q0.265625 0.203125 0.421875 0.515625q0.171875 0.296875 0.25 0.71875q0.078125 0.421875 0.078125 1.0625l0 2.953125q0 0.53125 0.03125 0.78125q0.03125 0.234375 0.109375 0.375q0.078125 0.125 0.21875 0.21875q0.15625 0.09375 0.53125 0.1875l0 0.390625zm6.5859375 -8.5q0 -0.75 -0.015625 -1.046875q0 -0.296875 -0.0625 -0.5q-0.046875 -0.203125 -0.140625 -0.3125q-0.078125 -0.125 -0.234375 -0.1875q-0.15625 -0.078125 -0.546875 -0.15625l0 -0.40625l1.890625 -0.078125l0.453125 0l0 9.046875q0 0.609375 0.015625 0.875q0.03125 0.265625 0.109375 0.421875q0.078125 0.15625 0.25 0.25q0.171875 0.09375 0.59375 0.1875l0 0.40625l-1.84375 0.078125l-0.46875 0l0.09375 -1.28125l-0.125 -0.03125q-0.484375 0.515625 -0.859375 0.78125q-0.359375 0.265625 -0.765625 0.421875q-0.40625 0.15625 -0.875 0.15625q-1.28125 0 -1.984375 -0.96875q-0.6875 -0.984375 -0.6875 -2.8125q0 -1.28125 0.453125 -2.171875q0.453125 -0.90625 1.21875 -1.34375q0.765625 -0.4375 1.734375 -0.4375q0.515625 0 0.9375 0.09375q0.421875 0.078125 0.859375 0.265625l0 -1.25zm0 3.859375q0 -0.609375 -0.0625 -0.96875q-0.046875 -0.375 -0.171875 -0.625q-0.125 -0.25 -0.34375 -0.421875q-0.21875 -0.171875 -0.484375 -0.25q-0.265625 -0.078125 -0.625 -0.078125q-1.0 0 -1.53125 0.8125q-0.515625 0.796875 -0.515625 2.296875q0 1.5 0.421875 2.28125q0.4375 0.78125 1.3125 0.78125q0.34375 0 0.5625 -0.0625q0.234375 -0.0625 0.453125 -0.1875q0.21875 -0.125 0.4375 -0.34375q0.234375 -0.234375 0.328125 -0.421875q0.109375 -0.1875 0.15625 -0.421875q0.0625 -0.25 0.0625 -0.640625l0 -1.75zm7.0 4.765625q-1.625 0 -2.484375 -0.953125q-0.84375 -0.96875 -0.84375 -2.84375q0 -1.28125 0.4375 -2.171875q0.453125 -0.890625 1.234375 -1.328125q0.78125 -0.4375 1.78125 -0.4375q1.671875 0 2.53125 0.984375q0.859375 0.96875 0.859375 2.78125q0 1.296875 -0.4375 2.1875q-0.421875 0.890625 -1.21875 1.34375q-0.78125 0.4375 -1.859375 0.4375zm-1.859375 -3.953125q0 1.609375 0.515625 2.46875q0.515625 0.859375 1.46875 0.859375q0.515625 0 0.875 -0.25q0.375 -0.25 0.609375 -0.671875q0.234375 -0.4375 0.328125 -1.0q0.109375 -0.578125 0.109375 -1.1875q0 -1.15625 -0.265625 -1.90625q-0.25 -0.765625 -0.6875 -1.109375q-0.4375 -0.359375 -1.0 -0.359375q-0.9375 0 -1.453125 0.828125q-0.5 0.8125 -0.5 2.328125zm12.4296875 -2.015625l-2.046875 5.890625l-1.078125 0l-1.875 -5.8125q-0.1875 -0.5625 -0.3125 -0.78125q-0.109375 -0.234375 -0.25 -0.34375q-0.140625 -0.125 -0.4375 -0.203125l0 -0.375l3.078125 0l0 0.375q-0.453125 0.09375 -0.609375 0.25q-0.15625 0.15625 -0.15625 0.453125q0 0.21875 0.046875 0.453125q0.046875 0.21875 0.140625 0.53125l1.21875 3.984375l2.015625 -6.046875l1.09375 0l1.703125 6.046875l1.375 -3.828125q0.109375 -0.296875 0.171875 -0.5625q0.078125 -0.265625 0.078125 -0.5q0 -0.328125 -0.171875 -0.5q-0.171875 -0.1875 -0.59375 -0.28125l0 -0.375l2.71875 0l0 0.375q-0.21875 0.0625 -0.328125 0.125q-0.109375 0.046875 -0.21875 0.171875q-0.09375 0.109375 -0.234375 0.34375q-0.125 0.234375 -0.3125 0.734375l-2.265625 5.765625l-1.046875 0l-1.703125 -5.890625z" fill-rule="nonzero"></path><path fill="#000000" fill-opacity="0.0" d="m389.25934 188.29659l181.48035 0l0 33.51181l-181.48035 0z" fill-rule="nonzero"></path><path fill="#000000" d="m430.4956 210.67221q0 0.46875 0.046875 0.75q0.046875 0.265625 0.15625 0.421875q0.109375 0.15625 0.28125 0.25q0.1875 0.09375 0.5625 0.171875l0 0.390625l-3.421875 0l0 -0.390625q0.484375 -0.125 0.640625 -0.265625q0.171875 -0.15625 0.21875 -0.4375q0.046875 -0.28125 0.046875 -0.859375l0 -6.765625q0 -0.53125 -0.046875 -0.78125q-0.03125 -0.25 -0.125 -0.375q-0.078125 -0.140625 -0.234375 -0.21875q-0.140625 -0.09375 -0.5 -0.1875l0 -0.390625l3.875 0q1.828125 0 2.71875 0.703125q0.890625 0.703125 0.890625 2.125q0 0.8125 -0.28125 1.46875q-0.28125 0.640625 -0.796875 1.0625q-0.515625 0.40625 -1.21875 0.59375q-0.703125 0.171875 -1.46875 0.171875q-0.875 0 -1.34375 -0.03125l0 2.59375zm0 -3.234375l0.90625 0q0.875 0 1.453125 -0.234375q0.578125 -0.234375 0.875 -0.765625q0.3125 -0.53125 0.3125 -1.421875q0 -0.671875 -0.1875 -1.109375q-0.171875 -0.453125 -0.5 -0.71875q-0.3125 -0.28125 -0.75 -0.390625q-0.4375 -0.125 -0.953125 -0.125q-0.765625 0 -1.15625 0.03125l0 4.734375zm8.6328125 -0.953125l0.109375 0.015625q0.421875 -0.515625 0.78125 -0.8125q0.375 -0.3125 0.796875 -0.46875q0.4375 -0.171875 0.96875 -0.171875q0.453125 0 0.828125 0.046875l0 1.796875l-0.890625 0q-0.1875 -0.421875 -0.40625 -0.609375q-0.203125 -0.1875 -0.5625 -0.1875q-0.28125 0 -0.5625 0.171875q-0.28125 0.15625 -0.546875 0.46875q-0.25 0.3125 -0.34375 0.59375q-0.09375 0.265625 -0.09375 0.640625l0 2.734375q0 0.703125 0.078125 0.984375q0.09375 0.265625 0.28125 0.390625q0.203125 0.125 0.609375 0.1875l0 0.390625l-3.15625 0l0 -0.390625q0.296875 -0.09375 0.421875 -0.15625q0.140625 -0.078125 0.234375 -0.203125q0.09375 -0.125 0.140625 -0.375q0.046875 -0.265625 0.046875 -0.8125l0 -3.40625q0 -0.5 -0.015625 -0.796875q-0.015625 -0.3125 -0.109375 -0.484375q-0.09375 -0.1875 -0.296875 -0.28125q-0.1875 -0.09375 -0.53125 -0.15625l0 -0.40625l1.828125 -0.078125l0.46875 0l-0.078125 1.375zm10.7421875 4.84375q-0.5 0.515625 -0.921875 0.8125q-0.40625 0.296875 -0.90625 0.46875q-0.5 0.171875 -1.109375 0.171875q-1.609375 0 -2.4375 -0.96875q-0.8125 -0.96875 -0.8125 -2.84375q0 -1.171875 0.421875 -2.0625q0.421875 -0.890625 1.1875 -1.375q0.78125 -0.484375 1.78125 -0.484375q0.796875 0 1.34375 0.25q0.5625 0.25 0.890625 0.6875q0.328125 0.4375 0.515625 1.09375q0.1875 0.65625 0.203125 1.71875l-4.921875 0l0 0.140625q0 0.921875 0.203125 1.5625q0.21875 0.625 0.6875 0.984375q0.46875 0.34375 1.234375 0.34375q0.640625 0 1.140625 -0.234375q0.515625 -0.234375 1.03125 -0.78125l0.46875 0.515625zm-1.3125 -3.171875q-0.046875 -0.84375 -0.21875 -1.375q-0.15625 -0.546875 -0.484375 -0.828125q-0.328125 -0.28125 -0.859375 -0.28125q-0.796875 0 -1.28125 0.640625q-0.484375 0.640625 -0.5625 1.84375l3.40625 0zm8.1484375 -4.0q0 -0.75 -0.015625 -1.046875q0 -0.296875 -0.0625 -0.5q-0.046875 -0.203125 -0.140625 -0.3125q-0.078125 -0.125 -0.234375 -0.1875q-0.15625 -0.078125 -0.546875 -0.15625l0 -0.40625l1.890625 -0.078125l0.453125 0l0 9.046875q0 0.609375 0.015625 0.875q0.03125 0.265625 0.109375 0.421875q0.078125 0.15625 0.25 0.25q0.171875 0.09375 0.59375 0.1875l0 0.40625l-1.84375 0.078125l-0.46875 0l0.09375 -1.28125l-0.125 -0.03125q-0.484375 0.515625 -0.859375 0.78125q-0.359375 0.265625 -0.765625 0.421875q-0.40625 0.15625 -0.875 0.15625q-1.28125 0 -1.984375 -0.96875q-0.6875 -0.984375 -0.6875 -2.8125q0 -1.28125 0.453125 -2.171875q0.453125 -0.90625 1.21875 -1.34375q0.765625 -0.4375 1.734375 -0.4375q0.515625 0 0.9375 0.09375q0.421875 0.078125 0.859375 0.265625l0 -1.25zm0 3.859375q0 -0.609375 -0.0625 -0.96875q-0.046875 -0.375 -0.171875 -0.625q-0.125 -0.25 -0.34375 -0.421875q-0.21875 -0.171875 -0.484375 -0.25q-0.265625 -0.078125 -0.625 -0.078125q-1.0 0 -1.53125 0.8125q-0.515625 0.796875 -0.515625 2.296875q0 1.5 0.421875 2.28125q0.4375 0.78125 1.3125 0.78125q0.34375 0 0.5625 -0.0625q0.234375 -0.0625 0.453125 -0.1875q0.21875 -0.125 0.4375 -0.34375q0.234375 -0.234375 0.328125 -0.421875q0.109375 -0.1875 0.15625 -0.421875q0.0625 -0.25 0.0625 -0.640625l0 -1.75zm5.84375 -5.890625l0 1.515625l-1.4375 0l0 -1.515625l1.4375 0zm-2.234375 10.140625q0.296875 -0.09375 0.421875 -0.15625q0.140625 -0.078125 0.21875 -0.203125q0.09375 -0.125 0.140625 -0.375q0.0625 -0.265625 0.0625 -0.8125l0 -3.40625q0 -0.5 -0.015625 -0.796875q-0.015625 -0.3125 -0.109375 -0.484375q-0.09375 -0.1875 -0.296875 -0.28125q-0.1875 -0.09375 -0.53125 -0.15625l0 -0.40625l1.8125 -0.078125l0.484375 0l0 5.59375q0 0.671875 0.0625 0.9375q0.0625 0.25 0.234375 0.390625q0.171875 0.140625 0.578125 0.234375l0 0.390625l-3.0625 0l0 -0.390625zm10.2578125 -6.90625l0 1.640625l-0.984375 0q-0.140625 -0.515625 -0.34375 -0.796875q-0.1875 -0.296875 -0.453125 -0.40625q-0.25 -0.125 -0.625 -0.125q-0.546875 0 -0.96875 0.359375q-0.421875 0.34375 -0.671875 1.0625q-0.25 0.71875 -0.25 1.75q0 0.671875 0.09375 1.21875q0.09375 0.546875 0.3125 0.9375q0.234375 0.390625 0.609375 0.609375q0.375 0.21875 0.9375 0.21875q0.53125 0 1.0 -0.203125q0.46875 -0.21875 0.96875 -0.75l0.4375 0.515625q-0.390625 0.4375 -0.703125 0.6875q-0.296875 0.234375 -0.65625 0.390625q-0.34375 0.15625 -0.6875 0.234375q-0.328125 0.078125 -0.734375 0.078125q-1.46875 0 -2.25 -0.984375q-0.78125 -0.984375 -0.78125 -2.828125q0 -1.15625 0.4375 -2.046875q0.4375 -0.90625 1.21875 -1.390625q0.796875 -0.484375 1.828125 -0.484375q0.640625 0 1.171875 0.078125q0.546875 0.078125 1.09375 0.234375zm0.7734375 0.21875q0.390625 -0.0625 0.625 -0.21875q0.25 -0.15625 0.375 -0.40625q0.140625 -0.25 0.21875 -0.609375q0.078125 -0.375 0.171875 -1.09375l1.109375 0l0 1.9375l2.515625 0l0 0.78125l-2.515625 0l0 3.484375q0 0.75 0.0625 1.203125q0.0625 0.453125 0.234375 0.703125q0.171875 0.25 0.390625 0.359375q0.21875 0.109375 0.5625 0.109375q0.3125 0 0.578125 -0.125q0.28125 -0.125 0.546875 -0.375l0.34375 0.421875q-0.546875 0.546875 -1.046875 0.796875q-0.5 0.234375 -1.03125 0.234375q-1.0 0 -1.5 -0.59375q-0.484375 -0.609375 -0.484375 -1.875l0 -4.34375l-1.15625 0l0 -0.390625zm8.1171875 -3.453125l0 1.515625l-1.4375 0l0 -1.515625l1.4375 0zm-2.234375 10.140625q0.296875 -0.09375 0.421875 -0.15625q0.140625 -0.078125 0.21875 -0.203125q0.09375 -0.125 0.140625 -0.375q0.0625 -0.265625 0.0625 -0.8125l0 -3.40625q0 -0.5 -0.015625 -0.796875q-0.015625 -0.3125 -0.109375 -0.484375q-0.09375 -0.1875 -0.296875 -0.28125q-0.1875 -0.09375 -0.53125 -0.15625l0 -0.40625l1.8125 -0.078125l0.484375 0l0 5.59375q0 0.671875 0.0625 0.9375q0.0625 0.25 0.234375 0.390625q0.171875 0.140625 0.578125 0.234375l0 0.390625l-3.0625 0l0 -0.390625zm7.8359375 0.515625q-1.625 0 -2.484375 -0.953125q-0.84375 -0.96875 -0.84375 -2.84375q0 -1.28125 0.4375 -2.171875q0.453125 -0.890625 1.234375 -1.328125q0.78125 -0.4375 1.78125 -0.4375q1.671875 0 2.53125 0.984375q0.859375 0.96875 0.859375 2.78125q0 1.296875 -0.4375 2.1875q-0.421875 0.890625 -1.21875 1.34375q-0.78125 0.4375 -1.859375 0.4375zm-1.859375 -3.953125q0 1.609375 0.515625 2.46875q0.515625 0.859375 1.46875 0.859375q0.515625 0 0.875 -0.25q0.375 -0.25 0.609375 -0.671875q0.234375 -0.4375 0.328125 -1.0q0.109375 -0.578125 0.109375 -1.1875q0 -1.15625 -0.265625 -1.90625q-0.25 -0.765625 -0.6875 -1.109375q-0.4375 -0.359375 -1.0 -0.359375q-0.9375 0 -1.453125 0.828125q-0.5 0.8125 -0.5 2.328125zm14.5703125 3.828125l-3.078125 0l0 -0.390625q0.296875 -0.09375 0.421875 -0.15625q0.140625 -0.078125 0.234375 -0.203125q0.09375 -0.125 0.140625 -0.375q0.046875 -0.265625 0.046875 -0.796875l0 -2.046875q0 -0.546875 -0.03125 -0.984375q-0.03125 -0.453125 -0.109375 -0.734375q-0.0625 -0.296875 -0.171875 -0.453125q-0.109375 -0.15625 -0.25 -0.265625q-0.140625 -0.125 -0.328125 -0.1875q-0.1875 -0.0625 -0.5 -0.0625q-0.296875 0 -0.578125 0.125q-0.265625 0.109375 -0.59375 0.40625q-0.328125 0.296875 -0.484375 0.59375q-0.140625 0.28125 -0.140625 0.65625l0 2.921875q0 0.671875 0.0625 0.9375q0.0625 0.25 0.234375 0.390625q0.171875 0.140625 0.578125 0.234375l0 0.390625l-3.0625 0l0 -0.390625q0.296875 -0.09375 0.421875 -0.15625q0.140625 -0.078125 0.21875 -0.203125q0.09375 -0.125 0.140625 -0.375q0.0625 -0.265625 0.0625 -0.8125l0 -3.40625q0 -0.5 -0.015625 -0.796875q-0.015625 -0.3125 -0.109375 -0.484375q-0.09375 -0.1875 -0.296875 -0.28125q-0.1875 -0.09375 -0.53125 -0.15625l0 -0.40625l1.828125 -0.078125l0.46875 0l-0.078125 1.28125l0.109375 0.03125q0.578125 -0.59375 0.921875 -0.84375q0.359375 -0.25 0.71875 -0.375q0.375 -0.140625 0.78125 -0.140625q0.421875 0 0.75 0.09375q0.328125 0.09375 0.578125 0.296875q0.265625 0.203125 0.421875 0.515625q0.171875 0.296875 0.25 0.71875q0.078125 0.421875 0.078125 1.0625l0 2.953125q0 0.53125 0.03125 0.78125q0.03125 0.234375 0.109375 0.375q0.078125 0.125 0.21875 0.21875q0.15625 0.09375 0.53125 0.1875l0 0.390625zm4.375 -7.078125q0.390625 -0.0625 0.625 -0.21875q0.25 -0.15625 0.375 -0.40625q0.140625 -0.25 0.21875 -0.609375q0.078125 -0.375 0.171875 -1.09375l1.109375 0l0 1.9375l2.515625 0l0 0.78125l-2.515625 0l0 3.484375q0 0.75 0.0625 1.203125q0.0625 0.453125 0.234375 0.703125q0.171875 0.25 0.390625 0.359375q0.21875 0.109375 0.5625 0.109375q0.3125 0 0.578125 -0.125q0.28125 -0.125 0.546875 -0.375l0.34375 0.421875q-0.546875 0.546875 -1.046875 0.796875q-0.5 0.234375 -1.03125 0.234375q-1.0 0 -1.5 -0.59375q-0.484375 -0.609375 -0.484375 -1.875l0 -4.34375l-1.15625 0l0 -0.390625zm8.1171875 -3.453125l0 1.515625l-1.4375 0l0 -1.515625l1.4375 0zm-2.234375 10.140625q0.296875 -0.09375 0.421875 -0.15625q0.140625 -0.078125 0.21875 -0.203125q0.09375 -0.125 0.140625 -0.375q0.0625 -0.265625 0.0625 -0.8125l0 -3.40625q0 -0.5 -0.015625 -0.796875q-0.015625 -0.3125 -0.109375 -0.484375q-0.09375 -0.1875 -0.296875 -0.28125q-0.1875 -0.09375 -0.53125 -0.15625l0 -0.40625l1.8125 -0.078125l0.484375 0l0 5.59375q0 0.671875 0.0625 0.9375q0.0625 0.25 0.234375 0.390625q0.171875 0.140625 0.578125 0.234375l0 0.390625l-3.0625 0l0 -0.390625zm6.5546875 -5.875l0.109375 0.03125q0.46875 -0.46875 0.765625 -0.703125q0.296875 -0.25 0.578125 -0.390625q0.28125 -0.140625 0.53125 -0.203125q0.25 -0.0625 0.5 -0.0625q0.78125 0 1.265625 0.359375q0.5 0.359375 0.6875 1.09375q0.59375 -0.59375 0.953125 -0.875q0.359375 -0.28125 0.734375 -0.421875q0.390625 -0.15625 0.828125 -0.15625q0.515625 0 0.890625 0.15625q0.390625 0.140625 0.640625 0.46875q0.265625 0.3125 0.390625 0.796875q0.125 0.46875 0.125 1.265625l0 2.953125q0 0.59375 0.03125 0.828125q0.046875 0.21875 0.109375 0.34375q0.078125 0.125 0.21875 0.21875q0.15625 0.078125 0.515625 0.171875l0 0.390625l-3.078125 0l0 -0.390625q0.3125 -0.09375 0.4375 -0.15625q0.140625 -0.078125 0.21875 -0.203125q0.09375 -0.125 0.140625 -0.375q0.0625 -0.265625 0.0625 -0.796875l0 -2.046875q0 -0.671875 -0.046875 -1.09375q-0.03125 -0.4375 -0.109375 -0.6875q-0.0625 -0.265625 -0.171875 -0.40625q-0.109375 -0.15625 -0.25 -0.265625q-0.125 -0.109375 -0.3125 -0.171875q-0.171875 -0.0625 -0.46875 -0.0625q-0.3125 0 -0.578125 0.125q-0.265625 0.125 -0.59375 0.421875q-0.3125 0.296875 -0.453125 0.59375q-0.140625 0.296875 -0.140625 0.703125l0 2.859375q0 0.59375 0.03125 0.828125q0.046875 0.21875 0.125 0.34375q0.078125 0.125 0.21875 0.21875q0.15625 0.078125 0.5 0.171875l0 0.390625l-3.0625 0l0 -0.390625q0.296875 -0.09375 0.421875 -0.15625q0.140625 -0.078125 0.234375 -0.203125q0.09375 -0.125 0.140625 -0.375q0.046875 -0.265625 0.046875 -0.796875l0 -2.046875q0 -0.703125 -0.046875 -1.140625q-0.03125 -0.4375 -0.109375 -0.703125q-0.078125 -0.265625 -0.21875 -0.421875q-0.125 -0.171875 -0.265625 -0.25q-0.125 -0.09375 -0.3125 -0.125q-0.171875 -0.046875 -0.390625 -0.046875q-0.328125 0 -0.609375 0.140625q-0.28125 0.140625 -0.578125 0.421875q-0.28125 0.265625 -0.4375 0.5625q-0.140625 0.296875 -0.140625 0.640625l0 2.9375q0 0.4375 0.015625 0.671875q0.03125 0.234375 0.078125 0.375q0.046875 0.125 0.125 0.21875q0.078125 0.078125 0.21875 0.15625q0.15625 0.0625 0.4375 0.140625l0 0.390625l-3.0625 0l0 -0.390625q0.296875 -0.09375 0.421875 -0.15625q0.140625 -0.078125 0.234375 -0.203125q0.09375 -0.125 0.140625 -0.375q0.046875 -0.265625 0.046875 -0.8125l0 -3.40625q0 -0.5 -0.015625 -0.796875q-0.015625 -0.3125 -0.109375 -0.484375q-0.09375 -0.1875 -0.296875 -0.28125q-0.1875 -0.09375 -0.53125 -0.15625l0 -0.40625l1.828125 -0.078125l0.46875 0l-0.078125 1.28125zm17.4375 4.9375q-0.5 0.515625 -0.921875 0.8125q-0.40625 0.296875 -0.90625 0.46875q-0.5 0.171875 -1.109375 0.171875q-1.609375 0 -2.4375 -0.96875q-0.8125 -0.96875 -0.8125 -2.84375q0 -1.171875 0.421875 -2.0625q0.421875 -0.890625 1.1875 -1.375q0.78125 -0.484375 1.78125 -0.484375q0.796875 0 1.34375 0.25q0.5625 0.25 0.890625 0.6875q0.328125 0.4375 0.515625 1.09375q0.1875 0.65625 0.203125 1.71875l-4.921875 0l0 0.140625q0 0.921875 0.203125 1.5625q0.21875 0.625 0.6875 0.984375q0.46875 0.34375 1.234375 0.34375q0.640625 0 1.140625 -0.234375q0.515625 -0.234375 1.03125 -0.78125l0.46875 0.515625zm-1.3125 -3.171875q-0.046875 -0.84375 -0.21875 -1.375q-0.15625 -0.546875 -0.484375 -0.828125q-0.328125 -0.28125 -0.859375 -0.28125q-0.796875 0 -1.28125 0.640625q-0.484375 0.640625 -0.5625 1.84375l3.40625 0z" fill-rule="nonzero"></path><path fill="#000000" fill-opacity="0.0" d="m478.13647 282.70078l0 0c0 -8.158142 6.8566895 -14.771637 15.314819 -14.771637l24.866455 0l0 0c8.45813 0 15.314819 6.613495 15.314819 14.771637z" fill-rule="nonzero"></path><path fill="#000000" fill-opacity="0.0" d="m478.13647 282.70078l0 0c0 -8.158142 6.8566895 -14.771637 15.314819 -14.771637l24.866455 0l0 0c8.45813 0 15.314819 6.613495 15.314819 14.771637" fill-rule="nonzero"></path><path stroke="#595959" stroke-width="3.0" stroke-linejoin="round" stroke-linecap="butt" d="m478.13647 282.70078l0 0c0 -8.158142 6.8566895 -14.771637 15.314819 -14.771637l24.866455 0l0 0c8.45813 0 15.314819 6.613495 15.314819 14.771637" fill-rule="nonzero"></path><path fill="#000000" fill-opacity="0.0" d="m785.64307 283.07086l0 0c0 -8.158142 6.8566284 -14.771637 15.314758 -14.771637l24.866455 0l0 0c8.45813 0 15.314819 6.613495 15.314819 14.771637z" fill-rule="nonzero"></path><path fill="#000000" fill-opacity="0.0" d="m785.64307 283.07086l0 0c0 -8.158142 6.8566284 -14.771637 15.314758 -14.771637l24.866455 0l0 0c8.45813 0 15.314819 6.613495 15.314819 14.771637" fill-rule="nonzero"></path><path stroke="#595959" stroke-width="3.0" stroke-linejoin="round" stroke-linecap="butt" d="m785.64307 283.07086l0 0c0 -8.158142 6.8566284 -14.771637 15.314758 -14.771637l24.866455 0l0 0c8.45813 0 15.314819 6.613495 15.314819 14.771637" fill-rule="nonzero"></path><path fill="#000000" fill-opacity="0.0" d="m748.2507 249.32808l0 121.32283" fill-rule="nonzero"></path><path stroke="#595959" stroke-width="2.0" stroke-linejoin="round" stroke-linecap="butt" stroke-dasharray="8.0,6.0" d="m748.2507 249.32808l0 121.32283" fill-rule="nonzero"></path><path fill="#000000" fill-opacity="0.0" d="m721.4142 229.32414l181.48035 0l0 33.511826l-181.48035 0z" fill-rule="nonzero"></path><path fill="#000000" d="m790.57623 245.01227l-2.5 8.734375l-1.265625 0l-2.28125 -8.5q-0.140625 -0.53125 -0.265625 -0.859375q-0.109375 -0.34375 -0.234375 -0.53125q-0.109375 -0.1875 -0.25 -0.28125q-0.125 -0.109375 -0.390625 -0.171875l0 -0.390625l3.34375 0l0 0.390625q-0.484375 0.09375 -0.671875 0.28125q-0.1875 0.1875 -0.1875 0.515625q0 0.28125 0.0625 0.65625q0.078125 0.375 0.203125 0.84375l1.5625 6.171875l2.515625 -8.859375l1.3125 0l2.046875 8.875l1.84375 -5.96875q0.328125 -1.078125 0.328125 -1.546875q0 -0.46875 -0.203125 -0.671875q-0.1875 -0.21875 -0.65625 -0.296875l0 -0.390625l3.078125 0l0 0.390625q-0.234375 0.078125 -0.375 0.171875q-0.140625 0.09375 -0.265625 0.265625q-0.125 0.171875 -0.28125 0.53125q-0.15625 0.34375 -0.359375 0.9375l-2.84375 8.4375l-1.109375 0l-2.15625 -8.734375zm10.3828125 -1.859375l0 1.515625l-1.4375 0l0 -1.515625l1.4375 0zm-2.234375 10.140625q0.296875 -0.09375 0.421875 -0.15625q0.140625 -0.078125 0.21875 -0.203125q0.09375 -0.125 0.140625 -0.375q0.0625 -0.265625 0.0625 -0.8125l0 -3.40625q0 -0.5 -0.015625 -0.796875q-0.015625 -0.3125 -0.109375 -0.484375q-0.09375 -0.1875 -0.296875 -0.28125q-0.1875 -0.09375 -0.53125 -0.15625l0 -0.40625l1.8125 -0.078125l0.484375 0l0 5.59375q0 0.671875 0.0625 0.9375q0.0625 0.25 0.234375 0.390625q0.171875 0.140625 0.578125 0.234375l0 0.390625l-3.0625 0l0 -0.390625zm12.0546875 0.390625l-3.078125 0l0 -0.390625q0.296875 -0.09375 0.421875 -0.15625q0.140625 -0.078125 0.234375 -0.203125q0.09375 -0.125 0.140625 -0.375q0.046875 -0.265625 0.046875 -0.796875l0 -2.046875q0 -0.546875 -0.03125 -0.984375q-0.03125 -0.453125 -0.109375 -0.734375q-0.0625 -0.296875 -0.171875 -0.453125q-0.109375 -0.15625 -0.25 -0.265625q-0.140625 -0.125 -0.328125 -0.1875q-0.1875 -0.0625 -0.5 -0.0625q-0.296875 0 -0.578125 0.125q-0.265625 0.109375 -0.59375 0.40625q-0.328125 0.296875 -0.484375 0.59375q-0.140625 0.28125 -0.140625 0.65625l0 2.921875q0 0.671875 0.0625 0.9375q0.0625 0.25 0.234375 0.390625q0.171875 0.140625 0.578125 0.234375l0 0.390625l-3.0625 0l0 -0.390625q0.296875 -0.09375 0.421875 -0.15625q0.140625 -0.078125 0.21875 -0.203125q0.09375 -0.125 0.140625 -0.375q0.0625 -0.265625 0.0625 -0.8125l0 -3.40625q0 -0.5 -0.015625 -0.796875q-0.015625 -0.3125 -0.109375 -0.484375q-0.09375 -0.1875 -0.296875 -0.28125q-0.1875 -0.09375 -0.53125 -0.15625l0 -0.40625l1.828125 -0.078125l0.46875 0l-0.078125 1.28125l0.109375 0.03125q0.578125 -0.59375 0.921875 -0.84375q0.359375 -0.25 0.71875 -0.375q0.375 -0.140625 0.78125 -0.140625q0.421875 0 0.75 0.09375q0.328125 0.09375 0.578125 0.296875q0.265625 0.203125 0.421875 0.515625q0.171875 0.296875 0.25 0.71875q0.078125 0.421875 0.078125 1.0625l0 2.953125q0 0.53125 0.03125 0.78125q0.03125 0.234375 0.109375 0.375q0.078125 0.125 0.21875 0.21875q0.15625 0.09375 0.53125 0.1875l0 0.390625zm6.5859375 -8.5q0 -0.75 -0.015625 -1.046875q0 -0.296875 -0.0625 -0.5q-0.046875 -0.203125 -0.140625 -0.3125q-0.078125 -0.125 -0.234375 -0.1875q-0.15625 -0.078125 -0.546875 -0.15625l0 -0.40625l1.890625 -0.078125l0.453125 0l0 9.046875q0 0.609375 0.015625 0.875q0.03125 0.265625 0.109375 0.421875q0.078125 0.15625 0.25 0.25q0.171875 0.09375 0.59375 0.1875l0 0.40625l-1.84375 0.078125l-0.46875 0l0.09375 -1.28125l-0.125 -0.03125q-0.484375 0.515625 -0.859375 0.78125q-0.359375 0.265625 -0.765625 0.421875q-0.40625 0.15625 -0.875 0.15625q-1.28125 0 -1.984375 -0.96875q-0.6875 -0.984375 -0.6875 -2.8125q0 -1.28125 0.453125 -2.171875q0.453125 -0.90625 1.21875 -1.34375q0.765625 -0.4375 1.734375 -0.4375q0.515625 0 0.9375 0.09375q0.421875 0.078125 0.859375 0.265625l0 -1.25zm0 3.859375q0 -0.609375 -0.0625 -0.96875q-0.046875 -0.375 -0.171875 -0.625q-0.125 -0.25 -0.34375 -0.421875q-0.21875 -0.171875 -0.484375 -0.25q-0.265625 -0.078125 -0.625 -0.078125q-1.0 0 -1.53125 0.8125q-0.515625 0.796875 -0.515625 2.296875q0 1.5 0.421875 2.28125q0.4375 0.78125 1.3125 0.78125q0.34375 0 0.5625 -0.0625q0.234375 -0.0625 0.453125 -0.1875q0.21875 -0.125 0.4375 -0.34375q0.234375 -0.234375 0.328125 -0.421875q0.109375 -0.1875 0.15625 -0.421875q0.0625 -0.25 0.0625 -0.640625l0 -1.75zm7.0 4.765625q-1.625 0 -2.484375 -0.953125q-0.84375 -0.96875 -0.84375 -2.84375q0 -1.28125 0.4375 -2.171875q0.453125 -0.890625 1.234375 -1.328125q0.78125 -0.4375 1.78125 -0.4375q1.671875 0 2.53125 0.984375q0.859375 0.96875 0.859375 2.78125q0 1.296875 -0.4375 2.1875q-0.421875 0.890625 -1.21875 1.34375q-0.78125 0.4375 -1.859375 0.4375zm-1.859375 -3.953125q0 1.609375 0.515625 2.46875q0.515625 0.859375 1.46875 0.859375q0.515625 0 0.875 -0.25q0.375 -0.25 0.609375 -0.671875q0.234375 -0.4375 0.328125 -1.0q0.109375 -0.578125 0.109375 -1.1875q0 -1.15625 -0.265625 -1.90625q-0.25 -0.765625 -0.6875 -1.109375q-0.4375 -0.359375 -1.0 -0.359375q-0.9375 0 -1.453125 0.828125q-0.5 0.8125 -0.5 2.328125zm12.4296875 -2.015625l-2.046875 5.890625l-1.078125 0l-1.875 -5.8125q-0.1875 -0.5625 -0.3125 -0.78125q-0.109375 -0.234375 -0.25 -0.34375q-0.140625 -0.125 -0.4375 -0.203125l0 -0.375l3.078125 0l0 0.375q-0.453125 0.09375 -0.609375 0.25q-0.15625 0.15625 -0.15625 0.453125q0 0.21875 0.046875 0.453125q0.046875 0.21875 0.140625 0.53125l1.21875 3.984375l2.015625 -6.046875l1.09375 0l1.703125 6.046875l1.375 -3.828125q0.109375 -0.296875 0.171875 -0.5625q0.078125 -0.265625 0.078125 -0.5q0 -0.328125 -0.171875 -0.5q-0.171875 -0.1875 -0.59375 -0.28125l0 -0.375l2.71875 0l0 0.375q-0.21875 0.0625 -0.328125 0.125q-0.109375 0.046875 -0.21875 0.171875q-0.09375 0.109375 -0.234375 0.34375q-0.125 0.234375 -0.3125 0.734375l-2.265625 5.765625l-1.046875 0l-1.703125 -5.890625z" fill-rule="nonzero"></path><path fill="#000000" fill-opacity="0.0" d="m652.88666 190.3517l181.48029 0l0 33.51181l-181.48029 0z" fill-rule="nonzero"></path><path fill="#000000" d="m694.1229 212.72733q0 0.46875 0.046875 0.75q0.046875 0.265625 0.15625 0.421875q0.109375 0.15625 0.28125 0.25q0.1875 0.09375 0.5625 0.171875l0 0.390625l-3.421875 0l0 -0.390625q0.484375 -0.125 0.640625 -0.265625q0.171875 -0.15625 0.21875 -0.4375q0.046875 -0.28125 0.046875 -0.859375l0 -6.765625q0 -0.53125 -0.046875 -0.78125q-0.03125 -0.25 -0.125 -0.375q-0.078125 -0.140625 -0.234375 -0.21875q-0.140625 -0.09375 -0.5 -0.1875l0 -0.390625l3.875 0q1.828125 0 2.71875 0.703125q0.890625 0.703125 0.890625 2.125q0 0.8125 -0.28125 1.46875q-0.28125 0.640625 -0.796875 1.0625q-0.515625 0.40625 -1.21875 0.59375q-0.703125 0.171875 -1.46875 0.171875q-0.875 0 -1.34375 -0.03125l0 2.59375zm0 -3.234375l0.90625 0q0.875 0 1.453125 -0.234375q0.578125 -0.234375 0.875 -0.765625q0.3125 -0.53125 0.3125 -1.421875q0 -0.671875 -0.1875 -1.109375q-0.171875 -0.453125 -0.5 -0.71875q-0.3125 -0.28125 -0.75 -0.390625q-0.4375 -0.125 -0.953125 -0.125q-0.765625 0 -1.15625 0.03125l0 4.734375zm8.6328125 -0.953125l0.109375 0.015625q0.421875 -0.515625 0.78125 -0.8125q0.375 -0.3125 0.796875 -0.46875q0.4375 -0.171875 0.96875 -0.171875q0.453125 0 0.828125 0.046875l0 1.796875l-0.890625 0q-0.1875 -0.421875 -0.40625 -0.609375q-0.203125 -0.1875 -0.5625 -0.1875q-0.28125 0 -0.5625 0.171875q-0.28125 0.15625 -0.546875 0.46875q-0.25 0.3125 -0.34375 0.59375q-0.09375 0.265625 -0.09375 0.640625l0 2.734375q0 0.703125 0.078125 0.984375q0.09375 0.265625 0.28125 0.390625q0.203125 0.125 0.609375 0.1875l0 0.390625l-3.15625 0l0 -0.390625q0.296875 -0.09375 0.421875 -0.15625q0.140625 -0.078125 0.234375 -0.203125q0.09375 -0.125 0.140625 -0.375q0.046875 -0.265625 0.046875 -0.8125l0 -3.40625q0 -0.5 -0.015625 -0.796875q-0.015625 -0.3125 -0.109375 -0.484375q-0.09375 -0.1875 -0.296875 -0.28125q-0.1875 -0.09375 -0.53125 -0.15625l0 -0.40625l1.828125 -0.078125l0.46875 0l-0.078125 1.375zm10.7421875 4.84375q-0.5 0.515625 -0.921875 0.8125q-0.40625 0.296875 -0.90625 0.46875q-0.5 0.171875 -1.109375 0.171875q-1.609375 0 -2.4375 -0.96875q-0.8125 -0.96875 -0.8125 -2.84375q0 -1.171875 0.421875 -2.0625q0.421875 -0.890625 1.1875 -1.375q0.78125 -0.484375 1.78125 -0.484375q0.796875 0 1.34375 0.25q0.5625 0.25 0.890625 0.6875q0.328125 0.4375 0.515625 1.09375q0.1875 0.65625 0.203125 1.71875l-4.921875 0l0 0.140625q0 0.921875 0.203125 1.5625q0.21875 0.625 0.6875 0.984375q0.46875 0.34375 1.234375 0.34375q0.640625 0 1.140625 -0.234375q0.515625 -0.234375 1.03125 -0.78125l0.46875 0.515625zm-1.3125 -3.171875q-0.046875 -0.84375 -0.21875 -1.375q-0.15625 -0.546875 -0.484375 -0.828125q-0.328125 -0.28125 -0.859375 -0.28125q-0.796875 0 -1.28125 0.640625q-0.484375 0.640625 -0.5625 1.84375l3.40625 0zm8.1484375 -4.0q0 -0.75 -0.015625 -1.046875q0 -0.296875 -0.0625 -0.5q-0.046875 -0.203125 -0.140625 -0.3125q-0.078125 -0.125 -0.234375 -0.1875q-0.15625 -0.078125 -0.546875 -0.15625l0 -0.40625l1.890625 -0.078125l0.453125 0l0 9.046875q0 0.609375 0.015625 0.875q0.03125 0.265625 0.109375 0.421875q0.078125 0.15625 0.25 0.25q0.171875 0.09375 0.59375 0.1875l0 0.40625l-1.84375 0.078125l-0.46875 0l0.09375 -1.28125l-0.125 -0.03125q-0.484375 0.515625 -0.859375 0.78125q-0.359375 0.265625 -0.765625 0.421875q-0.40625 0.15625 -0.875 0.15625q-1.28125 0 -1.984375 -0.96875q-0.6875 -0.984375 -0.6875 -2.8125q0 -1.28125 0.453125 -2.171875q0.453125 -0.90625 1.21875 -1.34375q0.765625 -0.4375 1.734375 -0.4375q0.515625 0 0.9375 0.09375q0.421875 0.078125 0.859375 0.265625l0 -1.25zm0 3.859375q0 -0.609375 -0.0625 -0.96875q-0.046875 -0.375 -0.171875 -0.625q-0.125 -0.25 -0.34375 -0.421875q-0.21875 -0.171875 -0.484375 -0.25q-0.265625 -0.078125 -0.625 -0.078125q-1.0 0 -1.53125 0.8125q-0.515625 0.796875 -0.515625 2.296875q0 1.5 0.421875 2.28125q0.4375 0.78125 1.3125 0.78125q0.34375 0 0.5625 -0.0625q0.234375 -0.0625 0.453125 -0.1875q0.21875 -0.125 0.4375 -0.34375q0.234375 -0.234375 0.328125 -0.421875q0.109375 -0.1875 0.15625 -0.421875q0.0625 -0.25 0.0625 -0.640625l0 -1.75zm5.84375 -5.890625l0 1.515625l-1.4375 0l0 -1.515625l1.4375 0zm-2.234375 10.140625q0.296875 -0.09375 0.421875 -0.15625q0.140625 -0.078125 0.21875 -0.203125q0.09375 -0.125 0.140625 -0.375q0.0625 -0.265625 0.0625 -0.8125l0 -3.40625q0 -0.5 -0.015625 -0.796875q-0.015625 -0.3125 -0.109375 -0.484375q-0.09375 -0.1875 -0.296875 -0.28125q-0.1875 -0.09375 -0.53125 -0.15625l0 -0.40625l1.8125 -0.078125l0.484375 0l0 5.59375q0 0.671875 0.0625 0.9375q0.0625 0.25 0.234375 0.390625q0.171875 0.140625 0.578125 0.234375l0 0.390625l-3.0625 0l0 -0.390625zm10.2578125 -6.90625l0 1.640625l-0.984375 0q-0.140625 -0.515625 -0.34375 -0.796875q-0.1875 -0.296875 -0.453125 -0.40625q-0.25 -0.125 -0.625 -0.125q-0.546875 0 -0.96875 0.359375q-0.421875 0.34375 -0.671875 1.0625q-0.25 0.71875 -0.25 1.75q0 0.671875 0.09375 1.21875q0.09375 0.546875 0.3125 0.9375q0.234375 0.390625 0.609375 0.609375q0.375 0.21875 0.9375 0.21875q0.53125 0 1.0 -0.203125q0.46875 -0.21875 0.96875 -0.75l0.4375 0.515625q-0.390625 0.4375 -0.703125 0.6875q-0.296875 0.234375 -0.65625 0.390625q-0.34375 0.15625 -0.6875 0.234375q-0.328125 0.078125 -0.734375 0.078125q-1.46875 0 -2.25 -0.984375q-0.78125 -0.984375 -0.78125 -2.828125q0 -1.15625 0.4375 -2.046875q0.4375 -0.90625 1.21875 -1.390625q0.796875 -0.484375 1.828125 -0.484375q0.640625 0 1.171875 0.078125q0.546875 0.078125 1.09375 0.234375zm0.7734375 0.21875q0.390625 -0.0625 0.625 -0.21875q0.25 -0.15625 0.375 -0.40625q0.140625 -0.25 0.21875 -0.609375q0.078125 -0.375 0.171875 -1.09375l1.109375 0l0 1.9375l2.515625 0l0 0.78125l-2.515625 0l0 3.484375q0 0.75 0.0625 1.203125q0.0625 0.453125 0.234375 0.703125q0.171875 0.25 0.390625 0.359375q0.21875 0.109375 0.5625 0.109375q0.3125 0 0.578125 -0.125q0.28125 -0.125 0.546875 -0.375l0.34375 0.421875q-0.546875 0.546875 -1.046875 0.796875q-0.5 0.234375 -1.03125 0.234375q-1.0 0 -1.5 -0.59375q-0.484375 -0.609375 -0.484375 -1.875l0 -4.34375l-1.15625 0l0 -0.390625zm8.1171875 -3.453125l0 1.515625l-1.4375 0l0 -1.515625l1.4375 0zm-2.234375 10.140625q0.296875 -0.09375 0.421875 -0.15625q0.140625 -0.078125 0.21875 -0.203125q0.09375 -0.125 0.140625 -0.375q0.0625 -0.265625 0.0625 -0.8125l0 -3.40625q0 -0.5 -0.015625 -0.796875q-0.015625 -0.3125 -0.109375 -0.484375q-0.09375 -0.1875 -0.296875 -0.28125q-0.1875 -0.09375 -0.53125 -0.15625l0 -0.40625l1.8125 -0.078125l0.484375 0l0 5.59375q0 0.671875 0.0625 0.9375q0.0625 0.25 0.234375 0.390625q0.171875 0.140625 0.578125 0.234375l0 0.390625l-3.0625 0l0 -0.390625zm7.8359375 0.515625q-1.625 0 -2.484375 -0.953125q-0.84375 -0.96875 -0.84375 -2.84375q0 -1.28125 0.4375 -2.171875q0.453125 -0.890625 1.234375 -1.328125q0.78125 -0.4375 1.78125 -0.4375q1.671875 0 2.53125 0.984375q0.859375 0.96875 0.859375 2.78125q0 1.296875 -0.4375 2.1875q-0.421875 0.890625 -1.21875 1.34375q-0.78125 0.4375 -1.859375 0.4375zm-1.859375 -3.953125q0 1.609375 0.515625 2.46875q0.515625 0.859375 1.46875 0.859375q0.515625 0 0.875 -0.25q0.375 -0.25 0.609375 -0.671875q0.234375 -0.4375 0.328125 -1.0q0.109375 -0.578125 0.109375 -1.1875q0 -1.15625 -0.265625 -1.90625q-0.25 -0.765625 -0.6875 -1.109375q-0.4375 -0.359375 -1.0 -0.359375q-0.9375 0 -1.453125 0.828125q-0.5 0.8125 -0.5 2.328125zm14.5703125 3.828125l-3.078125 0l0 -0.390625q0.296875 -0.09375 0.421875 -0.15625q0.140625 -0.078125 0.234375 -0.203125q0.09375 -0.125 0.140625 -0.375q0.046875 -0.265625 0.046875 -0.796875l0 -2.046875q0 -0.546875 -0.03125 -0.984375q-0.03125 -0.453125 -0.109375 -0.734375q-0.0625 -0.296875 -0.171875 -0.453125q-0.109375 -0.15625 -0.25 -0.265625q-0.140625 -0.125 -0.328125 -0.1875q-0.1875 -0.0625 -0.5 -0.0625q-0.296875 0 -0.578125 0.125q-0.265625 0.109375 -0.59375 0.40625q-0.328125 0.296875 -0.484375 0.59375q-0.140625 0.28125 -0.140625 0.65625l0 2.921875q0 0.671875 0.0625 0.9375q0.0625 0.25 0.234375 0.390625q0.171875 0.140625 0.578125 0.234375l0 0.390625l-3.0625 0l0 -0.390625q0.296875 -0.09375 0.421875 -0.15625q0.140625 -0.078125 0.21875 -0.203125q0.09375 -0.125 0.140625 -0.375q0.0625 -0.265625 0.0625 -0.8125l0 -3.40625q0 -0.5 -0.015625 -0.796875q-0.015625 -0.3125 -0.109375 -0.484375q-0.09375 -0.1875 -0.296875 -0.28125q-0.1875 -0.09375 -0.53125 -0.15625l0 -0.40625l1.828125 -0.078125l0.46875 0l-0.078125 1.28125l0.109375 0.03125q0.578125 -0.59375 0.921875 -0.84375q0.359375 -0.25 0.71875 -0.375q0.375 -0.140625 0.78125 -0.140625q0.421875 0 0.75 0.09375q0.328125 0.09375 0.578125 0.296875q0.265625 0.203125 0.421875 0.515625q0.171875 0.296875 0.25 0.71875q0.078125 0.421875 0.078125 1.0625l0 2.953125q0 0.53125 0.03125 0.78125q0.03125 0.234375 0.109375 0.375q0.078125 0.125 0.21875 0.21875q0.15625 0.09375 0.53125 0.1875l0 0.390625zm4.375 -7.078125q0.390625 -0.0625 0.625 -0.21875q0.25 -0.15625 0.375 -0.40625q0.140625 -0.25 0.21875 -0.609375q0.078125 -0.375 0.171875 -1.09375l1.109375 0l0 1.9375l2.515625 0l0 0.78125l-2.515625 0l0 3.484375q0 0.75 0.0625 1.203125q0.0625 0.453125 0.234375 0.703125q0.171875 0.25 0.390625 0.359375q0.21875 0.109375 0.5625 0.109375q0.3125 0 0.578125 -0.125q0.28125 -0.125 0.546875 -0.375l0.34375 0.421875q-0.546875 0.546875 -1.046875 0.796875q-0.5 0.234375 -1.03125 0.234375q-1.0 0 -1.5 -0.59375q-0.484375 -0.609375 -0.484375 -1.875l0 -4.34375l-1.15625 0l0 -0.390625zm8.1171875 -3.453125l0 1.515625l-1.4375 0l0 -1.515625l1.4375 0zm-2.234375 10.140625q0.296875 -0.09375 0.421875 -0.15625q0.140625 -0.078125 0.21875 -0.203125q0.09375 -0.125 0.140625 -0.375q0.0625 -0.265625 0.0625 -0.8125l0 -3.40625q0 -0.5 -0.015625 -0.796875q-0.015625 -0.3125 -0.109375 -0.484375q-0.09375 -0.1875 -0.296875 -0.28125q-0.1875 -0.09375 -0.53125 -0.15625l0 -0.40625l1.8125 -0.078125l0.484375 0l0 5.59375q0 0.671875 0.0625 0.9375q0.0625 0.25 0.234375 0.390625q0.171875 0.140625 0.578125 0.234375l0 0.390625l-3.0625 0l0 -0.390625zm6.5546875 -5.875l0.109375 0.03125q0.46875 -0.46875 0.765625 -0.703125q0.296875 -0.25 0.578125 -0.390625q0.28125 -0.140625 0.53125 -0.203125q0.25 -0.0625 0.5 -0.0625q0.78125 0 1.265625 0.359375q0.5 0.359375 0.6875 1.09375q0.59375 -0.59375 0.953125 -0.875q0.359375 -0.28125 0.734375 -0.421875q0.390625 -0.15625 0.828125 -0.15625q0.515625 0 0.890625 0.15625q0.390625 0.140625 0.640625 0.46875q0.265625 0.3125 0.390625 0.796875q0.125 0.46875 0.125 1.265625l0 2.953125q0 0.59375 0.03125 0.828125q0.046875 0.21875 0.109375 0.34375q0.078125 0.125 0.21875 0.21875q0.15625 0.078125 0.515625 0.171875l0 0.390625l-3.078125 0l0 -0.390625q0.3125 -0.09375 0.4375 -0.15625q0.140625 -0.078125 0.21875 -0.203125q0.09375 -0.125 0.140625 -0.375q0.0625 -0.265625 0.0625 -0.796875l0 -2.046875q0 -0.671875 -0.046875 -1.09375q-0.03125 -0.4375 -0.109375 -0.6875q-0.0625 -0.265625 -0.171875 -0.40625q-0.109375 -0.15625 -0.25 -0.265625q-0.125 -0.109375 -0.3125 -0.171875q-0.171875 -0.0625 -0.46875 -0.0625q-0.3125 0 -0.578125 0.125q-0.265625 0.125 -0.59375 0.421875q-0.3125 0.296875 -0.453125 0.59375q-0.140625 0.296875 -0.140625 0.703125l0 2.859375q0 0.59375 0.03125 0.828125q0.046875 0.21875 0.125 0.34375q0.078125 0.125 0.21875 0.21875q0.15625 0.078125 0.5 0.171875l0 0.390625l-3.0625 0l0 -0.390625q0.296875 -0.09375 0.421875 -0.15625q0.140625 -0.078125 0.234375 -0.203125q0.09375 -0.125 0.140625 -0.375q0.046875 -0.265625 0.046875 -0.796875l0 -2.046875q0 -0.703125 -0.046875 -1.140625q-0.03125 -0.4375 -0.109375 -0.703125q-0.078125 -0.265625 -0.21875 -0.421875q-0.125 -0.171875 -0.265625 -0.25q-0.125 -0.09375 -0.3125 -0.125q-0.171875 -0.046875 -0.390625 -0.046875q-0.328125 0 -0.609375 0.140625q-0.28125 0.140625 -0.578125 0.421875q-0.28125 0.265625 -0.4375 0.5625q-0.140625 0.296875 -0.140625 0.640625l0 2.9375q0 0.4375 0.015625 0.671875q0.03125 0.234375 0.078125 0.375q0.046875 0.125 0.125 0.21875q0.078125 0.078125 0.21875 0.15625q0.15625 0.0625 0.4375 0.140625l0 0.390625l-3.0625 0l0 -0.390625q0.296875 -0.09375 0.421875 -0.15625q0.140625 -0.078125 0.234375 -0.203125q0.09375 -0.125 0.140625 -0.375q0.046875 -0.265625 0.046875 -0.8125l0 -3.40625q0 -0.5 -0.015625 -0.796875q-0.015625 -0.3125 -0.109375 -0.484375q-0.09375 -0.1875 -0.296875 -0.28125q-0.1875 -0.09375 -0.53125 -0.15625l0 -0.40625l1.828125 -0.078125l0.46875 0l-0.078125 1.28125zm17.4375 4.9375q-0.5 0.515625 -0.921875 0.8125q-0.40625 0.296875 -0.90625 0.46875q-0.5 0.171875 -1.109375 0.171875q-1.609375 0 -2.4375 -0.96875q-0.8125 -0.96875 -0.8125 -2.84375q0 -1.171875 0.421875 -2.0625q0.421875 -0.890625 1.1875 -1.375q0.78125 -0.484375 1.78125 -0.484375q0.796875 0 1.34375 0.25q0.5625 0.25 0.890625 0.6875q0.328125 0.4375 0.515625 1.09375q0.1875 0.65625 0.203125 1.71875l-4.921875 0l0 0.140625q0 0.921875 0.203125 1.5625q0.21875 0.625 0.6875 0.984375q0.46875 0.34375 1.234375 0.34375q0.640625 0 1.140625 -0.234375q0.515625 -0.234375 1.03125 -0.78125l0.46875 0.515625zm-1.3125 -3.171875q-0.046875 -0.84375 -0.21875 -1.375q-0.15625 -0.546875 -0.484375 -0.828125q-0.328125 -0.28125 -0.859375 -0.28125q-0.796875 0 -1.28125 0.640625q-0.484375 0.640625 -0.5625 1.84375l3.40625 0z" fill-rule="nonzero"></path><path fill="#000000" fill-opacity="0.0" d="m184.44882 412.58267l261.73227 0" fill-rule="nonzero"></path><path stroke="#595959" stroke-width="1.0" stroke-linejoin="round" stroke-linecap="butt" d="m184.44882 412.58267l255.73227 0" fill-rule="evenodd"></path><path fill="#595959" stroke="#595959" stroke-width="1.0" stroke-linecap="butt" d="m440.1811 414.2344l4.5381165 -1.6517334l-4.5381165 -1.6517334z" fill-rule="evenodd"></path><path fill="#000000" fill-opacity="0.0" d="m502.38058 412.58267l196.59842 0" fill-rule="nonzero"></path><path stroke="#595959" stroke-width="1.0" stroke-linejoin="round" stroke-linecap="butt" d="m502.38058 412.58267l190.59842 0" fill-rule="evenodd"></path><path fill="#595959" stroke="#595959" stroke-width="1.0" stroke-linecap="butt" d="m692.979 414.2344l4.538086 -1.6517334l-4.538086 -1.6517334z" fill-rule="evenodd"></path><path fill="#000000" fill-opacity="0.0" d="m207.50656 374.96588l165.03937 0l0 26.708649l-165.03937 0z" fill-rule="nonzero"></path><path fill="#000000" d="m234.37723 399.68274l0 -3.71875l-3.703125 0l0 -1.5625l3.703125 0l0 -3.703125l1.578125 0l0 3.703125l3.6875 0l0 1.5625l-3.6875 0l0 3.71875l-1.578125 0z" fill-rule="nonzero"></path><path fill="#000000" d="m265.30344 398.2921l1.671875 -0.21875q0.28125 1.421875 0.96875 2.046875q0.703125 0.625 1.6875 0.625q1.1875 0 2.0 -0.8125q0.8125 -0.828125 0.8125 -2.03125q0 -1.140625 -0.765625 -1.890625q-0.75 -0.75 -1.90625 -0.75q-0.46875 0 -1.171875 0.1875l0.1875 -1.46875q0.15625 0.015625 0.265625 0.015625q1.0625 0 1.90625 -0.546875q0.859375 -0.5625 0.859375 -1.71875q0 -0.921875 -0.625 -1.515625q-0.609375 -0.609375 -1.59375 -0.609375q-0.96875 0 -1.625 0.609375q-0.640625 0.609375 -0.828125 1.84375l-1.671875 -0.296875q0.296875 -1.6875 1.375 -2.609375q1.09375 -0.921875 2.71875 -0.921875q1.109375 0 2.046875 0.484375q0.9375 0.46875 1.421875 1.296875q0.5 0.828125 0.5 1.75q0 0.890625 -0.46875 1.609375q-0.46875 0.71875 -1.40625 1.15625q1.21875 0.265625 1.875 1.15625q0.671875 0.875 0.671875 2.1875q0 1.78125 -1.296875 3.015625q-1.296875 1.234375 -3.28125 1.234375q-1.796875 0 -2.984375 -1.0625q-1.171875 -1.0625 -1.34375 -2.765625zm22.762146 0.421875l1.71875 0.21875q-0.40625 1.5 -1.515625 2.34375q-1.09375 0.828125 -2.8125 0.828125q-2.15625 0 -3.421875 -1.328125q-1.265625 -1.328125 -1.265625 -3.734375q0 -2.484375 1.265625 -3.859375q1.28125 -1.375 3.328125 -1.375q1.984375 0 3.234375 1.34375q1.25 1.34375 1.25 3.796875q0 0.140625 -0.015625 0.4375l-7.34375 0q0.09375 1.625 0.921875 2.484375q0.828125 0.859375 2.0625 0.859375q0.90625 0 1.546875 -0.46875q0.65625 -0.484375 1.046875 -1.546875zm-5.484375 -2.703125l5.5 0q-0.109375 -1.234375 -0.625 -1.859375q-0.796875 -0.96875 -2.078125 -0.96875q-1.140625 0 -1.9375 0.78125q-0.78125 0.765625 -0.859375 2.046875zm11.844482 5.875l-3.75 -9.859375l1.765625 0l2.125 5.90625q0.34375 0.953125 0.625 1.984375q0.21875 -0.78125 0.625 -1.875l2.1875 -6.015625l1.71875 0l-3.734375 9.859375l-1.5625 0zm13.34375 -3.171875l1.71875 0.21875q-0.40625 1.5 -1.515625 2.34375q-1.09375 0.828125 -2.8125 0.828125q-2.15625 0 -3.421875 -1.328125q-1.265625 -1.328125 -1.265625 -3.734375q0 -2.484375 1.265625 -3.859375q1.28125 -1.375 3.328125 -1.375q1.984375 0 3.234375 1.34375q1.25 1.34375 1.25 3.796875q0 0.140625 -0.015625 0.4375l-7.34375 0q0.09375 1.625 0.921875 2.484375q0.828125 0.859375 2.0625 0.859375q0.90625 0 1.546875 -0.46875q0.65625 -0.484375 1.046875 -1.546875zm-5.484375 -2.703125l5.5 0q-0.109375 -1.234375 -0.625 -1.859375q-0.796875 -0.96875 -2.078125 -0.96875q-1.140625 0 -1.9375 0.78125q-0.78125 0.765625 -0.859375 2.046875zm9.110077 5.875l0 -9.859375l1.5 0l0 1.40625q1.09375 -1.625 3.140625 -1.625q0.890625 0 1.640625 0.328125q0.75 0.3125 1.109375 0.84375q0.375 0.515625 0.53125 1.21875q0.09375 0.46875 0.09375 1.625l0 6.0625l-1.671875 0l0 -6.0q0 -1.015625 -0.203125 -1.515625q-0.1875 -0.515625 -0.6875 -0.8125q-0.5 -0.296875 -1.171875 -0.296875q-1.0625 0 -1.84375 0.671875q-0.765625 0.671875 -0.765625 2.578125l0 5.375l-1.671875 0zm14.031982 -1.5l0.234375 1.484375q-0.703125 0.140625 -1.265625 0.140625q-0.90625 0 -1.40625 -0.28125q-0.5 -0.296875 -0.703125 -0.75q-0.203125 -0.46875 -0.203125 -1.984375l0 -5.65625l-1.234375 0l0 -1.3125l1.234375 0l0 -2.4375l1.65625 -1.0l0 3.4375l1.6875 0l0 1.3125l-1.6875 0l0 5.75q0 0.71875 0.078125 0.921875q0.09375 0.203125 0.296875 0.328125q0.203125 0.125 0.578125 0.125q0.265625 0 0.734375 -0.078125zm0.8551636 -1.4375l1.65625 -0.265625q0.140625 1.0 0.765625 1.53125q0.640625 0.515625 1.78125 0.515625q1.15625 0 1.703125 -0.46875q0.5625 -0.46875 0.5625 -1.09375q0 -0.5625 -0.484375 -0.890625q-0.34375 -0.21875 -1.703125 -0.5625q-1.84375 -0.46875 -2.5625 -0.796875q-0.703125 -0.34375 -1.078125 -0.9375q-0.359375 -0.609375 -0.359375 -1.328125q0 -0.65625 0.296875 -1.21875q0.3125 -0.5625 0.828125 -0.9375q0.390625 -0.28125 1.0625 -0.484375q0.671875 -0.203125 1.4375 -0.203125q1.171875 0 2.046875 0.34375q0.875 0.328125 1.28125 0.90625q0.421875 0.5625 0.578125 1.515625l-1.625 0.21875q-0.109375 -0.75 -0.65625 -1.171875q-0.53125 -0.4375 -1.5 -0.4375q-1.15625 0 -1.640625 0.390625q-0.484375 0.375 -0.484375 0.875q0 0.328125 0.203125 0.59375q0.203125 0.265625 0.640625 0.4375q0.25 0.09375 1.46875 0.4375q1.765625 0.46875 2.46875 0.765625q0.703125 0.296875 1.09375 0.875q0.40625 0.578125 0.40625 1.4375q0 0.828125 -0.484375 1.578125q-0.484375 0.734375 -1.40625 1.140625q-0.921875 0.390625 -2.078125 0.390625q-1.921875 0 -2.9375 -0.796875q-1.0 -0.796875 -1.28125 -2.359375z" fill-rule="nonzero"></path><path fill="#000000" fill-opacity="0.0" d="m518.1601 374.96588l165.03937 0l0 26.708649l-165.03937 0z" fill-rule="nonzero"></path><path fill="#000000" d="m545.03076 399.68274l0 -3.71875l-3.703125 0l0 -1.5625l3.703125 0l0 -3.703125l1.578125 0l0 3.703125l3.6875 0l0 1.5625l-3.6875 0l0 3.71875l-1.578125 0z" fill-rule="nonzero"></path><path fill="#000000" d="m575.957 398.2921l1.671875 -0.21875q0.28125 1.421875 0.96875 2.046875q0.703125 0.625 1.6875 0.625q1.1875 0 2.0 -0.8125q0.8125 -0.828125 0.8125 -2.03125q0 -1.140625 -0.765625 -1.890625q-0.75 -0.75 -1.90625 -0.75q-0.46875 0 -1.171875 0.1875l0.1875 -1.46875q0.15625 0.015625 0.265625 0.015625q1.0625 0 1.90625 -0.546875q0.859375 -0.5625 0.859375 -1.71875q0 -0.921875 -0.625 -1.515625q-0.609375 -0.609375 -1.59375 -0.609375q-0.96875 0 -1.625 0.609375q-0.640625 0.609375 -0.828125 1.84375l-1.671875 -0.296875q0.296875 -1.6875 1.375 -2.609375q1.09375 -0.921875 2.71875 -0.921875q1.109375 0 2.046875 0.484375q0.9375 0.46875 1.421875 1.296875q0.5 0.828125 0.5 1.75q0 0.890625 -0.46875 1.609375q-0.46875 0.71875 -1.40625 1.15625q1.21875 0.265625 1.875 1.15625q0.671875 0.875 0.671875 2.1875q0 1.78125 -1.296875 3.015625q-1.296875 1.234375 -3.28125 1.234375q-1.796875 0 -2.984375 -1.0625q-1.171875 -1.0625 -1.34375 -2.765625zm22.762146 0.421875l1.71875 0.21875q-0.40625 1.5 -1.515625 2.34375q-1.09375 0.828125 -2.8125 0.828125q-2.15625 0 -3.421875 -1.328125q-1.265625 -1.328125 -1.265625 -3.734375q0 -2.484375 1.265625 -3.859375q1.28125 -1.375 3.328125 -1.375q1.984375 0 3.234375 1.34375q1.25 1.34375 1.25 3.796875q0 0.140625 -0.015625 0.4375l-7.34375 0q0.09375 1.625 0.921875 2.484375q0.828125 0.859375 2.0625 0.859375q0.90625 0 1.546875 -0.46875q0.65625 -0.484375 1.046875 -1.546875zm-5.484375 -2.703125l5.5 0q-0.109375 -1.234375 -0.625 -1.859375q-0.796875 -0.96875 -2.078125 -0.96875q-1.140625 0 -1.9375 0.78125q-0.78125 0.765625 -0.859375 2.046875zm11.844482 5.875l-3.75 -9.859375l1.765625 0l2.125 5.90625q0.34375 0.953125 0.625 1.984375q0.21875 -0.78125 0.625 -1.875l2.1875 -6.015625l1.71875 0l-3.734375 9.859375l-1.5625 0zm13.34375 -3.171875l1.71875 0.21875q-0.40625 1.5 -1.515625 2.34375q-1.09375 0.828125 -2.8125 0.828125q-2.15625 0 -3.421875 -1.328125q-1.265625 -1.328125 -1.265625 -3.734375q0 -2.484375 1.265625 -3.859375q1.28125 -1.375 3.328125 -1.375q1.984375 0 3.234375 1.34375q1.25 1.34375 1.25 3.796875q0 0.140625 -0.015625 0.4375l-7.34375 0q0.09375 1.625 0.921875 2.484375q0.828125 0.859375 2.0625 0.859375q0.90625 0 1.546875 -0.46875q0.65625 -0.484375 1.046875 -1.546875zm-5.484375 -2.703125l5.5 0q-0.109375 -1.234375 -0.625 -1.859375q-0.796875 -0.96875 -2.078125 -0.96875q-1.140625 0 -1.9375 0.78125q-0.78125 0.765625 -0.859375 2.046875zm9.110107 5.875l0 -9.859375l1.5 0l0 1.40625q1.09375 -1.625 3.140625 -1.625q0.890625 0 1.640625 0.328125q0.75 0.3125 1.109375 0.84375q0.375 0.515625 0.53125 1.21875q0.09375 0.46875 0.09375 1.625l0 6.0625l-1.671875 0l0 -6.0q0 -1.015625 -0.203125 -1.515625q-0.1875 -0.515625 -0.6875 -0.8125q-0.5 -0.296875 -1.171875 -0.296875q-1.0625 0 -1.84375 0.671875q-0.765625 0.671875 -0.765625 2.578125l0 5.375l-1.671875 0zm14.031921 -1.5l0.234375 1.484375q-0.703125 0.140625 -1.265625 0.140625q-0.90625 0 -1.40625 -0.28125q-0.5 -0.296875 -0.703125 -0.75q-0.203125 -0.46875 -0.203125 -1.984375l0 -5.65625l-1.234375 0l0 -1.3125l1.234375 0l0 -2.4375l1.65625 -1.0l0 3.4375l1.6875 0l0 1.3125l-1.6875 0l0 5.75q0 0.71875 0.078125 0.921875q0.09375 0.203125 0.296875 0.328125q0.203125 0.125 0.578125 0.125q0.265625 0 0.734375 -0.078125zm0.8552246 -1.4375l1.65625 -0.265625q0.140625 1.0 0.765625 1.53125q0.640625 0.515625 1.78125 0.515625q1.15625 0 1.703125 -0.46875q0.5625 -0.46875 0.5625 -1.09375q0 -0.5625 -0.484375 -0.890625q-0.34375 -0.21875 -1.703125 -0.5625q-1.84375 -0.46875 -2.5625 -0.796875q-0.703125 -0.34375 -1.078125 -0.9375q-0.359375 -0.609375 -0.359375 -1.328125q0 -0.65625 0.296875 -1.21875q0.3125 -0.5625 0.828125 -0.9375q0.390625 -0.28125 1.0625 -0.484375q0.671875 -0.203125 1.4375 -0.203125q1.171875 0 2.046875 0.34375q0.875 0.328125 1.28125 0.90625q0.421875 0.5625 0.578125 1.515625l-1.625 0.21875q-0.109375 -0.75 -0.65625 -1.171875q-0.53125 -0.4375 -1.5 -0.4375q-1.15625 0 -1.640625 0.390625q-0.484375 0.375 -0.484375 0.875q0 0.328125 0.203125 0.59375q0.203125 0.265625 0.640625 0.4375q0.25 0.09375 1.46875 0.4375q1.765625 0.46875 2.46875 0.765625q0.703125 0.296875 1.09375 0.875q0.40625 0.578125 0.40625 1.4375q0 0.828125 -0.484375 1.578125q-0.484375 0.734375 -1.40625 1.140625q-0.921875 0.390625 -2.078125 0.390625q-1.921875 0 -2.9375 -0.796875q-1.0 -0.796875 -1.28125 -2.359375z" fill-rule="nonzero"></path></g></svg>

