<svg id="Layer_1" data-name="Layer 1" xmlns="http://www.w3.org/2000/svg" viewBox="0 0 369 61"><defs><style>.cls-1{fill:#fff;}</style></defs><title>Footer_Assets_2</title><path class="cls-1" d="M22.64,39.07a10.34,10.34,0,0,1-3.85-3.89,11,11,0,0,1,0-10.81,10.4,10.4,0,0,1,3.87-3.89,11.24,11.24,0,0,1,10.92,0,10.12,10.12,0,0,1,3.84,3.84,11.16,11.16,0,0,1,0,10.88,10.4,10.4,0,0,1-3.89,3.9,11,11,0,0,1-10.86,0Zm9.85-1.71a8.56,8.56,0,0,0,3.13-3.19,9.34,9.34,0,0,0,0-8.89,8.1,8.1,0,0,0-3.09-3.11,9.16,9.16,0,0,0-8.87,0,8.33,8.33,0,0,0-3.1,3.16,9.34,9.34,0,0,0,0,8.87,8.3,8.3,0,0,0,3.09,3.16,8.47,8.47,0,0,0,4.39,1.16A8.57,8.57,0,0,0,32.49,37.36Zm-7.36-2.24a5.75,5.75,0,0,1-2.3-2.18,6.36,6.36,0,0,1,0-6.32,5.84,5.84,0,0,1,2.3-2.19,6.94,6.94,0,0,1,3.33-.79,6.35,6.35,0,0,1,3.16.77,5,5,0,0,1,2,2.12l-2.74,1.61a2.67,2.67,0,0,0-2.49-1.43,2.81,2.81,0,0,0-2.05.83,3.39,3.39,0,0,0,0,4.47,2.78,2.78,0,0,0,2.05.84,2.69,2.69,0,0,0,2.49-1.43L33.66,33a5,5,0,0,1-2,2.14,6.24,6.24,0,0,1-3.16.77A6.94,6.94,0,0,1,25.13,35.12Z"/><path class="cls-1" d="M59.09,36.4v4H43V37.22l8.21-7.75A8.57,8.57,0,0,0,53,27.33a4,4,0,0,0,.46-1.78,2.35,2.35,0,0,0-.87-2A4.07,4.07,0,0,0,50,22.91a5.89,5.89,0,0,0-2.52.53A4.82,4.82,0,0,0,45.63,25L42,22.73a8.39,8.39,0,0,1,3.44-2.9,11.39,11.39,0,0,1,5-1,10.45,10.45,0,0,1,4.15.77,6.46,6.46,0,0,1,2.76,2.19,5.65,5.65,0,0,1,1,3.33,7.5,7.5,0,0,1-.73,3.25,12.51,12.51,0,0,1-2.83,3.46L49.94,36.4Z"/><path class="cls-1" d="M67.75,39.47a8.75,8.75,0,0,1-3.24-3.78,13.72,13.72,0,0,1-1.17-5.91,13.72,13.72,0,0,1,1.17-5.91,8.84,8.84,0,0,1,3.24-3.79,9.16,9.16,0,0,1,9.41,0,8.84,8.84,0,0,1,3.24,3.79,13.72,13.72,0,0,1,1.17,5.91,13.72,13.72,0,0,1-1.17,5.91,8.75,8.75,0,0,1-3.24,3.78,9.16,9.16,0,0,1-9.41,0Zm7.76-4.53a9.46,9.46,0,0,0,1.11-5.16,9.52,9.52,0,0,0-1.11-5.17,3.6,3.6,0,0,0-6.08,0,9.52,9.52,0,0,0-1.11,5.17,9.46,9.46,0,0,0,1.11,5.16,3.6,3.6,0,0,0,6.08,0Z"/><path class="cls-1" d="M102,36.4v4H85.88V37.22l8.21-7.75a8.8,8.8,0,0,0,1.76-2.14,4,4,0,0,0,.45-1.78,2.35,2.35,0,0,0-.86-2,4.09,4.09,0,0,0-2.54-.68,5.89,5.89,0,0,0-2.52.53A4.82,4.82,0,0,0,88.5,25l-3.59-2.31a8.42,8.42,0,0,1,3.43-2.9,11.47,11.47,0,0,1,5-1,10.37,10.37,0,0,1,4.14.77,6.43,6.43,0,0,1,2.77,2.19,5.65,5.65,0,0,1,1,3.33,7.5,7.5,0,0,1-.73,3.25,12.51,12.51,0,0,1-2.83,3.46L92.81,36.4Z"/><path class="cls-1" d="M110.61,39.47a8.8,8.8,0,0,1-3.23-3.78,13.72,13.72,0,0,1-1.17-5.91,13.72,13.72,0,0,1,1.17-5.91,8.88,8.88,0,0,1,3.23-3.79,9.18,9.18,0,0,1,9.42,0,8.84,8.84,0,0,1,3.24,3.79,13.72,13.72,0,0,1,1.17,5.91,13.72,13.72,0,0,1-1.17,5.91A8.75,8.75,0,0,1,120,39.47a9.18,9.18,0,0,1-9.42,0Zm7.77-4.53a9.46,9.46,0,0,0,1.11-5.16,9.52,9.52,0,0,0-1.11-5.17,3.6,3.6,0,0,0-6.08,0,9.52,9.52,0,0,0-1.11,5.17,9.46,9.46,0,0,0,1.11,5.16,3.6,3.6,0,0,0,6.08,0Z"/><path class="cls-1" d="M155.33,35.85h-9.87l-1.88,4.56h-5.05L148,19.14h4.86l9.51,21.27h-5.16Zm-1.54-3.73L150.41,24,147,32.12Z"/><path class="cls-1" d="M166.54,17.87h4.74V40.41h-4.74Z"/><path class="cls-1" d="M189.7,39.62a5.15,5.15,0,0,1-1.72.78,8.77,8.77,0,0,1-2.14.25,6.31,6.31,0,0,1-4.51-1.49,5.67,5.67,0,0,1-1.6-4.37V28.08h-2.52V24.43h2.52v-4h4.74v4h4.07v3.65h-4.07v6.65a2.23,2.23,0,0,0,.53,1.59,2,2,0,0,0,1.51.57,3.09,3.09,0,0,0,1.91-.61Z"/><path class="cls-1" d="M210.05,33.57H197.69a3.76,3.76,0,0,0,1.58,2.4,5.2,5.2,0,0,0,3.09.89,6.39,6.39,0,0,0,2.27-.38,5.72,5.72,0,0,0,1.84-1.2L209,38q-2.31,2.64-6.75,2.64a10.67,10.67,0,0,1-4.89-1.08,7.8,7.8,0,0,1-3.28-3,8.21,8.21,0,0,1-1.15-4.34,8.42,8.42,0,0,1,1.13-4.33,8,8,0,0,1,3.13-3,9.7,9.7,0,0,1,8.8,0,7.52,7.52,0,0,1,3.05,3,8.81,8.81,0,0,1,1.11,4.48C210.14,32.36,210.11,32.78,210.05,33.57ZM199,28.32a3.93,3.93,0,0,0-1.34,2.49h8.06a4,4,0,0,0-1.34-2.48,4,4,0,0,0-2.67-.92A4.07,4.07,0,0,0,199,28.32Z"/><path class="cls-1" d="M222.4,24.43a8.42,8.42,0,0,1,3.33-.61V28.2c-.53,0-.88-.06-1.07-.06a4.35,4.35,0,0,0-3.19,1.14,4.57,4.57,0,0,0-1.15,3.41v7.72h-4.74V24.06h4.53v2.16A5.19,5.19,0,0,1,222.4,24.43Z"/><path class="cls-1" d="M247.63,24.06l-7.38,17.35a8.54,8.54,0,0,1-2.78,4,6.78,6.78,0,0,1-4,1.16,8.11,8.11,0,0,1-2.53-.4,5.52,5.52,0,0,1-2-1.09l1.73-3.37a4.2,4.2,0,0,0,1.26.76,4,4,0,0,0,1.41.27,2.52,2.52,0,0,0,1.58-.47,4.08,4.08,0,0,0,1.1-1.57l.06-.15L229,24.06h4.89l4.59,11.09,4.62-11.09Z"/><path class="cls-1" d="M261.34,40.41l-3.59-5-3.71,5h-5.16l6.29-8.23-6.08-8.12h5.32l3.46,4.77,3.56-4.77h5l-6.08,8,6.32,8.35Z"/><path class="cls-1" d="M275.22,35.56a2.84,2.84,0,0,1,.82,2.12,5,5,0,0,1-.15,1.21,14,14,0,0,1-.67,1.82l-1.73,4.38h-3l1.34-4.83a2.43,2.43,0,0,1-1.2-1,2.84,2.84,0,0,1-.44-1.59,2.81,2.81,0,0,1,.83-2.12,3,3,0,0,1,2.11-.8A2.91,2.91,0,0,1,275.22,35.56Z"/><path class="cls-1" d="M292.75,19.14h4.92V40.41h-4.92Z"/><path class="cls-1" d="M319.5,25.64a7.22,7.22,0,0,1,1.87,5.41v9.36h-4.74V31.78a4.31,4.31,0,0,0-.85-2.9,3.12,3.12,0,0,0-2.46-1A3.77,3.77,0,0,0,310.46,29a4.59,4.59,0,0,0-1.06,3.3v8.08h-4.74V24.06h4.53V26a6.26,6.26,0,0,1,2.33-1.6,8.3,8.3,0,0,1,3.07-.56A6.75,6.75,0,0,1,319.5,25.64Z"/><path class="cls-1" d="M331.32,39.57a8,8,0,0,1-3.25-3,8.24,8.24,0,0,1,3.25-11.68A10,10,0,0,1,336,23.82a9.07,9.07,0,0,1,4.51,1.08A6.37,6.37,0,0,1,343.33,28l-3.67,2A4,4,0,0,0,336,27.71a4.18,4.18,0,0,0-3.07,1.22,4.46,4.46,0,0,0-1.21,3.31,4.46,4.46,0,0,0,1.21,3.31A4.17,4.17,0,0,0,336,36.76a4,4,0,0,0,3.68-2.24l3.67,2a6.46,6.46,0,0,1-2.81,3A9,9,0,0,1,336,40.65,10,10,0,0,1,331.32,39.57Z"/><path class="cls-1" d="M348.65,39.8a2.85,2.85,0,0,1-.85-2.12,2.79,2.79,0,0,1,.85-2.12,3,3,0,0,1,2.1-.8,2.93,2.93,0,0,1,2.09.8,2.79,2.79,0,0,1,.85,2.12,2.85,2.85,0,0,1-.85,2.12,2.81,2.81,0,0,1-2.09.85A2.85,2.85,0,0,1,348.65,39.8Z"/></svg>