<?xml version="1.0" standalone="yes"?>

<svg version="1.1" viewBox="0.0 0.0 960.0 540.0" fill="none" stroke="none" stroke-linecap="square" stroke-miterlimit="10" xmlns="http://www.w3.org/2000/svg" xmlns:xlink="http://www.w3.org/1999/xlink"><clipPath id="g116840f0d1_0_20.0"><path d="m0 0l960.0 0l0 540.0l-960.0 0l0 -540.0z" clip-rule="nonzero"></path></clipPath><g clip-path="url(#g116840f0d1_0_20.0)"><path fill="#ffffff" d="m0 0l960.0 0l0 540.0l-960.0 0z" fill-rule="nonzero"></path><path fill="#000000" fill-opacity="0.0" d="m47.624672 251.74306l864.5039 0" fill-rule="nonzero"></path><path stroke="#595959" stroke-width="2.0" stroke-linejoin="round" stroke-linecap="butt" d="m47.624672 251.74304l852.5039 0" fill-rule="evenodd"></path><path fill="#595959" stroke="#595959" stroke-width="2.0" stroke-linecap="butt" d="m900.1286 255.04651l9.076233 -3.3034668l-9.076233 -3.3034515z" fill-rule="evenodd"></path><path fill="#efefef" d="m99.61347 251.73491l0 0c0 -11.58493 9.391441 -20.97638 20.976372 -20.97638l0 0c5.563286 0 10.898712 2.2100067 14.832535 6.1438446c3.933838 3.9338226 6.1438446 9.269257 6.1438446 14.832535l0 0c0 11.584946 -9.391449 20.976364 -20.97638 20.976364l0 0c-11.58493 0 -20.976372 -9.391418 -20.976372 -20.976364z" fill-rule="nonzero"></path><path stroke="#595959" stroke-width="1.0" stroke-linejoin="round" stroke-linecap="butt" d="m99.61347 251.73491l0 0c0 -11.58493 9.391441 -20.97638 20.976372 -20.97638l0 0c5.563286 0 10.898712 2.2100067 14.832535 6.1438446c3.933838 3.9338226 6.1438446 9.269257 6.1438446 14.832535l0 0c0 11.584946 -9.391449 20.976364 -20.97638 20.976364l0 0c-11.58493 0 -20.976372 -9.391418 -20.976372 -20.976364z" fill-rule="nonzero"></path><path fill="#000000" d="m122.48011 258.6549l-1.671875 0l0 -10.640625q-0.59375 0.578125 -1.578125 1.15625q-0.984375 0.5625 -1.765625 0.859375l0 -1.625q1.40625 -0.65625 2.453125 -1.59375q1.046875 -0.9375 1.484375 -1.8125l1.078125 0l0 13.65625z" fill-rule="nonzero"></path><path fill="#efefef" d="m167.09282 251.73491l0 0c0 -11.58493 9.391449 -20.97638 20.97638 -20.97638l0 0c5.563278 0 10.898712 2.2100067 14.832535 6.1438446c3.933838 3.9338226 6.1438446 9.269257 6.1438446 14.832535l0 0c0 11.584946 -9.391449 20.976364 -20.97638 20.976364l0 0c-11.58493 0 -20.97638 -9.391418 -20.97638 -20.976364z" fill-rule="nonzero"></path><path stroke="#595959" stroke-width="1.0" stroke-linejoin="round" stroke-linecap="butt" d="m167.09282 251.73491l0 0c0 -11.58493 9.391449 -20.97638 20.97638 -20.97638l0 0c5.563278 0 10.898712 2.2100067 14.832535 6.1438446c3.933838 3.9338226 6.1438446 9.269257 6.1438446 14.832535l0 0c0 11.584946 -9.391449 20.976364 -20.97638 20.976364l0 0c-11.58493 0 -20.97638 -9.391418 -20.97638 -20.976364z" fill-rule="nonzero"></path><path fill="#000000" d="m192.44385 257.04553l0 1.609375l-8.984375 0q-0.015625 -0.609375 0.1875 -1.15625q0.34375 -0.921875 1.09375 -1.8125q0.765625 -0.890625 2.1875 -2.0625q2.21875 -1.8125 3.0 -2.875q0.78125 -1.0625 0.78125 -2.015625q0 -0.984375 -0.71875 -1.671875q-0.703125 -0.6875 -1.84375 -0.6875q-1.203125 0 -1.9375 0.734375q-0.71875 0.71875 -0.71875 2.0l-1.71875 -0.171875q0.171875 -1.921875 1.328125 -2.921875q1.15625 -1.015625 3.09375 -1.015625q1.953125 0 3.09375 1.09375q1.140625 1.078125 1.140625 2.6875q0 0.8125 -0.34375 1.609375q-0.328125 0.78125 -1.109375 1.65625q-0.765625 0.859375 -2.5625 2.390625q-1.5 1.265625 -1.9375 1.71875q-0.421875 0.4375 -0.703125 0.890625l6.671875 0z" fill-rule="nonzero"></path><path fill="#efefef" d="m279.22797 251.73491l0 0c0 -11.58493 9.391449 -20.97638 20.97638 -20.97638l0 0c5.5632935 0 10.898712 2.2100067 14.83255 6.1438446c3.933838 3.9338226 6.1438293 9.269257 6.1438293 14.832535l0 0c0 11.584946 -9.391449 20.976364 -20.97638 20.976364l0 0c-11.58493 0 -20.97638 -9.391418 -20.97638 -20.976364z" fill-rule="nonzero"></path><path stroke="#595959" stroke-width="1.0" stroke-linejoin="round" stroke-linecap="butt" d="m279.22797 251.73491l0 0c0 -11.58493 9.391449 -20.97638 20.97638 -20.97638l0 0c5.5632935 0 10.898712 2.2100067 14.83255 6.1438446c3.933838 3.9338226 6.1438293 9.269257 6.1438293 14.832535l0 0c0 11.584946 -9.391449 20.976364 -20.97638 20.976364l0 0c-11.58493 0 -20.97638 -9.391418 -20.97638 -20.976364z" fill-rule="nonzero"></path><path fill="#000000" d="m295.81335 255.06116l1.671875 -0.21875q0.28125 1.421875 0.96875 2.046875q0.703125 0.625 1.6875 0.625q1.1875 0 2.0 -0.8125q0.8125 -0.828125 0.8125 -2.03125q0 -1.140625 -0.765625 -1.890625q-0.75 -0.75 -1.90625 -0.75q-0.46875 0 -1.171875 0.1875l0.1875 -1.46875q0.15625 0.015625 0.265625 0.015625q1.0625 0 1.90625 -0.546875q0.859375 -0.5625 0.859375 -1.71875q0 -0.921875 -0.625 -1.515625q-0.609375 -0.609375 -1.59375 -0.609375q-0.96875 0 -1.625 0.609375q-0.640625 0.609375 -0.828125 1.84375l-1.671875 -0.296875q0.296875 -1.6875 1.375 -2.609375q1.09375 -0.921875 2.71875 -0.921875q1.109375 0 2.046875 0.484375q0.9375 0.46875 1.421875 1.296875q0.5 0.828125 0.5 1.75q0 0.890625 -0.46875 1.609375q-0.46875 0.71875 -1.40625 1.15625q1.21875 0.265625 1.875 1.15625q0.671875 0.875 0.671875 2.1875q0 1.78125 -1.296875 3.015625q-1.296875 1.234375 -3.28125 1.234375q-1.796875 0 -2.984375 -1.0625q-1.171875 -1.0625 -1.34375 -2.765625z" fill-rule="nonzero"></path><path fill="#efefef" d="m417.30426 251.73491l0 0c0 -11.58493 9.391449 -20.97638 20.97638 -20.97638l0 0c5.563263 0 10.898682 2.2100067 14.83252 6.1438446c3.933838 3.9338226 6.14386 9.269257 6.14386 14.832535l0 0c0 11.584946 -9.391449 20.976364 -20.97638 20.976364l0 0c-11.58493 0 -20.97638 -9.391418 -20.97638 -20.976364z" fill-rule="nonzero"></path><path stroke="#595959" stroke-width="1.0" stroke-linejoin="round" stroke-linecap="butt" d="m417.30426 251.73491l0 0c0 -11.58493 9.391449 -20.97638 20.97638 -20.97638l0 0c5.563263 0 10.898682 2.2100067 14.83252 6.1438446c3.933838 3.9338226 6.14386 9.269257 6.14386 14.832535l0 0c0 11.584946 -9.391449 20.976364 -20.97638 20.976364l0 0c-11.58493 0 -20.97638 -9.391418 -20.97638 -20.976364z" fill-rule="nonzero"></path><path fill="#000000" d="m439.2334 258.6549l0 -3.25l-5.90625 0l0 -1.53125l6.21875 -8.8125l1.359375 0l0 8.8125l1.84375 0l0 1.53125l-1.84375 0l0 3.25l-1.671875 0zm0 -4.78125l0 -6.140625l-4.25 6.140625l4.25 0z" fill-rule="nonzero"></path><path fill="#efefef" d="m484.7836 251.73491l0 0c0 -11.58493 9.391449 -20.97638 20.97638 -20.97638l0 0c5.5632935 0 10.898712 2.2100067 14.83255 6.1438446c3.933838 3.9338226 6.14386 9.269257 6.14386 14.832535l0 0c0 11.584946 -9.3914795 20.976364 -20.97641 20.976364l0 0c-11.58493 0 -20.97638 -9.391418 -20.97638 -20.976364z" fill-rule="nonzero"></path><path stroke="#595959" stroke-width="1.0" stroke-linejoin="round" stroke-linecap="butt" d="m484.7836 251.73491l0 0c0 -11.58493 9.391449 -20.97638 20.97638 -20.97638l0 0c5.5632935 0 10.898712 2.2100067 14.83255 6.1438446c3.933838 3.9338226 6.14386 9.269257 6.14386 14.832535l0 0c0 11.584946 -9.3914795 20.976364 -20.97641 20.976364l0 0c-11.58493 0 -20.97638 -9.391418 -20.97638 -20.976364z" fill-rule="nonzero"></path><path fill="#000000" d="m501.35336 255.0924l1.765625 -0.15625q0.1875 1.28125 0.890625 1.9375q0.71875 0.640625 1.71875 0.640625q1.203125 0 2.03125 -0.90625q0.84375 -0.90625 0.84375 -2.421875q0 -1.421875 -0.8125 -2.25q-0.796875 -0.828125 -2.09375 -0.828125q-0.796875 0 -1.453125 0.375q-0.640625 0.359375 -1.015625 0.953125l-1.578125 -0.203125l1.328125 -7.0l6.765625 0l0 1.609375l-5.4375 0l-0.734375 3.640625q1.234375 -0.84375 2.578125 -0.84375q1.78125 0 3.0 1.234375q1.234375 1.234375 1.234375 3.171875q0 1.84375 -1.078125 3.1875q-1.3125 1.65625 -3.578125 1.65625q-1.859375 0 -3.03125 -1.03125q-1.171875 -1.046875 -1.34375 -2.765625z" fill-rule="nonzero"></path><path fill="#efefef" d="m552.26294 251.73491l0 0c0 -11.58493 9.3914795 -20.97638 20.97638 -20.97638l0 0c5.5632935 0 10.898743 2.2100067 14.832581 6.1438446c3.933838 3.9338226 6.143799 9.269257 6.143799 14.832535l0 0c0 11.584946 -9.391418 20.976364 -20.97638 20.976364l0 0c-11.5849 0 -20.97638 -9.391418 -20.97638 -20.976364z" fill-rule="nonzero"></path><path stroke="#595959" stroke-width="1.0" stroke-linejoin="round" stroke-linecap="butt" d="m552.26294 251.73491l0 0c0 -11.58493 9.3914795 -20.97638 20.97638 -20.97638l0 0c5.5632935 0 10.898743 2.2100067 14.832581 6.1438446c3.933838 3.9338226 6.143799 9.269257 6.143799 14.832535l0 0c0 11.584946 -9.391418 20.976364 -20.97638 20.976364l0 0c-11.5849 0 -20.97638 -9.391418 -20.97638 -20.976364z" fill-rule="nonzero"></path><path fill="#000000" d="m577.5046 248.38928l-1.65625 0.125q-0.21875 -0.984375 -0.640625 -1.421875q-0.671875 -0.71875 -1.65625 -0.71875q-0.8125 0 -1.40625 0.4375q-0.796875 0.578125 -1.25 1.6875q-0.453125 1.09375 -0.46875 3.140625q0.609375 -0.921875 1.46875 -1.359375q0.875 -0.453125 1.828125 -0.453125q1.671875 0 2.84375 1.234375q1.171875 1.234375 1.171875 3.171875q0 1.28125 -0.546875 2.390625q-0.546875 1.09375 -1.515625 1.6875q-0.96875 0.578125 -2.1875 0.578125q-2.09375 0 -3.40625 -1.53125q-1.3125 -1.546875 -1.3125 -5.0625q0 -3.953125 1.453125 -5.734375q1.265625 -1.5625 3.421875 -1.5625q1.609375 0 2.625 0.90625q1.03125 0.890625 1.234375 2.484375zm-6.8125 5.859375q0 0.859375 0.359375 1.65625q0.375 0.78125 1.03125 1.203125q0.65625 0.40625 1.375 0.40625q1.0625 0 1.8125 -0.84375q0.765625 -0.859375 0.765625 -2.328125q0 -1.40625 -0.75 -2.21875q-0.75 -0.8125 -1.890625 -0.8125q-1.125 0 -1.921875 0.8125q-0.78125 0.8125 -0.78125 2.125z" fill-rule="nonzero"></path><path fill="#efefef" d="m792.2925 251.73491l0 0c0 -11.58493 9.3914795 -20.97638 20.97638 -20.97638l0 0c5.5632935 0 10.898743 2.2100067 14.832581 6.1438446c3.9337769 3.9338226 6.143799 9.269257 6.143799 14.832535l0 0c0 11.584946 -9.391418 20.976364 -20.97638 20.976364l0 0c-11.5849 0 -20.97638 -9.391418 -20.97638 -20.976364z" fill-rule="nonzero"></path><path stroke="#595959" stroke-width="1.0" stroke-linejoin="round" stroke-linecap="butt" d="m792.2925 251.73491l0 0c0 -11.58493 9.3914795 -20.97638 20.97638 -20.97638l0 0c5.5632935 0 10.898743 2.2100067 14.832581 6.1438446c3.9337769 3.9338226 6.143799 9.269257 6.143799 14.832535l0 0c0 11.584946 -9.391418 20.976364 -20.97638 20.976364l0 0c-11.5849 0 -20.97638 -9.391418 -20.97638 -20.976364z" fill-rule="nonzero"></path><path fill="#000000" d="m811.44037 251.2799q-1.046875 -0.375 -1.546875 -1.078125q-0.5 -0.71875 -0.5 -1.703125q0 -1.484375 1.0625 -2.484375q1.078125 -1.015625 2.84375 -1.015625q1.78125 0 2.859375 1.03125q1.09375 1.03125 1.09375 2.515625q0 0.953125 -0.5 1.65625q-0.484375 0.703125 -1.5 1.078125q1.25 0.40625 1.90625 1.3125q0.65625 0.90625 0.65625 2.171875q0 1.75 -1.234375 2.9375q-1.234375 1.1875 -3.25 1.1875q-2.015625 0 -3.25 -1.1875q-1.234375 -1.203125 -1.234375 -2.984375q0 -1.328125 0.671875 -2.21875q0.671875 -0.890625 1.921875 -1.21875zm-0.328125 -2.828125q0 0.96875 0.609375 1.578125q0.625 0.609375 1.625 0.609375q0.953125 0 1.5625 -0.609375q0.625 -0.609375 0.625 -1.484375q0 -0.921875 -0.640625 -1.546875q-0.625 -0.625 -1.578125 -0.625q-0.953125 0 -1.578125 0.609375q-0.625 0.609375 -0.625 1.46875zm-0.546875 6.28125q0 0.71875 0.328125 1.390625q0.34375 0.65625 1.015625 1.03125q0.671875 0.359375 1.4375 0.359375q1.203125 0 1.984375 -0.765625q0.78125 -0.78125 0.78125 -1.96875q0 -1.203125 -0.8125 -1.984375q-0.796875 -0.796875 -2.0 -0.796875q-1.1875 0 -1.96875 0.78125q-0.765625 0.78125 -0.765625 1.953125z" fill-rule="nonzero"></path><path fill="#efefef" d="m679.3374 251.73491l0 0c0 -11.58493 9.3914795 -20.97638 20.97638 -20.97638l0 0c5.5632935 0 10.898743 2.2100067 14.832581 6.1438446c3.933838 3.9338226 6.143799 9.269257 6.143799 14.832535l0 0c0 11.584946 -9.391418 20.976364 -20.97638 20.976364l0 0c-11.5849 0 -20.97638 -9.391418 -20.97638 -20.976364z" fill-rule="nonzero"></path><path stroke="#595959" stroke-width="1.0" stroke-linejoin="round" stroke-linecap="butt" d="m679.3374 251.73491l0 0c0 -11.58493 9.3914795 -20.97638 20.97638 -20.97638l0 0c5.5632935 0 10.898743 2.2100067 14.832581 6.1438446c3.933838 3.9338226 6.143799 9.269257 6.143799 14.832535l0 0c0 11.584946 -9.391418 20.976364 -20.97638 20.976364l0 0c-11.5849 0 -20.97638 -9.391418 -20.97638 -20.976364z" fill-rule="nonzero"></path><path fill="#000000" d="m696.03217 246.8424l0 -1.609375l8.796875 0l0 1.296875q-1.296875 1.375 -2.578125 3.671875q-1.265625 2.296875 -1.96875 4.71875q-0.5 1.703125 -0.640625 3.734375l-1.71875 0q0.03125 -1.609375 0.625 -3.875q0.609375 -2.28125 1.734375 -4.390625q1.140625 -2.109375 2.40625 -3.546875l-6.65625 0z" fill-rule="nonzero"></path><path fill="#000000" fill-opacity="0.0" d="m47.624672 267.67978l103.46456 0l0 33.51181l-103.46456 0z" fill-rule="nonzero"></path><path fill="#000000" d="m57.234047 281.94354l10.046875 0l0 3.21875l-0.921875 0q-0.203125 -0.796875 -0.40625 -1.25q-0.1875 -0.46875 -0.421875 -0.703125q-0.21875 -0.25 -0.46875 -0.34375q-0.25 -0.109375 -0.765625 -0.109375l-1.171875 0l0 9.5q0 0.546875 0.046875 0.875q0.0625 0.3125 0.1875 0.515625q0.125 0.1875 0.34375 0.296875q0.21875 0.09375 0.671875 0.203125l0 0.453125l-4.25 0l0 -0.453125q0.28125 -0.0625 0.5 -0.140625q0.21875 -0.078125 0.34375 -0.171875q0.140625 -0.109375 0.21875 -0.28125q0.09375 -0.171875 0.140625 -0.453125q0.0625 -0.296875 0.0625 -0.84375l0 -9.5l-1.171875 0q-0.4375 0 -0.71875 0.078125q-0.28125 0.078125 -0.53125 0.34375q-0.234375 0.265625 -0.4375 0.765625q-0.203125 0.484375 -0.375 1.21875l-0.921875 0l0 -3.21875zm13.996429 0.15625l0 1.796875l-1.703125 0l0 -1.796875l1.703125 0zm-2.640625 12.046875q0.359375 -0.109375 0.5 -0.1875q0.15625 -0.09375 0.265625 -0.234375q0.109375 -0.15625 0.171875 -0.453125q0.0625 -0.3125 0.0625 -0.96875l0 -4.046875q0 -0.59375 -0.03125 -0.953125q-0.015625 -0.359375 -0.125 -0.578125q-0.109375 -0.21875 -0.34375 -0.3125q-0.21875 -0.109375 -0.640625 -0.1875l0 -0.5l2.171875 -0.078125l0.5625 0l0 6.640625q0 0.796875 0.0625 1.109375q0.078125 0.296875 0.28125 0.46875q0.21875 0.15625 0.6875 0.28125l0 0.453125l-3.625 0l0 -0.453125zm7.683304 -6.984375l0.125 0.03125q0.5625 -0.546875 0.921875 -0.828125q0.359375 -0.296875 0.6875 -0.46875q0.328125 -0.171875 0.625 -0.234375q0.296875 -0.078125 0.59375 -0.078125q0.9375 0 1.515625 0.421875q0.59375 0.421875 0.8125 1.3125q0.6875 -0.703125 1.125 -1.03125q0.4375 -0.34375 0.875 -0.515625q0.453125 -0.1875 0.96875 -0.1875q0.625 0 1.078125 0.1875q0.453125 0.171875 0.765625 0.546875q0.3125 0.375 0.453125 0.953125q0.140625 0.5625 0.140625 1.515625l0 3.5q0 0.703125 0.046875 0.96875q0.046875 0.265625 0.125 0.421875q0.09375 0.140625 0.265625 0.25q0.1875 0.109375 0.59375 0.21875l0 0.453125l-3.640625 0l0 -0.453125q0.359375 -0.109375 0.515625 -0.1875q0.15625 -0.09375 0.265625 -0.234375q0.109375 -0.15625 0.171875 -0.46875q0.0625 -0.3125 0.0625 -0.9375l0 -2.4375q0 -0.78125 -0.046875 -1.296875q-0.046875 -0.515625 -0.140625 -0.8125q-0.078125 -0.3125 -0.203125 -0.484375q-0.125 -0.1875 -0.28125 -0.3125q-0.15625 -0.125 -0.375 -0.203125q-0.203125 -0.078125 -0.5625 -0.078125q-0.375 0 -0.703125 0.15625q-0.3125 0.140625 -0.6875 0.5q-0.375 0.34375 -0.546875 0.703125q-0.15625 0.359375 -0.15625 0.84375l0 3.390625q0 0.703125 0.046875 0.96875q0.046875 0.265625 0.125 0.421875q0.09375 0.140625 0.265625 0.25q0.1875 0.109375 0.59375 0.21875l0 0.453125l-3.640625 0l0 -0.453125q0.359375 -0.109375 0.515625 -0.1875q0.15625 -0.09375 0.265625 -0.234375q0.109375 -0.15625 0.171875 -0.46875q0.0625 -0.3125 0.0625 -0.9375l0 -2.4375q0 -0.8125 -0.046875 -1.328125q-0.046875 -0.53125 -0.15625 -0.84375q-0.09375 -0.3125 -0.25 -0.5q-0.140625 -0.203125 -0.296875 -0.296875q-0.15625 -0.109375 -0.375 -0.15625q-0.21875 -0.0625 -0.484375 -0.0625q-0.375 0 -0.71875 0.171875q-0.328125 0.171875 -0.6875 0.5q-0.34375 0.328125 -0.515625 0.6875q-0.171875 0.34375 -0.171875 0.75l0 3.484375q0 0.515625 0.015625 0.796875q0.03125 0.28125 0.09375 0.4375q0.0625 0.15625 0.15625 0.265625q0.09375 0.09375 0.265625 0.1875q0.171875 0.078125 0.515625 0.171875l0 0.453125l-3.640625 0l0 -0.453125q0.359375 -0.109375 0.5 -0.1875q0.15625 -0.09375 0.265625 -0.234375q0.125 -0.15625 0.171875 -0.453125q0.0625 -0.3125 0.0625 -0.96875l0 -4.046875q0 -0.59375 -0.03125 -0.953125q-0.015625 -0.359375 -0.125 -0.578125q-0.109375 -0.21875 -0.34375 -0.3125q-0.21875 -0.109375 -0.640625 -0.1875l0 -0.5l2.171875 -0.078125l0.5625 0l-0.09375 1.515625zm20.428833 5.859375q-0.59375 0.625 -1.09375 0.984375q-0.5 0.34375 -1.09375 0.546875q-0.59375 0.203125 -1.296875 0.203125q-1.921875 0 -2.890625 -1.140625q-0.96875 -1.15625 -0.96875 -3.390625q0 -1.390625 0.484375 -2.4375q0.5 -1.0625 1.421875 -1.640625q0.921875 -0.578125 2.109375 -0.578125q0.9375 0 1.59375 0.296875q0.671875 0.296875 1.0625 0.8125q0.390625 0.515625 0.609375 1.3125q0.21875 0.78125 0.25 2.03125l-5.84375 0l0 0.171875q0 1.09375 0.234375 1.84375q0.25 0.75 0.8125 1.171875q0.5625 0.421875 1.46875 0.421875q0.75 0 1.359375 -0.28125q0.609375 -0.296875 1.21875 -0.9375l0.5625 0.609375zm-1.5625 -3.765625q-0.046875 -1.0 -0.25 -1.625q-0.1875 -0.640625 -0.578125 -0.984375q-0.390625 -0.34375 -1.015625 -0.34375q-0.96875 0 -1.546875 0.765625q-0.5625 0.765625 -0.65625 2.1875l4.046875 0z" fill-rule="nonzero"></path><path fill="#000000" d="m116.020134 286.4748q1.234375 1.34375 2.125 2.046875q0.90625 0.703125 1.71875 1.046875l0 0.40625q-0.921875 0.453125 -1.796875 1.140625q-0.859375 0.6875 -2.046875 2.03125l-0.71875 0q0.875 -1.875 1.828125 -2.875l-14.796875 0l0 -0.9375l14.796875 0q-0.703125 -0.890625 -0.984375 -1.328125q-0.28125 -0.4375 -0.828125 -1.53125l0.703125 0z" fill-rule="nonzero"></path><path fill="#000000" fill-opacity="0.0" d="m99.61361 208.35744l83.874016 -81.41733l15.370087 15.842514l-83.87402 81.41733z" fill-rule="nonzero"></path><path fill="#000000" d="m120.34881 216.82741l-3.6184082 -8.46431l0.87449646 -0.8488922l8.50663 3.7192688l-0.91934204 0.8924103l-2.545723 -1.1654053l-2.5674362 2.4922333l1.1330643 2.5366821l-0.86328125 0.8380127zm-0.6762619 -4.2648926l2.0853424 -2.0242615l-2.2928314 -1.0842743q-1.0534363 -0.47994995 -1.6775742 -0.8540039q0.45331573 0.7140808 0.8060608 1.5040131l1.0790024 2.4585266zm9.894928 -4.6837616l-0.54400635 -0.56073q0.2158966 1.0752106 -0.6025543 1.86969q-0.538147 0.52238464 -1.2694931 0.6661377q-0.742218 0.13252258 -1.5002365 -0.15512085q-0.7580185 -0.2876587 -1.4216995 -0.9717407q-0.641922 -0.6616516 -0.9508133 -1.428833q-0.30889893 -0.76716614 -0.13243866 -1.4828491q0.16558075 -0.7268982 0.71494293 -1.2601776q0.40361786 -0.39179993 0.8807373 -0.52830505q0.47712708 -0.13650513 0.94005585 -0.06326294l-2.1433716 -2.2092438l0.7511673 -0.72917175l5.9840393 6.1679688l-0.70632935 0.6856384zm-4.5531845 0.08642578q0.83776855 0.86351013 1.6099777 0.94140625q0.76132965 0.06666565 1.2546387 -0.41218567q0.4933014 -0.47886658 0.44917297 -1.2199554q-0.04411316 -0.7411041 -0.84924316 -1.5709686q-0.89216614 -0.91960144 -1.6643753 -0.9974823q-0.7610016 -0.088775635 -1.2767334 0.41184998q-0.5045166 0.4897461 -0.4383011 1.2311707q0.055336 0.73020935 0.9148636 1.6161652zm9.341911 -4.7348785l-0.54400635 -0.56073q0.21588135 1.0752106 -0.6025543 1.8696747q-0.53816223 0.5223999 -1.2695007 0.6661377q-0.742218 0.13253784 -1.5002289 -0.15510559q-0.7580261 -0.2876587 -1.4217072 -0.9717407q-0.641922 -0.6616516 -0.9508209 -1.428833q-0.3088913 -0.76716614 -0.13243103 -1.4828491q0.16557312 -0.72691345 0.71495056 -1.2601776q0.40361023 -0.39179993 0.8807373 -0.52830505q0.47711182 -0.13652039 0.9400482 -0.06326294l-2.1433716 -2.209259l0.7511749 -0.72917175l5.984024 6.167984l-0.7063141 0.6856384zm-4.553192 0.08641052q0.83776855 0.8635254 1.6099701 0.94140625q0.7613373 0.06668091 1.2546387 -0.4121704q0.49331665 -0.47886658 0.44918823 -1.2199554q-0.044128418 -0.7411041 -0.8492584 -1.5709839q-0.8921509 -0.9195862 -1.6643677 -0.99746704q-0.7610016 -0.088775635 -1.2767334 0.41184998q-0.5045166 0.48973083 -0.43829346 1.2311707q0.05532837 0.73020935 0.91485596 1.6161499zm9.836884 -6.5219116l0.7540436 0.5528259q-0.25985718 0.38290405 -0.5065155 0.6223297q-0.41482544 0.40267944 -0.758728 0.49697876q-0.35479736 0.08308411 -0.6624298 -0.032043457q-0.29640198 -0.12600708 -0.96009827 -0.8100891l-2.4915314 -2.5681152l-0.5493622 0.5332794l-0.5657654 -0.5831604l0.5493622 -0.5332794l-1.0771179 -1.1102295l0.31596375 -1.1777496l1.5123291 1.5588074l0.76239014 -0.74005127l0.5657654 0.5831604l-0.76239014 0.74005127l2.5350494 2.612976q0.31552124 0.32522583 0.436203 0.3822937q0.13188171 0.046173096 0.27598572 0.015182495q0.14408875 -0.0309906 0.31225586 -0.19422913q0.13453674 -0.13059998 0.31459045 -0.348938zm-1.0484619 -2.0090942q-1.2076721 -1.244812 -1.1004181 -2.5030518q0.093063354 -1.0484772 0.92271423 -1.8538208q0.91934204 -0.89242554 2.0898743 -0.85276794q1.1708527 0.017562866 2.2044525 1.0829468q0.83776855 0.86351013 1.0586243 1.6072693q0.22085571 0.7437439 -0.011657715 1.5138397q-0.232193 0.74801636 -0.81518555 1.3139343q-0.93055725 0.90330505 -2.0901947 0.8748474q-1.159317 -0.05053711 -2.2582092 -1.183197zm0.77360535 -0.7509308q0.82688904 0.8522949 1.6103058 0.91929626q0.79463196 0.056137085 1.3552094 -0.48802185q0.5717926 -0.55503845 0.5283203 -1.340332q-0.04345703 -0.7852936 -0.8921051 -1.6600342q-0.80513 -0.8298645 -1.599762 -0.8859863q-0.78341675 -0.0670166 -1.3439941 0.47714233q-0.5605774 0.54415894 -0.5283203 1.340332q0.032577515 0.77407837 0.87034607 1.6376038zm10.179306 -8.7270355l0.83787537 -0.61735535q0.6165161 0.8822937 0.5363312 1.8094025q-0.080200195 0.92710876 -0.8089447 1.6345062q-0.91934204 0.89242554 -2.0565643 0.84220886q-1.1368866 -0.0723114 -2.2248993 -1.1937561q-0.6963196 -0.71772766 -0.9831238 -1.4845734q-0.2864685 -0.7889404 -0.06549072 -1.526062q0.23217773 -0.7480011 0.81518555 -1.3139343q0.7175293 -0.69651794 1.5362396 -0.77264404q0.819046 -0.098220825 1.617279 0.45526123l-0.63116455 0.8304291q-0.5361023 -0.3506317 -1.0227814 -0.3137207q-0.4975586 0.025680542 -0.87875366 0.39570618q-0.5717926 0.55503845 -0.5279999 1.3182373q0.032913208 0.75198364 0.8924408 1.6379242q0.8812866 0.90838623 1.6205292 0.97473145q0.73924255 0.066345215 1.2886047 -0.4669342q0.4484558 -0.435318 0.47883606 -0.98742676q0.04159546 -0.56300354 -0.42359924 -1.2220001zm5.3605804 -3.0913239q-0.0778656 0.7724304 -0.3288269 1.299118q-0.23976135 0.51582336 -0.68821716 0.95114136q-0.7399597 0.71829224 -1.4805298 0.7403412q-0.7405548 0.02204895 -1.2845612 -0.53868103q-0.31552124 -0.32522583 -0.43089294 -0.7358551q-0.12625122 -0.42184448 -0.031921387 -0.8182678q0.08345032 -0.4076538 0.30999756 -0.7799988q0.14775085 -0.2740631 0.55300903 -0.77633667q0.81022644 -0.98246765 1.0951538 -1.5639191q-0.15232849 -0.15699768 -0.18496704 -0.19064331q-0.45695496 -0.4710083 -0.85494995 -0.45487976q-0.5308533 0.036254883 -1.1026459 0.59129333q-0.52693176 0.5115051 -0.59983826 0.9524536q-0.08378601 0.42974854 0.24984741 1.0204773l-0.83787537 0.61735535q-0.35606384 -0.56895447 -0.40350342 -1.0890808q-0.047439575 -0.52012634 0.2374878 -1.1015625q0.28492737 -0.5814514 0.85672 -1.1364899q0.5717926 -0.55503845 1.0611115 -0.76872253q0.4893341 -0.21368408 0.8533478 -0.17507935q0.36401367 0.038619995 0.7359314 0.287323q0.21858215 0.1579895 0.7081909 0.66264343l0.9792023 1.0093079q1.0227356 1.0541687 1.3395844 1.2910004q0.3280487 0.22593689 0.7240448 0.34239197l-0.7960205 0.7727051q-0.34059143 -0.12667847 -0.6788788 -0.40803528zm-1.710144 -1.6280823q-0.2516327 0.57089233 -0.9503937 1.4887238q-0.40560913 0.5243683 -0.5091553 0.7991028q-0.11444092 0.2635193 -0.07423401 0.52934265q0.05142212 0.2549591 0.24725342 0.45681763q0.2937622 0.3027954 0.71383667 0.2869873q0.43128967 -0.026687622 0.8685303 -0.4511261q0.43725586 -0.42443848 0.5886383 -0.9415741q0.16259766 -0.5280304 -0.0068511963 -1.0168304q-0.12690735 -0.37763977 -0.6056366 -0.8710785l-0.27198792 -0.280365zm4.105789 0.36964417l-4.330261 -4.463379l0.6838989 -0.66386414l0.6528015 0.6728668q-0.19909668 -0.7213135 -0.1275177 -1.073883q0.07191467 -0.3746643 0.34098816 -0.63586426q0.38119507 -0.37002563 1.0020752 -0.51542664l0.4275818 0.9568176q-0.4434967 0.10386658 -0.7125702 0.36505127q-0.25785828 0.25032043 -0.3073578 0.60321045q-0.04914856 0.33081055 0.13349915 0.6761322q0.2571411 0.534317 0.71409607 1.0053253l2.273941 2.3438416l-0.7511749 0.72917175zm3.8738403 -5.0669403l0.7540436 0.5528259q-0.25985718 0.3828888 -0.50650024 0.6223297q-0.41482544 0.40266418 -0.7587433 0.49697876q-0.35479736 0.08308411 -0.66241455 -0.032043457q-0.29641724 -0.12600708 -0.96009827 -0.8100891l-2.4915314 -2.5681305l-0.5493622 0.5332794l-0.5657654 -0.5831604l0.5493622 -0.53326416l-1.0771332 -1.1102295l0.315979 -1.1777496l1.5123291 1.5588074l0.7623749 -0.74005127l0.5657654 0.58314514l-0.7623749 0.7400665l2.5350494 2.612976q0.31552124 0.32521057 0.43618774 0.38227844q0.13189697 0.046188354 0.27598572 0.015197754q0.14408875 -0.0309906 0.31227112 -0.19424438q0.13453674 -0.13059998 0.3145752 -0.34892273z" fill-rule="nonzero"></path><path fill="#000000" fill-opacity="0.0" d="m167.09131 208.35744l83.87401 -81.41733l15.370071 15.842514l-83.87401 81.41733z" fill-rule="nonzero"></path><path fill="#000000" d="m188.49919 216.17441l-5.9840393 -6.1679688l2.3320007 -2.2636871q0.605423 -0.58769226 0.98495483 -0.847229q0.53582764 -0.3677063 1.0452576 -0.44847107q0.52064514 -0.091659546 1.0699615 0.11550903q0.56051636 0.1962738 1.0065918 0.6560669q0.76161194 0.7850189 0.7902069 1.8242645q0.028945923 1.0171661 -1.2828064 2.2904816l-1.5808258 1.5345306l2.4371338 2.5120392l-0.81843567 0.7944641zm-2.3150177 -4.024231l1.5920258 -1.5454102q0.7960205 -0.7727051 0.8382721 -1.3798828q0.04258728 -0.6292877 -0.47966003 -1.1675873q-0.36991882 -0.38128662 -0.83283997 -0.45454407q-0.4626007 -0.09535217 -0.86357117 0.119659424q-0.26741028 0.15071106 -0.81677246 0.6839905l-1.5808258 1.5345154l2.1433716 2.209259zm10.894623 -4.304077l-0.641922 -0.6616516q0.21290588 1.2740936 -0.684021 2.1447449q-0.39239502 0.38090515 -0.88139343 0.5724945q-0.48866272 0.16949463 -0.8744354 0.108444214q-0.39666748 -0.072250366 -0.790329 -0.3433838q-0.25157166 -0.16955566 -0.73028564 -0.6629944l-2.6764984 -2.7587585l0.7623749 -0.74005127l2.4044952 2.4784088q0.5657654 0.58314514 0.81733704 0.75268555q0.35014343 0.22628784 0.74845886 0.18804932q0.39863586 -0.060333252 0.74620056 -0.39770508q0.3363495 -0.3264923 0.4646454 -0.7776642q0.12863159 -0.47328186 -0.041809082 -0.8957825q-0.15922546 -0.4333954 -0.7141113 -1.0053406l-2.3174438 -2.3886871l0.7511749 -0.7291565l4.330261 4.4633636l-0.672699 0.6529846zm1.8513031 -1.7970734l-4.330261 -4.4633636l0.6838989 -0.6638794l0.6528015 0.6728668q-0.19909668 -0.7213135 -0.1275177 -1.073883q0.07191467 -0.3746643 0.34098816 -0.63586426q0.38119507 -0.37002563 1.0020752 -0.51542664l0.4275818 0.9568176q-0.4434967 0.10386658 -0.7125702 0.36506653q-0.25785828 0.25030518 -0.30734253 0.60321045q-0.04916382 0.3307953 0.13348389 0.6761322q0.2571411 0.534317 0.7141113 1.0053253l2.2739258 2.3438263l-0.7511749 0.72917175zm4.205063 -7.2611694l0.8378906 -0.61735535q0.6165161 0.8822937 0.5363159 1.8094025q-0.080200195 0.92710876 -0.8089447 1.6345062q-0.91934204 0.8924103 -2.0565643 0.84220886q-1.1368866 -0.0723114 -2.2248993 -1.1937561q-0.6963196 -0.71772766 -0.9831238 -1.4845734q-0.2864685 -0.7889404 -0.06549072 -1.526062q0.23217773 -0.7480011 0.81518555 -1.3139343q0.7175293 -0.69651794 1.5362549 -0.77264404q0.819046 -0.098236084 1.6172638 0.45526123l-0.63116455 0.8304291q-0.5361023 -0.3506317 -1.0227814 -0.3137207q-0.4975586 0.025680542 -0.87875366 0.39570618q-0.57177734 0.55503845 -0.5279846 1.3182373q0.032913208 0.75198364 0.8924408 1.6379242q0.88127136 0.90838623 1.6205139 0.97473145q0.73924255 0.066329956 1.2886047 -0.4669342q0.44847107 -0.43533325 0.47883606 -0.987442q0.04159546 -0.5629883 -0.42359924 -1.2219849zm2.978714 0.28779602l-5.984024 -6.1679688l0.75115967 -0.72917175l2.1433868 2.209259q-0.06059265 -1.1170807 0.74664307 -1.9006653q0.5045166 -0.4897461 1.0591278 -0.6361542q0.55493164 -0.16848755 1.0491791 0.026794434q0.48336792 0.18406677 1.1252899 0.84573364l2.7417755 2.8260498l-0.7511749 0.72917175l-2.7417755 -2.826065q-0.55488586 -0.57192993 -1.0517731 -0.59043884q-0.49690247 -0.018508911 -0.9453583 0.41682434q-0.3363495 0.3264923 -0.46498108 0.79977417q-0.1282959 0.45117188 0.030929565 0.88456726q0.15956116 0.4112854 0.6709137 0.93836975l2.3718567 2.4447632l-0.7511749 0.7291565zm7.1705933 -8.027573q-0.0778656 0.77241516 -0.3288269 1.299118q-0.23976135 0.51582336 -0.68821716 0.95114136q-0.7399597 0.71829224 -1.4805298 0.7403259q-0.7405548 0.02204895 -1.2845612 -0.5386658q-0.31552124 -0.32522583 -0.43089294 -0.7358551q-0.12625122 -0.42184448 -0.031921387 -0.8182831q0.08345032 -0.40763855 0.30999756 -0.7799835q0.1477356 -0.2740631 0.55300903 -0.7763519q0.8102112 -0.98246765 1.0951385 -1.5639038q-0.15231323 -0.15699768 -0.18495178 -0.19064331q-0.4569702 -0.4710083 -0.85494995 -0.45487976q-0.5308533 0.036239624 -1.1026459 0.5912781q-0.526947 0.5115051 -0.59983826 0.9524689q-0.08378601 0.42974854 0.24984741 1.020462l-0.83787537 0.61735535q-0.35606384 -0.56895447 -0.40350342 -1.0890808q-0.047439575 -0.5201111 0.2374878 -1.1015625q0.28492737 -0.58143616 0.85672 -1.1364746q0.57177734 -0.5550537 1.0611115 -0.7687378q0.4893341 -0.21368408 0.8533478 -0.17506409q0.36401367 0.038604736 0.73591614 0.287323q0.21859741 0.1579895 0.7082062 0.66264343l0.9792023 1.0093079q1.0227203 1.0541534 1.3395691 1.2909851q0.32806396 0.22595215 0.72406006 0.34240723l-0.7960205 0.7727051q-0.34059143 -0.12667847 -0.6788788 -0.40803528zm-1.7101593 -1.6280975q-0.25161743 0.57089233 -0.9503784 1.4887238q-0.40560913 0.52438354 -0.5091553 0.79911804q-0.11444092 0.26350403 -0.07423401 0.52934265q0.05142212 0.25494385 0.24725342 0.45681763q0.2937622 0.30278015 0.71383667 0.2869873q0.43128967 -0.026687622 0.8685303 -0.4511261q0.43725586 -0.42445374 0.5886383 -0.94158936q0.16259766 -0.52801514 -0.0068511963 -1.0168152q-0.12690735 -0.37765503 -0.6056366 -0.87109375l-0.27200317 -0.280365zm2.519577 -0.6819153l0.6311493 -0.8304291q0.5024719 0.38327026 1.0112457 0.3467102q0.519989 -0.047470093 1.0469208 -0.5589752q0.5157318 -0.5006256 0.5665436 -0.9419098q0.05114746 -0.46339417 -0.23173523 -0.7549591q-0.25024414 -0.25793457 -0.615921 -0.18606567q-0.25486755 0.051437378 -1.0238342 0.49301147q-1.0363617 0.5922699 -1.502945 0.76208496q-0.46624756 0.1477356 -0.89553833 0.04182434q-0.42929077 -0.105895996 -0.7556915 -0.44233704q-0.2828827 -0.29156494 -0.3985901 -0.6800995q-0.1157074 -0.38853455 -0.04345703 -0.7852936q0.05970764 -0.29748535 0.27537537 -0.68104553q0.21566772 -0.38356018 0.5744324 -0.7318268q0.5157318 -0.5006256 1.0604553 -0.7245331q0.5450592 -0.2460022 0.9859009 -0.17308044q0.44082642 0.07292175 0.9215393 0.43377686l-0.64204407 0.81921387q-0.37124634 -0.2929077 -0.80285645 -0.24412537q-0.43128967 0.026687622 -0.8797455 0.46200562q-0.5157318 0.5006256 -0.5658722 0.89772034q-0.061035156 0.38587952 0.16744995 0.62138367q0.14143372 0.14579773 0.3399353 0.17086792q0.22058105 0.025421143 0.4873352 -0.081100464q0.15563965 -0.063964844 0.85765076 -0.4623413q1.024826 -0.55929565 1.4693146 -0.7294464q0.44448853 -0.17015076 0.874115 -0.08634949q0.42962646 0.08380127 0.8104248 0.47631836q0.36991882 0.38128662 0.47209167 0.935379q0.102508545 0.53201294 -0.12736511 1.1253204q-0.24073792 0.5821228 -0.76768494 1.0936279q-0.87449646 0.84887695 -1.6823273 0.93621826q-0.8075104 0.06524658 -1.616272 -0.5215454zm7.55954 -7.5341034l0.87184143 -0.6721039q0.48431396 0.85821533 0.3497162 1.729248q-0.13459778 0.8710327 -0.9082031 1.6219635q-0.9753876 0.9468384 -2.1459198 0.9071655q-1.1593018 -0.05053711 -2.214676 -1.1383362q-1.0880127 -1.12146 -1.1034088 -2.3041687q-0.026290894 -1.1939392 0.89305115 -2.0863495q0.8969269 -0.87065125 2.0450287 -0.8092346q1.159317 0.05055237 2.236435 1.1607819q0.0652771 0.06729126 0.19584656 0.20185852l-3.3298187 3.2322845q0.7629242 0.69662476 1.5137024 0.7299957q0.73991394 0.022155762 1.3004761 -0.5220032q0.41482544 -0.40267944 0.49961853 -0.89871216q0.08509827 -0.5181427 -0.20368958 -1.1523895zm-3.6636658 1.182785l2.4889526 -2.4160461q-0.59973145 -0.52841187 -1.1071777 -0.5802307q-0.79429626 -0.07821655 -1.3660889 0.4768219q-0.52693176 0.5115051 -0.5484314 1.2074127q-0.010269165 0.6850281 0.53274536 1.3120422z" fill-rule="nonzero"></path><path fill="#000000" fill-opacity="0.0" d="m484.7842 208.35744l83.87399 -81.41733l15.370117 15.842514l-83.87402 81.41733z" fill-rule="nonzero"></path><path fill="#000000" d="m507.9523 214.46576l-8.37207 -3.8498535l0.88571167 -0.8597717l5.955261 2.9295044q0.7128296 0.35328674 1.3043518 0.69369507q-0.34387207 -0.6461334 -0.6428833 -1.3358002l-2.6927185 -6.0964966l0.8296509 -0.8053436l3.573578 8.507843l-0.84088135 0.81622314zm-1.2421875 -9.072403l-0.8486328 -0.87472534l0.76239014 -0.74005127l0.8486328 0.87472534l-0.76239014 0.74005127zm5.1354065 5.2932434l-4.3302917 -4.4633636l0.76239014 -0.7400665l4.3302917 4.463379l-0.76239014 0.74005127zm0.31549072 -2.8976135l0.63116455 -0.8304291q0.50250244 0.38327026 1.0112305 0.34669495q0.52001953 -0.047454834 1.046936 -0.55895996q0.5157471 -0.5006256 0.5665283 -0.9419098q0.05114746 -0.46339417 -0.23168945 -0.7549591q-0.25024414 -0.25793457 -0.61590576 -0.18606567q-0.2548828 0.051437378 -1.0238647 0.49299622q-1.036377 0.59228516 -1.5029297 0.7621002q-0.46624756 0.1477356 -0.89556885 0.04182434q-0.42929077 -0.105895996 -0.75567627 -0.44233704q-0.28289795 -0.29156494 -0.3985901 -0.6800995q-0.11569214 -0.38853455 -0.04345703 -0.7852936q0.059692383 -0.29748535 0.2753601 -0.68104553q0.21566772 -0.38356018 0.5744629 -0.7318268q0.51571655 -0.5006256 1.0604248 -0.7245331q0.54504395 -0.2460022 0.9859009 -0.17308044q0.44085693 0.07292175 0.9215698 0.43377686l-0.6420288 0.81921387q-0.37127686 -0.2929077 -0.8029175 -0.24412537q-0.4312439 0.026687622 -0.8796997 0.46200562q-0.5157471 0.5006256 -0.56588745 0.89772034q-0.061035156 0.38587952 0.16744995 0.62138367q0.14144897 0.14579773 0.3399353 0.17086792q0.22058105 0.025421143 0.4873352 -0.081100464q0.15563965 -0.063964844 0.857666 -0.4623413q1.0248413 -0.55929565 1.4692993 -0.7294464q0.444458 -0.17015076 0.8740845 -0.08634949q0.42962646 0.08380127 0.8104248 0.47631836q0.36993408 0.38128662 0.47210693 0.935379q0.10253906 0.5319977 -0.12731934 1.1253204q-0.24078369 0.58210754 -0.7677002 1.0936279q-0.8745117 0.84887695 -1.682373 0.93621826q-0.8074951 0.06524658 -1.616272 -0.5215454zm0.76727295 -8.431686l-0.8486328 -0.87472534l0.76239014 -0.74005127l0.8486328 0.87472534l-0.76239014 0.74005127zm5.135437 5.2932434l-4.330261 -4.4633636l0.7623291 -0.74005127l4.330261 4.4633636l-0.7623291 0.74005127zm2.9082031 -4.1296234l0.75408936 0.5528259q-0.2598877 0.3828888 -0.50653076 0.6223297q-0.41485596 0.40266418 -0.758728 0.49697876q-0.35479736 0.08308411 -0.66241455 -0.032043457q-0.29644775 -0.12600708 -0.960083 -0.8100891l-2.4915771 -2.5681305l-0.5493164 0.5332794l-0.5657959 -0.5831604l0.54937744 -0.53326416l-1.0771484 -1.1102448l0.315979 -1.1777496l1.5123291 1.5588226l0.76239014 -0.74005127l0.56573486 0.58314514l-0.76239014 0.74005127l2.5350952 2.6129913q0.31549072 0.32521057 0.43615723 0.38227844q0.13189697 0.046188354 0.27600098 0.015197754q0.144104 -0.03100586 0.31225586 -0.19424438q0.13458252 -0.13059998 0.3145752 -0.34892273zm5.4539185 -0.65586853l-5.994934 -6.179184l0.6838989 -0.6638794l0.5548706 0.5719452q-0.079711914 -0.5758667 0.059753418 -1.0379181q0.15075684 -0.47294617 0.5880127 -0.8973999q0.57177734 -0.55503845 1.2919312 -0.6878967q0.7200928 -0.13287354 1.4553833 0.19865417q0.74645996 0.32063293 1.3666382 0.9598541q0.66363525 0.68408203 0.9501343 1.4730225q0.29766846 0.7780609 0.109680176 1.5267181q-0.18798828 0.7486725 -0.70373535 1.2492981q-0.38116455 0.37002563 -0.8362427 0.50686646q-0.46588135 0.12562561 -0.88494873 0.07513428l2.1107178 2.1756134l-0.75115967 0.72917175zm-3.1241455 -4.5889435q0.83776855 0.86351013 1.5878906 0.94107056q0.7392578 0.066345215 1.232544 -0.4125061q0.5045166 -0.4897461 0.4498291 -1.2641602q-0.054626465 -0.7743988 -0.9250488 -1.6715698q-0.8269043 -0.8522949 -1.5770264 -0.92985535q-0.7609863 -0.088775635 -1.2542725 0.39009094q-0.4821167 0.4679718 -0.41687012 1.2756958q0.06518555 0.807724 0.9029541 1.6712341zm8.630066 -5.1544495q-0.07788086 0.77241516 -0.32885742 1.299118q-0.2397461 0.5158081 -0.6881714 0.95114136q-0.73999023 0.718277 -1.4805298 0.7403259q-0.7406006 0.02204895 -1.2846069 -0.53868103q-0.31549072 -0.32521057 -0.43084717 -0.73583984q-0.12628174 -0.42184448 -0.031921387 -0.8182831q0.08343506 -0.40763855 0.30999756 -0.7799835q0.14770508 -0.27407837 0.5529785 -0.7763519q0.8102417 -0.98246765 1.0951538 -1.5639038q-0.15234375 -0.15701294 -0.18493652 -0.19065857q-0.4569702 -0.4710083 -0.85498047 -0.4548645q-0.53082275 0.036239624 -1.1026001 0.5912781q-0.52697754 0.5115051 -0.5998535 0.9524689q-0.08380127 0.42973328 0.2498169 1.020462l-0.8378906 0.61735535q-0.35601807 -0.56895447 -0.40350342 -1.0890808q-0.047424316 -0.52012634 0.23754883 -1.1015625q0.2849121 -0.5814514 0.85668945 -1.1364899q0.57177734 -0.55503845 1.0610962 -0.76872253q0.48931885 -0.21368408 0.8533325 -0.17507935q0.36401367 0.038619995 0.7359619 0.287323q0.2185669 0.15800476 0.7081909 0.6626587l0.979187 1.0092926q1.0227661 1.0541687 1.3395996 1.2910004q0.32806396 0.22595215 0.72406006 0.34239197l-0.7960205 0.7727051q-0.3406372 -0.12666321 -0.67889404 -0.40802002zm-1.710144 -1.6280975q-0.25164795 0.57089233 -0.9503784 1.4887238q-0.40563965 0.52438354 -0.5091553 0.7991028q-0.11444092 0.2635193 -0.074279785 0.5293579q0.051452637 0.25494385 0.24731445 0.45680237q0.2937622 0.3027954 0.71380615 0.2869873q0.4312744 -0.026672363 0.8685303 -0.4511261q0.43725586 -0.42443848 0.58862305 -0.9415741q0.16259766 -0.5280304 -0.0068359375 -1.0168304q-0.12689209 -0.37763977 -0.60565186 -0.8710785l-0.27197266 -0.280365zm4.330261 0.87031555l0.8488159 -0.60614014q0.37121582 0.2929077 0.73657227 0.24313354q0.4869995 -0.059005737 0.9691162 -0.52697754q0.5269165 -0.5115204 0.60046387 -0.9966736q0.08477783 -0.4960327 -0.17333984 -0.9640503q-0.16119385 -0.30081177 -0.8905029 -1.0300903q0.07244873 1.0620117 -0.66748047 1.780304q-0.91937256 0.8924103 -2.065796 0.72050476q-1.1573486 -0.18313599 -2.0494995 -1.1027222q-0.6201782 -0.6392212 -0.9182129 -1.3951874q-0.29766846 -0.77804565 -0.14331055 -1.4940643q0.15441895 -0.7160187 0.7485962 -1.2928314q0.7960205 -0.7727051 1.9319458 -0.63409424l-0.52227783 -0.53829956l0.6951294 -0.6747589l3.7427368 3.857788q1.0118408 1.0429535 1.2231445 1.6871033q0.21130371 0.6441345 -0.009033203 1.3370667q-0.20941162 0.7041321 -0.8820801 1.357132q-0.7960205 0.7726898 -1.6375122 0.89268494q-0.84143066 0.11999512 -1.5374756 -0.6198273zm-1.9724731 -3.2897186q0.8486328 0.87472534 1.5878906 0.94107056q0.7392578 0.066345215 1.2661743 -0.4451599q0.52697754 -0.5115051 0.48284912 -1.252594q-0.032958984 -0.75198364 -0.85980225 -1.6042938q-0.7942505 -0.8186493 -1.5668335 -0.8744507q-0.7612915 -0.06668091 -1.2770386 0.4339447q-0.5045166 0.4897461 -0.46069336 1.252945q0.044128418 0.7411041 0.8274536 1.5485382zm8.204834 -6.2659607l0.8718262 -0.6721039q0.48431396 0.85821533 0.34973145 1.729248q-0.13464355 0.8710327 -0.9082031 1.6219635q-0.97540283 0.9468384 -2.145935 0.9071808q-1.1593018 -0.05055237 -2.2146606 -1.1383514q-1.0880127 -1.1214447 -1.1034546 -2.3041687q-0.026245117 -1.1939392 0.8930664 -2.0863495q0.8969116 -0.87065125 2.045044 -0.80921936q1.1593018 0.05053711 2.2364502 1.1607666q0.06524658 0.06729126 0.19580078 0.20185852l-3.329773 3.2322998q0.7628784 0.69662476 1.5136719 0.72998047q0.7399292 0.022155762 1.3004761 -0.5220032q0.41485596 -0.40267944 0.4996338 -0.89871216q0.08508301 -0.51812744 -0.20367432 -1.1523895zm-3.6636963 1.182785l2.4889526 -2.4160461q-0.59973145 -0.52841187 -1.1071777 -0.5802307q-0.7943115 -0.07821655 -1.3660889 0.4768219q-0.5269165 0.5115051 -0.5484009 1.2074127q-0.010314941 0.6850281 0.53271484 1.3120422z" fill-rule="nonzero"></path><path fill="#000000" fill-opacity="0.0" d="m279.22778 208.35744l83.87402 -81.41733l15.370087 15.842514l-83.87402 81.41733z" fill-rule="nonzero"></path><path fill="#000000" d="m299.96298 216.82741l-3.6184082 -8.46431l0.8745117 -0.8488922l8.506622 3.7192688l-0.91934204 0.8924103l-2.5457153 -1.1654053l-2.5674438 2.4922333l1.1330566 2.5366821l-0.86328125 0.8380127zm-0.67626953 -4.2648926l2.0853577 -2.0242615l-2.2928467 -1.0842743q-1.0534363 -0.47994995 -1.6775818 -0.8540039q0.45333862 0.7140808 0.8060608 1.5040131l1.07901 2.4585266zm9.894928 -4.6837616l-0.54400635 -0.56073q0.21591187 1.0752106 -0.60253906 1.86969q-0.538147 0.52238464 -1.2695007 0.6661377q-0.742218 0.13252258 -1.5002441 -0.15512085q-0.7579956 -0.2876587 -1.4216919 -0.9717407q-0.64193726 -0.6616516 -0.95080566 -1.428833q-0.30889893 -0.76716614 -0.13244629 -1.4828491q0.16558838 -0.7268982 0.7149353 -1.2601776q0.4036255 -0.39179993 0.8807373 -0.52830505q0.47714233 -0.13650513 0.9400635 -0.06326294l-2.1433716 -2.2092438l0.75115967 -0.72917175l5.9840393 6.1679688l-0.70632935 0.6856384zm-4.553192 0.08642578q0.83776855 0.86351013 1.6099854 0.94140625q0.761322 0.06666565 1.2546387 -0.41218567q0.49331665 -0.47886658 0.44918823 -1.2199554q-0.044128418 -0.7411041 -0.84924316 -1.5709686q-0.8921814 -0.91960144 -1.6643982 -0.9974823q-0.7609863 -0.088775635 -1.2767029 0.41184998q-0.5045166 0.4897461 -0.43832397 1.2311707q0.055358887 0.73020935 0.91485596 1.6161652zm9.341919 -4.7348785l-0.54400635 -0.56073q0.21588135 1.0752106 -0.60253906 1.8696747q-0.5381775 0.5223999 -1.2695007 0.6661377q-0.742218 0.13253784 -1.5002441 -0.15510559q-0.7580261 -0.2876587 -1.4216919 -0.9717407q-0.64193726 -0.6616516 -0.9508362 -1.428833q-0.3088684 -0.76716614 -0.13241577 -1.4828491q0.16555786 -0.72691345 0.7149353 -1.2601776q0.4036255 -0.39179993 0.8807373 -0.52830505q0.47711182 -0.13652039 0.9400635 -0.06326294l-2.1433716 -2.209259l0.75115967 -0.72917175l5.9840393 6.167984l-0.70632935 0.6856384zm-4.553192 0.08641052q0.83776855 0.8635254 1.6099854 0.94140625q0.761322 0.06668091 1.2546387 -0.4121704q0.49331665 -0.47886658 0.44918823 -1.2199554q-0.044128418 -0.7411041 -0.8492737 -1.5709839q-0.8921509 -0.9195862 -1.6643677 -0.99746704q-0.7609863 -0.088775635 -1.2767334 0.41184998q-0.5045166 0.48973083 -0.43829346 1.2311707q0.05532837 0.73020935 0.91485596 1.6161499zm9.836884 -6.5219116l0.75405884 0.5528259q-0.25985718 0.38290405 -0.50653076 0.6223297q-0.41482544 0.40267944 -0.758728 0.49697876q-0.35479736 0.08308411 -0.66241455 -0.032043457q-0.29641724 -0.12600708 -0.9601135 -0.8100891l-2.491516 -2.5681152l-0.54937744 0.5332794l-0.5657654 -0.5831604l0.54937744 -0.5332794l-1.0771179 -1.1102295l0.3159485 -1.1777496l1.5123291 1.5588074l0.76239014 -0.74005127l0.5657654 0.5831604l-0.76239014 0.74005127l2.5350647 2.612976q0.31552124 0.32522583 0.43618774 0.3822937q0.13189697 0.046173096 0.27600098 0.015182495q0.14407349 -0.0309906 0.31225586 -0.19422913q0.13452148 -0.13059998 0.3145752 -0.348938zm-1.0484619 -2.0090942q-1.2076721 -1.244812 -1.1004028 -2.5030518q0.093048096 -1.0484772 0.922699 -1.8538208q0.91934204 -0.89242554 2.0898743 -0.85276794q1.1708679 0.017562866 2.2044678 1.0829468q0.83776855 0.86351013 1.0586243 1.6072693q0.22085571 0.7437439 -0.011657715 1.5138397q-0.23220825 0.74801636 -0.81518555 1.3139343q-0.9305725 0.90330505 -2.09021 0.8748474q-1.1593018 -0.05053711 -2.2582092 -1.183197zm0.7736206 -0.7509308q0.8268738 0.8522949 1.6102905 0.91929626q0.7946472 0.056137085 1.3552246 -0.48802185q0.57177734 -0.55503845 0.5283203 -1.340332q-0.04345703 -0.7852936 -0.89212036 -1.6600342q-0.80511475 -0.8298645 -1.599762 -0.8859863q-0.78341675 -0.0670166 -1.3439941 0.47714233q-0.5605774 0.54415894 -0.5283203 1.340332q0.032592773 0.77407837 0.8703613 1.6376038zm10.179291 -8.7270355l0.8378906 -0.61735535q0.6165161 0.8822937 0.5363159 1.8094025q-0.080200195 0.92710876 -0.80892944 1.6345062q-0.91937256 0.89242554 -2.0565796 0.84220886q-1.1368713 -0.0723114 -2.224884 -1.1937561q-0.6963196 -0.71772766 -0.9831238 -1.4845734q-0.2864685 -0.7889404 -0.06549072 -1.526062q0.23217773 -0.7480011 0.815155 -1.3139343q0.7175598 -0.69651794 1.5362549 -0.77264404q0.8190613 -0.098220825 1.617279 0.45526123l-0.63116455 0.8304291q-0.5361023 -0.3506317 -1.0227661 -0.3137207q-0.4975586 0.025680542 -0.87875366 0.39570618q-0.57180786 0.55503845 -0.52801514 1.3182373q0.032928467 0.75198364 0.89245605 1.6379242q0.8812866 0.90838623 1.6205139 0.97473145q0.7392578 0.066345215 1.2886047 -0.4669342q0.4484558 -0.435318 0.47885132 -0.98742676q0.04159546 -0.56300354 -0.4236145 -1.2220001zm5.3605957 -3.0913239q-0.07788086 0.7724304 -0.3288269 1.299118q-0.23977661 0.51582336 -0.6882324 0.95114136q-0.7399597 0.71829224 -1.4805298 0.7403412q-0.74053955 0.02204895 -1.2845459 -0.53868103q-0.31552124 -0.32522583 -0.4309082 -0.7358551q-0.12625122 -0.42184448 -0.031921387 -0.8182678q0.083465576 -0.4076538 0.30999756 -0.7799988q0.14776611 -0.2740631 0.55300903 -0.77633667q0.8102417 -0.98246765 1.0951538 -1.5639191q-0.15231323 -0.15699768 -0.18496704 -0.19064331q-0.4569702 -0.4710083 -0.85494995 -0.45487976q-0.5308533 0.036254883 -1.1026306 0.59129333q-0.526947 0.5115051 -0.5998535 0.9524536q-0.08377075 0.42974854 0.24984741 1.0204773l-0.8378601 0.61735535q-0.3560791 -0.56895447 -0.40350342 -1.0890808q-0.047454834 -0.52012634 0.2374878 -1.1015625q0.2849121 -0.5814514 0.85672 -1.1364899q0.57177734 -0.55503845 1.0610962 -0.76872253q0.48934937 -0.21368408 0.85336304 -0.17507935q0.36401367 0.038619995 0.7359009 0.287323q0.21859741 0.1579895 0.70822144 0.66264343l0.979187 1.0093079q1.0227356 1.0541687 1.3395996 1.2910004q0.32803345 0.22593689 0.72402954 0.34239197l-0.7960205 0.7727051q-0.34057617 -0.12667847 -0.6788635 -0.40803528zm-1.7101746 -1.6280823q-0.25161743 0.57089233 -0.9503784 1.4887238q-0.40560913 0.5243683 -0.5091553 0.7991028q-0.11444092 0.2635193 -0.07421875 0.52934265q0.05142212 0.2549591 0.24725342 0.45681763q0.2937622 0.3027954 0.71383667 0.2869873q0.4312744 -0.026687622 0.8685303 -0.4511261q0.43725586 -0.42443848 0.58862305 -0.9415741q0.16259766 -0.5280304 -0.0068359375 -1.0168304q-0.1269226 -0.37763977 -0.60565186 -0.8710785l-0.27200317 -0.280365zm4.1058044 0.36964417l-4.330261 -4.463379l0.6838989 -0.66386414l0.6528015 0.6728668q-0.19909668 -0.7213135 -0.12750244 -1.073883q0.071899414 -0.3746643 0.3409729 -0.63586426q0.38119507 -0.37002563 1.0020752 -0.51542664l0.4275818 0.9568176q-0.44348145 0.10386658 -0.71255493 0.36505127q-0.25787354 0.25032043 -0.30737305 0.60321045q-0.0491333 0.33081055 0.13348389 0.6761322q0.25717163 0.534317 0.7141113 1.0053253l2.2739563 2.3438416l-0.7511902 0.72917175zm3.8738403 -5.0669403l0.75405884 0.5528259q-0.25985718 0.3828888 -0.50650024 0.6223297q-0.41485596 0.40266418 -0.75875854 0.49697876q-0.35479736 0.08308411 -0.66241455 -0.032043457q-0.29641724 -0.12600708 -0.960083 -0.8100891l-2.4915466 -2.5681305l-0.5493469 0.5332794l-0.5657654 -0.5831604l0.5493469 -0.53326416l-1.0771179 -1.1102295l0.315979 -1.1777496l1.5123291 1.5588074l0.7623596 -0.74005127l0.5657654 0.58314514l-0.76239014 0.7400665l2.5350647 2.612976q0.31552124 0.32521057 0.43618774 0.38227844q0.13189697 0.046188354 0.27600098 0.015197754q0.14407349 -0.0309906 0.31225586 -0.19424438q0.134552 -0.13059998 0.3145752 -0.34892273z" fill-rule="nonzero"></path><path fill="#000000" fill-opacity="0.0" d="m417.3039 208.35744l83.87402 -81.41733l15.370056 15.842514l-83.87399 81.41733z" fill-rule="nonzero"></path><path fill="#000000" d="m438.7118 216.17441l-5.9840393 -6.1679688l2.3320007 -2.2636871q0.6054077 -0.58769226 0.98495483 -0.847229q0.53582764 -0.3677063 1.0452576 -0.44847107q0.5206604 -0.091659546 1.0699463 0.11550903q0.56051636 0.1962738 1.0065918 0.6560669q0.7616272 0.7850189 0.79022217 1.8242645q0.028930664 1.0171661 -1.2828064 2.2904816l-1.5808411 1.5345306l2.4371338 2.5120392l-0.8184204 0.7944641zm-2.315033 -4.024231l1.592041 -1.5454102q0.7960205 -0.7727051 0.83828735 -1.3798828q0.04257202 -0.6292877 -0.4796753 -1.1675873q-0.36993408 -0.38128662 -0.8328552 -0.45454407q-0.46258545 -0.09535217 -0.8635559 0.119659424q-0.26742554 0.15071106 -0.81677246 0.6839905l-1.5808411 1.5345154l2.1433716 2.209259zm10.894653 -4.304077l-0.64193726 -0.6616516q0.21289062 1.2740936 -0.684021 2.1447449q-0.39239502 0.38090515 -0.8814087 0.5724945q-0.48864746 0.16949463 -0.87442017 0.108444214q-0.39666748 -0.072250366 -0.79034424 -0.3433838q-0.2515564 -0.16955566 -0.73028564 -0.6629944l-2.6764832 -2.7587585l0.76239014 -0.74005127l2.40448 2.4784088q0.5657654 0.58314514 0.8173218 0.75268555q0.3501587 0.22628784 0.7484741 0.18804932q0.39865112 -0.060333252 0.7461853 -0.39770508q0.33636475 -0.3264923 0.46466064 -0.7776642q0.12863159 -0.47328186 -0.041809082 -0.8957825q-0.1592102 -0.4333954 -0.7141113 -1.0053406l-2.3174438 -2.3886871l0.75115967 -0.7291565l4.330261 4.4633636l-0.67266846 0.6529846zm1.8512878 -1.7970734l-4.330261 -4.4633636l0.6838989 -0.6638794l0.6528015 0.6728668q-0.19909668 -0.7213135 -0.12750244 -1.073883q0.071899414 -0.3746643 0.3409729 -0.63586426q0.38119507 -0.37002563 1.0020752 -0.51542664l0.4275818 0.9568176q-0.44348145 0.10386658 -0.71255493 0.36506653q-0.25787354 0.25030518 -0.30737305 0.60321045q-0.0491333 0.3307953 0.13348389 0.6761322q0.2571411 0.534317 0.7141113 1.0053253l2.2739258 2.3438263l-0.75115967 0.72917175zm4.205078 -7.2611694l0.8378601 -0.61735535q0.6165161 0.8822937 0.5363159 1.8094025q-0.08016968 0.92710876 -0.80892944 1.6345062q-0.91934204 0.8924103 -2.0565796 0.84220886q-1.1368713 -0.0723114 -2.224884 -1.1937561q-0.6963196 -0.71772766 -0.9831238 -1.4845734q-0.2864685 -0.7889404 -0.06549072 -1.526062q0.23217773 -0.7480011 0.81518555 -1.3139343q0.7175293 -0.69651794 1.5362549 -0.77264404q0.81903076 -0.098236084 1.6172485 0.45526123l-0.63113403 0.8304291q-0.5361328 -0.3506317 -1.0227966 -0.3137207q-0.4975586 0.025680542 -0.87875366 0.39570618q-0.57177734 0.55503845 -0.5279846 1.3182373q0.03289795 0.75198364 0.89242554 1.6379242q0.8812866 0.90838623 1.6205444 0.97473145q0.7392273 0.066329956 1.2886047 -0.4669342q0.4484558 -0.43533325 0.4788208 -0.987442q0.04159546 -0.5629883 -0.42358398 -1.2219849zm2.9786987 0.28779602l-5.9840393 -6.1679688l0.7511902 -0.72917175l2.1433716 2.209259q-0.060577393 -1.1170807 0.74664307 -1.9006653q0.5045166 -0.4897461 1.0591125 -0.6361542q0.55496216 -0.16848755 1.0491943 0.026794434q0.48336792 0.18406677 1.1252747 0.84573364l2.7417908 2.8260498l-0.75115967 0.72917175l-2.7417908 -2.826065q-0.5548706 -0.57192993 -1.0517883 -0.59043884q-0.4968872 -0.018508911 -0.945343 0.41682434q-0.33633423 0.3264923 -0.46496582 0.79977417q-0.1282959 0.45117188 0.030914307 0.88456726q0.1595459 0.4112854 0.67092896 0.93836975l2.3718567 2.4447632l-0.7511902 0.7291565zm7.1705933 -8.027573q-0.07788086 0.77241516 -0.3288269 1.299118q-0.2397461 0.51582336 -0.6882324 0.95114136q-0.7399597 0.71829224 -1.4804993 0.7403259q-0.74057007 0.02204895 -1.2845764 -0.5386658q-0.31552124 -0.32522583 -0.4309082 -0.7358551q-0.12625122 -0.42184448 -0.031921387 -0.8182831q0.083465576 -0.40763855 0.31002808 -0.7799835q0.1477356 -0.2740631 0.55300903 -0.7763519q0.8102112 -0.98246765 1.0951233 -1.5639038q-0.15231323 -0.15699768 -0.18496704 -0.19064331q-0.4569397 -0.4710083 -0.85491943 -0.45487976q-0.5308838 0.036239624 -1.1026611 0.5912781q-0.526947 0.5115051 -0.5998535 0.9524689q-0.08377075 0.42974854 0.24984741 1.020462l-0.8378601 0.61735535q-0.3560791 -0.56895447 -0.40350342 -1.0890808q-0.047454834 -0.5201111 0.2374878 -1.1015625q0.2849121 -0.58143616 0.85672 -1.1364746q0.57177734 -0.5550537 1.0610962 -0.7687378q0.48934937 -0.21368408 0.85336304 -0.17506409q0.36401367 0.038604736 0.7359314 0.287323q0.21859741 0.1579895 0.7081909 0.66264343l0.979187 1.0093079q1.0227356 1.0541534 1.3395996 1.2909851q0.32803345 0.22595215 0.72402954 0.34240723l-0.7960205 0.7727051q-0.34057617 -0.12667847 -0.6788635 -0.40803528zm-1.710144 -1.6280975q-0.25164795 0.57089233 -0.95040894 1.4887238q-0.4055786 0.52438354 -0.5091553 0.79911804q-0.11444092 0.26350403 -0.07421875 0.52934265q0.05142212 0.25494385 0.24725342 0.45681763q0.2937622 0.30278015 0.71383667 0.2869873q0.4312744 -0.026687622 0.8685303 -0.4511261q0.43725586 -0.42445374 0.58862305 -0.94158936q0.16259766 -0.52801514 -0.0068359375 -1.0168152q-0.1269226 -0.37765503 -0.60562134 -0.87109375l-0.27200317 -0.280365zm2.5195618 -0.6819153l0.63116455 -0.8304291q0.5024719 0.38327026 1.0112305 0.3467102q0.519989 -0.047470093 1.046936 -0.5589752q0.51571655 -0.5006256 0.5665283 -0.9419098q0.05114746 -0.46339417 -0.23175049 -0.7549591q-0.25024414 -0.25793457 -0.61590576 -0.18606567q-0.2548828 0.051437378 -1.0238342 0.49301147q-1.036377 0.5922699 -1.5029602 0.76208496q-0.46621704 0.1477356 -0.89553833 0.04182434q-0.42929077 -0.105895996 -0.75567627 -0.44233704q-0.28289795 -0.29156494 -0.3985901 -0.6800995q-0.11569214 -0.38853455 -0.04345703 -0.7852936q0.059692383 -0.29748535 0.2753601 -0.68104553q0.21566772 -0.38356018 0.5744629 -0.7318268q0.51571655 -0.5006256 1.0604248 -0.7245331q0.54507446 -0.2460022 0.9859009 -0.17308044q0.44085693 0.07292175 0.9215698 0.43377686l-0.6420593 0.81921387q-0.37124634 -0.2929077 -0.80285645 -0.24412537q-0.4312744 0.026687622 -0.8797302 0.46200562q-0.5157471 0.5006256 -0.56588745 0.89772034q-0.061035156 0.38587952 0.16744995 0.62138367q0.14144897 0.14579773 0.3399353 0.17086792q0.22058105 0.025421143 0.4873352 -0.081100464q0.15563965 -0.063964844 0.857666 -0.4623413q1.0248108 -0.55929565 1.4692993 -0.7294464q0.44448853 -0.17015076 0.874115 -0.08634949q0.42962646 0.08380127 0.8104248 0.47631836q0.36993408 0.38128662 0.47207642 0.935379q0.102508545 0.53201294 -0.12734985 1.1253204q-0.24075317 0.5821228 -0.7676697 1.0936279q-0.8745117 0.84887695 -1.6823425 0.93621826q-0.8074951 0.06524658 -1.616272 -0.5215454zm7.55954 -7.5341034l0.8718567 -0.6721039q0.48428345 0.85821533 0.34970093 1.729248q-0.13461304 0.8710327 -0.9082031 1.6219635q-0.97540283 0.9468384 -2.1459045 0.9071655q-1.1593323 -0.05053711 -2.2146912 -1.1383362q-1.0880127 -1.12146 -1.1034241 -2.3041687q-0.026275635 -1.1939392 0.8930664 -2.0863495q0.8969116 -0.87065125 2.0450134 -0.8092346q1.1593323 0.05055237 2.2364502 1.1607819q0.0652771 0.06729126 0.1958313 0.20185852l-3.3298035 3.2322845q0.76290894 0.69662476 1.5137024 0.7299957q0.7398987 0.022155762 1.3004761 -0.5220032q0.41482544 -0.40267944 0.49960327 -0.89871216q0.085113525 -0.5181427 -0.20367432 -1.1523895zm-3.6636658 1.182785l2.4889526 -2.4160461q-0.59973145 -0.52841187 -1.1071777 -0.5802307q-0.7943115 -0.07821655 -1.3660889 0.4768219q-0.526947 0.5115051 -0.5484314 1.2074127q-0.010284424 0.6850281 0.53274536 1.3120422z" fill-rule="nonzero"></path><path fill="#000000" fill-opacity="0.0" d="m552.26263 208.35681l106.99213 -103.842514l15.370056 15.842514l-106.99213 103.84253z" fill-rule="nonzero"></path><path fill="#000000" d="m572.9983 216.82727l-3.618225 -8.464127l0.87457275 -0.8488159l8.506775 3.719452l-0.91937256 0.89234924l-2.5457764 -1.1654663l-2.567627 2.492035l1.1329956 2.5366364l-0.8633423 0.8379364zm-0.67614746 -4.2647552l2.0855103 -2.024109l-2.2929077 -1.0843048q-1.0534058 -0.47998047 -1.6776123 -0.8540497q0.4533081 0.7140808 0.8060913 1.5039978l1.0789185 2.4584656zm9.895508 -4.683197l-0.54400635 -0.56073q0.21582031 1.0751953 -0.60266113 1.8695984q-0.538208 0.52233887 -1.2695923 0.6660614q-0.74224854 0.13249207 -1.5002441 -0.15516663q-0.75805664 -0.28767395 -1.4217529 -0.971756q-0.64190674 -0.66166687 -0.95080566 -1.4288177q-0.3088379 -0.7671509 -0.13238525 -1.4828033q0.16564941 -0.7268677 0.71502686 -1.2601013q0.4036255 -0.3917694 0.88079834 -0.528244q0.47717285 -0.13648987 0.9400635 -0.06323242l-2.1433716 -2.2092438l0.75128174 -0.7291107l5.984009 6.1679688l-0.70635986 0.6855774zm-4.553406 0.086242676q0.83776855 0.86351013 1.6100464 0.94143677q0.76135254 0.06669617 1.2546997 -0.41212463q0.49334717 -0.4788208 0.44921875 -1.2198944q-0.044067383 -0.74105835 -0.84924316 -1.5709381q-0.8921509 -0.9195862 -1.6643677 -0.9975128q-0.76104736 -0.08879089 -1.2767944 0.41178894q-0.50457764 0.48970032 -0.4383545 1.2311096q0.05529785 0.7301941 0.9147949 1.6161346zm9.342468 -4.734329l-0.54400635 -0.56073q0.21582031 1.07518 -0.60266113 1.8695831q-0.538208 0.5223541 -1.2695312 0.66607666q-0.7423096 0.13249207 -1.5003052 -0.15518188q-0.75805664 -0.28767395 -1.4217529 -0.971756q-0.64190674 -0.6616516 -0.95080566 -1.4288025q-0.3088379 -0.76716614 -0.13238525 -1.4828186q0.16564941 -0.7268677 0.71502686 -1.2601013q0.40368652 -0.39175415 0.88079834 -0.528244q0.47717285 -0.13648987 0.9401245 -0.06321716l-2.1433716 -2.209259l0.7512207 -0.7291107l5.984009 6.1679688l-0.70635986 0.68559265zm-4.5533447 0.086242676q0.8377075 0.86351013 1.6099854 0.9414215q0.76135254 0.066711426 1.2546997 -0.41210938q0.49334717 -0.4788208 0.44921875 -1.2198944q-0.044067383 -0.7410736 -0.8491821 -1.5709381q-0.8922119 -0.91960144 -1.6644287 -0.9975128q-0.76104736 -0.08880615 -1.2767944 0.41178894q-0.50457764 0.48970032 -0.4383545 1.2311096q0.05529785 0.73017883 0.91485596 1.6161346zm9.837463 -6.521286l0.7540283 0.5528412q-0.25982666 0.38287354 -0.50653076 0.62228394q-0.41485596 0.40263367 -0.75878906 0.49691772q-0.35479736 0.08308411 -0.66241455 -0.032058716q-0.29644775 -0.12602234 -0.96014404 -0.81010437l-2.491516 -2.5681152l-0.54937744 0.53323364l-0.5657959 -0.5831604l0.5494385 -0.5332184l-1.0771484 -1.1102448l0.31604004 -1.1776886l1.5123291 1.5588074l0.7624512 -0.73999023l0.56573486 0.5831604l-0.7624512 0.73999023l2.5350952 2.612976q0.31549072 0.32522583 0.43615723 0.3822937q0.13189697 0.046188354 0.27600098 0.015197754q0.144104 -0.0309906 0.31225586 -0.19421387q0.13458252 -0.13059998 0.31463623 -0.34890747zm-1.0484009 -2.0090637q-1.2077026 -1.244812 -1.1004028 -2.5029907q0.09313965 -1.0484467 0.92285156 -1.8537292q0.91937256 -0.89234924 2.0899658 -0.8526459q1.1708984 0.017608643 2.2044678 1.0829926q0.83776855 0.86351013 1.0586548 1.6072388q0.2208252 0.74372864 -0.01171875 1.513794q-0.23223877 0.7479706 -0.8153076 1.3138428q-0.930603 0.90322876 -2.090271 0.8747406q-1.1593628 -0.050582886 -2.2582397 -1.1832428zm0.7736206 -0.750885q0.8269043 0.8523102 1.6103516 0.91934204q0.79467773 0.056152344 1.3552856 -0.48796082q0.5718384 -0.5549927 0.52838135 -1.3402557q-0.04345703 -0.7852783 -0.89208984 -1.6600037q-0.80511475 -0.8298645 -1.5997925 -0.88601685q-0.78344727 -0.06704712 -1.3440552 0.47706604q-0.5606079 0.54411316 -0.52838135 1.340271q0.03253174 0.77404785 0.8703003 1.637558zm10.180054 -8.726303l0.8378906 -0.6172943q0.6165161 0.8822937 0.5363159 1.8093567q-0.08026123 0.927063 -0.80908203 1.6344147q-0.91937256 0.89234924 -2.0566406 0.84210205q-1.1369019 -0.07235718 -2.2249146 -1.1938019q-0.6963501 -0.71772766 -0.9831543 -1.4845581q-0.286438 -0.7889099 -0.06542969 -1.526001q0.23223877 -0.7479706 0.8152466 -1.3138428q0.71759033 -0.69647217 1.536377 -0.77256775q0.8190918 -0.09819031 1.6173096 0.455307l-0.6312256 0.83036804q-0.5361328 -0.3506317 -1.0228271 -0.31375122q-0.4975586 0.025680542 -0.8787842 0.39567566q-0.5718384 0.5549927 -0.5280762 1.318161q0.03289795 0.7519531 0.89245605 1.6378937q0.8812866 0.90838623 1.6205444 0.9747467q0.7392578 0.06637573 1.2886353 -0.4668579q0.44848633 -0.43528748 0.47888184 -0.987381q0.041625977 -0.562973 -0.42352295 -1.2219696zm5.360901 -3.0909882q-0.077941895 0.7723999 -0.32891846 1.299057q-0.2397461 0.51579285 -0.68829346 0.9510803q-0.73999023 0.7182312 -1.4805908 0.74024963q-0.7406006 0.022018433 -1.2846069 -0.53871155q-0.31549072 -0.32521057 -0.43084717 -0.73583984q-0.12628174 -0.42182922 -0.031921387 -0.8182373q0.083496094 -0.4076233 0.3100586 -0.779953q0.14776611 -0.27404785 0.55303955 -0.7762909q0.81030273 -0.9824066 1.0952759 -1.5638123q-0.15234375 -0.15699768 -0.18499756 -0.19064331q-0.4569702 -0.4710083 -0.85491943 -0.45489502q-0.5308838 0.036224365 -1.1027222 0.59121704q-0.52697754 0.5114746 -0.59991455 0.95240784q-0.08380127 0.42971802 0.2498169 1.0204315l-0.83795166 0.6173096q-0.35601807 -0.56895447 -0.40344238 -1.0890656q-0.047424316 -0.5200958 0.23754883 -1.1015167q0.2849121 -0.58140564 0.8567505 -1.1363983q0.5718384 -0.5549927 1.0612183 -0.7686615q0.48931885 -0.21365356 0.85339355 -0.17503357q0.36401367 0.038635254 0.7359009 0.28733826q0.21862793 0.15800476 0.7081909 0.6626587l0.97924805 1.0093079q1.0227051 1.0541534 1.3395386 1.2909851q0.32806396 0.22595215 0.72406006 0.3424225l-0.7960205 0.77264404q-0.3406372 -0.12667847 -0.67889404 -0.40805054zm-1.7102051 -1.6280823q-0.25164795 0.5708618 -0.95043945 1.488617q-0.40563965 0.524353 -0.5092163 0.799057q-0.11444092 0.26350403 -0.074279785 0.5293274q0.051452637 0.25494385 0.24725342 0.45680237q0.2937622 0.3027954 0.7138672 0.28701782q0.43133545 -0.026672363 0.8685913 -0.45108032q0.43725586 -0.42440796 0.5886841 -0.9415283q0.16259766 -0.5279999 -0.0067749023 -1.0167847q-0.12695312 -0.37763977 -0.60565186 -0.8710785l-0.2720337 -0.28034973zm4.105957 0.3697815l-4.330261 -4.4633636l0.68395996 -0.66381836l0.652771 0.6728668q-0.19903564 -0.7212982 -0.1274414 -1.0738525q0.071899414 -0.37464905 0.34100342 -0.63583374q0.3812256 -0.36999512 1.0021362 -0.5153656l0.42755127 0.95680237q-0.44348145 0.10383606 -0.71258545 0.36502075q-0.25787354 0.25028992 -0.30737305 0.6031647q-0.049194336 0.3307953 0.13342285 0.67611694q0.2571411 0.534317 0.7141113 1.0053253l2.2739258 2.3438263l-0.7512207 0.7291107zm3.8742065 -5.0665894l0.7540283 0.5528259q-0.2598877 0.38287354 -0.50653076 0.62228394q-0.41485596 0.40264893 -0.75878906 0.49693298q-0.35479736 0.08306885 -0.6624756 -0.032058716q-0.29638672 -0.12602234 -0.960083 -0.81010437l-2.491516 -2.5681152l-0.5494385 0.53323364l-0.56573486 -0.5831604l0.54937744 -0.53323364l-1.0770874 -1.1102295l0.315979 -1.1776886l1.5123291 1.5588074l0.7624512 -0.73999023l0.5657959 0.58314514l-0.7624512 0.7400055l2.5350342 2.612976q0.31555176 0.32521057 0.43621826 0.38227844q0.13189697 0.046188354 0.27600098 0.015213013q0.144104 -0.0309906 0.31225586 -0.19422913q0.13458252 -0.13058472 0.31463623 -0.3488922z" fill-rule="nonzero"></path><path fill="#000000" fill-opacity="0.0" d="m674.6248 208.35681l106.99213 -103.842514l15.370056 15.842514l-106.99213 103.84253z" fill-rule="nonzero"></path><path fill="#000000" d="m696.0332 216.17433l-5.984009 -6.1679688l2.3321533 -2.263504q0.60546875 -0.5876465 0.9850464 -0.84716797q0.53582764 -0.36766052 1.0452881 -0.44841003q0.5206909 -0.09162903 1.0700073 0.11553955q0.5605469 0.19630432 1.0065918 0.6560974q0.7616577 0.78500366 0.79022217 1.8242188q0.028869629 1.0171204 -1.282959 2.2903442l-1.5809326 1.5344086l2.4371338 2.5120392l-0.8185425 0.7944031zm-2.3149414 -4.02417l1.5921631 -1.5452881q0.79608154 -0.77264404 0.8383789 -1.3798065q0.04260254 -0.6292572 -0.4796753 -1.1675568q-0.36993408 -0.38128662 -0.8328247 -0.45455933q-0.46264648 -0.09536743 -0.86364746 0.119628906q-0.26739502 0.1506958 -0.8168335 0.6839142l-1.5809326 1.5344086l2.1433716 2.209259zm10.895203 -4.303482l-0.64190674 -0.66166687q0.21282959 1.2740631 -0.68414307 2.144638q-0.39239502 0.38087463 -0.8814697 0.57244873q-0.48864746 0.16946411 -0.8744507 0.10839844q-0.39666748 -0.072265625 -0.79034424 -0.34339905q-0.2515869 -0.16955566 -0.73028564 -0.6629944l-2.6765137 -2.7587585l0.7624512 -0.73999023l2.40448 2.4783936q0.5657959 0.5831604 0.8173218 0.7527008q0.3501587 0.22628784 0.74853516 0.18806458q0.3986206 -0.060302734 0.7462158 -0.3976593q0.33636475 -0.3264618 0.46466064 -0.7776184q0.12866211 -0.47325134 -0.041748047 -0.89575195q-0.15917969 -0.43338013 -0.7141113 -1.00531l-2.3174438 -2.3886871l0.7512207 -0.729126l4.330261 4.463379l-0.6727295 0.65293884zm1.8514404 -1.796936l-4.330261 -4.463379l0.68395996 -0.66381836l0.652771 0.6728668q-0.19903564 -0.7212982 -0.1274414 -1.0738525q0.071899414 -0.37464905 0.34100342 -0.6358185q0.3812256 -0.36999512 1.0021362 -0.5153656l0.42755127 0.95680237q-0.44348145 0.10383606 -0.71258545 0.3650055q-0.25787354 0.25030518 -0.30737305 0.60317993q-0.049194336 0.3307953 0.13342285 0.67611694q0.2571411 0.53430176 0.7141113 1.00531l2.2739258 2.3438263l-0.7512207 0.729126zm4.2055054 -7.260742l0.83795166 -0.6172943q0.6164551 0.8822937 0.5362549 1.8093567q-0.08026123 0.927063 -0.809021 1.6344147q-0.9194336 0.89234924 -2.0567017 0.8420868q-1.1369019 -0.07234192 -2.2249146 -1.1938019q-0.6963501 -0.7177124 -0.98309326 -1.4845428q-0.28649902 -0.7889252 -0.06549072 -1.526001q0.23223877 -0.7479706 0.8153076 -1.313858q0.71759033 -0.6964569 1.5363159 -0.7725525q0.8190918 -0.09819031 1.6173096 0.455307l-0.6312256 0.83036804q-0.5360718 -0.3506317 -1.0227661 -0.31375122q-0.49761963 0.025665283 -0.8788452 0.3956604q-0.5718384 0.55500793 -0.52801514 1.3181763q0.032836914 0.7519531 0.892395 1.6378937q0.8812866 0.908371 1.6205444 0.9747467q0.7392578 0.06637573 1.2886353 -0.4668579q0.44854736 -0.43528748 0.47894287 -0.987381q0.04156494 -0.562973 -0.42358398 -1.2219696zm2.9788208 0.2879181l-5.98407 -6.1679688l0.7512207 -0.7291107l2.1434326 2.2092438q-0.060546875 -1.1170502 0.7467041 -1.9005737q0.50457764 -0.48970032 1.0592041 -0.6360626q0.5549927 -0.16847229 1.0491943 0.026824951q0.48339844 0.18408203 1.1253052 0.84573364l2.7418213 2.8260498l-0.7512207 0.7291107l-2.7418213 -2.8260498q-0.5548706 -0.57192993 -1.0517578 -0.5904541q-0.49694824 -0.01852417 -0.9454346 0.4167633q-0.33636475 0.3264618 -0.46502686 0.7997284q-0.1282959 0.45115662 0.030883789 0.8845215q0.1595459 0.4112854 0.67089844 0.93836975l2.3718872 2.4447632l-0.7512207 0.7291107zm7.1711426 -8.026993q-0.07788086 0.77238464 -0.32891846 1.299057q-0.2397461 0.5157776 -0.6882324 0.9510803q-0.74005127 0.7182312 -1.4806519 0.7402344q-0.74053955 0.022018433 -1.2845459 -0.5386963q-0.31555176 -0.32522583 -0.4309082 -0.73583984q-0.1262207 -0.42182922 -0.03186035 -0.81825256q0.08343506 -0.4076233 0.30999756 -0.779953q0.14776611 -0.27404785 0.5531006 -0.7762909q0.8102417 -0.98239136 1.0952148 -1.5638123q-0.15234375 -0.15699768 -0.18493652 -0.19064331q-0.4569702 -0.4710083 -0.85498047 -0.45489502q-0.5308838 0.036224365 -1.1027222 0.59121704q-0.52697754 0.5114746 -0.59991455 0.95240784q-0.08380127 0.42973328 0.2498169 1.0204468l-0.8378906 0.6172943q-0.3560791 -0.56895447 -0.40350342 -1.0890503q-0.047424316 -0.5201111 0.23754883 -1.1015167q0.28497314 -0.5814209 0.8568115 -1.1364136q0.5718384 -0.5549927 1.0611572 -0.76864624q0.48937988 -0.21366882 0.85339355 -0.17503357q0.36401367 0.038619995 0.7359619 0.28733826q0.2185669 0.1579895 0.7081909 0.66264343l0.979187 1.0093079q1.0227051 1.0541687 1.3395996 1.2910004q0.32806396 0.22595215 0.72406006 0.34240723l-0.79608154 0.77264404q-0.3406372 -0.12667847 -0.67889404 -0.40803528zm-1.710144 -1.6280975q-0.25164795 0.5708618 -0.9505005 1.4886322q-0.40563965 0.52433777 -0.5092163 0.799057q-0.11444092 0.26348877 -0.07421875 0.5293274q0.0513916 0.2549286 0.24725342 0.45680237q0.2937622 0.30278015 0.71380615 0.28700256q0.43133545 -0.026672363 0.8685913 -0.45108032q0.4373169 -0.42440796 0.5886841 -0.94151306q0.16265869 -0.5279999 -0.0067749023 -1.0167847q-0.12689209 -0.37763977 -0.60565186 -0.8710785l-0.27197266 -0.280365zm2.5196533 -0.6817932l0.6312256 -0.8303833q0.50250244 0.38328552 1.0112915 0.34674072q0.5199585 -0.047439575 1.0469971 -0.5589142q0.5157471 -0.50057983 0.56658936 -0.94184875q0.05114746 -0.46336365 -0.23175049 -0.75494385q-0.25024414 -0.25793457 -0.61590576 -0.18608093q-0.2548828 0.05142212 -1.0239258 0.49295044q-1.036438 0.59220886 -1.5029907 0.76200867q-0.4663086 0.14770508 -0.89556885 0.041778564q-0.4293213 -0.105911255 -0.7557373 -0.44233704q-0.28289795 -0.2915802 -0.39855957 -0.6800995q-0.115722656 -0.3885193 -0.04345703 -0.78526306q0.059753418 -0.29748535 0.27539062 -0.681015q0.21569824 -0.38354492 0.5745239 -0.731781q0.5157471 -0.50057983 1.0604858 -0.7244568q0.545105 -0.24597168 0.9859619 -0.17303467q0.44085693 0.07293701 0.9215698 0.4337921l-0.64208984 0.81915283q-0.37127686 -0.29289246 -0.8029175 -0.24414062q-0.4312744 0.026672363 -0.87976074 0.46195984q-0.5157471 0.5005951 -0.56591797 0.8976593q-0.06109619 0.38586426 0.16741943 0.6213684q0.14141846 0.14579773 0.3399048 0.17088318q0.22064209 0.025421143 0.48736572 -0.081085205q0.15563965 -0.063964844 0.85772705 -0.46228027q1.0249023 -0.5592346 1.4694214 -0.7293701q0.444458 -0.1701355 0.8741455 -0.08631897q0.42962646 0.08381653 0.8104248 0.47633362q0.36993408 0.38128662 0.4720459 0.93536377q0.10253906 0.5319824 -0.12738037 1.1252747q-0.24078369 0.582077 -0.76776123 1.0935516q-0.87457275 0.8488159 -1.6824341 0.9361267q-0.80755615 0.065216064 -1.616333 -0.5215912zm7.5601196 -7.533539l0.8718872 -0.67204285q0.48431396 0.8582001 0.3496704 1.7292023q-0.13464355 0.87098694 -0.90826416 1.621872q-0.97546387 0.9467621 -2.1460571 0.9070587q-1.1593628 -0.050598145 -2.2147217 -1.1383972q-1.0880127 -1.1214447 -1.1033325 -2.304123q-0.026245117 -1.1938934 0.89312744 -2.0862427q0.8970337 -0.87057495 2.045166 -0.80911255q1.1593628 0.050582886 2.2364502 1.1608276q0.06530762 0.067276 0.19586182 0.20185852l-3.3300781 3.2320404q0.76293945 0.69662476 1.5137329 0.730011q0.7399292 0.02218628 1.3005371 -0.5219269q0.41485596 -0.40264893 0.49969482 -0.8986664q0.08514404 -0.5181122 -0.20367432 -1.152359zm-3.6638184 1.1826019l2.4891357 -2.415863q-0.59973145 -0.52841187 -1.1072388 -0.580246q-0.7943115 -0.07824707 -1.3661499 0.4767456q-0.52697754 0.5114746 -0.5484619 1.2073517q-0.010314941 0.68499756 0.53271484 1.3120117z" fill-rule="nonzero"></path><path fill="#000000" fill-opacity="0.0" d="m792.2915 208.35681l106.99213 -103.842514l15.370056 15.842514l-106.99213 103.84253z" fill-rule="nonzero"></path><path fill="#000000" d="m815.4602 214.46582l-8.372253 -3.8500519l0.8858032 -0.85969543l5.9553833 2.9296265q0.7128296 0.353302 1.3043823 0.6937256q-0.34387207 -0.64611816 -0.6428833 -1.3357697l-2.692566 -6.0963745l0.8297119 -0.80529785l3.5733643 8.50766l-0.8409424 0.81617737zm-1.2418823 -9.072113l-0.8486328 -0.87472534l0.7624512 -0.7400055l0.8486328 0.8747406l-0.7624512 0.73999023zm5.135376 5.2932434l-4.330261 -4.4633636l0.7624512 -0.7400055l4.330261 4.463379l-0.7624512 0.73999023zm0.31567383 -2.8974915l0.6312256 -0.8303833q0.5024414 0.38328552 1.0112305 0.34674072q0.52001953 -0.047439575 1.0469971 -0.5588989q0.5157471 -0.5005951 0.56658936 -0.941864q0.05114746 -0.46336365 -0.23168945 -0.75494385q-0.25024414 -0.25793457 -0.6159668 -0.18608093q-0.2548828 0.05142212 -1.0238647 0.49295044q-1.036438 0.59220886 -1.5030518 0.76200867q-0.46624756 0.14770508 -0.89556885 0.041793823q-0.4293213 -0.105911255 -0.75567627 -0.4423523q-0.28289795 -0.2915802 -0.3986206 -0.6800995q-0.11566162 -0.3885193 -0.043395996 -0.78526306q0.059692383 -0.2974701 0.27539062 -0.681015q0.21569824 -0.38352966 0.5744629 -0.73176575q0.5158081 -0.5005951 1.0605469 -0.72447205q0.545105 -0.24597168 0.9859009 -0.17303467q0.44085693 0.07293701 0.9215698 0.4337921l-0.64208984 0.8191681q-0.37121582 -0.2929077 -0.80285645 -0.24414062q-0.4312744 0.026657104 -0.8798218 0.46194458q-0.5157471 0.5005951 -0.56591797 0.89767456q-0.061035156 0.38586426 0.16741943 0.6213684q0.14147949 0.14578247 0.33996582 0.17086792q0.22058105 0.025421143 0.48736572 -0.081085205q0.15563965 -0.063964844 0.85772705 -0.46228027q1.0248413 -0.5592346 1.4693604 -0.7293701q0.44451904 -0.17012024 0.8741455 -0.08630371q0.42962646 0.08381653 0.8104248 0.47631836q0.36993408 0.38128662 0.47210693 0.935379q0.10247803 0.5319824 -0.1274414 1.1252747q-0.24072266 0.582077 -0.7677002 1.0935364q-0.87457275 0.8488159 -1.6824341 0.9361267q-0.80755615 0.065216064 -1.616333 -0.5215912zm0.7675781 -8.431335l-0.8486328 -0.87472534l0.7624512 -0.7400055l0.8486328 0.8747406l-0.7624512 0.73999023zm5.135437 5.2932434l-4.330261 -4.4633636l0.76239014 -0.7400055l4.330261 4.463379l-0.76239014 0.73999023zm2.9085083 -4.1293488l0.7540283 0.5528259q-0.2598877 0.38287354 -0.50653076 0.62228394q-0.41485596 0.40264893 -0.75878906 0.49693298q-0.35479736 0.08306885 -0.6624756 -0.032073975q-0.29638672 -0.12600708 -0.960083 -0.8100891l-2.491516 -2.5681305l-0.5494385 0.53323364l-0.56573486 -0.58314514l0.54937744 -0.53323364l-1.0770874 -1.1102295l0.315979 -1.1777039l1.5123291 1.5588226l0.7624512 -0.7400055l0.5657959 0.5831604l-0.7624512 0.73999023l2.5350342 2.612976q0.31555176 0.32522583 0.43621826 0.3822937q0.13189697 0.046188354 0.27600098 0.015197754q0.144104 -0.030975342 0.31225586 -0.19421387q0.13458252 -0.13058472 0.31463623 -0.3488922zm5.4541016 -0.65563965l-5.994934 -6.179184l0.68395996 -0.66381836l0.5548706 0.5719452q-0.079711914 -0.57585144 0.059814453 -1.0378876q0.15075684 -0.47291565 0.5880127 -0.89733887q0.5718384 -0.5549927 1.2919922 -0.68782043q0.7201538 -0.13282776 1.4554443 0.19869995q0.746521 0.3206482 1.3666382 0.9598694q0.6636963 0.6840973 0.9501343 1.4730072q0.29766846 0.77804565 0.109680176 1.5266724q-0.18804932 0.7486267 -0.7038574 1.2492218q-0.38116455 0.36999512 -0.8362427 0.5068207q-0.46594238 0.1255951 -0.88500977 0.0750885l2.1107178 2.1756134l-0.7512207 0.7291107zm-3.1240845 -4.5888824q0.83776855 0.86351013 1.5878906 0.9411011q0.73931885 0.06636047 1.232605 -0.41246033q0.50457764 -0.48970032 0.44995117 -1.2640839q-0.0546875 -0.77438354 -0.9250488 -1.6715393q-0.8269043 -0.8522949 -1.5770264 -0.92988586q-0.76104736 -0.08880615 -1.2543945 0.39001465q-0.4821167 0.46794128 -0.41693115 1.2756348q0.06518555 0.8076935 0.9029541 1.6712189zm8.630554 -5.1539307q-0.07788086 0.7723999 -0.32885742 1.299057q-0.23980713 0.51579285 -0.68829346 0.9510803q-0.73999023 0.7182312 -1.4805908 0.74024963q-0.7406006 0.022018433 -1.2846069 -0.53871155q-0.31549072 -0.32522583 -0.4309082 -0.73583984q-0.1262207 -0.42182922 -0.03186035 -0.8182373q0.083496094 -0.40763855 0.3100586 -0.779953q0.14770508 -0.27404785 0.55303955 -0.7762909q0.81030273 -0.9824066 1.0952148 -1.5638123q-0.15228271 -0.15699768 -0.18493652 -0.19064331q-0.4569702 -0.4710083 -0.85498047 -0.45489502q-0.5308838 0.036224365 -1.1026611 0.59121704q-0.52697754 0.51145935 -0.59991455 0.95240784q-0.08380127 0.42971802 0.2498169 1.0204315l-0.83795166 0.6173096q-0.35601807 -0.56895447 -0.40344238 -1.0890656q-0.047424316 -0.5200958 0.2374878 -1.1015167q0.28497314 -0.58140564 0.8568115 -1.1363983q0.5718384 -0.55500793 1.0612183 -0.7686615q0.48931885 -0.21365356 0.8533325 -0.17503357q0.3640747 0.038635254 0.7359619 0.28733826q0.21862793 0.15800476 0.7081909 0.6626587l0.97924805 1.0093079q1.0227051 1.0541534 1.3395386 1.2909851q0.32806396 0.22595215 0.72406006 0.3424225l-0.79608154 0.77264404q-0.34057617 -0.12669373 -0.67889404 -0.40805054zm-1.710144 -1.6280975q-0.25164795 0.5708618 -0.95043945 1.4886322q-0.40563965 0.52433777 -0.5092163 0.799057q-0.11444092 0.26350403 -0.074279785 0.5293274q0.0513916 0.25494385 0.24725342 0.45680237q0.2937622 0.3027954 0.7138672 0.28700256q0.4312744 -0.026657104 0.8685913 -0.45106506q0.43725586 -0.42440796 0.5886841 -0.9415283q0.16259766 -0.5279999 -0.0068359375 -1.0167847q-0.12689209 -0.37763977 -0.6055908 -0.8710785l-0.2720337 -0.280365zm4.3304443 0.8704529l0.8488159 -0.6060791q0.37127686 0.2929077 0.73657227 0.2431488q0.48706055 -0.05899048 0.96917725 -0.52693176q0.52697754 -0.51145935 0.60058594 -0.9965973q0.08477783 -0.4960022 -0.17333984 -0.96403503q-0.16119385 -0.3007965 -0.8905029 -1.0300598q0.07244873 1.061966 -0.66760254 1.7801971q-0.91937256 0.89234924 -2.065857 0.72039795q-1.1574097 -0.1831665 -2.0495605 -1.1027527q-0.6201782 -0.63923645 -0.91815186 -1.3951721q-0.29766846 -0.7780304 -0.14324951 -1.4940186q0.15441895 -0.71598816 0.7486572 -1.2927551q0.79608154 -0.77264404 1.9320068 -0.6340027l-0.52227783 -0.5382843l0.6951904 -0.67471313l3.7427368 3.857788q1.0118408 1.0429535 1.2231445 1.6870728q0.21130371 0.6441345 -0.009094238 1.3370209q-0.20941162 0.7041168 -0.88220215 1.3570557q-0.7960205 0.77264404 -1.6375732 0.8925934q-0.8414917 0.11994934 -1.5374756 -0.61987305zm-1.9724731 -3.2896729q0.84869385 0.8747406 1.5879517 0.9411011q0.7392578 0.06637573 1.2662354 -0.44508362q0.52697754 -0.5114746 0.48284912 -1.2525482q-0.032836914 -0.7519531 -0.8597412 -1.604248q-0.7942505 -0.81866455 -1.5668335 -0.8744812q-0.76135254 -0.066711426 -1.2770996 0.43388367q-0.50457764 0.48970032 -0.46081543 1.2528687q0.044128418 0.7410736 0.8274536 1.5485077zm8.205383 -6.265396l0.8718872 -0.67204285q0.48431396 0.8582001 0.3496704 1.729187q-0.13464355 0.8710022 -0.9083252 1.621872q-0.97546387 0.9467621 -2.145996 0.9070587q-1.1593628 -0.050582886 -2.2147217 -1.1383972q-1.0880127 -1.1214447 -1.1033936 -2.304123q-0.026245117 -1.1938782 0.8931885 -2.0862274q0.89697266 -0.8705902 2.045105 -0.80911255q1.1593628 0.050582886 2.2365112 1.1608124q0.06524658 0.06729126 0.19580078 0.20185852l-3.330017 3.2320404q0.76293945 0.69662476 1.5137329 0.73002625q0.7399292 0.02217102 1.3005371 -0.52194214q0.41485596 -0.40264893 0.4996338 -0.8986511q0.08514404 -0.5181122 -0.20361328 -1.152359zm-3.6638794 1.1826019l2.4891357 -2.415863q-0.59973145 -0.52841187 -1.1071777 -0.580246q-0.7943115 -0.07824707 -1.3661499 0.4767456q-0.52697754 0.51145935 -0.54852295 1.2073517q-0.010253906 0.68499756 0.53271484 1.3120117z" fill-rule="nonzero"></path></g></svg>

