<?xml version="1.0" encoding="UTF-8"?>
<svg width="1564px" height="253px" viewBox="0 0 1564 253" version="1.1" xmlns="http://www.w3.org/2000/svg" xmlns:xlink="http://www.w3.org/1999/xlink">
    <title>Featuretools Horizontal_nav_2 alignment</title>
    <defs>
        <linearGradient x1="0%" y1="0%" x2="100%" y2="100%" id="linearGradient-1">
            <stop stop-color="#F49B0C" offset="0%"></stop>
            <stop stop-color="#E7840B" offset="100%"></stop>
        </linearGradient>
    </defs>
    <g id="Featuretools-Horizontal_nav_2-alignment" stroke="none" stroke-width="1" fill="none" fill-rule="evenodd">
        <path d="M399.554825,192 L399.554825,137.010373 L450.570175,137.010373 L450.570175,116.937759 L399.554825,116.937759 L399.554825,76.9792531 L460,76.9792531 L460,57 L374,57 L374,192 L399.554825,192 Z M513.427962,194 C516.808965,194 520.299538,193.750237 523.89968,193.25071 C527.499822,192.751183 531.037353,191.892621 534.512273,190.675024 C537.987193,189.457427 541.321238,187.833964 544.514408,185.804636 C547.707577,183.775307 550.587691,181.262062 553.154749,178.264901 L553.154749,178.264901 L546.392743,169.835383 C545.891853,169.148534 545.297047,168.617786 544.608324,168.243141 C543.919602,167.868496 543.105656,167.681173 542.166489,167.681173 C540.726432,167.681173 539.239417,168.118259 537.705443,168.992431 C536.171469,169.866604 534.387051,170.834437 532.352188,171.895932 C530.317325,172.957427 527.9381,173.92526 525.214514,174.799432 C522.490928,175.673605 519.2508,176.110691 515.49413,176.110691 C507.855567,176.110691 501.719673,173.800378 497.086446,169.179754 C492.453219,164.55913 489.792245,157.315989 489.103522,147.450331 L489.103522,147.450331 L548.646745,147.450331 C549.711135,147.450331 550.587691,147.309839 551.276414,147.028855 C551.965137,146.747871 552.512985,146.279565 552.919957,145.623936 C553.32693,144.968307 553.60868,144.062914 553.765208,142.907758 C553.921736,141.752602 554,140.300851 554,138.552507 C554,131.62157 552.966916,125.455535 550.900747,120.054399 C548.834578,114.653264 545.954465,110.09508 542.260406,106.379849 C538.566346,102.664617 534.167912,99.8391675 529.065101,97.9035005 C523.962291,95.9678335 518.374244,95 512.300961,95 C505.100676,95 498.636073,96.2488174 492.90715,98.7464522 C487.178228,101.244087 482.325863,104.631504 478.350053,108.908704 C474.374244,113.185904 471.321949,118.212394 469.19317,123.988174 C467.06439,129.763955 466,135.929991 466,142.486282 C466,150.915799 467.220918,158.330653 469.662753,164.730842 C472.104589,171.131031 475.454287,176.500946 479.711846,180.840587 C483.969406,185.180227 488.9783,188.458373 494.738527,190.675024 C500.498755,192.891675 506.728566,194 513.427962,194 Z M533,134 L489,134 C490.074713,126.980057 492.54023,121.558405 496.396552,117.735043 C500.252874,113.911681 505.594828,112 512.422414,112 C515.899425,112 518.933908,112.579772 521.525862,113.739316 C524.117816,114.89886 526.267241,116.481481 527.974138,118.487179 C529.681034,120.492877 530.945402,122.827635 531.767241,125.491453 C532.58908,128.155271 533,130.991453 533,134 L533,134 Z M594.883041,194 C598.31384,194 601.432749,193.717248 604.239766,193.151744 C607.046784,192.586239 609.697856,191.737983 612.192982,190.606975 C614.688109,189.475966 617.105263,188.077914 619.444444,186.412818 C621.783626,184.747722 624.169591,182.815583 626.602339,180.6164 L626.602339,180.6164 L628.660819,187.496701 C629.2846,189.507383 630.220273,190.842601 631.467836,191.502356 C632.7154,192.162111 634.430799,192.491989 636.614035,192.491989 L636.614035,192.491989 L647,192.491989 L647,131.417531 C647,125.95099 646.204678,120.924285 644.614035,116.337418 C643.023392,111.75055 640.699805,107.807729 637.643275,104.508954 C634.586745,101.210179 630.859649,98.6339931 626.461988,96.7803959 C622.064327,94.9267986 617.05848,94 611.444444,94 C595.849903,94 582.532164,99.0895382 571.491228,109.268615 L571.491228,109.268615 L575.701754,116.71442 C576.387914,117.908263 577.292398,118.913604 578.415205,119.730443 C579.538012,120.547282 580.879142,120.955702 582.438596,120.955702 C584.309942,120.955702 586.025341,120.515866 587.584795,119.636192 C589.14425,118.756519 590.844055,117.766887 592.684211,116.667295 C594.524366,115.567703 596.692008,114.578071 599.187135,113.698398 C601.682261,112.818724 604.80117,112.378888 608.54386,112.378888 C613.721248,112.378888 617.666667,113.934025 620.380117,117.044298 C623.093567,120.154571 624.450292,124.945649 624.450292,131.417531 L624.450292,131.417531 L624.450292,137.072573 C613.534113,137.323908 604.395712,138.392083 597.035088,140.277097 C589.674464,142.162111 583.779727,144.534087 579.350877,147.393025 C574.922027,150.251964 571.756335,153.456488 569.853801,157.006598 C567.951267,160.556708 567,164.153943 567,167.798303 C567,172.133836 567.68616,175.935281 569.05848,179.202639 C570.430799,182.469997 572.348928,185.203267 574.812865,187.402451 C577.276803,189.601634 580.224172,191.251021 583.654971,192.350613 C587.08577,193.450204 590.82846,194 594.883041,194 Z M603.238095,178 C599.301587,178 596.111111,177.112676 593.666667,175.338028 C591.222222,173.56338 590,170.616197 590,166.496479 C590,164.40493 590.587302,162.471831 591.761905,160.697183 C592.936508,158.922535 594.920635,157.369718 597.714286,156.038732 C600.507937,154.707746 604.206349,153.614437 608.809524,152.758803 C613.412698,151.903169 619.142857,151.316901 626,151 L626,151 L626,167.447183 C624.285714,169.221831 622.587302,170.758803 620.904762,172.058099 C619.222222,173.357394 617.47619,174.450704 615.666667,175.338028 C613.857143,176.225352 611.936508,176.890845 609.904762,177.334507 C607.873016,177.778169 605.650794,178 603.238095,178 Z M701.985694,194 C706.635193,194 711.129709,193.276303 715.469242,191.828909 C719.808774,190.381514 723.652361,188.241888 727,185.410029 L727,185.410029 L720.118741,174.082596 C719.622794,173.390364 719.157845,172.87119 718.723891,172.525074 C718.289938,172.178958 717.731998,172.0059 717.050072,172.0059 C716.492132,172.0059 715.934192,172.178958 715.376252,172.525074 C714.818312,172.87119 714.18288,173.233038 713.469957,173.610619 C712.757034,173.988201 711.920124,174.350049 710.959227,174.696165 C709.998331,175.042281 708.804959,175.215339 707.379113,175.215339 C704.89938,175.215339 702.915594,174.365782 701.427754,172.666667 C699.939914,170.967552 699.195994,168.60767 699.195994,165.587021 L699.195994,165.587021 L699.195994,113.103245 L724.30329,113.103245 L724.30329,96.4896755 L699.195994,96.4896755 L699.195994,66 L687.293276,66 C685.929423,66 684.798045,66.346116 683.899142,67.0383481 C683.000238,67.7305801 682.4268,68.705998 682.178827,69.9646018 L682.178827,69.9646018 L677.343348,96.3952802 L662,98.9439528 L662,108.19469 C662,109.830875 662.449452,111.058014 663.348355,111.876106 C664.247258,112.694199 665.316643,113.103245 666.556509,113.103245 L666.556509,113.103245 L676.227468,113.103245 L676.227468,167.19174 C676.227468,175.561455 678.459227,182.121927 682.922747,186.873156 C687.386266,191.624385 693.740582,194 701.985694,194 Z M774.123043,194 C777.279642,194 780.235086,193.674184 782.989374,193.022553 C785.743661,192.370921 788.312267,191.471049 790.69519,190.322937 C793.078113,189.174824 795.321775,187.778471 797.426174,186.133877 C799.530574,184.489283 801.57308,182.674024 803.553691,180.6881 L803.553691,180.6881 L805.131991,188.321497 C806.060403,191.114203 808.010067,192.510557 810.980984,192.510557 L810.980984,192.510557 L825,192.510557 L825,97 L802.068233,97 L802.068233,166.072937 C798.973527,169.175944 795.693139,171.611804 792.227069,173.380518 C788.760999,175.149232 785.047353,176.033589 781.08613,176.033589 C775.701342,176.033589 771.662752,174.435541 768.970358,171.239443 C766.277964,168.043346 764.931767,163.528471 764.931767,157.694818 L764.931767,157.694818 L764.931767,97 L742,97 L742,157.694818 C742,163.03199 742.696309,167.919226 744.088926,172.356526 C745.481544,176.793826 747.539523,180.62604 750.262864,183.853167 C752.986204,187.080294 756.34396,189.578215 760.33613,191.346929 C764.3283,193.115643 768.923937,194 774.123043,194 Z M873.415902,192 L873.415902,132.686124 C875.817533,127.611802 878.756371,123.759649 882.232416,121.129665 C885.708461,118.499681 889.879715,117.184689 894.746177,117.184689 C897.463812,117.184689 899.644241,117.401276 901.287462,117.83445 C902.930683,118.267624 904.2263,118.484211 905.174312,118.484211 C906.248726,118.484211 907.101937,118.252153 907.733945,117.788038 C908.365953,117.323923 908.776758,116.534928 908.966361,115.421053 L908.966361,115.421053 L912,98.2488038 C908.839959,96.0829346 904.858308,95 900.055046,95 C894.240571,95 888.994903,96.7017544 884.318043,100.105263 C879.641182,103.508772 875.56473,108.14992 872.088685,114.028708 L872.088685,114.028708 L870.666667,102.51866 C870.350663,100.414673 869.718654,98.9295056 868.770642,98.0631579 C867.82263,97.1968102 866.147808,96.7636364 863.746177,96.7636364 L863.746177,96.7636364 L850,96.7636364 L850,192 L873.415902,192 Z M967.427962,194 C970.808965,194 974.299538,193.750237 977.89968,193.25071 C981.499822,192.751183 985.037353,191.892621 988.512273,190.675024 C991.987193,189.457427 995.321238,187.833964 998.514408,185.804636 C1001.70758,183.775307 1004.58769,181.262062 1007.15475,178.264901 L1007.15475,178.264901 L1000.39274,169.835383 C999.891853,169.148534 999.297047,168.617786 998.608324,168.243141 C997.919602,167.868496 997.105656,167.681173 996.166489,167.681173 C994.726432,167.681173 993.239417,168.118259 991.705443,168.992431 C990.171469,169.866604 988.387051,170.834437 986.352188,171.895932 C984.317325,172.957427 981.9381,173.92526 979.214514,174.799432 C976.490928,175.673605 973.2508,176.110691 969.49413,176.110691 C961.855567,176.110691 955.719673,173.800378 951.086446,169.179754 C946.453219,164.55913 943.792245,157.315989 943.103522,147.450331 L943.103522,147.450331 L1002.64674,147.450331 C1003.71113,147.450331 1004.58769,147.309839 1005.27641,147.028855 C1005.96514,146.747871 1006.51298,146.279565 1006.91996,145.623936 C1007.32693,144.968307 1007.60868,144.062914 1007.76521,142.907758 C1007.92174,141.752602 1008,140.300851 1008,138.552507 C1008,131.62157 1006.96692,125.455535 1004.90075,120.054399 C1002.83458,114.653264 999.954465,110.09508 996.260406,106.379849 C992.566346,102.664617 988.167912,99.8391675 983.065101,97.9035005 C977.962291,95.9678335 972.374244,95 966.300961,95 C959.100676,95 952.636073,96.2488174 946.90715,98.7464522 C941.178228,101.244087 936.325863,104.631504 932.350053,108.908704 C928.374244,113.185904 925.321949,118.212394 923.19317,123.988174 C921.06439,129.763955 920,135.929991 920,142.486282 C920,150.915799 921.220918,158.330653 923.662753,164.730842 C926.104589,171.131031 929.454287,176.500946 933.711846,180.840587 C937.969406,185.180227 942.9783,188.458373 948.738527,190.675024 C954.498755,192.891675 960.728566,194 967.427962,194 Z M987,134 L943,134 C944.074713,126.980057 946.54023,121.558405 950.396552,117.735043 C954.252874,113.911681 959.594828,112 966.422414,112 C969.899425,112 972.933908,112.579772 975.525862,113.739316 C978.117816,114.89886 980.267241,116.481481 981.974138,118.487179 C983.681034,120.492877 984.945402,122.827635 985.767241,125.491453 C986.58908,128.155271 987,130.991453 987,134 L987,134 Z M1057.98569,194 C1062.63519,194 1067.12971,193.276303 1071.46924,191.828909 C1075.80877,190.381514 1079.65236,188.241888 1083,185.410029 L1083,185.410029 L1076.11874,174.082596 C1075.62279,173.390364 1075.15784,172.87119 1074.72389,172.525074 C1074.28994,172.178958 1073.732,172.0059 1073.05007,172.0059 C1072.49213,172.0059 1071.93419,172.178958 1071.37625,172.525074 C1070.81831,172.87119 1070.18288,173.233038 1069.46996,173.610619 C1068.75703,173.988201 1067.92012,174.350049 1066.95923,174.696165 C1065.99833,175.042281 1064.80496,175.215339 1063.37911,175.215339 C1060.89938,175.215339 1058.91559,174.365782 1057.42775,172.666667 C1055.93991,170.967552 1055.19599,168.60767 1055.19599,165.587021 L1055.19599,165.587021 L1055.19599,113.103245 L1080.30329,113.103245 L1080.30329,96.4896755 L1055.19599,96.4896755 L1055.19599,66 L1043.29328,66 C1041.92942,66 1040.79804,66.346116 1039.89914,67.0383481 C1039.00024,67.7305801 1038.4268,68.705998 1038.17883,69.9646018 L1038.17883,69.9646018 L1033.34335,96.3952802 L1018,98.9439528 L1018,108.19469 C1018,109.830875 1018.44945,111.058014 1019.34835,111.876106 C1020.24726,112.694199 1021.31664,113.103245 1022.55651,113.103245 L1022.55651,113.103245 L1032.22747,113.103245 L1032.22747,167.19174 C1032.22747,175.561455 1034.45923,182.121927 1038.92275,186.873156 C1043.38627,191.624385 1049.74058,194 1057.98569,194 Z M1141.14187,194 C1148.3931,194 1154.9665,192.844844 1160.86207,190.534532 C1166.75764,188.224219 1171.78621,184.914853 1175.94778,180.606433 C1180.10936,176.298013 1183.32512,171.084201 1185.59507,164.964995 C1187.86502,158.84579 1189,151.977294 1189,144.359508 C1189,136.804163 1187.86502,129.966887 1185.59507,123.847682 C1183.32512,117.728477 1180.10936,112.545885 1175.94778,108.299905 C1171.78621,104.053926 1166.75764,100.775781 1160.86207,98.4654683 C1154.9665,96.1551561 1148.3931,95 1141.14187,95 C1133.89064,95 1127.30148,96.1551561 1121.37438,98.4654683 C1115.44729,100.775781 1110.38719,104.053926 1106.19409,108.299905 C1102.00099,112.545885 1098.75369,117.728477 1096.45222,123.847682 C1094.15074,129.966887 1093,136.804163 1093,144.359508 C1093,151.977294 1094.15074,158.84579 1096.45222,164.964995 C1098.75369,171.084201 1102.00099,176.298013 1106.19409,180.606433 C1110.38719,184.914853 1115.44729,188.224219 1121.37438,190.534532 C1127.30148,192.844844 1133.89064,194 1141.14187,194 Z M1141.14257,176 C1132.90495,176 1126.82178,173.320796 1122.89307,167.962389 C1118.96436,162.603982 1117,154.814159 1117,144.59292 C1117,134.371681 1118.96436,126.550885 1122.89307,121.130531 C1126.82178,115.710177 1132.90495,113 1141.14257,113 C1149.25347,113 1155.25743,115.69469 1159.15446,121.084071 C1163.05149,126.473451 1165,134.309735 1165,144.59292 C1165,154.876106 1163.05149,162.681416 1159.15446,168.00885 C1155.25743,173.336283 1149.25347,176 1141.14257,176 Z M1248.14187,194 C1255.3931,194 1261.9665,192.844844 1267.86207,190.534532 C1273.75764,188.224219 1278.78621,184.914853 1282.94778,180.606433 C1287.10936,176.298013 1290.32512,171.084201 1292.59507,164.964995 C1294.86502,158.84579 1296,151.977294 1296,144.359508 C1296,136.804163 1294.86502,129.966887 1292.59507,123.847682 C1290.32512,117.728477 1287.10936,112.545885 1282.94778,108.299905 C1278.78621,104.053926 1273.75764,100.775781 1267.86207,98.4654683 C1261.9665,96.1551561 1255.3931,95 1248.14187,95 C1240.89064,95 1234.30148,96.1551561 1228.37438,98.4654683 C1222.44729,100.775781 1217.38719,104.053926 1213.19409,108.299905 C1209.00099,112.545885 1205.75369,117.728477 1203.45222,123.847682 C1201.15074,129.966887 1200,136.804163 1200,144.359508 C1200,151.977294 1201.15074,158.84579 1203.45222,164.964995 C1205.75369,171.084201 1209.00099,176.298013 1213.19409,180.606433 C1217.38719,184.914853 1222.44729,188.224219 1228.37438,190.534532 C1234.30148,192.844844 1240.89064,194 1248.14187,194 Z M1247.14257,176 C1238.90495,176 1232.82178,173.320796 1228.89307,167.962389 C1224.96436,162.603982 1223,154.814159 1223,144.59292 C1223,134.371681 1224.96436,126.550885 1228.89307,121.130531 C1232.82178,115.710177 1238.90495,113 1247.14257,113 C1255.25347,113 1261.25743,115.69469 1265.15446,121.084071 C1269.05149,126.473451 1271,134.309735 1271,144.59292 C1271,154.876106 1269.05149,162.681416 1265.15446,168.00885 C1261.25743,173.336283 1255.25347,176 1247.14257,176 Z M1337,192 L1337,53 L1314,53 L1314,192 L1337,192 Z M1388.46214,194 C1394.6658,194 1400.16449,193.204631 1404.95822,191.613894 C1409.75196,190.023157 1413.77807,187.808601 1417.03655,184.970227 C1420.29504,182.131853 1422.77023,178.763233 1424.46214,174.864367 C1426.15405,170.965501 1427,166.70794 1427,162.091682 C1427,158.224008 1426.32637,154.917769 1424.97911,152.172968 C1423.63185,149.428166 1421.84595,147.073251 1419.62141,145.108223 C1417.39687,143.143195 1414.87467,141.521267 1412.05483,140.242439 C1409.23499,138.963611 1406.35248,137.825142 1403.40731,136.827032 C1400.46214,135.828922 1397.57963,134.90879 1394.75979,134.066635 C1391.93995,133.22448 1389.41775,132.273157 1387.19321,131.212665 C1384.96867,130.152174 1383.18277,128.920132 1381.83551,127.516541 C1380.48825,126.112949 1379.81462,124.381853 1379.81462,122.323251 C1379.81462,119.204159 1381.13055,116.677694 1383.7624,114.743856 C1386.39426,112.810019 1389.99739,111.8431 1394.5718,111.8431 C1397.51697,111.8431 1400.0705,112.155009 1402.23238,112.778828 C1404.39426,113.402647 1406.32115,114.104442 1408.01305,114.884216 C1409.70496,115.663989 1411.19321,116.365784 1412.47781,116.989603 C1413.7624,117.613422 1414.96867,117.925331 1416.09661,117.925331 C1417.16188,117.925331 1418.03916,117.72259 1418.72846,117.317108 C1419.41775,116.911626 1420.07572,116.20983 1420.70235,115.21172 L1420.70235,115.21172 L1425.96606,106.883743 C1422.33159,103.327977 1417.78851,100.458412 1412.33681,98.2750473 C1406.88512,96.0916824 1400.83812,95 1394.19582,95 C1388.24282,95 1382.99478,95.7953686 1378.4517,97.3861059 C1373.90862,98.9768431 1370.11749,101.097826 1367.07833,103.749055 C1364.03916,106.400284 1361.73629,109.503781 1360.16971,113.059546 C1358.60313,116.615312 1357.81984,120.358223 1357.81984,124.28828 C1357.81984,128.530246 1358.49347,132.148393 1359.84073,135.142722 C1361.18799,138.137051 1362.97389,140.663516 1365.19843,142.722117 C1367.42298,144.780718 1369.96084,146.480624 1372.81201,147.821834 C1375.66319,149.163043 1378.57702,150.332703 1381.55352,151.330813 C1384.53003,152.328922 1387.44386,153.249055 1390.29504,154.09121 C1393.14621,154.933365 1395.68407,155.884688 1397.90862,156.94518 C1400.13316,158.005671 1401.91906,159.253308 1403.26632,160.688091 C1404.61358,162.122873 1405.28721,163.963138 1405.28721,166.208885 C1405.28721,167.706049 1404.98956,169.156427 1404.39426,170.560019 C1403.79896,171.963611 1402.85901,173.195652 1401.57441,174.256144 C1400.28982,175.316635 1398.66057,176.174386 1396.68668,176.829395 C1394.71279,177.484405 1392.34726,177.811909 1389.59008,177.811909 C1386.08094,177.811909 1383.18277,177.406427 1380.89556,176.595463 C1378.60836,175.784499 1376.6188,174.911153 1374.92689,173.975425 C1373.23499,173.039698 1371.74674,172.166352 1370.46214,171.355388 C1369.17755,170.544423 1367.81462,170.138941 1366.37337,170.138941 C1364.93211,170.138941 1363.74151,170.41966 1362.80157,170.981096 C1361.86162,171.542533 1361.047,172.353497 1360.3577,173.413989 L1360.3577,173.413989 L1355,182.20983 C1356.8799,183.89414 1359.05744,185.453686 1361.53264,186.888469 C1364.00783,188.323251 1366.70235,189.570888 1369.61619,190.63138 C1372.53003,191.691871 1375.56919,192.518431 1378.73368,193.111059 C1381.89817,193.703686 1385.14099,194 1388.46214,194 Z" id="Featuretools" fill="#252D39" fill-rule="nonzero"></path>
        <g id="Group" transform="translate(69.000000, 33.000000)">
            <g id="Group-4" transform="translate(92.000005, 25.000000)" stroke="#DCE3F0" stroke-linecap="round" stroke-width="5.20000029">
                <path d="M-5.00679016e-06,0 L24.999995,0 C30.5228425,-1.01453063e-15 34.999995,4.4771525 34.999995,10 L34.999995,18 L34.999995,18" id="Path-2-Copy-6"></path>
                <path d="M-5.00679016e-06,118 L24.999995,118 C30.5228425,118 34.999995,122.477153 34.999995,128 L34.999995,136 L34.999995,136" id="Path-2-Copy-6" transform="translate(17.499995, 127.000000) scale(1, -1) translate(-17.499995, -127.000000) "></path>
            </g>
            <rect id="Rectangle-Copy-42" fill="url(#linearGradient-1)" x="102" y="51" width="84" height="84" rx="10"></rect>
            <rect id="Rectangle-Copy-5" stroke="#F49A0C" stroke-width="5.20000029" x="2.60000014" y="2.60000014" width="78.7999997" height="78.7999997" rx="10"></rect>
            <path d="M70,104.6 C73.148023,104.6 75.998023,105.875989 78.0610172,107.938983 C80.1240114,110.001977 81.3999999,112.851977 81.3999999,116 L81.3999999,116 L81.3999999,172 C81.3999999,175.148023 80.1240114,177.998023 78.0610172,180.061017 C75.998023,182.124011 73.148023,183.4 70,183.4 L70,183.4 L14,183.4 C10.851977,183.4 8.001977,182.124011 5.9389828,180.061017 C3.87598859,177.998023 2.60000014,175.148023 2.60000014,172 L2.60000014,172 L2.60000014,112 C2.60000014,109.956546 3.42827334,108.106547 4.76740992,106.76741 C6.1065465,105.428273 7.95654647,104.6 10,104.6 L10,104.6 Z" id="Rectangle-Copy-43" stroke="#E8860B" stroke-width="5.20000029"></path>
        </g>
    </g>
</svg>