<svg id="Layer_1" data-name="Layer 1" xmlns="http://www.w3.org/2000/svg" viewBox="0 0 87 77"><defs><style>.cls-1{fill:#fff;}</style></defs><title>Footer_Assets</title><path class="cls-1" d="M49.27,52.92c1.48-.31,2.86-.52,4.21-.89,5.94-1.63,9.26-5.72,9.73-11.88a17.21,17.21,0,0,0-.24-5.5,11.38,11.38,0,0,0-2.41-4.76,1,1,0,0,1-.24-1.1,10.87,10.87,0,0,0-.38-7.16,1,1,0,0,0-.76-.46A9.19,9.19,0,0,0,55,22.27c-1.12.56-2.18,1.23-3.29,1.81a1.47,1.47,0,0,1-.94.15,30.39,30.39,0,0,0-14.53,0,1.5,1.5,0,0,1-1-.18,18.55,18.55,0,0,0-6.51-2.83c-1.44-.24-1.58-.16-2,1.21A11.29,11.29,0,0,0,26.71,29a.94.94,0,0,1-.18.77,12.54,12.54,0,0,0-2.82,9.42,17.68,17.68,0,0,0,1.42,6.21c1.71,3.74,4.79,5.75,8.63,6.75,1.06.28,2.17.43,3.25.64l.72.14a7.42,7.42,0,0,0-1.85,3.8.85.85,0,0,1-.48.45,6.42,6.42,0,0,1-8.55-2.68,6.44,6.44,0,0,0-4.19-3.13,3.84,3.84,0,0,0-1.31,0c-.24,0-.6.23-.63.4a1.23,1.23,0,0,0,.33.75,2,2,0,0,0,.61.51,8.34,8.34,0,0,1,3.44,4.22,6.78,6.78,0,0,0,6.35,4.37,41.58,41.58,0,0,0,4.27-.15c0,.15,0,.4,0,.66l0,4.5c0,1.62-.9,2.31-2.43,1.77A30.73,30.73,0,0,1,37.58,9,30.79,30.79,0,0,1,53.63,68.37c-1.51.5-2.41-.14-2.4-1.73,0-2.46,0-4.92,0-7.38C51.28,57,51,54.74,49.27,52.92Z"/><path class="cls-1" d="M32.57,58.14l.63.57c-.24.17-.46.42-.72.46s-.37-.28-.56-.43Z"/><path class="cls-1" d="M27.72,56.32a10.07,10.07,0,0,1,.69,1s-.35.37-.39.34a2.76,2.76,0,0,1-.67-.65C27.3,56.9,27.51,56.66,27.72,56.32Z"/><path class="cls-1" d="M30.11,59l-.7-.67c.16-.14.38-.42.48-.38a3.43,3.43,0,0,1,.77.51Z"/><path class="cls-1" d="M35,57.85l.59.52a3.54,3.54,0,0,1-.78.52c-.11,0-.33-.26-.5-.4Z"/><path class="cls-1" d="M27,55.47c-.26.19-.47.39-.51.37a2.71,2.71,0,0,1-.59-.63s.31-.39.33-.37A6.54,6.54,0,0,1,27,55.47Z"/><path class="cls-1" d="M25.73,53.81c-.29.15-.48.31-.54.27a2,2,0,0,1-.5-.53s.24-.32.27-.3A7.8,7.8,0,0,1,25.73,53.81Z"/></svg>