<?xml version="1.0" standalone="yes"?>

<svg version="1.1" viewBox="0.0 0.0 960.0 540.0" fill="none" stroke="none" stroke-linecap="square" stroke-miterlimit="10" xmlns="http://www.w3.org/2000/svg" xmlns:xlink="http://www.w3.org/1999/xlink"><clipPath id="g11690d04b9_2_5.0"><path d="m0 0l960.0 0l0 540.0l-960.0 0l0 -540.0z" clip-rule="nonzero"></path></clipPath><g clip-path="url(#g11690d04b9_2_5.0)"><path fill="#ffffff" d="m0 0l960.0 0l0 540.0l-960.0 0z" fill-rule="nonzero"></path><path fill="#000000" fill-opacity="0.0" d="m47.624672 251.74306l864.5039 0" fill-rule="nonzero"></path><path stroke="#595959" stroke-width="2.0" stroke-linejoin="round" stroke-linecap="butt" d="m47.624672 251.74304l852.5039 0" fill-rule="evenodd"></path><path fill="#595959" stroke="#595959" stroke-width="2.0" stroke-linecap="butt" d="m900.1286 255.04651l9.076233 -3.3034668l-9.076233 -3.3034515z" fill-rule="evenodd"></path><path fill="#efefef" d="m99.61347 251.73491l0 0c0 -11.58493 9.391441 -20.97638 20.976372 -20.97638l0 0c5.563286 0 10.898712 2.2100067 14.832535 6.1438446c3.933838 3.9338226 6.1438446 9.269257 6.1438446 14.832535l0 0c0 11.584946 -9.391449 20.976364 -20.97638 20.976364l0 0c-11.58493 0 -20.976372 -9.391418 -20.976372 -20.976364z" fill-rule="nonzero"></path><path stroke="#434343" stroke-width="1.0" stroke-linejoin="round" stroke-linecap="butt" d="m99.61347 251.73491l0 0c0 -11.58493 9.391441 -20.97638 20.976372 -20.97638l0 0c5.563286 0 10.898712 2.2100067 14.832535 6.1438446c3.933838 3.9338226 6.1438446 9.269257 6.1438446 14.832535l0 0c0 11.584946 -9.391449 20.976364 -20.97638 20.976364l0 0c-11.58493 0 -20.976372 -9.391418 -20.976372 -20.976364z" fill-rule="nonzero"></path><path fill="#666666" d="m167.09282 251.73491l0 0c0 -11.58493 9.391449 -20.97638 20.97638 -20.97638l0 0c5.563278 0 10.898712 2.2100067 14.832535 6.1438446c3.933838 3.9338226 6.1438446 9.269257 6.1438446 14.832535l0 0c0 11.584946 -9.391449 20.976364 -20.97638 20.976364l0 0c-11.58493 0 -20.97638 -9.391418 -20.97638 -20.976364z" fill-rule="nonzero"></path><path stroke="#666666" stroke-width="1.0" stroke-linejoin="round" stroke-linecap="butt" d="m167.09282 251.73491l0 0c0 -11.58493 9.391449 -20.97638 20.97638 -20.97638l0 0c5.563278 0 10.898712 2.2100067 14.832535 6.1438446c3.933838 3.9338226 6.1438446 9.269257 6.1438446 14.832535l0 0c0 11.584946 -9.391449 20.976364 -20.97638 20.976364l0 0c-11.58493 0 -20.97638 -9.391418 -20.97638 -20.976364z" fill-rule="nonzero"></path><path fill="#efefef" d="m279.22797 251.73491l0 0c0 -11.58493 9.391449 -20.97638 20.97638 -20.97638l0 0c5.5632935 0 10.898712 2.2100067 14.83255 6.1438446c3.933838 3.9338226 6.1438293 9.269257 6.1438293 14.832535l0 0c0 11.584946 -9.391449 20.976364 -20.97638 20.976364l0 0c-11.58493 0 -20.97638 -9.391418 -20.97638 -20.976364z" fill-rule="nonzero"></path><path stroke="#434343" stroke-width="1.0" stroke-linejoin="round" stroke-linecap="butt" d="m279.22797 251.73491l0 0c0 -11.58493 9.391449 -20.97638 20.97638 -20.97638l0 0c5.5632935 0 10.898712 2.2100067 14.83255 6.1438446c3.933838 3.9338226 6.1438293 9.269257 6.1438293 14.832535l0 0c0 11.584946 -9.391449 20.976364 -20.97638 20.976364l0 0c-11.58493 0 -20.97638 -9.391418 -20.97638 -20.976364z" fill-rule="nonzero"></path><path fill="#666666" d="m417.30426 251.73491l0 0c0 -11.58493 9.391449 -20.97638 20.97638 -20.97638l0 0c5.563263 0 10.898682 2.2100067 14.83252 6.1438446c3.933838 3.9338226 6.14386 9.269257 6.14386 14.832535l0 0c0 11.584946 -9.391449 20.976364 -20.97638 20.976364l0 0c-11.58493 0 -20.97638 -9.391418 -20.97638 -20.976364z" fill-rule="nonzero"></path><path stroke="#595959" stroke-width="1.0" stroke-linejoin="round" stroke-linecap="butt" d="m417.30426 251.73491l0 0c0 -11.58493 9.391449 -20.97638 20.97638 -20.97638l0 0c5.563263 0 10.898682 2.2100067 14.83252 6.1438446c3.933838 3.9338226 6.14386 9.269257 6.14386 14.832535l0 0c0 11.584946 -9.391449 20.976364 -20.97638 20.976364l0 0c-11.58493 0 -20.97638 -9.391418 -20.97638 -20.976364z" fill-rule="nonzero"></path><path fill="#efefef" d="m484.7836 251.73491l0 0c0 -11.58493 9.391449 -20.97638 20.97638 -20.97638l0 0c5.5632935 0 10.898712 2.2100067 14.83255 6.1438446c3.933838 3.9338226 6.14386 9.269257 6.14386 14.832535l0 0c0 11.584946 -9.3914795 20.976364 -20.97641 20.976364l0 0c-11.58493 0 -20.97638 -9.391418 -20.97638 -20.976364z" fill-rule="nonzero"></path><path stroke="#434343" stroke-width="1.0" stroke-linejoin="round" stroke-linecap="butt" d="m484.7836 251.73491l0 0c0 -11.58493 9.391449 -20.97638 20.97638 -20.97638l0 0c5.5632935 0 10.898712 2.2100067 14.83255 6.1438446c3.933838 3.9338226 6.14386 9.269257 6.14386 14.832535l0 0c0 11.584946 -9.3914795 20.976364 -20.97641 20.976364l0 0c-11.58493 0 -20.97638 -9.391418 -20.97638 -20.976364z" fill-rule="nonzero"></path><path fill="#efefef" d="m552.26294 251.73491l0 0c0 -11.58493 9.3914795 -20.97638 20.97638 -20.97638l0 0c5.5632935 0 10.898743 2.2100067 14.832581 6.1438446c3.933838 3.9338226 6.143799 9.269257 6.143799 14.832535l0 0c0 11.584946 -9.391418 20.976364 -20.97638 20.976364l0 0c-11.5849 0 -20.97638 -9.391418 -20.97638 -20.976364z" fill-rule="nonzero"></path><path stroke="#434343" stroke-width="1.0" stroke-linejoin="round" stroke-linecap="butt" d="m552.26294 251.73491l0 0c0 -11.58493 9.3914795 -20.97638 20.97638 -20.97638l0 0c5.5632935 0 10.898743 2.2100067 14.832581 6.1438446c3.933838 3.9338226 6.143799 9.269257 6.143799 14.832535l0 0c0 11.584946 -9.391418 20.976364 -20.97638 20.976364l0 0c-11.5849 0 -20.97638 -9.391418 -20.97638 -20.976364z" fill-rule="nonzero"></path><path fill="#666666" d="m679.3374 251.73491l0 0c0 -11.58493 9.3914795 -20.97638 20.97638 -20.97638l0 0c5.5632935 0 10.898743 2.2100067 14.832581 6.1438446c3.933838 3.9338226 6.143799 9.269257 6.143799 14.832535l0 0c0 11.584946 -9.391418 20.976364 -20.97638 20.976364l0 0c-11.5849 0 -20.97638 -9.391418 -20.97638 -20.976364z" fill-rule="nonzero"></path><path stroke="#434343" stroke-width="1.0" stroke-linejoin="round" stroke-linecap="butt" d="m679.3374 251.73491l0 0c0 -11.58493 9.3914795 -20.97638 20.97638 -20.97638l0 0c5.5632935 0 10.898743 2.2100067 14.832581 6.1438446c3.933838 3.9338226 6.143799 9.269257 6.143799 14.832535l0 0c0 11.584946 -9.391418 20.976364 -20.97638 20.976364l0 0c-11.5849 0 -20.97638 -9.391418 -20.97638 -20.976364z" fill-rule="nonzero"></path><path fill="#000000" fill-opacity="0.0" d="m410.34384 227.73491l55.77951 0l0 47.999985l-55.77951 0z" fill-rule="nonzero"></path><path fill="#ffffff" d="m438.57422 249.53491l0 -1.875l-3.8125 0l0 -1.5625l4.046875 -5.90625l1.5 0l0 5.90625l1.15625 0l0 1.5625l-1.15625 0l0 1.875l-1.734375 0zm0 -3.4375l0 -3.1875l-2.140625 3.1875l2.140625 0z" fill-rule="nonzero"></path><path fill="#ffffff" d="m428.99402 262.9749l-0.96875 0l0 -6.15625q-0.34375 0.328125 -0.90625 0.671875q-0.5625 0.328125 -1.015625 0.484375l0 -0.9375q0.8125 -0.375 1.40625 -0.90625q0.609375 -0.54689026 0.859375 -1.0625153l0.625 0l0 7.9062653zm5.9265137 0l-0.96875 0l0 -6.15625q-0.34375 0.328125 -0.90625 0.671875q-0.5625 0.328125 -1.015625 0.484375l0 -0.9375q0.8125 -0.375 1.40625 -0.90625q0.609375 -0.54689026 0.859375 -1.0625153l0.625 0l0 7.9062653zm2.8327332 -4.609375l0 -1.09375l1.09375 0l0 1.09375l-1.09375 0zm0 4.609375l0 -1.09375l1.09375 0l0 1.09375l-1.09375 0zm5.523163 0l0 -1.890625l-3.421875 0l0 -0.875l3.59375 -5.1093903l0.78125 0l0 5.1093903l1.078125 0l0 0.875l-1.078125 0l0 1.890625l-0.953125 0zm0 -2.765625l0 -3.5625l-2.46875 3.5625l2.46875 0zm2.8171082 0.703125l1.015625 -0.09375q0.109375 0.75 0.515625 1.125q0.421875 0.375 1.0 0.375q0.703125 0 1.1875 -0.53125q0.484375 -0.53125 0.484375 -1.390625q0 -0.828125 -0.46875 -1.296875q-0.46875 -0.484375 -1.21875 -0.484375q-0.46875 0 -0.84375 0.21875q-0.375 0.203125 -0.59375 0.53125l-0.90625 -0.109375l0.765625 -4.0468903l3.921875 0l0 0.92189026l-3.140625 0l-0.4375 2.109375q0.71875 -0.484375 1.5 -0.484375q1.03125 0 1.734375 0.71875q0.703125 0.703125 0.703125 1.828125q0 1.078125 -0.625 1.84375q-0.75 0.96875 -2.0625 0.96875q-1.078125 0 -1.765625 -0.59375q-0.671875 -0.609375 -0.765625 -1.609375z" fill-rule="nonzero"></path><path fill="#000000" fill-opacity="0.0" d="m96.59055 227.7336l47.999992 0l0 47.999985l-47.999992 0z" fill-rule="nonzero"></path><path fill="#000000" d="m121.99369 249.5336l-1.78125 0l0 -6.71875q-0.96875 0.90625 -2.296875 1.34375l0 -1.609375q0.703125 -0.234375 1.515625 -0.875q0.8125 -0.640625 1.125 -1.484375l1.4375 0l0 9.34375z" fill-rule="nonzero"></path><path fill="#000000" d="m115.68923 257.02048l-0.953125 0.078125q-0.125 -0.5625 -0.375 -0.828125q-0.390625 -0.40626526 -0.953125 -0.40626526q-0.46875 0 -0.8125 0.25001526q-0.46875 0.34375 -0.734375 0.984375q-0.25 0.625 -0.265625 1.8125q0.34375 -0.53125 0.84375 -0.78125q0.515625 -0.265625 1.0625 -0.265625q0.96875 0 1.640625 0.71875q0.6875 0.703125 0.6875 1.828125q0 0.75 -0.328125 1.390625q-0.3125 0.625 -0.875 0.96875q-0.546875 0.34375 -1.265625 0.34375q-1.203125 0 -1.96875 -0.890625q-0.765625 -0.890625 -0.765625 -2.9375q0 -2.28125 0.84375 -3.3125153q0.75 -0.90625 1.984375 -0.90625q0.9375 0 1.53125 0.53125q0.59375 0.51564026 0.703125 1.4218903zm-3.9375 3.40625q0 0.5 0.203125 0.953125q0.21875 0.453125 0.59375 0.703125q0.390625 0.234375 0.796875 0.234375q0.625 0 1.0625 -0.5q0.4375 -0.5 0.4375 -1.34375q0 -0.8125 -0.4375 -1.28125q-0.4375 -0.46875 -1.09375 -0.46875q-0.65625 0 -1.109375 0.46875q-0.453125 0.46875 -0.453125 1.234375zm5.3952484 -2.0625l0 -1.09375l1.09375 0l0 1.09375l-1.09375 0zm0 4.609375l0 -1.09375l1.09375 0l0 1.09375l-1.09375 0zm6.0543976 0l-0.96875 0l0 -6.15625q-0.34375 0.328125 -0.90625 0.671875q-0.5625 0.328125 -1.015625 0.484375l0 -0.9375q0.8125 -0.375 1.40625 -0.90625q0.609375 -0.54689026 0.859375 -1.0625153l0.625 0l0 7.9062653zm2.3483734 -6.84375l0 -0.92189026l5.1093674 0l0 0.75q-0.765625 0.79689026 -1.5 2.1250153q-0.734375 1.328125 -1.140625 2.71875q-0.28124237 1.0 -0.37499237 2.171875l-0.984375 0q0.015625 -0.921875 0.359375 -2.234375q0.359375 -1.328125 0.9999924 -2.546875q0.65625 -1.21875 1.390625 -2.0625l-3.8593674 0z" fill-rule="nonzero"></path><path fill="#000000" fill-opacity="0.0" d="m276.2047 227.73491l48.0 0l0 47.999985l-48.0 0z" fill-rule="nonzero"></path><path fill="#000000" d="m296.98285 247.06616l1.734375 -0.203125q0.078125 0.65625 0.4375 1.0q0.359375 0.34375 0.875 0.34375q0.5625 0 0.9375 -0.40625q0.375 -0.421875 0.375 -1.140625q0 -0.671875 -0.359375 -1.0625q-0.359375 -0.390625 -0.890625 -0.390625q-0.34375 0 -0.8125 0.125l0.203125 -1.453125q0.71875 0.03125 1.09375 -0.296875q0.390625 -0.34375 0.390625 -0.890625q0 -0.46875 -0.28125 -0.75q-0.28125 -0.28125 -0.75 -0.28125q-0.453125 0 -0.78125 0.3125q-0.3125 0.3125 -0.390625 0.921875l-1.640625 -0.265625q0.171875 -0.84375 0.515625 -1.34375q0.34375 -0.515625 0.953125 -0.796875q0.625 -0.296875 1.390625 -0.296875q1.328125 0 2.109375 0.84375q0.65625 0.671875 0.65625 1.546875q0 1.21875 -1.34375 1.953125q0.8125 0.171875 1.28125 0.765625q0.484375 0.59375 0.484375 1.4375q0 1.234375 -0.90625 2.09375q-0.890625 0.859375 -2.21875 0.859375q-1.265625 0 -2.09375 -0.71875q-0.828125 -0.734375 -0.96875 -1.90625z" fill-rule="nonzero"></path><path fill="#000000" d="m290.44403 261.1468l0.921875 -0.078125q0.125 0.65625 0.453125 0.953125q0.328125 0.296875 0.859375 0.296875q0.4375 0 0.765625 -0.203125q0.34375 -0.203125 0.5625 -0.546875q0.21875 -0.34375 0.359375 -0.921875q0.140625 -0.578125 0.140625 -1.1875q0 -0.0625 0 -0.1875q-0.296875 0.453125 -0.796875 0.75q-0.5 0.28125 -1.09375 0.28125q-0.96875 0 -1.65625 -0.703125q-0.671875 -0.71875 -0.671875 -1.875q0 -1.203125 0.703125 -1.9218903q0.71875 -0.734375 1.78125 -0.734375q0.765625 0 1.390625 0.421875q0.640625 0.40625 0.96875 1.1718903q0.34375 0.765625 0.34375 2.21875q0 1.5 -0.328125 2.40625q-0.328125 0.890625 -0.984375 1.359375q-0.640625 0.46875 -1.515625 0.46875q-0.921875 0 -1.515625 -0.515625q-0.578125 -0.515625 -0.6875 -1.453125zm3.953125 -3.46875q0 -0.828125 -0.453125 -1.3125q-0.4375 -0.50001526 -1.0625 -0.50001526q-0.640625 0 -1.125 0.53126526q-0.46875 0.53125 -0.46875 1.359375q0 0.75 0.453125 1.21875q0.453125 0.46875 1.125 0.46875q0.671875 0 1.09375 -0.46875q0.4375 -0.46875 0.4375 -1.296875zm2.3639832 0.6875l0 -1.09375l1.09375 0l0 1.09375l-1.09375 0zm0 4.609375l0 -1.09375l1.09375 0l0 1.09375l-1.09375 0zm7.491913 -0.921875l0 0.921875l-5.203125 0q0 -0.34375 0.125 -0.671875q0.1875 -0.53125 0.625 -1.046875q0.4375 -0.515625 1.265625 -1.1875q1.28125 -1.0625 1.734375 -1.671875q0.453125 -0.609375 0.453125 -1.15625q0 -0.578125 -0.40625 -0.96875q-0.40625 -0.40626526 -1.078125 -0.40626526q-0.6875 0 -1.109375 0.42189026q-0.421875 0.421875 -0.421875 1.15625l-1.0 -0.09375q0.109375 -1.109375 0.765625 -1.6875153q0.671875 -0.59375 1.796875 -0.59375q1.125 0 1.78125 0.625q0.671875 0.62501526 0.671875 1.5625153q0 0.46875 -0.203125 0.9375q-0.1875 0.453125 -0.640625 0.953125q-0.4375 0.5 -1.484375 1.390625q-0.875 0.71875 -1.125 0.984375q-0.234375 0.265625 -0.40625 0.53125l3.859375 0zm4.488983 0.921875l-0.96875 0l0 -6.15625q-0.34375 0.328125 -0.90625 0.671875q-0.5625 0.328125 -1.015625 0.484375l0 -0.9375q0.8125 -0.375 1.40625 -0.90625q0.609375 -0.54689026 0.859375 -1.0625153l0.625 0l0 7.9062653z" fill-rule="nonzero"></path><path fill="#000000" fill-opacity="0.0" d="m164.69292 227.7336l48.0 0l0 47.999985l-48.0 0z" fill-rule="nonzero"></path><path fill="#ffffff" d="m191.5648 247.87735l0 1.65625l-6.25 0q0.09375 -0.9375 0.59375 -1.78125q0.515625 -0.84375 2.015625 -2.234375q1.203125 -1.125 1.484375 -1.515625q0.359375 -0.5625 0.359375 -1.09375q0 -0.59375 -0.328125 -0.90625q-0.3125 -0.328125 -0.875 -0.328125q-0.5625 0 -0.890625 0.34375q-0.328125 0.328125 -0.375 1.109375l-1.78125 -0.1875q0.15625 -1.46875 1.0 -2.109375q0.84375 -0.640625 2.09375 -0.640625q1.375 0 2.15625 0.75q0.796875 0.734375 0.796875 1.84375q0 0.625 -0.234375 1.203125q-0.21875 0.5625 -0.703125 1.171875q-0.328125 0.421875 -1.171875 1.203125q-0.84375 0.765625 -1.078125 1.03125q-0.21875 0.25 -0.359375 0.484375l3.546875 0z" fill-rule="nonzero"></path><path fill="#ffffff" d="m178.83847 256.12985l0 -0.92189026l5.109375 0l0 0.75q-0.765625 0.79689026 -1.5 2.1250153q-0.734375 1.328125 -1.140625 2.71875q-0.28125 1.0 -0.375 2.171875l-0.984375 0q0.015625 -0.921875 0.359375 -2.234375q0.359375 -1.328125 1.0 -2.546875q0.65625 -1.21875 1.390625 -2.0625l-3.859375 0zm6.4108734 2.234375l0 -1.09375l1.09375 0l0 1.09375l-1.09375 0zm0 4.609375l0 -1.09375l1.09375 0l0 1.09375l-1.09375 0zm2.4137726 -3.890625q0 -1.390625 0.28125 -2.234375q0.296875 -0.85939026 0.859375 -1.3125153q0.578125 -0.46875 1.4375 -0.46875q0.625 0 1.09375 0.265625q0.484375 0.25 0.796875 0.73439026q0.3125 0.46875 0.484375 1.171875q0.1875 0.6875 0.1875 1.84375q0 1.390625 -0.296875 2.25q-0.28125 0.84375 -0.84375 1.3125q-0.5625 0.46875 -1.421875 0.46875q-1.140625 0 -1.796875 -0.828125q-0.78125 -0.984375 -0.78125 -3.203125zm1.0 0q0 1.953125 0.453125 2.59375q0.453125 0.640625 1.125 0.640625q0.65625 0 1.109375 -0.640625q0.453125 -0.65625 0.453125 -2.59375q0 -1.9375 -0.453125 -2.578125q-0.453125 -0.64064026 -1.125 -0.64064026q-0.671875 0 -1.0625 0.56251526q-0.5 0.71875 -0.5 2.65625zm10.004623 2.96875l0 0.921875l-5.203125 0q0 -0.34375 0.125 -0.671875q0.1875 -0.53125 0.625 -1.046875q0.4375 -0.515625 1.265625 -1.1875q1.28125 -1.0625 1.734375 -1.671875q0.453125 -0.609375 0.453125 -1.15625q0 -0.578125 -0.40625 -0.96875q-0.40625 -0.40626526 -1.078125 -0.40626526q-0.6875 0 -1.109375 0.42189026q-0.421875 0.421875 -0.421875 1.15625l-1.0 -0.09375q0.109375 -1.109375 0.765625 -1.6875153q0.671875 -0.59375 1.796875 -0.59375q1.125 0 1.78125 0.625q0.671875 0.62501526 0.671875 1.5625153q0 0.46875 -0.203125 0.9375q-0.1875 0.453125 -0.640625 0.953125q-0.4375 0.5 -1.484375 1.390625q-0.875 0.71875 -1.125 0.984375q-0.234375 0.265625 -0.40625 0.53125l3.859375 0z" fill-rule="nonzero"></path><path fill="#000000" fill-opacity="0.0" d="m476.10516 227.73491l55.77954 0l0 47.999985l-55.77954 0z" fill-rule="nonzero"></path><path fill="#000000" d="m500.8668 247.14429l1.78125 -0.1875q0.078125 0.609375 0.453125 0.96875q0.375 0.34375 0.859375 0.34375q0.5625 0 0.9375 -0.453125q0.390625 -0.453125 0.390625 -1.375q0 -0.859375 -0.390625 -1.28125q-0.375 -0.4375 -0.984375 -0.4375q-0.78125 0 -1.390625 0.6875l-1.4375 -0.203125l0.90625 -4.84375l4.71875 0l0 1.65625l-3.359375 0l-0.28125 1.59375q0.59375 -0.3125 1.21875 -0.3125q1.1875 0 2.015625 0.875q0.828125 0.859375 0.828125 2.234375q0 1.15625 -0.671875 2.046875q-0.90625 1.234375 -2.515625 1.234375q-1.296875 0 -2.109375 -0.6875q-0.8125 -0.6875 -0.96875 -1.859375z" fill-rule="nonzero"></path><path fill="#000000" d="m494.75534 262.9749l-0.96875 0l0 -6.15625q-0.34375 0.328125 -0.90625 0.671875q-0.5625 0.328125 -1.015625 0.484375l0 -0.9375q0.8125 -0.375 1.40625 -0.90625q0.609375 -0.54689026 0.859375 -1.0625153l0.625 0l0 7.9062653zm2.3015137 -2.078125l0.953125 -0.125q0.171875 0.8125 0.5625 1.1875q0.40625 0.359375 0.984375 0.359375q0.6875 0 1.15625 -0.46875q0.46875 -0.484375 0.46875 -1.171875q0 -0.671875 -0.4375 -1.09375q-0.4375 -0.4375 -1.109375 -0.4375q-0.265625 0 -0.671875 0.09375l0.09375 -0.84375q0.109375 0.015625 0.15625 0.015625q0.625 0 1.109375 -0.3125q0.5 -0.328125 0.5 -1.0q0 -0.53125 -0.359375 -0.875q-0.359375 -0.35939026 -0.921875 -0.35939026q-0.5625 0 -0.9375 0.35939026q-0.375 0.34375 -0.484375 1.0625l-0.96875 -0.171875q0.171875 -0.984375 0.796875 -1.5156403q0.640625 -0.53125 1.5625 -0.53125q0.65625 0 1.1875 0.28125q0.546875 0.265625 0.828125 0.75001526q0.296875 0.484375 0.296875 1.015625q0 0.515625 -0.28125 0.9375q-0.265625 0.40625 -0.8125 0.65625q0.703125 0.15625 1.09375 0.671875q0.390625 0.5 0.390625 1.265625q0 1.03125 -0.765625 1.75q-0.75 0.71875 -1.890625 0.71875q-1.046875 0 -1.734375 -0.609375q-0.671875 -0.625 -0.765625 -1.609375zm6.457733 -2.53125l0 -1.09375l1.09375 0l0 1.09375l-1.09375 0zm0 4.609375l0 -1.09375l1.09375 0l0 1.09375l-1.09375 0zm2.4137878 -3.890625q0 -1.390625 0.28125 -2.234375q0.296875 -0.85939026 0.859375 -1.3125153q0.578125 -0.46875 1.4375 -0.46875q0.625 0 1.09375 0.265625q0.484375 0.25 0.796875 0.73439026q0.3125 0.46875 0.484375 1.171875q0.1875 0.6875 0.1875 1.84375q0 1.390625 -0.296875 2.25q-0.28125 0.84375 -0.84375 1.3125q-0.5625 0.46875 -1.421875 0.46875q-1.140625 0 -1.796875 -0.828125q-0.78125 -0.984375 -0.78125 -3.203125zm1.0 0q0 1.953125 0.453125 2.59375q0.453125 0.640625 1.125 0.640625q0.65625 0 1.109375 -0.640625q0.453125 -0.65625 0.453125 -2.59375q0 -1.9375 -0.453125 -2.578125q-0.453125 -0.64064026 -1.125 -0.64064026q-0.671875 0 -1.0625 0.56251526q-0.5 0.71875 -0.5 2.65625zm8.567108 3.890625l-0.96875 0l0 -6.15625q-0.34375 0.328125 -0.90625 0.671875q-0.5625 0.328125 -1.015625 0.484375l0 -0.9375q0.8125 -0.375 1.40625 -0.90625q0.609375 -0.54689026 0.859375 -1.0625153l0.625 0l0 7.9062653z" fill-rule="nonzero"></path><path fill="#000000" fill-opacity="0.0" d="m548.73096 227.74278l48.0 0l0 47.999985l-48.0 0z" fill-rule="nonzero"></path><path fill="#000000" d="m575.61847 242.51154l-1.71875 0.1875q-0.0625 -0.53125 -0.34375 -0.78125q-0.265625 -0.25 -0.6875 -0.25q-0.5625 0 -0.953125 0.515625q-0.390625 0.5 -0.484375 2.109375q0.65625 -0.796875 1.65625 -0.796875q1.109375 0 1.90625 0.859375q0.796875 0.84375 0.796875 2.1875q0 1.4375 -0.84375 2.296875q-0.828125 0.859375 -2.140625 0.859375q-1.40625 0 -2.328125 -1.09375q-0.90625 -1.09375 -0.90625 -3.59375q0 -2.546875 0.9375 -3.671875q0.953125 -1.140625 2.46875 -1.140625q1.0625 0 1.75 0.59375q0.703125 0.59375 0.890625 1.71875zm-4.046875 3.890625q0 0.875 0.40625 1.34375q0.40625 0.46875 0.90625 0.46875q0.5 0 0.828125 -0.375q0.328125 -0.390625 0.328125 -1.28125q0 -0.90625 -0.359375 -1.328125q-0.34375 -0.421875 -0.875 -0.421875q-0.515625 0 -0.875 0.40625q-0.359375 0.40625 -0.359375 1.1875z" fill-rule="nonzero"></path><path fill="#000000" d="m563.4914 262.9828l-0.96875 0l0 -6.15625q-0.34375 0.328125 -0.90625 0.671875q-0.5625 0.328125 -1.015625 0.484375l0 -0.9375q0.8125 -0.375 1.40625 -0.90625q0.609375 -0.54689026 0.859375 -1.0625153l0.625 0l0 7.9062653zm2.3015137 -2.078125l0.953125 -0.125q0.171875 0.8125 0.5625 1.1875q0.40625 0.359375 0.984375 0.359375q0.6875 0 1.15625 -0.46875q0.46875 -0.484375 0.46875 -1.171875q0 -0.671875 -0.4375 -1.09375q-0.4375 -0.4375 -1.109375 -0.4375q-0.265625 0 -0.671875 0.09375l0.09375 -0.84375q0.109375 0.015625 0.15625 0.015625q0.625 0 1.109375 -0.3125q0.5 -0.328125 0.5 -1.0q0 -0.53125 -0.359375 -0.875q-0.359375 -0.35939026 -0.921875 -0.35939026q-0.5625 0 -0.9375 0.35939026q-0.375 0.34375 -0.484375 1.0625l-0.96875 -0.171875q0.171875 -0.984375 0.796875 -1.5156403q0.640625 -0.53125 1.5625 -0.53125q0.65625 0 1.1875 0.28125q0.546875 0.265625 0.828125 0.75001526q0.296875 0.484375 0.296875 1.015625q0 0.515625 -0.28125 0.9375q-0.265625 0.40625 -0.8125 0.65625q0.703125 0.15625 1.09375 0.671875q0.390625 0.5 0.390625 1.265625q0 1.03125 -0.765625 1.75q-0.75 0.71875 -1.890625 0.71875q-1.046875 0 -1.734375 -0.609375q-0.671875 -0.625 -0.765625 -1.609375zm6.4577637 -2.53125l0 -1.09375l1.09375 0l0 1.09375l-1.09375 0zm0 4.609375l0 -1.09375l1.09375 0l0 1.09375l-1.09375 0zm5.5231323 0l0 -1.890625l-3.421875 0l0 -0.875l3.59375 -5.1093903l0.78125 0l0 5.1093903l1.078125 0l0 0.875l-1.078125 0l0 1.890625l-0.953125 0zm0 -2.765625l0 -3.5625l-2.46875 3.5625l2.46875 0zm2.8171387 -1.125q0 -1.390625 0.28125 -2.234375q0.296875 -0.85939026 0.859375 -1.3125153q0.578125 -0.46875 1.4375 -0.46875q0.625 0 1.09375 0.265625q0.484375 0.25 0.796875 0.73439026q0.3125 0.46875 0.484375 1.171875q0.1875 0.6875 0.1875 1.84375q0 1.390625 -0.296875 2.25q-0.28125 0.84375 -0.84375 1.3125q-0.5625 0.46875 -1.421875 0.46875q-1.140625 0 -1.796875 -0.828125q-0.78125 -0.984375 -0.78125 -3.203125zm1.0 0q0 1.953125 0.453125 2.59375q0.453125 0.640625 1.125 0.640625q0.65625 0 1.109375 -0.640625q0.453125 -0.65625 0.453125 -2.59375q0 -1.9375 -0.453125 -2.578125q-0.453125 -0.64064026 -1.125 -0.64064026q-0.671875 0 -1.0625 0.56251526q-0.5 0.71875 -0.5 2.65625z" fill-rule="nonzero"></path><path fill="#000000" fill-opacity="0.0" d="m676.31104 227.73491l48.0 0l0 47.999985l-48.0 0z" fill-rule="nonzero"></path><path fill="#ffffff" d="m697.1517 242.01929l0 -1.65625l6.109375 0l0 1.28125q-0.765625 0.75 -1.546875 2.140625q-0.78125 1.390625 -1.1875 2.953125q-0.40625 1.5625 -0.40625 2.796875l-1.71875 0q0.046875 -1.9375 0.796875 -3.9375q0.765625 -2.0 2.015625 -3.578125l-4.0625 0z" fill-rule="nonzero"></path><path fill="#ffffff" d="m691.0715 262.9749l-0.96875 0l0 -6.15625q-0.34375 0.328125 -0.90625 0.671875q-0.5625 0.328125 -1.015625 0.484375l0 -0.9375q0.8125 -0.375 1.40625 -0.90625q0.609375 -0.54689026 0.859375 -1.0625153l0.625 0l0 7.9062653zm2.2858276 -2.0625l1.015625 -0.09375q0.109375 0.75 0.515625 1.125q0.421875 0.375 1.0 0.375q0.703125 0 1.1875 -0.53125q0.484375 -0.53125 0.484375 -1.390625q0 -0.828125 -0.46875 -1.296875q-0.46875 -0.484375 -1.21875 -0.484375q-0.46875 0 -0.84375 0.21875q-0.375 0.203125 -0.59375 0.53125l-0.90625 -0.109375l0.765625 -4.0468903l3.921875 0l0 0.92189026l-3.140625 0l-0.4375 2.109375q0.71875 -0.484375 1.5 -0.484375q1.03125 0 1.734375 0.71875q0.703125 0.703125 0.703125 1.828125q0 1.078125 -0.625 1.84375q-0.75 0.96875 -2.0625 0.96875q-1.078125 0 -1.765625 -0.59375q-0.671875 -0.609375 -0.765625 -1.609375zm6.4733887 -2.546875l0 -1.09375l1.09375 0l0 1.09375l-1.09375 0zm0 4.609375l0 -1.09375l1.09375 0l0 1.09375l-1.09375 0zm2.4137573 -2.0625l1.015625 -0.09375q0.109375 0.75 0.515625 1.125q0.421875 0.375 1.0 0.375q0.703125 0 1.1875 -0.53125q0.484375 -0.53125 0.484375 -1.390625q0 -0.828125 -0.46875 -1.296875q-0.46875 -0.484375 -1.21875 -0.484375q-0.46875 0 -0.84375 0.21875q-0.375 0.203125 -0.59375 0.53125l-0.90625 -0.109375l0.765625 -4.0468903l3.921875 0l0 0.92189026l-3.140625 0l-0.4375 2.109375q0.71875 -0.484375 1.5 -0.484375q1.03125 0 1.734375 0.71875q0.703125 0.703125 0.703125 1.828125q0 1.078125 -0.625 1.84375q-0.75 0.96875 -2.0625 0.96875q-1.078125 0 -1.765625 -0.59375q-0.671875 -0.609375 -0.765625 -1.609375zm5.9265137 -1.828125q0 -1.390625 0.28125 -2.234375q0.296875 -0.85939026 0.859375 -1.3125153q0.578125 -0.46875 1.4375 -0.46875q0.625 0 1.09375 0.265625q0.484375 0.25 0.796875 0.73439026q0.3125 0.46875 0.484375 1.171875q0.1875 0.6875 0.1875 1.84375q0 1.390625 -0.296875 2.25q-0.28125 0.84375 -0.84375 1.3125q-0.5625 0.46875 -1.421875 0.46875q-1.140625 0 -1.796875 -0.828125q-0.78125 -0.984375 -0.78125 -3.203125zm1.0 0q0 1.953125 0.453125 2.59375q0.453125 0.640625 1.125 0.640625q0.65625 0 1.109375 -0.640625q0.453125 -0.65625 0.453125 -2.59375q0 -1.9375 -0.453125 -2.578125q-0.453125 -0.64064026 -1.125 -0.64064026q-0.671875 0 -1.0625 0.56251526q-0.5 0.71875 -0.5 2.65625z" fill-rule="nonzero"></path><path fill="#efefef" d="m792.2925 251.73491l0 0c0 -11.58493 9.3914795 -20.97638 20.97638 -20.97638l0 0c5.5632935 0 10.898743 2.2100067 14.832581 6.1438446c3.9337769 3.9338226 6.143799 9.269257 6.143799 14.832535l0 0c0 11.584946 -9.391418 20.976364 -20.97638 20.976364l0 0c-11.5849 0 -20.97638 -9.391418 -20.97638 -20.976364z" fill-rule="nonzero"></path><path stroke="#595959" stroke-width="1.0" stroke-linejoin="round" stroke-linecap="butt" d="m792.2925 251.73491l0 0c0 -11.58493 9.3914795 -20.97638 20.97638 -20.97638l0 0c5.5632935 0 10.898743 2.2100067 14.832581 6.1438446c3.9337769 3.9338226 6.143799 9.269257 6.143799 14.832535l0 0c0 11.584946 -9.391418 20.976364 -20.97638 20.976364l0 0c-11.5849 0 -20.97638 -9.391418 -20.97638 -20.976364z" fill-rule="nonzero"></path><path fill="#000000" fill-opacity="0.0" d="m384.0 276.1063l48.0 0l0 48.0l-48.0 0z" fill-rule="nonzero"></path><path fill="#ffffff" d="m410.8719 296.25006l0 1.65625l-6.25 0q0.09375 -0.9375 0.59375 -1.78125q0.515625 -0.84375 2.015625 -2.234375q1.203125 -1.125 1.484375 -1.515625q0.359375 -0.5625 0.359375 -1.09375q0 -0.59375 -0.328125 -0.90625q-0.3125 -0.328125 -0.875 -0.328125q-0.5625 0 -0.890625 0.34375q-0.328125 0.328125 -0.375 1.109375l-1.78125 -0.1875q0.15625 -1.46875 1.0 -2.109375q0.84375 -0.640625 2.09375 -0.640625q1.375 0 2.15625 0.75q0.796875 0.734375 0.796875 1.84375q0 0.625 -0.234375 1.203125q-0.21875 0.5625 -0.703125 1.171875q-0.328125 0.421875 -1.171875 1.203125q-0.84375 0.765625 -1.078125 1.03125q-0.21875 0.25 -0.359375 0.484375l3.546875 0z" fill-rule="nonzero"></path><path fill="#ffffff" d="m396.65942 313.65878q-0.8125 -1.0 -1.359375 -2.359375q-0.546875 -1.359375 -0.546875 -2.8125q0 -1.265625 0.40625 -2.4375q0.484375 -1.359375 1.5 -2.71875l0.6875 0q-0.65625 1.125 -0.859375 1.609375q-0.328125 0.734375 -0.515625 1.546875q-0.234375 1.0 -0.234375 2.015625q0 2.578125 1.609375 5.15625l-0.6875 0zm6.43927 -8.265625l-0.953125 0.078125q-0.125 -0.5625 -0.375 -0.828125q-0.390625 -0.40625 -0.953125 -0.40625q-0.46875 0 -0.8125 0.25q-0.46875 0.34375 -0.734375 0.984375q-0.25 0.625 -0.265625 1.8125q0.34375 -0.53125 0.84375 -0.78125q0.515625 -0.265625 1.0625 -0.265625q0.96875 0 1.640625 0.71875q0.6875 0.703125 0.6875 1.828125q0 0.75 -0.328125 1.390625q-0.3125 0.625 -0.875 0.96875q-0.546875 0.34375 -1.265625 0.34375q-1.203125 0 -1.96875 -0.890625q-0.765625 -0.890625 -0.765625 -2.9375q0 -2.28125 0.84375 -3.3125q0.75 -0.90625 1.984375 -0.90625q0.9375 0 1.53125 0.53125q0.59375 0.515625 0.703125 1.421875zm-3.9375 3.40625q0 0.5 0.203125 0.953125q0.21875 0.453125 0.59375 0.703125q0.390625 0.234375 0.796875 0.234375q0.625 0 1.0625 -0.5q0.4375 -0.5 0.4375 -1.34375q0 -0.8125 -0.4375 -1.28125q-0.4375 -0.46875 -1.09375 -0.46875q-0.65625 0 -1.109375 0.46875q-0.453125 0.46875 -0.453125 1.234375zm5.395233 -2.0625l0 -1.09375l1.09375 0l0 1.09375l-1.09375 0zm0 4.609375l0 -1.09375l1.09375 0l0 1.09375l-1.09375 0zm6.054413 0l-0.96875 0l0 -6.15625q-0.34375 0.328125 -0.90625 0.671875q-0.5625 0.328125 -1.015625 0.484375l0 -0.9375q0.8125 -0.375 1.40625 -0.90625q0.609375 -0.546875 0.859375 -1.0625l0.625 0l0 7.90625zm2.3483582 -6.84375l0 -0.921875l5.109375 0l0 0.75q-0.765625 0.796875 -1.5 2.125q-0.734375 1.328125 -1.140625 2.71875q-0.28125 1.0 -0.375 2.171875l-0.984375 0q0.015625 -0.921875 0.359375 -2.234375q0.359375 -1.328125 1.0 -2.546875q0.65625 -1.21875 1.390625 -2.0625l-3.859375 0zm6.770233 9.15625l-0.6875 0q1.59375 -2.578125 1.59375 -5.15625q0 -1.015625 -0.21875 -2.0q-0.1875 -0.8125 -0.515625 -1.546875q-0.203125 -0.484375 -0.859375 -1.625l0.6875 0q1.015625 1.359375 1.5 2.71875q0.40625 1.171875 0.40625 2.4375q0 1.453125 -0.5625 2.8125q-0.546875 1.359375 -1.34375 2.359375z" fill-rule="nonzero"></path><path fill="#000000" fill-opacity="0.0" d="m789.2664 227.73491l48.0 0l0 47.999985l-48.0 0z" fill-rule="nonzero"></path><path fill="#000000" d="m811.6383 244.51929q-0.6875 -0.296875 -1.0 -0.796875q-0.3125 -0.515625 -0.3125 -1.125q0 -1.046875 0.71875 -1.71875q0.734375 -0.6875 2.078125 -0.6875q1.3125 0 2.046875 0.6875q0.734375 0.671875 0.734375 1.71875q0 0.640625 -0.34375 1.15625q-0.328125 0.5 -0.9375 0.765625q0.78125 0.3125 1.171875 0.90625q0.40625 0.59375 0.40625 1.375q0 1.28125 -0.828125 2.09375q-0.8125 0.8125 -2.171875 0.8125q-1.265625 0 -2.109375 -0.671875q-1.0 -0.78125 -1.0 -2.15625q0 -0.765625 0.375 -1.390625q0.375 -0.625 1.171875 -0.96875zm0.375 -1.796875q0 0.53125 0.296875 0.828125q0.296875 0.296875 0.8125 0.296875q0.5 0 0.796875 -0.296875q0.3125 -0.3125 0.3125 -0.84375q0 -0.5 -0.3125 -0.796875q-0.296875 -0.296875 -0.78125 -0.296875q-0.515625 0 -0.828125 0.3125q-0.296875 0.296875 -0.296875 0.796875zm-0.171875 3.984375q0 0.734375 0.375 1.15625q0.390625 0.40625 0.953125 0.40625q0.546875 0 0.90625 -0.390625q0.359375 -0.40625 0.359375 -1.15625q0 -0.65625 -0.375 -1.046875q-0.359375 -0.40625 -0.921875 -0.40625q-0.65625 0 -0.984375 0.453125q-0.3125 0.453125 -0.3125 0.984375z" fill-rule="nonzero"></path><path fill="#000000" d="m804.02686 262.9749l-0.96875 0l0 -6.15625q-0.34375 0.328125 -0.90625 0.671875q-0.5625 0.328125 -1.015625 0.484375l0 -0.9375q0.8125 -0.375 1.40625 -0.90625q0.609375 -0.54689026 0.859375 -1.0625153l0.625 0l0 7.9062653zm3.7702026 -4.265625q-0.59375 -0.21875 -0.890625 -0.625q-0.28125 -0.421875 -0.28125 -0.984375q0 -0.859375 0.609375 -1.4375153q0.625 -0.59375 1.65625 -0.59375q1.03125 0 1.65625 0.609375q0.625 0.59376526 0.625 1.4531403q0 0.546875 -0.296875 0.953125q-0.28125 0.40625 -0.859375 0.625q0.71875 0.234375 1.09375 0.765625q0.390625 0.515625 0.390625 1.25q0 1.015625 -0.71875 1.703125q-0.71875 0.6875 -1.875 0.6875q-1.171875 0 -1.890625 -0.6875q-0.703125 -0.703125 -0.703125 -1.734375q0 -0.765625 0.375 -1.28125q0.390625 -0.515625 1.109375 -0.703125zm-0.1875 -1.640625q0 0.5625 0.359375 0.921875q0.359375 0.34375 0.9375 0.34375q0.5625 0 0.90625 -0.34375q0.359375 -0.359375 0.359375 -0.875q0 -0.53125 -0.375 -0.890625q-0.359375 -0.35939026 -0.90625 -0.35939026q-0.546875 0 -0.921875 0.35939026q-0.359375 0.34375 -0.359375 0.84375zm-0.3125 3.640625q0 0.40625 0.1875 0.796875q0.203125 0.390625 0.59375 0.609375q0.390625 0.203125 0.828125 0.203125q0.703125 0 1.140625 -0.4375q0.453125 -0.453125 0.453125 -1.140625q0 -0.703125 -0.46875 -1.15625q-0.453125 -0.453125 -1.15625 -0.453125q-0.671875 0 -1.125 0.453125q-0.453125 0.4375 -0.453125 1.125zm5.4890137 -2.34375l0 -1.09375l1.09375 0l0 1.09375l-1.09375 0zm0 4.609375l0 -1.09375l1.09375 0l0 1.09375l-1.09375 0zm7.4918823 -0.921875l0 0.921875l-5.203125 0q0 -0.34375 0.125 -0.671875q0.1875 -0.53125 0.625 -1.046875q0.4375 -0.515625 1.265625 -1.1875q1.28125 -1.0625 1.734375 -1.671875q0.453125 -0.609375 0.453125 -1.15625q0 -0.578125 -0.40625 -0.96875q-0.40625 -0.40626526 -1.078125 -0.40626526q-0.6875 0 -1.109375 0.42189026q-0.421875 0.421875 -0.421875 1.15625l-1.0 -0.09375q0.109375 -1.109375 0.765625 -1.6875153q0.671875 -0.59375 1.796875 -0.59375q1.125 0 1.78125 0.625q0.671875 0.62501526 0.671875 1.5625153q0 0.46875 -0.203125 0.9375q-0.1875 0.453125 -0.640625 0.953125q-0.4375 0.5 -1.484375 1.390625q-0.875 0.71875 -1.125 0.984375q-0.234375 0.265625 -0.40625 0.53125l3.859375 0zm0.8483887 -2.96875q0 -1.390625 0.28125 -2.234375q0.296875 -0.85939026 0.859375 -1.3125153q0.578125 -0.46875 1.4375 -0.46875q0.625 0 1.09375 0.265625q0.484375 0.25 0.796875 0.73439026q0.3125 0.46875 0.484375 1.171875q0.1875 0.6875 0.1875 1.84375q0 1.390625 -0.296875 2.25q-0.28125 0.84375 -0.84375 1.3125q-0.5625 0.46875 -1.421875 0.46875q-1.140625 0 -1.796875 -0.828125q-0.78125 -0.984375 -0.78125 -3.203125zm1.0 0q0 1.953125 0.453125 2.59375q0.453125 0.640625 1.125 0.640625q0.65625 0 1.109375 -0.640625q0.453125 -0.65625 0.453125 -2.59375q0 -1.9375 -0.453125 -2.578125q-0.453125 -0.64064026 -1.125 -0.64064026q-0.671875 0 -1.0625 0.56251526q-0.5 0.71875 -0.5 2.65625z" fill-rule="nonzero"></path><path fill="#000000" fill-opacity="0.0" d="m368.6483 174.65092l0 121.32283" fill-rule="nonzero"></path><path stroke="#595959" stroke-width="2.0" stroke-linejoin="round" stroke-linecap="butt" stroke-dasharray="8.0,6.0" d="m368.6483 174.65092l0 121.32283" fill-rule="nonzero"></path><path fill="#000000" fill-opacity="0.0" d="m97.5538 227.3622l0 0c0 -8.158157 6.856674 -14.771652 15.314812 -14.771652l231.00818 0l0 0c8.45813 0 15.314789 6.613495 15.314789 14.771652z" fill-rule="nonzero"></path><path fill="#000000" fill-opacity="0.0" d="m97.5538 227.3622l0 0c0 -8.158157 6.856674 -14.771652 15.314812 -14.771652l231.00818 0l0 0c8.45813 0 15.314789 6.613495 15.314789 14.771652" fill-rule="nonzero"></path><path stroke="#595959" stroke-width="3.0" stroke-linejoin="round" stroke-linecap="butt" d="m97.5538 227.3622l0 0c0 -8.158157 6.856674 -14.771652 15.314812 -14.771652l231.00818 0l0 0c8.45813 0 15.314789 6.613495 15.314789 14.771652" fill-rule="nonzero"></path><path fill="#000000" fill-opacity="0.0" d="m146.88977 178.70604l197.07086 0l0 33.51181l-197.07086 0z" fill-rule="nonzero"></path><path fill="#000000" d="m187.45255 202.34729l2.046875 0q0.328125 0 0.546875 -0.03125q0.234375 -0.046875 0.390625 -0.125q0.171875 -0.09375 0.296875 -0.234375q0.125 -0.140625 0.234375 -0.375q0.125 -0.234375 0.234375 -0.59375q0.109375 -0.359375 0.265625 -1.0625l0.78125 0l-0.15625 3.140625l-7.015625 0l0 -0.390625q0.484375 -0.125 0.640625 -0.265625q0.171875 -0.15625 0.21875 -0.4375q0.046875 -0.28125 0.046875 -0.859375l0 -6.765625q0 -0.53125 -0.046875 -0.78125q-0.03125 -0.25 -0.125 -0.375q-0.078125 -0.140625 -0.234375 -0.21875q-0.140625 -0.09375 -0.5 -0.1875l0 -0.390625l3.28125 0l0 0.390625q-0.34375 0.09375 -0.484375 0.171875q-0.140625 0.0625 -0.234375 0.1875q-0.09375 0.125 -0.140625 0.390625q-0.046875 0.25 -0.046875 0.8125l0 8.0zm12.2578125 -0.609375q-0.5 0.515625 -0.921875 0.8125q-0.40625 0.296875 -0.90625 0.46875q-0.5 0.171875 -1.109375 0.171875q-1.609375 0 -2.4375 -0.96875q-0.8125 -0.96875 -0.8125 -2.84375q0 -1.171875 0.421875 -2.0625q0.421875 -0.890625 1.1875 -1.375q0.78125 -0.484375 1.78125 -0.484375q0.796875 0 1.34375 0.25q0.5625 0.25 0.890625 0.6875q0.328125 0.4375 0.515625 1.09375q0.1875 0.65625 0.203125 1.71875l-4.921875 0l0 0.140625q0 0.921875 0.203125 1.5625q0.21875 0.625 0.6875 0.984375q0.46875 0.34375 1.234375 0.34375q0.640625 0 1.140625 -0.234375q0.515625 -0.234375 1.03125 -0.78125l0.46875 0.515625zm-1.3125 -3.171875q-0.046875 -0.84375 -0.21875 -1.375q-0.15625 -0.546875 -0.484375 -0.828125q-0.328125 -0.28125 -0.859375 -0.28125q-0.796875 0 -1.28125 0.640625q-0.484375 0.640625 -0.5625 1.84375l3.40625 0zm7.3984375 3.375l-0.125 -0.03125q-0.671875 0.703125 -1.28125 1.0q-0.59375 0.28125 -1.265625 0.28125q-0.59375 0 -1.046875 -0.234375q-0.453125 -0.234375 -0.703125 -0.640625q-0.234375 -0.421875 -0.234375 -0.96875q0 -1.140625 1.125 -1.765625q1.140625 -0.625 3.390625 -0.71875l0 -0.515625q0 -0.8125 -0.15625 -1.28125q-0.15625 -0.46875 -0.5 -0.6875q-0.328125 -0.21875 -0.890625 -0.21875q-0.609375 0 -0.984375 0.328125q-0.359375 0.3125 -0.546875 0.953125l-1.03125 0l0 -1.015625q0.75 -0.390625 1.25 -0.5625q0.5 -0.1875 1.0 -0.296875q0.5 -0.109375 1.015625 -0.109375q0.78125 0 1.25 0.25q0.46875 0.25 0.703125 0.765625q0.234375 0.5 0.234375 1.515625l0 2.71875q0 0.578125 0 0.828125q0.015625 0.234375 0.046875 0.4375q0.046875 0.203125 0.125 0.328125q0.078125 0.109375 0.21875 0.203125q0.15625 0.078125 0.5 0.171875l0 0.390625l-2.140625 0l0.046875 -1.125zm-0.140625 -2.4375q-1.578125 0.015625 -2.375 0.421875q-0.78125 0.40625 -0.78125 1.21875q0 0.453125 0.171875 0.71875q0.1875 0.25 0.453125 0.34375q0.28125 0.09375 0.65625 0.09375q0.53125 0 0.953125 -0.25q0.4375 -0.265625 0.671875 -0.65625q0.25 -0.40625 0.25 -0.796875l0 -1.09375zm5.546875 -2.609375l0.109375 0.015625q0.421875 -0.515625 0.78125 -0.8125q0.375 -0.3125 0.796875 -0.46875q0.4375 -0.171875 0.96875 -0.171875q0.453125 0 0.828125 0.046875l0 1.796875l-0.890625 0q-0.1875 -0.421875 -0.40625 -0.609375q-0.203125 -0.1875 -0.5625 -0.1875q-0.28125 0 -0.5625 0.171875q-0.28125 0.15625 -0.546875 0.46875q-0.25 0.3125 -0.34375 0.59375q-0.09375 0.265625 -0.09375 0.640625l0 2.734375q0 0.703125 0.078125 0.984375q0.09375 0.265625 0.28125 0.390625q0.203125 0.125 0.609375 0.1875l0 0.390625l-3.15625 0l0 -0.390625q0.296875 -0.09375 0.421875 -0.15625q0.140625 -0.078125 0.234375 -0.203125q0.09375 -0.125 0.140625 -0.375q0.046875 -0.265625 0.046875 -0.8125l0 -3.40625q0 -0.5 -0.015625 -0.796875q-0.015625 -0.3125 -0.109375 -0.484375q-0.09375 -0.1875 -0.296875 -0.28125q-0.1875 -0.09375 -0.53125 -0.15625l0 -0.40625l1.828125 -0.078125l0.46875 0l-0.078125 1.375zm12.1171875 6.171875l-3.078125 0l0 -0.390625q0.296875 -0.09375 0.421875 -0.15625q0.140625 -0.078125 0.234375 -0.203125q0.09375 -0.125 0.140625 -0.375q0.046875 -0.265625 0.046875 -0.796875l0 -2.046875q0 -0.546875 -0.03125 -0.984375q-0.03125 -0.453125 -0.109375 -0.734375q-0.0625 -0.296875 -0.171875 -0.453125q-0.109375 -0.15625 -0.25 -0.265625q-0.140625 -0.125 -0.328125 -0.1875q-0.1875 -0.0625 -0.5 -0.0625q-0.296875 0 -0.578125 0.125q-0.265625 0.109375 -0.59375 0.40625q-0.328125 0.296875 -0.484375 0.59375q-0.140625 0.28125 -0.140625 0.65625l0 2.921875q0 0.671875 0.0625 0.9375q0.0625 0.25 0.234375 0.390625q0.171875 0.140625 0.578125 0.234375l0 0.390625l-3.0625 0l0 -0.390625q0.296875 -0.09375 0.421875 -0.15625q0.140625 -0.078125 0.21875 -0.203125q0.09375 -0.125 0.140625 -0.375q0.0625 -0.265625 0.0625 -0.8125l0 -3.40625q0 -0.5 -0.015625 -0.796875q-0.015625 -0.3125 -0.109375 -0.484375q-0.09375 -0.1875 -0.296875 -0.28125q-0.1875 -0.09375 -0.53125 -0.15625l0 -0.40625l1.828125 -0.078125l0.46875 0l-0.078125 1.28125l0.109375 0.03125q0.578125 -0.59375 0.921875 -0.84375q0.359375 -0.25 0.71875 -0.375q0.375 -0.140625 0.78125 -0.140625q0.421875 0 0.75 0.09375q0.328125 0.09375 0.578125 0.296875q0.265625 0.203125 0.421875 0.515625q0.171875 0.296875 0.25 0.71875q0.078125 0.421875 0.078125 1.0625l0 2.953125q0 0.53125 0.03125 0.78125q0.03125 0.234375 0.109375 0.375q0.078125 0.125 0.21875 0.21875q0.15625 0.09375 0.53125 0.1875l0 0.390625zm3.5546875 -10.53125l0 1.515625l-1.4375 0l0 -1.515625l1.4375 0zm-2.234375 10.140625q0.296875 -0.09375 0.421875 -0.15625q0.140625 -0.078125 0.21875 -0.203125q0.09375 -0.125 0.140625 -0.375q0.0625 -0.265625 0.0625 -0.8125l0 -3.40625q0 -0.5 -0.015625 -0.796875q-0.015625 -0.3125 -0.109375 -0.484375q-0.09375 -0.1875 -0.296875 -0.28125q-0.1875 -0.09375 -0.53125 -0.15625l0 -0.40625l1.8125 -0.078125l0.484375 0l0 5.59375q0 0.671875 0.0625 0.9375q0.0625 0.25 0.234375 0.390625q0.171875 0.140625 0.578125 0.234375l0 0.390625l-3.0625 0l0 -0.390625zm12.0546875 0.390625l-3.078125 0l0 -0.390625q0.296875 -0.09375 0.421875 -0.15625q0.140625 -0.078125 0.234375 -0.203125q0.09375 -0.125 0.140625 -0.375q0.046875 -0.265625 0.046875 -0.796875l0 -2.046875q0 -0.546875 -0.03125 -0.984375q-0.03125 -0.453125 -0.109375 -0.734375q-0.0625 -0.296875 -0.171875 -0.453125q-0.109375 -0.15625 -0.25 -0.265625q-0.140625 -0.125 -0.328125 -0.1875q-0.1875 -0.0625 -0.5 -0.0625q-0.296875 0 -0.578125 0.125q-0.265625 0.109375 -0.59375 0.40625q-0.328125 0.296875 -0.484375 0.59375q-0.140625 0.28125 -0.140625 0.65625l0 2.921875q0 0.671875 0.0625 0.9375q0.0625 0.25 0.234375 0.390625q0.171875 0.140625 0.578125 0.234375l0 0.390625l-3.0625 0l0 -0.390625q0.296875 -0.09375 0.421875 -0.15625q0.140625 -0.078125 0.21875 -0.203125q0.09375 -0.125 0.140625 -0.375q0.0625 -0.265625 0.0625 -0.8125l0 -3.40625q0 -0.5 -0.015625 -0.796875q-0.015625 -0.3125 -0.109375 -0.484375q-0.09375 -0.1875 -0.296875 -0.28125q-0.1875 -0.09375 -0.53125 -0.15625l0 -0.40625l1.828125 -0.078125l0.46875 0l-0.078125 1.28125l0.109375 0.03125q0.578125 -0.59375 0.921875 -0.84375q0.359375 -0.25 0.71875 -0.375q0.375 -0.140625 0.78125 -0.140625q0.421875 0 0.75 0.09375q0.328125 0.09375 0.578125 0.296875q0.265625 0.203125 0.421875 0.515625q0.171875 0.296875 0.25 0.71875q0.078125 0.421875 0.078125 1.0625l0 2.953125q0 0.53125 0.03125 0.78125q0.03125 0.234375 0.109375 0.375q0.078125 0.125 0.21875 0.21875q0.15625 0.09375 0.53125 0.1875l0 0.390625zm8.3203125 -6.6875l-1.4375 -0.046875l-0.078125 0.078125q0.25 0.25 0.390625 0.671875q0.140625 0.40625 0.140625 0.890625q0 1.28125 -0.796875 1.96875q-0.78125 0.6875 -2.21875 0.6875q-0.65625 0 -1.125 -0.15625q-0.59375 0.453125 -0.59375 0.890625q0 0.28125 0.109375 0.4375q0.125 0.140625 0.375 0.203125q0.265625 0.0625 0.796875 0.0625l1.875 0q0.828125 0 1.34375 0.265625q0.53125 0.25 0.75 0.6875q0.234375 0.4375 0.234375 1.015625q0 0.734375 -0.421875 1.3125q-0.421875 0.578125 -1.21875 0.890625q-0.796875 0.328125 -1.859375 0.328125q-0.796875 0 -1.453125 -0.09375q-0.640625 -0.09375 -1.109375 -0.328125q-0.46875 -0.21875 -0.71875 -0.578125q-0.25 -0.359375 -0.25 -0.90625q0 -0.5 0.328125 -0.90625q0.328125 -0.390625 0.921875 -0.703125q-0.359375 -0.15625 -0.578125 -0.4375q-0.203125 -0.296875 -0.203125 -0.6875q0 -0.4375 0.25 -0.8125q0.25 -0.375 0.875 -0.84375q-0.5625 -0.328125 -0.859375 -0.890625q-0.28125 -0.5625 -0.28125 -1.28125q0 -0.671875 0.21875 -1.171875q0.21875 -0.5 0.609375 -0.8125q0.40625 -0.328125 0.9375 -0.484375q0.546875 -0.171875 1.171875 -0.171875q0.5625 0 1.109375 0.140625l2.765625 0l0 0.78125zm-5.421875 1.59375q0 0.96875 0.390625 1.5q0.40625 0.53125 1.15625 0.53125q0.40625 0 0.6875 -0.140625q0.28125 -0.15625 0.453125 -0.421875q0.171875 -0.265625 0.25 -0.609375q0.09375 -0.359375 0.09375 -0.734375q0 -0.6875 -0.203125 -1.140625q-0.1875 -0.46875 -0.53125 -0.6875q-0.328125 -0.21875 -0.765625 -0.21875q-0.75 0 -1.140625 0.5q-0.390625 0.484375 -0.390625 1.421875zm0.203125 5.21875q-0.40625 0.296875 -0.609375 0.625q-0.1875 0.34375 -0.1875 0.765625q0 0.703125 0.546875 1.03125q0.5625 0.328125 1.71875 0.328125q0.703125 0 1.203125 -0.1875q0.5 -0.1875 0.765625 -0.546875q0.265625 -0.34375 0.265625 -0.8125q0 -0.21875 -0.0625 -0.421875q-0.046875 -0.203125 -0.203125 -0.375q-0.140625 -0.15625 -0.421875 -0.265625q-0.28125 -0.09375 -0.734375 -0.09375l-1.171875 0q-0.625 0 -1.109375 -0.046875zm14.8828125 -5.890625l-0.75 0q-0.171875 -0.46875 -0.40625 -0.734375q-0.234375 -0.265625 -0.53125 -0.375q-0.296875 -0.109375 -0.734375 -0.109375q-0.625 0 -1.0 0.296875q-0.359375 0.28125 -0.359375 0.796875q0 0.359375 0.140625 0.59375q0.15625 0.234375 0.46875 0.4375q0.3125 0.203125 1.09375 0.53125q0.796875 0.34375 1.234375 0.640625q0.4375 0.28125 0.671875 0.671875q0.25 0.375 0.25 0.90625q0 0.625 -0.21875 1.046875q-0.203125 0.421875 -0.59375 0.6875q-0.375 0.265625 -0.90625 0.375q-0.515625 0.125 -1.140625 0.125q-0.65625 0 -1.28125 -0.109375q-0.609375 -0.09375 -1.203125 -0.25l0 -1.625l0.765625 0q0.21875 0.71875 0.625 1.046875q0.421875 0.3125 1.140625 0.3125q0.28125 0 0.546875 -0.046875q0.28125 -0.0625 0.484375 -0.203125q0.21875 -0.140625 0.34375 -0.375q0.125 -0.234375 0.125 -0.578125q0 -0.40625 -0.15625 -0.65625q-0.15625 -0.25 -0.484375 -0.453125q-0.328125 -0.203125 -1.15625 -0.5625q-0.71875 -0.296875 -1.15625 -0.578125q-0.421875 -0.28125 -0.671875 -0.65625q-0.234375 -0.390625 -0.234375 -0.90625q0 -0.640625 0.34375 -1.109375q0.34375 -0.484375 1.0 -0.734375q0.65625 -0.25 1.546875 -0.25q0.515625 0 0.984375 0.0625q0.484375 0.046875 1.21875 0.1875l0 1.59375zm7.875 4.4375q-0.5 0.515625 -0.921875 0.8125q-0.40625 0.296875 -0.90625 0.46875q-0.5 0.171875 -1.109375 0.171875q-1.609375 0 -2.4375 -0.96875q-0.8125 -0.96875 -0.8125 -2.84375q0 -1.171875 0.421875 -2.0625q0.421875 -0.890625 1.1875 -1.375q0.78125 -0.484375 1.78125 -0.484375q0.796875 0 1.34375 0.25q0.5625 0.25 0.890625 0.6875q0.328125 0.4375 0.515625 1.09375q0.1875 0.65625 0.203125 1.71875l-4.921875 0l0 0.140625q0 0.921875 0.203125 1.5625q0.21875 0.625 0.6875 0.984375q0.46875 0.34375 1.234375 0.34375q0.640625 0 1.140625 -0.234375q0.515625 -0.234375 1.03125 -0.78125l0.46875 0.515625zm-1.3125 -3.171875q-0.046875 -0.84375 -0.21875 -1.375q-0.15625 -0.546875 -0.484375 -0.828125q-0.328125 -0.28125 -0.859375 -0.28125q-0.796875 0 -1.28125 0.640625q-0.484375 0.640625 -0.5625 1.84375l3.40625 0zm9.8828125 -2.1875l-1.4375 -0.046875l-0.078125 0.078125q0.25 0.25 0.390625 0.671875q0.140625 0.40625 0.140625 0.890625q0 1.28125 -0.796875 1.96875q-0.78125 0.6875 -2.21875 0.6875q-0.65625 0 -1.125 -0.15625q-0.59375 0.453125 -0.59375 0.890625q0 0.28125 0.109375 0.4375q0.125 0.140625 0.375 0.203125q0.265625 0.0625 0.796875 0.0625l1.875 0q0.828125 0 1.34375 0.265625q0.53125 0.25 0.75 0.6875q0.234375 0.4375 0.234375 1.015625q0 0.734375 -0.421875 1.3125q-0.421875 0.578125 -1.21875 0.890625q-0.796875 0.328125 -1.859375 0.328125q-0.796875 0 -1.453125 -0.09375q-0.640625 -0.09375 -1.109375 -0.328125q-0.46875 -0.21875 -0.71875 -0.578125q-0.25 -0.359375 -0.25 -0.90625q0 -0.5 0.328125 -0.90625q0.328125 -0.390625 0.921875 -0.703125q-0.359375 -0.15625 -0.578125 -0.4375q-0.203125 -0.296875 -0.203125 -0.6875q0 -0.4375 0.25 -0.8125q0.25 -0.375 0.875 -0.84375q-0.5625 -0.328125 -0.859375 -0.890625q-0.28125 -0.5625 -0.28125 -1.28125q0 -0.671875 0.21875 -1.171875q0.21875 -0.5 0.609375 -0.8125q0.40625 -0.328125 0.9375 -0.484375q0.546875 -0.171875 1.171875 -0.171875q0.5625 0 1.109375 0.140625l2.765625 0l0 0.78125zm-5.421875 1.59375q0 0.96875 0.390625 1.5q0.40625 0.53125 1.15625 0.53125q0.40625 0 0.6875 -0.140625q0.28125 -0.15625 0.453125 -0.421875q0.171875 -0.265625 0.25 -0.609375q0.09375 -0.359375 0.09375 -0.734375q0 -0.6875 -0.203125 -1.140625q-0.1875 -0.46875 -0.53125 -0.6875q-0.328125 -0.21875 -0.765625 -0.21875q-0.75 0 -1.140625 0.5q-0.390625 0.484375 -0.390625 1.421875zm0.203125 5.21875q-0.40625 0.296875 -0.609375 0.625q-0.1875 0.34375 -0.1875 0.765625q0 0.703125 0.546875 1.03125q0.5625 0.328125 1.71875 0.328125q0.703125 0 1.203125 -0.1875q0.5 -0.1875 0.765625 -0.546875q0.265625 -0.34375 0.265625 -0.8125q0 -0.21875 -0.0625 -0.421875q-0.046875 -0.203125 -0.203125 -0.375q-0.140625 -0.15625 -0.421875 -0.265625q-0.28125 -0.09375 -0.734375 -0.09375l-1.171875 0q-0.625 0 -1.109375 -0.046875zm8.234375 -6.390625l0.109375 0.03125q0.46875 -0.46875 0.765625 -0.703125q0.296875 -0.25 0.578125 -0.390625q0.28125 -0.140625 0.53125 -0.203125q0.25 -0.0625 0.5 -0.0625q0.78125 0 1.265625 0.359375q0.5 0.359375 0.6875 1.09375q0.59375 -0.59375 0.953125 -0.875q0.359375 -0.28125 0.734375 -0.421875q0.390625 -0.15625 0.828125 -0.15625q0.515625 0 0.890625 0.15625q0.390625 0.140625 0.640625 0.46875q0.265625 0.3125 0.390625 0.796875q0.125 0.46875 0.125 1.265625l0 2.953125q0 0.59375 0.03125 0.828125q0.046875 0.21875 0.109375 0.34375q0.078125 0.125 0.21875 0.21875q0.15625 0.078125 0.515625 0.171875l0 0.390625l-3.078125 0l0 -0.390625q0.3125 -0.09375 0.4375 -0.15625q0.140625 -0.078125 0.21875 -0.203125q0.09375 -0.125 0.140625 -0.375q0.0625 -0.265625 0.0625 -0.796875l0 -2.046875q0 -0.671875 -0.046875 -1.09375q-0.03125 -0.4375 -0.109375 -0.6875q-0.0625 -0.265625 -0.171875 -0.40625q-0.109375 -0.15625 -0.25 -0.265625q-0.125 -0.109375 -0.3125 -0.171875q-0.171875 -0.0625 -0.46875 -0.0625q-0.3125 0 -0.578125 0.125q-0.265625 0.125 -0.59375 0.421875q-0.3125 0.296875 -0.453125 0.59375q-0.140625 0.296875 -0.140625 0.703125l0 2.859375q0 0.59375 0.03125 0.828125q0.046875 0.21875 0.125 0.34375q0.078125 0.125 0.21875 0.21875q0.15625 0.078125 0.5 0.171875l0 0.390625l-3.0625 0l0 -0.390625q0.296875 -0.09375 0.421875 -0.15625q0.140625 -0.078125 0.234375 -0.203125q0.09375 -0.125 0.140625 -0.375q0.046875 -0.265625 0.046875 -0.796875l0 -2.046875q0 -0.703125 -0.046875 -1.140625q-0.03125 -0.4375 -0.109375 -0.703125q-0.078125 -0.265625 -0.21875 -0.421875q-0.125 -0.171875 -0.265625 -0.25q-0.125 -0.09375 -0.3125 -0.125q-0.171875 -0.046875 -0.390625 -0.046875q-0.328125 0 -0.609375 0.140625q-0.28125 0.140625 -0.578125 0.421875q-0.28125 0.265625 -0.4375 0.5625q-0.140625 0.296875 -0.140625 0.640625l0 2.9375q0 0.4375 0.015625 0.671875q0.03125 0.234375 0.078125 0.375q0.046875 0.125 0.125 0.21875q0.078125 0.078125 0.21875 0.15625q0.15625 0.0625 0.4375 0.140625l0 0.390625l-3.0625 0l0 -0.390625q0.296875 -0.09375 0.421875 -0.15625q0.140625 -0.078125 0.234375 -0.203125q0.09375 -0.125 0.140625 -0.375q0.046875 -0.265625 0.046875 -0.8125l0 -3.40625q0 -0.5 -0.015625 -0.796875q-0.015625 -0.3125 -0.109375 -0.484375q-0.09375 -0.1875 -0.296875 -0.28125q-0.1875 -0.09375 -0.53125 -0.15625l0 -0.40625l1.828125 -0.078125l0.46875 0l-0.078125 1.28125zm17.4375 4.9375q-0.5 0.515625 -0.921875 0.8125q-0.40625 0.296875 -0.90625 0.46875q-0.5 0.171875 -1.109375 0.171875q-1.609375 0 -2.4375 -0.96875q-0.8125 -0.96875 -0.8125 -2.84375q0 -1.171875 0.421875 -2.0625q0.421875 -0.890625 1.1875 -1.375q0.78125 -0.484375 1.78125 -0.484375q0.796875 0 1.34375 0.25q0.5625 0.25 0.890625 0.6875q0.328125 0.4375 0.515625 1.09375q0.1875 0.65625 0.203125 1.71875l-4.921875 0l0 0.140625q0 0.921875 0.203125 1.5625q0.21875 0.625 0.6875 0.984375q0.46875 0.34375 1.234375 0.34375q0.640625 0 1.140625 -0.234375q0.515625 -0.234375 1.03125 -0.78125l0.46875 0.515625zm-1.3125 -3.171875q-0.046875 -0.84375 -0.21875 -1.375q-0.15625 -0.546875 -0.484375 -0.828125q-0.328125 -0.28125 -0.859375 -0.28125q-0.796875 0 -1.28125 0.640625q-0.484375 0.640625 -0.5625 1.84375l3.40625 0zm10.4921875 4.5l-3.078125 0l0 -0.390625q0.296875 -0.09375 0.421875 -0.15625q0.140625 -0.078125 0.234375 -0.203125q0.09375 -0.125 0.140625 -0.375q0.046875 -0.265625 0.046875 -0.796875l0 -2.046875q0 -0.546875 -0.03125 -0.984375q-0.03125 -0.453125 -0.109375 -0.734375q-0.0625 -0.296875 -0.171875 -0.453125q-0.109375 -0.15625 -0.25 -0.265625q-0.140625 -0.125 -0.328125 -0.1875q-0.1875 -0.0625 -0.5 -0.0625q-0.296875 0 -0.578125 0.125q-0.265625 0.109375 -0.59375 0.40625q-0.328125 0.296875 -0.484375 0.59375q-0.140625 0.28125 -0.140625 0.65625l0 2.921875q0 0.671875 0.0625 0.9375q0.0625 0.25 0.234375 0.390625q0.171875 0.140625 0.578125 0.234375l0 0.390625l-3.0625 0l0 -0.390625q0.296875 -0.09375 0.421875 -0.15625q0.140625 -0.078125 0.21875 -0.203125q0.09375 -0.125 0.140625 -0.375q0.0625 -0.265625 0.0625 -0.8125l0 -3.40625q0 -0.5 -0.015625 -0.796875q-0.015625 -0.3125 -0.109375 -0.484375q-0.09375 -0.1875 -0.296875 -0.28125q-0.1875 -0.09375 -0.53125 -0.15625l0 -0.40625l1.828125 -0.078125l0.46875 0l-0.078125 1.28125l0.109375 0.03125q0.578125 -0.59375 0.921875 -0.84375q0.359375 -0.25 0.71875 -0.375q0.375 -0.140625 0.78125 -0.140625q0.421875 0 0.75 0.09375q0.328125 0.09375 0.578125 0.296875q0.265625 0.203125 0.421875 0.515625q0.171875 0.296875 0.25 0.71875q0.078125 0.421875 0.078125 1.0625l0 2.953125q0 0.53125 0.03125 0.78125q0.03125 0.234375 0.109375 0.375q0.078125 0.125 0.21875 0.21875q0.15625 0.09375 0.53125 0.1875l0 0.390625zm0.8515625 -7.078125q0.390625 -0.0625 0.625 -0.21875q0.25 -0.15625 0.375 -0.40625q0.140625 -0.25 0.21875 -0.609375q0.078125 -0.375 0.171875 -1.09375l1.109375 0l0 1.9375l2.515625 0l0 0.78125l-2.515625 0l0 3.484375q0 0.75 0.0625 1.203125q0.0625 0.453125 0.234375 0.703125q0.171875 0.25 0.390625 0.359375q0.21875 0.109375 0.5625 0.109375q0.3125 0 0.578125 -0.125q0.28125 -0.125 0.546875 -0.375l0.34375 0.421875q-0.546875 0.546875 -1.046875 0.796875q-0.5 0.234375 -1.03125 0.234375q-1.0 0 -1.5 -0.59375q-0.484375 -0.609375 -0.484375 -1.875l0 -4.34375l-1.15625 0l0 -0.390625z" fill-rule="nonzero"></path><path fill="#000000" fill-opacity="0.0" d="m413.98163 225.30577l0 0c0 -8.158157 6.856659 -14.771652 15.314819 -14.771652l141.55933 0l0 0c8.45813 0 15.314819 6.613495 15.314819 14.771652z" fill-rule="nonzero"></path><path fill="#000000" fill-opacity="0.0" d="m413.98163 225.30577l0 0c0 -8.158157 6.856659 -14.771652 15.314819 -14.771652l141.55933 0l0 0c8.45813 0 15.314819 6.613495 15.314819 14.771652" fill-rule="nonzero"></path><path stroke="#595959" stroke-width="3.0" stroke-linejoin="round" stroke-linecap="butt" d="m413.98163 225.30577l0 0c0 -8.158157 6.856659 -14.771652 15.314819 -14.771652l141.55933 0l0 0c8.45813 0 15.314819 6.613495 15.314819 14.771652" fill-rule="nonzero"></path><path fill="#000000" fill-opacity="0.0" d="m409.33548 173.62599l181.48032 0l0 33.51181l-181.48032 0z" fill-rule="nonzero"></path><path fill="#000000" d="m438.29828 196.00162q0 0.46875 0.046875 0.75q0.046875 0.265625 0.15625 0.421875q0.109375 0.15625 0.28125 0.25q0.1875 0.09375 0.5625 0.171875l0 0.390625l-3.421875 0l0 -0.390625q0.484375 -0.125 0.640625 -0.265625q0.171875 -0.15625 0.21875 -0.4375q0.046875 -0.28125 0.046875 -0.859375l0 -6.765625q0 -0.53125 -0.046875 -0.78125q-0.03125 -0.25 -0.125 -0.375q-0.078125 -0.140625 -0.234375 -0.21875q-0.140625 -0.09375 -0.5 -0.1875l0 -0.390625l3.875 0q1.828125 0 2.71875 0.703125q0.890625 0.703125 0.890625 2.125q0 0.8125 -0.28125 1.46875q-0.28125 0.640625 -0.796875 1.0625q-0.515625 0.40625 -1.21875 0.59375q-0.703125 0.171875 -1.46875 0.171875q-0.875 0 -1.34375 -0.03125l0 2.59375zm0 -3.234375l0.90625 0q0.875 0 1.453125 -0.234375q0.578125 -0.234375 0.875 -0.765625q0.3125 -0.53125 0.3125 -1.421875q0 -0.671875 -0.1875 -1.109375q-0.171875 -0.453125 -0.5 -0.71875q-0.3125 -0.28125 -0.75 -0.390625q-0.4375 -0.125 -0.953125 -0.125q-0.765625 0 -1.15625 0.03125l0 4.734375zm8.6328125 -0.953125l0.109375 0.015625q0.421875 -0.515625 0.78125 -0.8125q0.375 -0.3125 0.796875 -0.46875q0.4375 -0.171875 0.96875 -0.171875q0.453125 0 0.828125 0.046875l0 1.796875l-0.890625 0q-0.1875 -0.421875 -0.40625 -0.609375q-0.203125 -0.1875 -0.5625 -0.1875q-0.28125 0 -0.5625 0.171875q-0.28125 0.15625 -0.546875 0.46875q-0.25 0.3125 -0.34375 0.59375q-0.09375 0.265625 -0.09375 0.640625l0 2.734375q0 0.703125 0.078125 0.984375q0.09375 0.265625 0.28125 0.390625q0.203125 0.125 0.609375 0.1875l0 0.390625l-3.15625 0l0 -0.390625q0.296875 -0.09375 0.421875 -0.15625q0.140625 -0.078125 0.234375 -0.203125q0.09375 -0.125 0.140625 -0.375q0.046875 -0.265625 0.046875 -0.8125l0 -3.40625q0 -0.5 -0.015625 -0.796875q-0.015625 -0.3125 -0.109375 -0.484375q-0.09375 -0.1875 -0.296875 -0.28125q-0.1875 -0.09375 -0.53125 -0.15625l0 -0.40625l1.828125 -0.078125l0.46875 0l-0.078125 1.375zm10.7421875 4.84375q-0.5 0.515625 -0.921875 0.8125q-0.40625 0.296875 -0.90625 0.46875q-0.5 0.171875 -1.109375 0.171875q-1.609375 0 -2.4375 -0.96875q-0.8125 -0.96875 -0.8125 -2.84375q0 -1.171875 0.421875 -2.0625q0.421875 -0.890625 1.1875 -1.375q0.78125 -0.484375 1.78125 -0.484375q0.796875 0 1.34375 0.25q0.5625 0.25 0.890625 0.6875q0.328125 0.4375 0.515625 1.09375q0.1875 0.65625 0.203125 1.71875l-4.921875 0l0 0.140625q0 0.921875 0.203125 1.5625q0.21875 0.625 0.6875 0.984375q0.46875 0.34375 1.234375 0.34375q0.640625 0 1.140625 -0.234375q0.515625 -0.234375 1.03125 -0.78125l0.46875 0.515625zm-1.3125 -3.171875q-0.046875 -0.84375 -0.21875 -1.375q-0.15625 -0.546875 -0.484375 -0.828125q-0.328125 -0.28125 -0.859375 -0.28125q-0.796875 0 -1.28125 0.640625q-0.484375 0.640625 -0.5625 1.84375l3.40625 0zm8.1484375 -4.0q0 -0.75 -0.015625 -1.046875q0 -0.296875 -0.0625 -0.5q-0.046875 -0.203125 -0.140625 -0.3125q-0.078125 -0.125 -0.234375 -0.1875q-0.15625 -0.078125 -0.546875 -0.15625l0 -0.40625l1.890625 -0.078125l0.453125 0l0 9.046875q0 0.609375 0.015625 0.875q0.03125 0.265625 0.109375 0.421875q0.078125 0.15625 0.25 0.25q0.171875 0.09375 0.59375 0.1875l0 0.40625l-1.84375 0.078125l-0.46875 0l0.09375 -1.28125l-0.125 -0.03125q-0.484375 0.515625 -0.859375 0.78125q-0.359375 0.265625 -0.765625 0.421875q-0.40625 0.15625 -0.875 0.15625q-1.28125 0 -1.984375 -0.96875q-0.6875 -0.984375 -0.6875 -2.8125q0 -1.28125 0.453125 -2.171875q0.453125 -0.90625 1.21875 -1.34375q0.765625 -0.4375 1.734375 -0.4375q0.515625 0 0.9375 0.09375q0.421875 0.078125 0.859375 0.265625l0 -1.25zm0 3.859375q0 -0.609375 -0.0625 -0.96875q-0.046875 -0.375 -0.171875 -0.625q-0.125 -0.25 -0.34375 -0.421875q-0.21875 -0.171875 -0.484375 -0.25q-0.265625 -0.078125 -0.625 -0.078125q-1.0 0 -1.53125 0.8125q-0.515625 0.796875 -0.515625 2.296875q0 1.5 0.421875 2.28125q0.4375 0.78125 1.3125 0.78125q0.34375 0 0.5625 -0.0625q0.234375 -0.0625 0.453125 -0.1875q0.21875 -0.125 0.4375 -0.34375q0.234375 -0.234375 0.328125 -0.421875q0.109375 -0.1875 0.15625 -0.421875q0.0625 -0.25 0.0625 -0.640625l0 -1.75zm5.84375 -5.890625l0 1.515625l-1.4375 0l0 -1.515625l1.4375 0zm-2.234375 10.140625q0.296875 -0.09375 0.421875 -0.15625q0.140625 -0.078125 0.21875 -0.203125q0.09375 -0.125 0.140625 -0.375q0.0625 -0.265625 0.0625 -0.8125l0 -3.40625q0 -0.5 -0.015625 -0.796875q-0.015625 -0.3125 -0.109375 -0.484375q-0.09375 -0.1875 -0.296875 -0.28125q-0.1875 -0.09375 -0.53125 -0.15625l0 -0.40625l1.8125 -0.078125l0.484375 0l0 5.59375q0 0.671875 0.0625 0.9375q0.0625 0.25 0.234375 0.390625q0.171875 0.140625 0.578125 0.234375l0 0.390625l-3.0625 0l0 -0.390625zm10.2578125 -6.90625l0 1.640625l-0.984375 0q-0.140625 -0.515625 -0.34375 -0.796875q-0.1875 -0.296875 -0.453125 -0.40625q-0.25 -0.125 -0.625 -0.125q-0.546875 0 -0.96875 0.359375q-0.421875 0.34375 -0.671875 1.0625q-0.25 0.71875 -0.25 1.75q0 0.671875 0.09375 1.21875q0.09375 0.546875 0.3125 0.9375q0.234375 0.390625 0.609375 0.609375q0.375 0.21875 0.9375 0.21875q0.53125 0 1.0 -0.203125q0.46875 -0.21875 0.96875 -0.75l0.4375 0.515625q-0.390625 0.4375 -0.703125 0.6875q-0.296875 0.234375 -0.65625 0.390625q-0.34375 0.15625 -0.6875 0.234375q-0.328125 0.078125 -0.734375 0.078125q-1.46875 0 -2.25 -0.984375q-0.78125 -0.984375 -0.78125 -2.828125q0 -1.15625 0.4375 -2.046875q0.4375 -0.90625 1.21875 -1.390625q0.796875 -0.484375 1.828125 -0.484375q0.640625 0 1.171875 0.078125q0.546875 0.078125 1.09375 0.234375zm0.7734375 0.21875q0.390625 -0.0625 0.625 -0.21875q0.25 -0.15625 0.375 -0.40625q0.140625 -0.25 0.21875 -0.609375q0.078125 -0.375 0.171875 -1.09375l1.109375 0l0 1.9375l2.515625 0l0 0.78125l-2.515625 0l0 3.484375q0 0.75 0.0625 1.203125q0.0625 0.453125 0.234375 0.703125q0.171875 0.25 0.390625 0.359375q0.21875 0.109375 0.5625 0.109375q0.3125 0 0.578125 -0.125q0.28125 -0.125 0.546875 -0.375l0.34375 0.421875q-0.546875 0.546875 -1.046875 0.796875q-0.5 0.234375 -1.03125 0.234375q-1.0 0 -1.5 -0.59375q-0.484375 -0.609375 -0.484375 -1.875l0 -4.34375l-1.15625 0l0 -0.390625zm8.1171875 -3.453125l0 1.515625l-1.4375 0l0 -1.515625l1.4375 0zm-2.234375 10.140625q0.296875 -0.09375 0.421875 -0.15625q0.140625 -0.078125 0.21875 -0.203125q0.09375 -0.125 0.140625 -0.375q0.0625 -0.265625 0.0625 -0.8125l0 -3.40625q0 -0.5 -0.015625 -0.796875q-0.015625 -0.3125 -0.109375 -0.484375q-0.09375 -0.1875 -0.296875 -0.28125q-0.1875 -0.09375 -0.53125 -0.15625l0 -0.40625l1.8125 -0.078125l0.484375 0l0 5.59375q0 0.671875 0.0625 0.9375q0.0625 0.25 0.234375 0.390625q0.171875 0.140625 0.578125 0.234375l0 0.390625l-3.0625 0l0 -0.390625zm7.8359375 0.515625q-1.625 0 -2.484375 -0.953125q-0.84375 -0.96875 -0.84375 -2.84375q0 -1.28125 0.4375 -2.171875q0.453125 -0.890625 1.234375 -1.328125q0.78125 -0.4375 1.78125 -0.4375q1.671875 0 2.53125 0.984375q0.859375 0.96875 0.859375 2.78125q0 1.296875 -0.4375 2.1875q-0.421875 0.890625 -1.21875 1.34375q-0.78125 0.4375 -1.859375 0.4375zm-1.859375 -3.953125q0 1.609375 0.515625 2.46875q0.515625 0.859375 1.46875 0.859375q0.515625 0 0.875 -0.25q0.375 -0.25 0.609375 -0.671875q0.234375 -0.4375 0.328125 -1.0q0.109375 -0.578125 0.109375 -1.1875q0 -1.15625 -0.265625 -1.90625q-0.25 -0.765625 -0.6875 -1.109375q-0.4375 -0.359375 -1.0 -0.359375q-0.9375 0 -1.453125 0.828125q-0.5 0.8125 -0.5 2.328125zm14.5703125 3.828125l-3.078125 0l0 -0.390625q0.296875 -0.09375 0.421875 -0.15625q0.140625 -0.078125 0.234375 -0.203125q0.09375 -0.125 0.140625 -0.375q0.046875 -0.265625 0.046875 -0.796875l0 -2.046875q0 -0.546875 -0.03125 -0.984375q-0.03125 -0.453125 -0.109375 -0.734375q-0.0625 -0.296875 -0.171875 -0.453125q-0.109375 -0.15625 -0.25 -0.265625q-0.140625 -0.125 -0.328125 -0.1875q-0.1875 -0.0625 -0.5 -0.0625q-0.296875 0 -0.578125 0.125q-0.265625 0.109375 -0.59375 0.40625q-0.328125 0.296875 -0.484375 0.59375q-0.140625 0.28125 -0.140625 0.65625l0 2.921875q0 0.671875 0.0625 0.9375q0.0625 0.25 0.234375 0.390625q0.171875 0.140625 0.578125 0.234375l0 0.390625l-3.0625 0l0 -0.390625q0.296875 -0.09375 0.421875 -0.15625q0.140625 -0.078125 0.21875 -0.203125q0.09375 -0.125 0.140625 -0.375q0.0625 -0.265625 0.0625 -0.8125l0 -3.40625q0 -0.5 -0.015625 -0.796875q-0.015625 -0.3125 -0.109375 -0.484375q-0.09375 -0.1875 -0.296875 -0.28125q-0.1875 -0.09375 -0.53125 -0.15625l0 -0.40625l1.828125 -0.078125l0.46875 0l-0.078125 1.28125l0.109375 0.03125q0.578125 -0.59375 0.921875 -0.84375q0.359375 -0.25 0.71875 -0.375q0.375 -0.140625 0.78125 -0.140625q0.421875 0 0.75 0.09375q0.328125 0.09375 0.578125 0.296875q0.265625 0.203125 0.421875 0.515625q0.171875 0.296875 0.25 0.71875q0.078125 0.421875 0.078125 1.0625l0 2.953125q0 0.53125 0.03125 0.78125q0.03125 0.234375 0.109375 0.375q0.078125 0.125 0.21875 0.21875q0.15625 0.09375 0.53125 0.1875l0 0.390625zm10.3125 -5.84375l-2.046875 5.890625l-1.078125 0l-1.875 -5.8125q-0.1875 -0.5625 -0.3125 -0.78125q-0.109375 -0.234375 -0.25 -0.34375q-0.140625 -0.125 -0.4375 -0.203125l0 -0.375l3.078125 0l0 0.375q-0.453125 0.09375 -0.609375 0.25q-0.15625 0.15625 -0.15625 0.453125q0 0.21875 0.046875 0.453125q0.046875 0.21875 0.140625 0.53125l1.21875 3.984375l2.015625 -6.046875l1.09375 0l1.703125 6.046875l1.375 -3.828125q0.109375 -0.296875 0.171875 -0.5625q0.078125 -0.265625 0.078125 -0.5q0 -0.328125 -0.171875 -0.5q-0.171875 -0.1875 -0.59375 -0.28125l0 -0.375l2.71875 0l0 0.375q-0.21875 0.0625 -0.328125 0.125q-0.109375 0.046875 -0.21875 0.171875q-0.09375 0.109375 -0.234375 0.34375q-0.125 0.234375 -0.3125 0.734375l-2.265625 5.765625l-1.046875 0l-1.703125 -5.890625zm9.15625 -4.6875l0 1.515625l-1.4375 0l0 -1.515625l1.4375 0zm-2.234375 10.140625q0.296875 -0.09375 0.421875 -0.15625q0.140625 -0.078125 0.21875 -0.203125q0.09375 -0.125 0.140625 -0.375q0.0625 -0.265625 0.0625 -0.8125l0 -3.40625q0 -0.5 -0.015625 -0.796875q-0.015625 -0.3125 -0.109375 -0.484375q-0.09375 -0.1875 -0.296875 -0.28125q-0.1875 -0.09375 -0.53125 -0.15625l0 -0.40625l1.8125 -0.078125l0.484375 0l0 5.59375q0 0.671875 0.0625 0.9375q0.0625 0.25 0.234375 0.390625q0.171875 0.140625 0.578125 0.234375l0 0.390625l-3.0625 0l0 -0.390625zm12.0546875 0.390625l-3.078125 0l0 -0.390625q0.296875 -0.09375 0.421875 -0.15625q0.140625 -0.078125 0.234375 -0.203125q0.09375 -0.125 0.140625 -0.375q0.046875 -0.265625 0.046875 -0.796875l0 -2.046875q0 -0.546875 -0.03125 -0.984375q-0.03125 -0.453125 -0.109375 -0.734375q-0.0625 -0.296875 -0.171875 -0.453125q-0.109375 -0.15625 -0.25 -0.265625q-0.140625 -0.125 -0.328125 -0.1875q-0.1875 -0.0625 -0.5 -0.0625q-0.296875 0 -0.578125 0.125q-0.265625 0.109375 -0.59375 0.40625q-0.328125 0.296875 -0.484375 0.59375q-0.140625 0.28125 -0.140625 0.65625l0 2.921875q0 0.671875 0.0625 0.9375q0.0625 0.25 0.234375 0.390625q0.171875 0.140625 0.578125 0.234375l0 0.390625l-3.0625 0l0 -0.390625q0.296875 -0.09375 0.421875 -0.15625q0.140625 -0.078125 0.21875 -0.203125q0.09375 -0.125 0.140625 -0.375q0.0625 -0.265625 0.0625 -0.8125l0 -3.40625q0 -0.5 -0.015625 -0.796875q-0.015625 -0.3125 -0.109375 -0.484375q-0.09375 -0.1875 -0.296875 -0.28125q-0.1875 -0.09375 -0.53125 -0.15625l0 -0.40625l1.828125 -0.078125l0.46875 0l-0.078125 1.28125l0.109375 0.03125q0.578125 -0.59375 0.921875 -0.84375q0.359375 -0.25 0.71875 -0.375q0.375 -0.140625 0.78125 -0.140625q0.421875 0 0.75 0.09375q0.328125 0.09375 0.578125 0.296875q0.265625 0.203125 0.421875 0.515625q0.171875 0.296875 0.25 0.71875q0.078125 0.421875 0.078125 1.0625l0 2.953125q0 0.53125 0.03125 0.78125q0.03125 0.234375 0.109375 0.375q0.078125 0.125 0.21875 0.21875q0.15625 0.09375 0.53125 0.1875l0 0.390625zm6.5859375 -8.5q0 -0.75 -0.015625 -1.046875q0 -0.296875 -0.0625 -0.5q-0.046875 -0.203125 -0.140625 -0.3125q-0.078125 -0.125 -0.234375 -0.1875q-0.15625 -0.078125 -0.546875 -0.15625l0 -0.40625l1.890625 -0.078125l0.453125 0l0 9.046875q0 0.609375 0.015625 0.875q0.03125 0.265625 0.109375 0.421875q0.078125 0.15625 0.25 0.25q0.171875 0.09375 0.59375 0.1875l0 0.40625l-1.84375 0.078125l-0.46875 0l0.09375 -1.28125l-0.125 -0.03125q-0.484375 0.515625 -0.859375 0.78125q-0.359375 0.265625 -0.765625 0.421875q-0.40625 0.15625 -0.875 0.15625q-1.28125 0 -1.984375 -0.96875q-0.6875 -0.984375 -0.6875 -2.8125q0 -1.28125 0.453125 -2.171875q0.453125 -0.90625 1.21875 -1.34375q0.765625 -0.4375 1.734375 -0.4375q0.515625 0 0.9375 0.09375q0.421875 0.078125 0.859375 0.265625l0 -1.25zm0 3.859375q0 -0.609375 -0.0625 -0.96875q-0.046875 -0.375 -0.171875 -0.625q-0.125 -0.25 -0.34375 -0.421875q-0.21875 -0.171875 -0.484375 -0.25q-0.265625 -0.078125 -0.625 -0.078125q-1.0 0 -1.53125 0.8125q-0.515625 0.796875 -0.515625 2.296875q0 1.5 0.421875 2.28125q0.4375 0.78125 1.3125 0.78125q0.34375 0 0.5625 -0.0625q0.234375 -0.0625 0.453125 -0.1875q0.21875 -0.125 0.4375 -0.34375q0.234375 -0.234375 0.328125 -0.421875q0.109375 -0.1875 0.15625 -0.421875q0.0625 -0.25 0.0625 -0.640625l0 -1.75zm7.0 4.765625q-1.625 0 -2.484375 -0.953125q-0.84375 -0.96875 -0.84375 -2.84375q0 -1.28125 0.4375 -2.171875q0.453125 -0.890625 1.234375 -1.328125q0.78125 -0.4375 1.78125 -0.4375q1.671875 0 2.53125 0.984375q0.859375 0.96875 0.859375 2.78125q0 1.296875 -0.4375 2.1875q-0.421875 0.890625 -1.21875 1.34375q-0.78125 0.4375 -1.859375 0.4375zm-1.859375 -3.953125q0 1.609375 0.515625 2.46875q0.515625 0.859375 1.46875 0.859375q0.515625 0 0.875 -0.25q0.375 -0.25 0.609375 -0.671875q0.234375 -0.4375 0.328125 -1.0q0.109375 -0.578125 0.109375 -1.1875q0 -1.15625 -0.265625 -1.90625q-0.25 -0.765625 -0.6875 -1.109375q-0.4375 -0.359375 -1.0 -0.359375q-0.9375 0 -1.453125 0.828125q-0.5 0.8125 -0.5 2.328125zm12.4296875 -2.015625l-2.046875 5.890625l-1.078125 0l-1.875 -5.8125q-0.1875 -0.5625 -0.3125 -0.78125q-0.109375 -0.234375 -0.25 -0.34375q-0.140625 -0.125 -0.4375 -0.203125l0 -0.375l3.078125 0l0 0.375q-0.453125 0.09375 -0.609375 0.25q-0.15625 0.15625 -0.15625 0.453125q0 0.21875 0.046875 0.453125q0.046875 0.21875 0.140625 0.53125l1.21875 3.984375l2.015625 -6.046875l1.09375 0l1.703125 6.046875l1.375 -3.828125q0.109375 -0.296875 0.171875 -0.5625q0.078125 -0.265625 0.078125 -0.5q0 -0.328125 -0.171875 -0.5q-0.171875 -0.1875 -0.59375 -0.28125l0 -0.375l2.71875 0l0 0.375q-0.21875 0.0625 -0.328125 0.125q-0.109375 0.046875 -0.21875 0.171875q-0.09375 0.109375 -0.234375 0.34375q-0.125 0.234375 -0.3125 0.734375l-2.265625 5.765625l-1.046875 0l-1.703125 -5.890625z" fill-rule="nonzero"></path><path fill="#000000" fill-opacity="0.0" d="m277.90765 129.67717l181.48032 0l0 33.51181l-181.48032 0z" fill-rule="nonzero"></path><path fill="#000000" d="m319.1439 152.0528q0 0.46875 0.046875 0.75q0.046875 0.265625 0.15625 0.421875q0.109375 0.15625 0.28125 0.25q0.1875 0.09375 0.5625 0.171875l0 0.390625l-3.421875 0l0 -0.390625q0.484375 -0.125 0.640625 -0.265625q0.171875 -0.15625 0.21875 -0.4375q0.046875 -0.28125 0.046875 -0.859375l0 -6.765625q0 -0.53125 -0.046875 -0.78125q-0.03125 -0.25 -0.125 -0.375q-0.078125 -0.140625 -0.234375 -0.21875q-0.140625 -0.09375 -0.5 -0.1875l0 -0.390625l3.875 0q1.828125 0 2.71875 0.703125q0.890625 0.703125 0.890625 2.125q0 0.8125 -0.28125 1.46875q-0.28125 0.640625 -0.796875 1.0625q-0.515625 0.40625 -1.21875 0.59375q-0.703125 0.171875 -1.46875 0.171875q-0.875 0 -1.34375 -0.03125l0 2.59375zm0 -3.234375l0.90625 0q0.875 0 1.453125 -0.234375q0.578125 -0.234375 0.875 -0.765625q0.3125 -0.53125 0.3125 -1.421875q0 -0.671875 -0.1875 -1.109375q-0.171875 -0.453125 -0.5 -0.71875q-0.3125 -0.28125 -0.75 -0.390625q-0.4375 -0.125 -0.953125 -0.125q-0.765625 0 -1.15625 0.03125l0 4.734375zm8.6328125 -0.953125l0.109375 0.015625q0.421875 -0.515625 0.78125 -0.8125q0.375 -0.3125 0.796875 -0.46875q0.4375 -0.171875 0.96875 -0.171875q0.453125 0 0.828125 0.046875l0 1.796875l-0.890625 0q-0.1875 -0.421875 -0.40625 -0.609375q-0.203125 -0.1875 -0.5625 -0.1875q-0.28125 0 -0.5625 0.171875q-0.28125 0.15625 -0.546875 0.46875q-0.25 0.3125 -0.34375 0.59375q-0.09375 0.265625 -0.09375 0.640625l0 2.734375q0 0.703125 0.078125 0.984375q0.09375 0.265625 0.28125 0.390625q0.203125 0.125 0.609375 0.1875l0 0.390625l-3.15625 0l0 -0.390625q0.296875 -0.09375 0.421875 -0.15625q0.140625 -0.078125 0.234375 -0.203125q0.09375 -0.125 0.140625 -0.375q0.046875 -0.265625 0.046875 -0.8125l0 -3.40625q0 -0.5 -0.015625 -0.796875q-0.015625 -0.3125 -0.109375 -0.484375q-0.09375 -0.1875 -0.296875 -0.28125q-0.1875 -0.09375 -0.53125 -0.15625l0 -0.40625l1.828125 -0.078125l0.46875 0l-0.078125 1.375zm10.7421875 4.84375q-0.5 0.515625 -0.921875 0.8125q-0.40625 0.296875 -0.90625 0.46875q-0.5 0.171875 -1.109375 0.171875q-1.609375 0 -2.4375 -0.96875q-0.8125 -0.96875 -0.8125 -2.84375q0 -1.171875 0.421875 -2.0625q0.421875 -0.890625 1.1875 -1.375q0.78125 -0.484375 1.78125 -0.484375q0.796875 0 1.34375 0.25q0.5625 0.25 0.890625 0.6875q0.328125 0.4375 0.515625 1.09375q0.1875 0.65625 0.203125 1.71875l-4.921875 0l0 0.140625q0 0.921875 0.203125 1.5625q0.21875 0.625 0.6875 0.984375q0.46875 0.34375 1.234375 0.34375q0.640625 0 1.140625 -0.234375q0.515625 -0.234375 1.03125 -0.78125l0.46875 0.515625zm-1.3125 -3.171875q-0.046875 -0.84375 -0.21875 -1.375q-0.15625 -0.546875 -0.484375 -0.828125q-0.328125 -0.28125 -0.859375 -0.28125q-0.796875 0 -1.28125 0.640625q-0.484375 0.640625 -0.5625 1.84375l3.40625 0zm8.1484375 -4.0q0 -0.75 -0.015625 -1.046875q0 -0.296875 -0.0625 -0.5q-0.046875 -0.203125 -0.140625 -0.3125q-0.078125 -0.125 -0.234375 -0.1875q-0.15625 -0.078125 -0.546875 -0.15625l0 -0.40625l1.890625 -0.078125l0.453125 0l0 9.046875q0 0.609375 0.015625 0.875q0.03125 0.265625 0.109375 0.421875q0.078125 0.15625 0.25 0.25q0.171875 0.09375 0.59375 0.1875l0 0.40625l-1.84375 0.078125l-0.46875 0l0.09375 -1.28125l-0.125 -0.03125q-0.484375 0.515625 -0.859375 0.78125q-0.359375 0.265625 -0.765625 0.421875q-0.40625 0.15625 -0.875 0.15625q-1.28125 0 -1.984375 -0.96875q-0.6875 -0.984375 -0.6875 -2.8125q0 -1.28125 0.453125 -2.171875q0.453125 -0.90625 1.21875 -1.34375q0.765625 -0.4375 1.734375 -0.4375q0.515625 0 0.9375 0.09375q0.421875 0.078125 0.859375 0.265625l0 -1.25zm0 3.859375q0 -0.609375 -0.0625 -0.96875q-0.046875 -0.375 -0.171875 -0.625q-0.125 -0.25 -0.34375 -0.421875q-0.21875 -0.171875 -0.484375 -0.25q-0.265625 -0.078125 -0.625 -0.078125q-1.0 0 -1.53125 0.8125q-0.515625 0.796875 -0.515625 2.296875q0 1.5 0.421875 2.28125q0.4375 0.78125 1.3125 0.78125q0.34375 0 0.5625 -0.0625q0.234375 -0.0625 0.453125 -0.1875q0.21875 -0.125 0.4375 -0.34375q0.234375 -0.234375 0.328125 -0.421875q0.109375 -0.1875 0.15625 -0.421875q0.0625 -0.25 0.0625 -0.640625l0 -1.75zm5.84375 -5.890625l0 1.515625l-1.4375 0l0 -1.515625l1.4375 0zm-2.234375 10.140625q0.296875 -0.09375 0.421875 -0.15625q0.140625 -0.078125 0.21875 -0.203125q0.09375 -0.125 0.140625 -0.375q0.0625 -0.265625 0.0625 -0.8125l0 -3.40625q0 -0.5 -0.015625 -0.796875q-0.015625 -0.3125 -0.109375 -0.484375q-0.09375 -0.1875 -0.296875 -0.28125q-0.1875 -0.09375 -0.53125 -0.15625l0 -0.40625l1.8125 -0.078125l0.484375 0l0 5.59375q0 0.671875 0.0625 0.9375q0.0625 0.25 0.234375 0.390625q0.171875 0.140625 0.578125 0.234375l0 0.390625l-3.0625 0l0 -0.390625zm10.2578125 -6.90625l0 1.640625l-0.984375 0q-0.140625 -0.515625 -0.34375 -0.796875q-0.1875 -0.296875 -0.453125 -0.40625q-0.25 -0.125 -0.625 -0.125q-0.546875 0 -0.96875 0.359375q-0.421875 0.34375 -0.671875 1.0625q-0.25 0.71875 -0.25 1.75q0 0.671875 0.09375 1.21875q0.09375 0.546875 0.3125 0.9375q0.234375 0.390625 0.609375 0.609375q0.375 0.21875 0.9375 0.21875q0.53125 0 1.0 -0.203125q0.46875 -0.21875 0.96875 -0.75l0.4375 0.515625q-0.390625 0.4375 -0.703125 0.6875q-0.296875 0.234375 -0.65625 0.390625q-0.34375 0.15625 -0.6875 0.234375q-0.328125 0.078125 -0.734375 0.078125q-1.46875 0 -2.25 -0.984375q-0.78125 -0.984375 -0.78125 -2.828125q0 -1.15625 0.4375 -2.046875q0.4375 -0.90625 1.21875 -1.390625q0.796875 -0.484375 1.828125 -0.484375q0.640625 0 1.171875 0.078125q0.546875 0.078125 1.09375 0.234375zm0.7734375 0.21875q0.390625 -0.0625 0.625 -0.21875q0.25 -0.15625 0.375 -0.40625q0.140625 -0.25 0.21875 -0.609375q0.078125 -0.375 0.171875 -1.09375l1.109375 0l0 1.9375l2.515625 0l0 0.78125l-2.515625 0l0 3.484375q0 0.75 0.0625 1.203125q0.0625 0.453125 0.234375 0.703125q0.171875 0.25 0.390625 0.359375q0.21875 0.109375 0.5625 0.109375q0.3125 0 0.578125 -0.125q0.28125 -0.125 0.546875 -0.375l0.34375 0.421875q-0.546875 0.546875 -1.046875 0.796875q-0.5 0.234375 -1.03125 0.234375q-1.0 0 -1.5 -0.59375q-0.484375 -0.609375 -0.484375 -1.875l0 -4.34375l-1.15625 0l0 -0.390625zm8.1171875 -3.453125l0 1.515625l-1.4375 0l0 -1.515625l1.4375 0zm-2.234375 10.140625q0.296875 -0.09375 0.421875 -0.15625q0.140625 -0.078125 0.21875 -0.203125q0.09375 -0.125 0.140625 -0.375q0.0625 -0.265625 0.0625 -0.8125l0 -3.40625q0 -0.5 -0.015625 -0.796875q-0.015625 -0.3125 -0.109375 -0.484375q-0.09375 -0.1875 -0.296875 -0.28125q-0.1875 -0.09375 -0.53125 -0.15625l0 -0.40625l1.8125 -0.078125l0.484375 0l0 5.59375q0 0.671875 0.0625 0.9375q0.0625 0.25 0.234375 0.390625q0.171875 0.140625 0.578125 0.234375l0 0.390625l-3.0625 0l0 -0.390625zm7.8359375 0.515625q-1.625 0 -2.484375 -0.953125q-0.84375 -0.96875 -0.84375 -2.84375q0 -1.28125 0.4375 -2.171875q0.453125 -0.890625 1.234375 -1.328125q0.78125 -0.4375 1.78125 -0.4375q1.671875 0 2.53125 0.984375q0.859375 0.96875 0.859375 2.78125q0 1.296875 -0.4375 2.1875q-0.421875 0.890625 -1.21875 1.34375q-0.78125 0.4375 -1.859375 0.4375zm-1.859375 -3.953125q0 1.609375 0.515625 2.46875q0.515625 0.859375 1.46875 0.859375q0.515625 0 0.875 -0.25q0.375 -0.25 0.609375 -0.671875q0.234375 -0.4375 0.328125 -1.0q0.109375 -0.578125 0.109375 -1.1875q0 -1.15625 -0.265625 -1.90625q-0.25 -0.765625 -0.6875 -1.109375q-0.4375 -0.359375 -1.0 -0.359375q-0.9375 0 -1.453125 0.828125q-0.5 0.8125 -0.5 2.328125zm14.5703125 3.828125l-3.078125 0l0 -0.390625q0.296875 -0.09375 0.421875 -0.15625q0.140625 -0.078125 0.234375 -0.203125q0.09375 -0.125 0.140625 -0.375q0.046875 -0.265625 0.046875 -0.796875l0 -2.046875q0 -0.546875 -0.03125 -0.984375q-0.03125 -0.453125 -0.109375 -0.734375q-0.0625 -0.296875 -0.171875 -0.453125q-0.109375 -0.15625 -0.25 -0.265625q-0.140625 -0.125 -0.328125 -0.1875q-0.1875 -0.0625 -0.5 -0.0625q-0.296875 0 -0.578125 0.125q-0.265625 0.109375 -0.59375 0.40625q-0.328125 0.296875 -0.484375 0.59375q-0.140625 0.28125 -0.140625 0.65625l0 2.921875q0 0.671875 0.0625 0.9375q0.0625 0.25 0.234375 0.390625q0.171875 0.140625 0.578125 0.234375l0 0.390625l-3.0625 0l0 -0.390625q0.296875 -0.09375 0.421875 -0.15625q0.140625 -0.078125 0.21875 -0.203125q0.09375 -0.125 0.140625 -0.375q0.0625 -0.265625 0.0625 -0.8125l0 -3.40625q0 -0.5 -0.015625 -0.796875q-0.015625 -0.3125 -0.109375 -0.484375q-0.09375 -0.1875 -0.296875 -0.28125q-0.1875 -0.09375 -0.53125 -0.15625l0 -0.40625l1.828125 -0.078125l0.46875 0l-0.078125 1.28125l0.109375 0.03125q0.578125 -0.59375 0.921875 -0.84375q0.359375 -0.25 0.71875 -0.375q0.375 -0.140625 0.78125 -0.140625q0.421875 0 0.75 0.09375q0.328125 0.09375 0.578125 0.296875q0.265625 0.203125 0.421875 0.515625q0.171875 0.296875 0.25 0.71875q0.078125 0.421875 0.078125 1.0625l0 2.953125q0 0.53125 0.03125 0.78125q0.03125 0.234375 0.109375 0.375q0.078125 0.125 0.21875 0.21875q0.15625 0.09375 0.53125 0.1875l0 0.390625zm4.375 -7.078125q0.390625 -0.0625 0.625 -0.21875q0.25 -0.15625 0.375 -0.40625q0.140625 -0.25 0.21875 -0.609375q0.078125 -0.375 0.171875 -1.09375l1.109375 0l0 1.9375l2.515625 0l0 0.78125l-2.515625 0l0 3.484375q0 0.75 0.0625 1.203125q0.0625 0.453125 0.234375 0.703125q0.171875 0.25 0.390625 0.359375q0.21875 0.109375 0.5625 0.109375q0.3125 0 0.578125 -0.125q0.28125 -0.125 0.546875 -0.375l0.34375 0.421875q-0.546875 0.546875 -1.046875 0.796875q-0.5 0.234375 -1.03125 0.234375q-1.0 0 -1.5 -0.59375q-0.484375 -0.609375 -0.484375 -1.875l0 -4.34375l-1.15625 0l0 -0.390625zm8.1171875 -3.453125l0 1.515625l-1.4375 0l0 -1.515625l1.4375 0zm-2.234375 10.140625q0.296875 -0.09375 0.421875 -0.15625q0.140625 -0.078125 0.21875 -0.203125q0.09375 -0.125 0.140625 -0.375q0.0625 -0.265625 0.0625 -0.8125l0 -3.40625q0 -0.5 -0.015625 -0.796875q-0.015625 -0.3125 -0.109375 -0.484375q-0.09375 -0.1875 -0.296875 -0.28125q-0.1875 -0.09375 -0.53125 -0.15625l0 -0.40625l1.8125 -0.078125l0.484375 0l0 5.59375q0 0.671875 0.0625 0.9375q0.0625 0.25 0.234375 0.390625q0.171875 0.140625 0.578125 0.234375l0 0.390625l-3.0625 0l0 -0.390625zm6.5546875 -5.875l0.109375 0.03125q0.46875 -0.46875 0.765625 -0.703125q0.296875 -0.25 0.578125 -0.390625q0.28125 -0.140625 0.53125 -0.203125q0.25 -0.0625 0.5 -0.0625q0.78125 0 1.265625 0.359375q0.5 0.359375 0.6875 1.09375q0.59375 -0.59375 0.953125 -0.875q0.359375 -0.28125 0.734375 -0.421875q0.390625 -0.15625 0.828125 -0.15625q0.515625 0 0.890625 0.15625q0.390625 0.140625 0.640625 0.46875q0.265625 0.3125 0.390625 0.796875q0.125 0.46875 0.125 1.265625l0 2.953125q0 0.59375 0.03125 0.828125q0.046875 0.21875 0.109375 0.34375q0.078125 0.125 0.21875 0.21875q0.15625 0.078125 0.515625 0.171875l0 0.390625l-3.078125 0l0 -0.390625q0.3125 -0.09375 0.4375 -0.15625q0.140625 -0.078125 0.21875 -0.203125q0.09375 -0.125 0.140625 -0.375q0.0625 -0.265625 0.0625 -0.796875l0 -2.046875q0 -0.671875 -0.046875 -1.09375q-0.03125 -0.4375 -0.109375 -0.6875q-0.0625 -0.265625 -0.171875 -0.40625q-0.109375 -0.15625 -0.25 -0.265625q-0.125 -0.109375 -0.3125 -0.171875q-0.171875 -0.0625 -0.46875 -0.0625q-0.3125 0 -0.578125 0.125q-0.265625 0.125 -0.59375 0.421875q-0.3125 0.296875 -0.453125 0.59375q-0.140625 0.296875 -0.140625 0.703125l0 2.859375q0 0.59375 0.03125 0.828125q0.046875 0.21875 0.125 0.34375q0.078125 0.125 0.21875 0.21875q0.15625 0.078125 0.5 0.171875l0 0.390625l-3.0625 0l0 -0.390625q0.296875 -0.09375 0.421875 -0.15625q0.140625 -0.078125 0.234375 -0.203125q0.09375 -0.125 0.140625 -0.375q0.046875 -0.265625 0.046875 -0.796875l0 -2.046875q0 -0.703125 -0.046875 -1.140625q-0.03125 -0.4375 -0.109375 -0.703125q-0.078125 -0.265625 -0.21875 -0.421875q-0.125 -0.171875 -0.265625 -0.25q-0.125 -0.09375 -0.3125 -0.125q-0.171875 -0.046875 -0.390625 -0.046875q-0.328125 0 -0.609375 0.140625q-0.28125 0.140625 -0.578125 0.421875q-0.28125 0.265625 -0.4375 0.5625q-0.140625 0.296875 -0.140625 0.640625l0 2.9375q0 0.4375 0.015625 0.671875q0.03125 0.234375 0.078125 0.375q0.046875 0.125 0.125 0.21875q0.078125 0.078125 0.21875 0.15625q0.15625 0.0625 0.4375 0.140625l0 0.390625l-3.0625 0l0 -0.390625q0.296875 -0.09375 0.421875 -0.15625q0.140625 -0.078125 0.234375 -0.203125q0.09375 -0.125 0.140625 -0.375q0.046875 -0.265625 0.046875 -0.8125l0 -3.40625q0 -0.5 -0.015625 -0.796875q-0.015625 -0.3125 -0.109375 -0.484375q-0.09375 -0.1875 -0.296875 -0.28125q-0.1875 -0.09375 -0.53125 -0.15625l0 -0.40625l1.828125 -0.078125l0.46875 0l-0.078125 1.28125zm17.4375 4.9375q-0.5 0.515625 -0.921875 0.8125q-0.40625 0.296875 -0.90625 0.46875q-0.5 0.171875 -1.109375 0.171875q-1.609375 0 -2.4375 -0.96875q-0.8125 -0.96875 -0.8125 -2.84375q0 -1.171875 0.421875 -2.0625q0.421875 -0.890625 1.1875 -1.375q0.78125 -0.484375 1.78125 -0.484375q0.796875 0 1.34375 0.25q0.5625 0.25 0.890625 0.6875q0.328125 0.4375 0.515625 1.09375q0.1875 0.65625 0.203125 1.71875l-4.921875 0l0 0.140625q0 0.921875 0.203125 1.5625q0.21875 0.625 0.6875 0.984375q0.46875 0.34375 1.234375 0.34375q0.640625 0 1.140625 -0.234375q0.515625 -0.234375 1.03125 -0.78125l0.46875 0.515625zm-1.3125 -3.171875q-0.046875 -0.84375 -0.21875 -1.375q-0.15625 -0.546875 -0.484375 -0.828125q-0.328125 -0.28125 -0.859375 -0.28125q-0.796875 0 -1.28125 0.640625q-0.484375 0.640625 -0.5625 1.84375l3.40625 0z" fill-rule="nonzero"></path><path fill="#000000" fill-opacity="0.0" d="m122.55905 345.83203l245.7323 0" fill-rule="nonzero"></path><path stroke="#595959" stroke-width="1.0" stroke-linejoin="round" stroke-linecap="butt" d="m122.55905 345.83203l239.7323 0" fill-rule="evenodd"></path><path fill="#595959" stroke="#595959" stroke-width="1.0" stroke-linecap="butt" d="m362.29135 347.48376l4.538086 -1.6517334l-4.538086 -1.6517334z" fill-rule="evenodd"></path><path fill="#000000" fill-opacity="0.0" d="m122.561676 310.6509l0 35.18112" fill-rule="nonzero"></path><path stroke="#595959" stroke-width="1.0" stroke-linejoin="round" stroke-linecap="butt" d="m122.561676 310.6509l0 35.18112" fill-rule="nonzero"></path><path fill="#000000" fill-opacity="0.0" d="m245.12599 345.83203l246.3307 0l0 20.629913l-246.3307 0z" fill-rule="nonzero"></path><path fill="#000000" d="m258.8916 370.5489l0 -3.71875l-3.7031097 0l0 -1.5625l3.7031097 0l0 -3.703125l1.578125 0l0 3.703125l3.6875 0l0 1.5625l-3.6875 0l0 3.71875l-1.578125 0zm17.453278 2.203125l0 -3.25l-5.90625 0l0 -1.53125l6.21875 -8.8125l1.359375 0l0 8.8125l1.84375 0l0 1.53125l-1.84375 0l0 3.25l-1.671875 0zm0 -4.78125l0 -6.140625l-4.25 6.140625l4.25 0zm10.668396 4.78125l0 -13.59375l1.671875 0l0 4.875q1.171875 -1.359375 2.953125 -1.359375q1.09375 0 1.890625 0.4375q0.8125 0.421875 1.15625 1.1875q0.359375 0.765625 0.359375 2.203125l0 6.25l-1.671875 0l0 -6.25q0 -1.25 -0.546875 -1.8125q-0.546875 -0.578125 -1.53125 -0.578125q-0.75 0 -1.40625 0.390625q-0.640625 0.375 -0.921875 1.046875q-0.28125 0.65625 -0.28125 1.8125l0 5.390625l-1.671875 0zm9.750702 -4.921875q0 -2.734375 1.53125 -4.0625q1.265625 -1.09375 3.09375 -1.09375q2.03125 0 3.3125 1.34375q1.296875 1.328125 1.296875 3.671875q0 1.90625 -0.578125 3.0q-0.5625 1.078125 -1.65625 1.6875q-1.078125 0.59375 -2.375 0.59375q-2.0625 0 -3.34375 -1.328125q-1.28125 -1.328125 -1.28125 -3.8125zm1.71875 0q0 1.890625 0.828125 2.828125q0.828125 0.9375 2.078125 0.9375q1.25 0 2.0625 -0.9375q0.828125 -0.953125 0.828125 -2.890625q0 -1.828125 -0.828125 -2.765625q-0.828125 -0.9375 -2.0625 -0.9375q-1.25 0 -2.078125 0.9375q-0.828125 0.9375 -0.828125 2.828125zm15.735107 4.921875l0 -1.453125q-1.140625 1.671875 -3.125 1.671875q-0.859375 0 -1.625 -0.328125q-0.75 -0.34375 -1.125 -0.84375q-0.359375 -0.5 -0.515625 -1.234375q-0.09375 -0.5 -0.09375 -1.5625l0 -6.109375l1.671875 0l0 5.46875q0 1.3125 0.09375 1.765625q0.15625 0.65625 0.671875 1.03125q0.515625 0.375 1.265625 0.375q0.75 0 1.40625 -0.375q0.65625 -0.390625 0.921875 -1.046875q0.28125 -0.671875 0.28125 -1.9375l0 -5.28125l1.671875 0l0 9.859375l-1.5 0zm3.906952 0l0 -9.859375l1.5 0l0 1.5q0.578125 -1.046875 1.0625 -1.375q0.484375 -0.34375 1.078125 -0.34375q0.84375 0 1.71875 0.546875l-0.578125 1.546875q-0.609375 -0.359375 -1.234375 -0.359375q-0.546875 0 -0.984375 0.328125q-0.421875 0.328125 -0.609375 0.90625q-0.28125 0.890625 -0.28125 1.953125l0 5.15625l-1.671875 0zm5.556427 -2.9375l1.65625 -0.265625q0.140625 1.0 0.765625 1.53125q0.640625 0.515625 1.78125 0.515625q1.15625 0 1.703125 -0.46875q0.5625 -0.46875 0.5625 -1.09375q0 -0.5625 -0.484375 -0.890625q-0.34375 -0.21875 -1.703125 -0.5625q-1.84375 -0.46875 -2.5625 -0.796875q-0.703125 -0.34375 -1.078125 -0.9375q-0.359375 -0.609375 -0.359375 -1.328125q0 -0.65625 0.296875 -1.21875q0.3125 -0.5625 0.828125 -0.9375q0.390625 -0.28125 1.0625 -0.484375q0.671875 -0.203125 1.4375 -0.203125q1.171875 0 2.046875 0.34375q0.875 0.328125 1.28125 0.90625q0.421875 0.5625 0.578125 1.515625l-1.625 0.21875q-0.109375 -0.75 -0.65625 -1.171875q-0.53125 -0.4375 -1.5 -0.4375q-1.15625 0 -1.640625 0.390625q-0.484375 0.375 -0.484375 0.875q0 0.328125 0.203125 0.59375q0.203125 0.265625 0.640625 0.4375q0.25 0.09375 1.46875 0.4375q1.765625 0.46875 2.46875 0.765625q0.703125 0.296875 1.09375 0.875q0.40625 0.578125 0.40625 1.4375q0 0.828125 -0.484375 1.578125q-0.484375 0.734375 -1.40625 1.140625q-0.921875 0.390625 -2.078125 0.390625q-1.921875 0 -2.9375 -0.796875q-1.0 -0.796875 -1.28125 -2.359375z" fill-rule="nonzero"></path><path fill="#000000" fill-opacity="0.0" d="m47.624672 267.67978l103.46456 0l0 33.51181l-103.46456 0z" fill-rule="nonzero"></path><path fill="#000000" d="m57.234047 281.94354l10.046875 0l0 3.21875l-0.921875 0q-0.203125 -0.796875 -0.40625 -1.25q-0.1875 -0.46875 -0.421875 -0.703125q-0.21875 -0.25 -0.46875 -0.34375q-0.25 -0.109375 -0.765625 -0.109375l-1.171875 0l0 9.5q0 0.546875 0.046875 0.875q0.0625 0.3125 0.1875 0.515625q0.125 0.1875 0.34375 0.296875q0.21875 0.09375 0.671875 0.203125l0 0.453125l-4.25 0l0 -0.453125q0.28125 -0.0625 0.5 -0.140625q0.21875 -0.078125 0.34375 -0.171875q0.140625 -0.109375 0.21875 -0.28125q0.09375 -0.171875 0.140625 -0.453125q0.0625 -0.296875 0.0625 -0.84375l0 -9.5l-1.171875 0q-0.4375 0 -0.71875 0.078125q-0.28125 0.078125 -0.53125 0.34375q-0.234375 0.265625 -0.4375 0.765625q-0.203125 0.484375 -0.375 1.21875l-0.921875 0l0 -3.21875zm13.996429 0.15625l0 1.796875l-1.703125 0l0 -1.796875l1.703125 0zm-2.640625 12.046875q0.359375 -0.109375 0.5 -0.1875q0.15625 -0.09375 0.265625 -0.234375q0.109375 -0.15625 0.171875 -0.453125q0.0625 -0.3125 0.0625 -0.96875l0 -4.046875q0 -0.59375 -0.03125 -0.953125q-0.015625 -0.359375 -0.125 -0.578125q-0.109375 -0.21875 -0.34375 -0.3125q-0.21875 -0.109375 -0.640625 -0.1875l0 -0.5l2.171875 -0.078125l0.5625 0l0 6.640625q0 0.796875 0.0625 1.109375q0.078125 0.296875 0.28125 0.46875q0.21875 0.15625 0.6875 0.28125l0 0.453125l-3.625 0l0 -0.453125zm7.683304 -6.984375l0.125 0.03125q0.5625 -0.546875 0.921875 -0.828125q0.359375 -0.296875 0.6875 -0.46875q0.328125 -0.171875 0.625 -0.234375q0.296875 -0.078125 0.59375 -0.078125q0.9375 0 1.515625 0.421875q0.59375 0.421875 0.8125 1.3125q0.6875 -0.703125 1.125 -1.03125q0.4375 -0.34375 0.875 -0.515625q0.453125 -0.1875 0.96875 -0.1875q0.625 0 1.078125 0.1875q0.453125 0.171875 0.765625 0.546875q0.3125 0.375 0.453125 0.953125q0.140625 0.5625 0.140625 1.515625l0 3.5q0 0.703125 0.046875 0.96875q0.046875 0.265625 0.125 0.421875q0.09375 0.140625 0.265625 0.25q0.1875 0.109375 0.59375 0.21875l0 0.453125l-3.640625 0l0 -0.453125q0.359375 -0.109375 0.515625 -0.1875q0.15625 -0.09375 0.265625 -0.234375q0.109375 -0.15625 0.171875 -0.46875q0.0625 -0.3125 0.0625 -0.9375l0 -2.4375q0 -0.78125 -0.046875 -1.296875q-0.046875 -0.515625 -0.140625 -0.8125q-0.078125 -0.3125 -0.203125 -0.484375q-0.125 -0.1875 -0.28125 -0.3125q-0.15625 -0.125 -0.375 -0.203125q-0.203125 -0.078125 -0.5625 -0.078125q-0.375 0 -0.703125 0.15625q-0.3125 0.140625 -0.6875 0.5q-0.375 0.34375 -0.546875 0.703125q-0.15625 0.359375 -0.15625 0.84375l0 3.390625q0 0.703125 0.046875 0.96875q0.046875 0.265625 0.125 0.421875q0.09375 0.140625 0.265625 0.25q0.1875 0.109375 0.59375 0.21875l0 0.453125l-3.640625 0l0 -0.453125q0.359375 -0.109375 0.515625 -0.1875q0.15625 -0.09375 0.265625 -0.234375q0.109375 -0.15625 0.171875 -0.46875q0.0625 -0.3125 0.0625 -0.9375l0 -2.4375q0 -0.8125 -0.046875 -1.328125q-0.046875 -0.53125 -0.15625 -0.84375q-0.09375 -0.3125 -0.25 -0.5q-0.140625 -0.203125 -0.296875 -0.296875q-0.15625 -0.109375 -0.375 -0.15625q-0.21875 -0.0625 -0.484375 -0.0625q-0.375 0 -0.71875 0.171875q-0.328125 0.171875 -0.6875 0.5q-0.34375 0.328125 -0.515625 0.6875q-0.171875 0.34375 -0.171875 0.75l0 3.484375q0 0.515625 0.015625 0.796875q0.03125 0.28125 0.09375 0.4375q0.0625 0.15625 0.15625 0.265625q0.09375 0.09375 0.265625 0.1875q0.171875 0.078125 0.515625 0.171875l0 0.453125l-3.640625 0l0 -0.453125q0.359375 -0.109375 0.5 -0.1875q0.15625 -0.09375 0.265625 -0.234375q0.125 -0.15625 0.171875 -0.453125q0.0625 -0.3125 0.0625 -0.96875l0 -4.046875q0 -0.59375 -0.03125 -0.953125q-0.015625 -0.359375 -0.125 -0.578125q-0.109375 -0.21875 -0.34375 -0.3125q-0.21875 -0.109375 -0.640625 -0.1875l0 -0.5l2.171875 -0.078125l0.5625 0l-0.09375 1.515625zm20.428833 5.859375q-0.59375 0.625 -1.09375 0.984375q-0.5 0.34375 -1.09375 0.546875q-0.59375 0.203125 -1.296875 0.203125q-1.921875 0 -2.890625 -1.140625q-0.96875 -1.15625 -0.96875 -3.390625q0 -1.390625 0.484375 -2.4375q0.5 -1.0625 1.421875 -1.640625q0.921875 -0.578125 2.109375 -0.578125q0.9375 0 1.59375 0.296875q0.671875 0.296875 1.0625 0.8125q0.390625 0.515625 0.609375 1.3125q0.21875 0.78125 0.25 2.03125l-5.84375 0l0 0.171875q0 1.09375 0.234375 1.84375q0.25 0.75 0.8125 1.171875q0.5625 0.421875 1.46875 0.421875q0.75 0 1.359375 -0.28125q0.609375 -0.296875 1.21875 -0.9375l0.5625 0.609375zm-1.5625 -3.765625q-0.046875 -1.0 -0.25 -1.625q-0.1875 -0.640625 -0.578125 -0.984375q-0.390625 -0.34375 -1.015625 -0.34375q-0.96875 0 -1.546875 0.765625q-0.5625 0.765625 -0.65625 2.1875l4.046875 0z" fill-rule="nonzero"></path><path fill="#000000" d="m116.020134 286.4748q1.234375 1.34375 2.125 2.046875q0.90625 0.703125 1.71875 1.046875l0 0.40625q-0.921875 0.453125 -1.796875 1.140625q-0.859375 0.6875 -2.046875 2.03125l-0.71875 0q0.875 -1.875 1.828125 -2.875l-14.796875 0l0 -0.9375l14.796875 0q-0.703125 -0.890625 -0.984375 -1.328125q-0.28125 -0.4375 -0.828125 -1.53125l0.703125 0z" fill-rule="nonzero"></path></g></svg>

