<?xml version="1.0" encoding="utf-8"?>
<!-- Generator: Adobe Illustrator 26.3.1, SVG Export Plug-In . SVG Version: 6.00 Build 0)  -->
<svg version="1.1" id="Layer_1" xmlns="http://www.w3.org/2000/svg" xmlns:xlink="http://www.w3.org/1999/xlink" x="0px" y="0px"
	 viewBox="0 0 160 160" style="enable-background:new 0 0 160 160;" xml:space="preserve">
<style type="text/css">
	.st0{fill:#FFFFFF;}
</style>
<g>
	<g>
		<g>
			<path class="st0" d="M43.6,96.6c0,7.3-5.9,13.2-13.2,13.2s-13.2-5.9-13.2-13.2s5.9-13.2,13.2-13.2h13.2V96.6z"/>
			<path class="st0" d="M50.2,96.6c0-7.3,5.9-13.2,13.2-13.2s13.2,5.9,13.2,13.2v33c0,7.3-5.9,13.2-13.2,13.2s-13.2-5.9-13.2-13.2
				V96.6z"/>
		</g>
		<g>
			<path class="st0" d="M63.4,43.6c-7.3,0-13.2-5.9-13.2-13.2c0-7.3,5.9-13.2,13.2-13.2s13.2,5.9,13.2,13.2v13.2H63.4z"/>
			<path class="st0" d="M63.4,50.3c7.3,0,13.2,5.9,13.2,13.2c0,7.3-5.9,13.2-13.2,13.2H30.3c-7.3,0-13.2-5.9-13.2-13.2
				c0-7.3,5.9-13.2,13.2-13.2H63.4z"/>
		</g>
		<g>
			<path class="st0" d="M116.3,63.5c0-7.3,5.9-13.2,13.2-13.2s13.2,5.9,13.2,13.2c0,7.3-5.9,13.2-13.2,13.2h-13.2V63.5z"/>
			<path class="st0" d="M109.8,63.5c0,7.3-5.9,13.2-13.2,13.2s-13.2-5.9-13.2-13.2V30.4c0-7.3,5.9-13.2,13.2-13.2
				s13.2,5.9,13.2,13.2V63.5z"/>
		</g>
		<g>
			<path class="st0" d="M96.6,116.4c7.3,0,13.2,5.9,13.2,13.2c0,7.3-5.9,13.2-13.2,13.2s-13.2-5.9-13.2-13.2v-13.2H96.6z"/>
			<path class="st0" d="M96.6,109.8c-7.3,0-13.2-5.9-13.2-13.2s5.9-13.2,13.2-13.2h33.1c7.3,0,13.2,5.9,13.2,13.2
				s-5.9,13.2-13.2,13.2H96.6z"/>
		</g>
	</g>
</g>
</svg>
