<?xml version="1.0" encoding="utf-8"?>
<!-- Generator: Adobe Illustrator 26.3.1, SVG Export Plug-In . SVG Version: 6.00 Build 0)  -->
<svg version="1.1" id="Layer_1" xmlns="http://www.w3.org/2000/svg" xmlns:xlink="http://www.w3.org/1999/xlink" x="0px" y="0px"
	 viewBox="0 0 160 160" style="enable-background:new 0 0 160 160;" xml:space="preserve">
<style type="text/css">
	.st0{fill-rule:evenodd;clip-rule:evenodd;fill:#FFFFFF;}
	.st1{fill:#FFFFFF;}
</style>
<g>
	<polygon class="st0" points="115.8,97.9 126.8,97.9 126.8,141.9 27.8,141.9 27.8,97.9 38.8,97.9 38.8,130.9 115.8,130.9 	"/>
	<path class="st1" d="M50.8,94.6l54,11.4l2.3-10.8l-54-11.4L50.8,94.6z M58,68.8l50,23.3l4.7-10l-50-23.3L58,68.8z M71.8,44.2
		l42.4,35.3l7.1-8.5L78.9,35.7L71.8,44.2z M99.2,18.1l-8.9,6.6L123.3,69l8.9-6.6L99.2,18.1z M49.8,119.9h55v-11h-55V119.9z"/>
</g>
</svg>
