<svg id="Layer_1" data-name="Layer 1" xmlns="http://www.w3.org/2000/svg" viewBox="0 0 87 77"><defs><style>.cls-1{fill:#fff;}</style></defs><title>Footer_Assets</title><path class="cls-1" d="M62.87,28.08a2.48,2.48,0,0,0-1,2.07c-.37,10.15-4.51,18.36-13.36,23.53-9.08,5.31-18.45,5-27.68,0l-.27-.17h0l-.05-.08h0l0,0,.08,0c2.24-.32,4.6-.54,6.91-1A16.35,16.35,0,0,0,34,49.26c-4.88-1-8.19-3.55-8.64-6.7h3.71l.13-.23c-4.58-1.49-7.09-4.56-7.43-9.33l4,1.11.15-.27A9.55,9.55,0,0,1,22,27.36a9.34,9.34,0,0,1,1.17-6.11,27.39,27.39,0,0,0,19.49,10,27,27,0,0,1,.49-4.89A9.52,9.52,0,0,1,58.73,22a1.21,1.21,0,0,0,1.37.36l5.05-1.82c-.29,1.43-.91,2.27-3.58,5l4.79-1.27.18.17C65.33,25.63,64.18,27,62.87,28.08Z"/></svg>